%TF.GenerationSoftware,KiCad,Pcbnew,9.0.7*%
%TF.CreationDate,2026-03-05T12:45:39+11:00*%
%TF.ProjectId,video_flx,76696465-6f5f-4666-9c78-2e6b69636164,rev?*%
%TF.SameCoordinates,Original*%
%TF.FileFunction,Copper,L2,Bot*%
%TF.FilePolarity,Positive*%
%FSLAX46Y46*%
G04 Gerber Fmt 4.6, Leading zero omitted, Abs format (unit mm)*
G04 Created by KiCad (PCBNEW 9.0.7) date 2026-03-05 12:45:39*
%MOMM*%
%LPD*%
G01*
G04 APERTURE LIST*
%TA.AperFunction,ComponentPad*%
%ADD10R,8.000000X3.500000*%
%TD*%
%TA.AperFunction,ComponentPad*%
%ADD11R,7.500000X3.500000*%
%TD*%
%TA.AperFunction,ViaPad*%
%ADD12C,0.800000*%
%TD*%
%TA.AperFunction,ViaPad*%
%ADD13C,0.600000*%
%TD*%
%TA.AperFunction,ViaPad*%
%ADD14C,1.000000*%
%TD*%
%TA.AperFunction,Conductor*%
%ADD15C,0.500000*%
%TD*%
%TA.AperFunction,Conductor*%
%ADD16C,0.200000*%
%TD*%
G04 APERTURE END LIST*
D10*
%TO.P,,1*%
%TO.N,GND*%
X178750000Y-109100000D03*
%TD*%
D11*
%TO.P,REF\u002A\u002A,1*%
%TO.N,GND*%
X220525000Y-109100000D03*
%TD*%
D12*
%TO.N,GND*%
X193675000Y-129600000D03*
X209957475Y-117032475D03*
D13*
X197800000Y-136800000D03*
D12*
X210850000Y-116200000D03*
X191450000Y-130675000D03*
X192275000Y-129600000D03*
D13*
X201350000Y-134125000D03*
X216550000Y-114650000D03*
X198100000Y-132325000D03*
X187850000Y-134925000D03*
X198400000Y-134600000D03*
D12*
X189900000Y-130675000D03*
D13*
X213275000Y-130825000D03*
D12*
X212175000Y-115375000D03*
D13*
X201075000Y-137250000D03*
X215325000Y-123700000D03*
D12*
X193200000Y-130675000D03*
X198140000Y-130325000D03*
D13*
X213775000Y-134775000D03*
X188450000Y-136875000D03*
X184275000Y-133750000D03*
D12*
X208525000Y-114700000D03*
X214925000Y-115875000D03*
D13*
X211050000Y-133750000D03*
X207500000Y-135925000D03*
D12*
X195050000Y-130675000D03*
D13*
X211050000Y-130225000D03*
D14*
X206805000Y-116775000D03*
X216645000Y-116775000D03*
D13*
X204250000Y-137250000D03*
X204125000Y-134100000D03*
D12*
X184300000Y-130300000D03*
X213500000Y-115150000D03*
D13*
X194600000Y-136925000D03*
D12*
X213475000Y-117000000D03*
%TO.N,RT*%
X195050000Y-129600000D03*
X227425000Y-111150000D03*
%TO.N,RA*%
X196375000Y-129600000D03*
X227425000Y-114050000D03*
%TO.N,LEDB*%
X188775000Y-128599997D03*
X176825000Y-123375000D03*
%TO.N,LEDG*%
X188100000Y-129600000D03*
X176825000Y-126200000D03*
%TO.N,LEDR*%
X187325000Y-130675000D03*
X178300000Y-128175000D03*
%TD*%
D15*
%TO.N,GND*%
X185450000Y-134925000D02*
X184275000Y-133750000D01*
X187850000Y-134925000D02*
X185450000Y-134925000D01*
D16*
X198140000Y-130325000D02*
X198115000Y-130300000D01*
D15*
X194725000Y-136800000D02*
X194600000Y-136925000D01*
X201075000Y-137250000D02*
X201050000Y-137250000D01*
X205950000Y-135925000D02*
X204125000Y-134100000D01*
X197800000Y-136800000D02*
X194725000Y-136800000D01*
X209675000Y-133750000D02*
X207500000Y-135925000D01*
X213275000Y-130825000D02*
X211650000Y-130825000D01*
X212075000Y-134775000D02*
X211050000Y-133750000D01*
X211650000Y-130825000D02*
X211050000Y-130225000D01*
X201050000Y-137250000D02*
X198400000Y-134600000D01*
X211050000Y-133750000D02*
X209675000Y-133750000D01*
X207500000Y-135925000D02*
X205950000Y-135925000D01*
X213775000Y-134775000D02*
X212075000Y-134775000D01*
D16*
%TO.N,RT*%
X226976000Y-111599000D02*
X213626000Y-111599000D01*
X227425000Y-111150000D02*
X226976000Y-111599000D01*
X208225000Y-117000000D02*
X208225000Y-125950000D01*
X196625000Y-128025000D02*
X195050000Y-129600000D01*
X213626000Y-111599000D02*
X208225000Y-117000000D01*
X208225000Y-125950000D02*
X206150000Y-128025000D01*
X206150000Y-128025000D02*
X196625000Y-128025000D01*
%TO.N,RA*%
X197475000Y-128500000D02*
X196375000Y-129600000D01*
X206350000Y-128500000D02*
X197475000Y-128500000D01*
X214000000Y-112000000D02*
X208725000Y-117275000D01*
X208725000Y-126125000D02*
X206350000Y-128500000D01*
X208725000Y-117275000D02*
X208725000Y-126125000D01*
X227425000Y-114050000D02*
X225375000Y-112000000D01*
X225375000Y-112000000D02*
X214000000Y-112000000D01*
%TO.N,LEDB*%
X176825000Y-123375000D02*
X183550003Y-123375000D01*
X183550003Y-123375000D02*
X188775000Y-128599997D01*
%TO.N,LEDG*%
X188074000Y-128574000D02*
X188074000Y-129574000D01*
X178700000Y-123950000D02*
X176825000Y-125825000D01*
X183450000Y-123950000D02*
X178700000Y-123950000D01*
X176825000Y-125825000D02*
X176825000Y-126200000D01*
X188074000Y-128574000D02*
X183450000Y-123950000D01*
X188074000Y-129574000D02*
X188100000Y-129600000D01*
%TO.N,LEDR*%
X178300000Y-125300000D02*
X178975000Y-124625000D01*
X178300000Y-128175000D02*
X178300000Y-125300000D01*
X182175000Y-124625000D02*
X187325000Y-129775000D01*
X187325000Y-129775000D02*
X187325000Y-130675000D01*
X178975000Y-124625000D02*
X182175000Y-124625000D01*
%TD*%
%TA.AperFunction,Conductor*%
%TO.N,GND*%
G36*
X174193039Y-107295185D02*
G01*
X174238794Y-107347989D01*
X174250000Y-107399500D01*
X174250000Y-108850000D01*
X177524015Y-108850000D01*
X177500000Y-109001623D01*
X177500000Y-109198377D01*
X177524015Y-109350000D01*
X174250000Y-109350000D01*
X174250000Y-110897844D01*
X174256401Y-110957372D01*
X174256403Y-110957379D01*
X174306645Y-111092086D01*
X174306649Y-111092093D01*
X174392809Y-111207187D01*
X174392812Y-111207190D01*
X174507906Y-111293350D01*
X174507913Y-111293354D01*
X174642620Y-111343596D01*
X174642627Y-111343598D01*
X174702155Y-111349999D01*
X174702172Y-111350000D01*
X178500000Y-111350000D01*
X178500000Y-110325985D01*
X178651623Y-110350000D01*
X178848377Y-110350000D01*
X179000000Y-110325985D01*
X179000000Y-111350000D01*
X182797828Y-111350000D01*
X182797844Y-111349999D01*
X182857372Y-111343598D01*
X182857379Y-111343596D01*
X182992086Y-111293354D01*
X182992093Y-111293350D01*
X183107187Y-111207190D01*
X183107190Y-111207187D01*
X183193350Y-111092093D01*
X183193354Y-111092086D01*
X183243596Y-110957379D01*
X183243598Y-110957372D01*
X183248788Y-110909108D01*
X190499500Y-110909108D01*
X190499500Y-126465891D01*
X190533608Y-126593187D01*
X190546620Y-126615724D01*
X190599500Y-126707314D01*
X190692686Y-126800500D01*
X190806814Y-126866392D01*
X190934108Y-126900500D01*
X190934110Y-126900500D01*
X205065890Y-126900500D01*
X205065892Y-126900500D01*
X205193186Y-126866392D01*
X205307314Y-126800500D01*
X205400500Y-126707314D01*
X205466392Y-126593186D01*
X205500500Y-126465892D01*
X205500500Y-110909108D01*
X205466392Y-110781814D01*
X205400500Y-110667686D01*
X205307314Y-110574500D01*
X205250250Y-110541554D01*
X205193187Y-110508608D01*
X205129539Y-110491554D01*
X205065892Y-110474500D01*
X191065892Y-110474500D01*
X190934108Y-110474500D01*
X190806812Y-110508608D01*
X190692686Y-110574500D01*
X190692683Y-110574502D01*
X190599502Y-110667683D01*
X190599500Y-110667686D01*
X190533608Y-110781812D01*
X190499500Y-110909108D01*
X183248788Y-110909108D01*
X183249999Y-110897844D01*
X183250000Y-110897827D01*
X183250000Y-109350000D01*
X179975985Y-109350000D01*
X180000000Y-109198377D01*
X180000000Y-109001623D01*
X179975985Y-108850000D01*
X183250000Y-108850000D01*
X183250000Y-107399500D01*
X183269685Y-107332461D01*
X183322489Y-107286706D01*
X183374000Y-107275500D01*
X216151000Y-107275500D01*
X216218039Y-107295185D01*
X216263794Y-107347989D01*
X216275000Y-107399500D01*
X216275000Y-108850000D01*
X219299015Y-108850000D01*
X219275000Y-109001623D01*
X219275000Y-109198377D01*
X219299015Y-109350000D01*
X216275000Y-109350000D01*
X216275000Y-110874500D01*
X216255315Y-110941539D01*
X216202511Y-110987294D01*
X216151000Y-110998500D01*
X213546940Y-110998500D01*
X213506019Y-111009464D01*
X213506019Y-111009465D01*
X213468751Y-111019451D01*
X213394214Y-111039423D01*
X213394209Y-111039426D01*
X213257290Y-111118475D01*
X213257282Y-111118481D01*
X207744481Y-116631282D01*
X207744477Y-116631287D01*
X207695903Y-116715422D01*
X207695902Y-116715421D01*
X207665424Y-116768211D01*
X207665423Y-116768215D01*
X207624499Y-116920943D01*
X207624499Y-116920945D01*
X207624499Y-117089046D01*
X207624500Y-117089059D01*
X207624500Y-125649903D01*
X207604815Y-125716942D01*
X207588181Y-125737584D01*
X205937584Y-127388181D01*
X205876261Y-127421666D01*
X205849903Y-127424500D01*
X196545940Y-127424500D01*
X196505019Y-127435464D01*
X196505019Y-127435465D01*
X196467751Y-127445451D01*
X196393214Y-127465423D01*
X196393209Y-127465426D01*
X196256290Y-127544475D01*
X196256282Y-127544481D01*
X196199803Y-127600961D01*
X196144480Y-127656284D01*
X196144478Y-127656286D01*
X195627309Y-128173456D01*
X195137584Y-128663181D01*
X195076261Y-128696666D01*
X195049903Y-128699500D01*
X194961306Y-128699500D01*
X194787341Y-128734103D01*
X194787332Y-128734106D01*
X194623459Y-128801983D01*
X194623446Y-128801990D01*
X194475965Y-128900535D01*
X194475961Y-128900538D01*
X194350538Y-129025961D01*
X194350535Y-129025965D01*
X194251990Y-129173446D01*
X194251983Y-129173459D01*
X194184106Y-129337332D01*
X194184103Y-129337341D01*
X194149500Y-129511304D01*
X194149500Y-129688695D01*
X194184103Y-129862658D01*
X194184106Y-129862667D01*
X194251983Y-130026540D01*
X194251990Y-130026553D01*
X194350535Y-130174034D01*
X194350538Y-130174038D01*
X194475961Y-130299461D01*
X194475965Y-130299464D01*
X194623446Y-130398009D01*
X194623459Y-130398016D01*
X194746363Y-130448923D01*
X194787334Y-130465894D01*
X194787336Y-130465894D01*
X194787341Y-130465896D01*
X194961304Y-130500499D01*
X194961307Y-130500500D01*
X194961309Y-130500500D01*
X195138693Y-130500500D01*
X195138694Y-130500499D01*
X195196682Y-130488964D01*
X195312658Y-130465896D01*
X195312661Y-130465894D01*
X195312666Y-130465894D01*
X195476547Y-130398013D01*
X195624035Y-130299464D01*
X195624812Y-130298686D01*
X195625321Y-130298408D01*
X195628745Y-130295599D01*
X195629277Y-130296247D01*
X195686130Y-130265197D01*
X195755822Y-130270175D01*
X195795954Y-130295965D01*
X195796255Y-130295599D01*
X195799401Y-130298181D01*
X195800187Y-130298686D01*
X195800965Y-130299464D01*
X195800968Y-130299466D01*
X195948446Y-130398009D01*
X195948459Y-130398016D01*
X196071363Y-130448923D01*
X196112334Y-130465894D01*
X196112336Y-130465894D01*
X196112341Y-130465896D01*
X196286304Y-130500499D01*
X196286307Y-130500500D01*
X196286309Y-130500500D01*
X196463693Y-130500500D01*
X196463694Y-130500499D01*
X196521682Y-130488964D01*
X196637658Y-130465896D01*
X196637661Y-130465894D01*
X196637666Y-130465894D01*
X196801547Y-130398013D01*
X196949035Y-130299464D01*
X197074464Y-130174035D01*
X197173013Y-130026547D01*
X197240894Y-129862666D01*
X197275500Y-129688691D01*
X197275500Y-129600097D01*
X197295185Y-129533058D01*
X197311819Y-129512416D01*
X197687416Y-129136819D01*
X197748739Y-129103334D01*
X197775097Y-129100500D01*
X206263331Y-129100500D01*
X206263347Y-129100501D01*
X206270943Y-129100501D01*
X206429054Y-129100501D01*
X206429057Y-129100501D01*
X206581785Y-129059577D01*
X206655445Y-129017049D01*
X206718716Y-128980520D01*
X206830520Y-128868716D01*
X206830520Y-128868714D01*
X206840724Y-128858511D01*
X206840728Y-128858506D01*
X209083506Y-126615728D01*
X209083511Y-126615724D01*
X209093714Y-126605520D01*
X209093716Y-126605520D01*
X209205520Y-126493716D01*
X209268531Y-126384577D01*
X209284577Y-126356785D01*
X209325500Y-126204058D01*
X209325500Y-126045943D01*
X209325500Y-117575097D01*
X209345185Y-117508058D01*
X209361819Y-117487416D01*
X214212417Y-112636819D01*
X214273740Y-112603334D01*
X214300098Y-112600500D01*
X225074903Y-112600500D01*
X225141942Y-112620185D01*
X225162584Y-112636819D01*
X226488181Y-113962416D01*
X226521666Y-114023739D01*
X226524500Y-114050097D01*
X226524500Y-114138695D01*
X226559103Y-114312658D01*
X226559106Y-114312667D01*
X226626983Y-114476540D01*
X226626990Y-114476553D01*
X226725535Y-114624034D01*
X226725538Y-114624038D01*
X226850961Y-114749461D01*
X226885288Y-114772398D01*
X226930092Y-114826011D01*
X226938799Y-114895336D01*
X226908644Y-114958363D01*
X226849201Y-114995082D01*
X226816396Y-114999500D01*
X219934108Y-114999500D01*
X219806812Y-115033608D01*
X219692686Y-115099500D01*
X219692683Y-115099502D01*
X219599502Y-115192683D01*
X219599500Y-115192686D01*
X219533608Y-115306812D01*
X219499500Y-115434108D01*
X219499500Y-137775500D01*
X219479815Y-137842539D01*
X219427011Y-137888294D01*
X219375500Y-137899500D01*
X183124500Y-137899500D01*
X183057461Y-137879815D01*
X183011706Y-137827011D01*
X183000500Y-137775500D01*
X183000500Y-129209110D01*
X183000500Y-129209108D01*
X182966392Y-129081814D01*
X182900500Y-128967686D01*
X182807314Y-128874500D01*
X182717655Y-128822735D01*
X182693187Y-128808608D01*
X182629539Y-128791554D01*
X182565892Y-128774500D01*
X182565891Y-128774500D01*
X179211953Y-128774500D01*
X179144914Y-128754815D01*
X179099159Y-128702011D01*
X179089215Y-128632853D01*
X179097392Y-128603048D01*
X179135394Y-128511301D01*
X179165894Y-128437666D01*
X179200500Y-128263691D01*
X179200500Y-128086309D01*
X179200500Y-128086306D01*
X179200499Y-128086304D01*
X179165896Y-127912341D01*
X179165893Y-127912332D01*
X179161005Y-127900532D01*
X179148923Y-127871363D01*
X179098016Y-127748459D01*
X179098009Y-127748446D01*
X178999464Y-127600965D01*
X178999461Y-127600961D01*
X178936819Y-127538319D01*
X178903334Y-127476996D01*
X178900500Y-127450638D01*
X178900500Y-125600097D01*
X178920185Y-125533058D01*
X178936819Y-125512416D01*
X179187416Y-125261819D01*
X179248739Y-125228334D01*
X179275097Y-125225500D01*
X181874903Y-125225500D01*
X181941942Y-125245185D01*
X181962584Y-125261819D01*
X186625951Y-129925186D01*
X186659436Y-129986509D01*
X186654452Y-130056201D01*
X186628951Y-130095885D01*
X186629401Y-130096255D01*
X186626234Y-130100113D01*
X186625961Y-130100539D01*
X186625538Y-130100961D01*
X186625535Y-130100965D01*
X186526990Y-130248446D01*
X186526983Y-130248459D01*
X186459106Y-130412332D01*
X186459103Y-130412341D01*
X186424500Y-130586304D01*
X186424500Y-130763695D01*
X186459103Y-130937658D01*
X186459106Y-130937667D01*
X186526983Y-131101540D01*
X186526990Y-131101553D01*
X186625535Y-131249034D01*
X186625538Y-131249038D01*
X186750961Y-131374461D01*
X186750965Y-131374464D01*
X186898446Y-131473009D01*
X186898459Y-131473016D01*
X187021363Y-131523923D01*
X187062334Y-131540894D01*
X187062336Y-131540894D01*
X187062341Y-131540896D01*
X187236304Y-131575499D01*
X187236307Y-131575500D01*
X187236309Y-131575500D01*
X187413693Y-131575500D01*
X187413694Y-131575499D01*
X187471682Y-131563964D01*
X187587658Y-131540896D01*
X187587661Y-131540894D01*
X187587666Y-131540894D01*
X187751547Y-131473013D01*
X187899035Y-131374464D01*
X188024464Y-131249035D01*
X188123013Y-131101547D01*
X188190894Y-130937666D01*
X188225500Y-130763691D01*
X188225500Y-130594941D01*
X188245185Y-130527902D01*
X188297989Y-130482147D01*
X188325303Y-130473325D01*
X188362666Y-130465894D01*
X188526547Y-130398013D01*
X188674035Y-130299464D01*
X188799464Y-130174035D01*
X188898013Y-130026547D01*
X188965894Y-129862666D01*
X189000500Y-129688691D01*
X189000500Y-129564139D01*
X189020185Y-129497100D01*
X189072989Y-129451345D01*
X189076992Y-129449601D01*
X189201547Y-129398010D01*
X189349035Y-129299461D01*
X189474464Y-129174032D01*
X189573013Y-129026544D01*
X189573255Y-129025961D01*
X189592075Y-128980524D01*
X189640894Y-128862663D01*
X189675500Y-128688688D01*
X189675500Y-128511306D01*
X189675500Y-128511303D01*
X189675499Y-128511301D01*
X189640896Y-128337338D01*
X189640893Y-128337329D01*
X189573016Y-128173456D01*
X189573009Y-128173443D01*
X189474464Y-128025962D01*
X189474461Y-128025958D01*
X189349038Y-127900535D01*
X189349034Y-127900532D01*
X189201553Y-127801987D01*
X189201540Y-127801980D01*
X189037667Y-127734103D01*
X189037658Y-127734100D01*
X188863694Y-127699497D01*
X188863691Y-127699497D01*
X188775098Y-127699497D01*
X188708059Y-127679812D01*
X188687417Y-127663178D01*
X184037593Y-123013355D01*
X184037591Y-123013352D01*
X183918720Y-122894481D01*
X183918719Y-122894480D01*
X183831907Y-122844360D01*
X183831907Y-122844359D01*
X183831903Y-122844358D01*
X183781788Y-122815423D01*
X183629060Y-122774499D01*
X183470946Y-122774499D01*
X183463350Y-122774499D01*
X183463334Y-122774500D01*
X177549361Y-122774500D01*
X177482322Y-122754815D01*
X177461684Y-122738185D01*
X177399035Y-122675536D01*
X177399034Y-122675535D01*
X177399033Y-122675534D01*
X177251553Y-122576990D01*
X177251540Y-122576983D01*
X177087667Y-122509106D01*
X177087658Y-122509103D01*
X176913694Y-122474500D01*
X176913691Y-122474500D01*
X176736309Y-122474500D01*
X176736306Y-122474500D01*
X176562341Y-122509103D01*
X176562332Y-122509106D01*
X176398459Y-122576983D01*
X176398446Y-122576990D01*
X176250965Y-122675535D01*
X176250961Y-122675538D01*
X176125538Y-122800961D01*
X176125535Y-122800965D01*
X176026990Y-122948446D01*
X176026983Y-122948459D01*
X175959106Y-123112332D01*
X175959103Y-123112341D01*
X175924500Y-123286304D01*
X175924500Y-123463695D01*
X175959103Y-123637658D01*
X175959106Y-123637667D01*
X176026983Y-123801540D01*
X176026990Y-123801553D01*
X176125535Y-123949034D01*
X176125538Y-123949038D01*
X176250961Y-124074461D01*
X176250965Y-124074464D01*
X176398446Y-124173009D01*
X176398459Y-124173016D01*
X176521363Y-124223923D01*
X176562334Y-124240894D01*
X176562336Y-124240894D01*
X176562341Y-124240896D01*
X176736304Y-124275499D01*
X176736307Y-124275500D01*
X176736309Y-124275500D01*
X176913693Y-124275500D01*
X176913694Y-124275499D01*
X176971682Y-124263964D01*
X177087658Y-124240896D01*
X177087661Y-124240894D01*
X177087666Y-124240894D01*
X177251547Y-124173013D01*
X177338491Y-124114918D01*
X177405167Y-124094041D01*
X177472547Y-124112525D01*
X177519237Y-124164503D01*
X177530414Y-124233473D01*
X177502529Y-124297537D01*
X177495062Y-124305702D01*
X176456284Y-125344480D01*
X176408061Y-125392702D01*
X176389274Y-125408119D01*
X176349035Y-125435006D01*
X176250965Y-125500535D01*
X176250961Y-125500538D01*
X176125538Y-125625961D01*
X176125535Y-125625965D01*
X176026990Y-125773446D01*
X176026983Y-125773459D01*
X175959106Y-125937332D01*
X175959103Y-125937341D01*
X175924500Y-126111304D01*
X175924500Y-126288695D01*
X175959103Y-126462658D01*
X175959106Y-126462667D01*
X176026983Y-126626540D01*
X176026990Y-126626553D01*
X176125535Y-126774034D01*
X176125538Y-126774038D01*
X176250961Y-126899461D01*
X176250965Y-126899464D01*
X176398446Y-126998009D01*
X176398459Y-126998016D01*
X176521363Y-127048923D01*
X176562334Y-127065894D01*
X176562336Y-127065894D01*
X176562341Y-127065896D01*
X176736304Y-127100499D01*
X176736307Y-127100500D01*
X176736309Y-127100500D01*
X176913693Y-127100500D01*
X176913694Y-127100499D01*
X176971682Y-127088964D01*
X177087658Y-127065896D01*
X177087661Y-127065894D01*
X177087666Y-127065894D01*
X177251547Y-126998013D01*
X177399035Y-126899464D01*
X177432108Y-126866391D01*
X177487819Y-126810681D01*
X177549142Y-126777196D01*
X177618834Y-126782180D01*
X177674767Y-126824052D01*
X177699184Y-126889516D01*
X177699500Y-126898362D01*
X177699500Y-127450638D01*
X177679815Y-127517677D01*
X177663181Y-127538319D01*
X177600538Y-127600961D01*
X177600535Y-127600965D01*
X177501990Y-127748446D01*
X177501983Y-127748459D01*
X177434106Y-127912332D01*
X177434103Y-127912341D01*
X177399500Y-128086304D01*
X177399500Y-128263695D01*
X177434103Y-128437658D01*
X177434106Y-128437667D01*
X177502608Y-128603048D01*
X177510077Y-128672518D01*
X177478801Y-128734997D01*
X177418712Y-128770648D01*
X177388047Y-128774500D01*
X174124500Y-128774500D01*
X174057461Y-128754815D01*
X174011706Y-128702011D01*
X174000500Y-128650500D01*
X174000500Y-107399500D01*
X174020185Y-107332461D01*
X174072989Y-107286706D01*
X174124500Y-107275500D01*
X174126000Y-107275500D01*
X174193039Y-107295185D01*
G37*
%TD.AperFunction*%
%TA.AperFunction,Conductor*%
G36*
X233442539Y-107295185D02*
G01*
X233488294Y-107347989D01*
X233499500Y-107399500D01*
X233499500Y-114875500D01*
X233479815Y-114942539D01*
X233427011Y-114988294D01*
X233375500Y-114999500D01*
X228033604Y-114999500D01*
X227966565Y-114979815D01*
X227920810Y-114927011D01*
X227910866Y-114857853D01*
X227939891Y-114794297D01*
X227964712Y-114772398D01*
X227999035Y-114749464D01*
X228124464Y-114624035D01*
X228223013Y-114476547D01*
X228290894Y-114312666D01*
X228325500Y-114138691D01*
X228325500Y-113961309D01*
X228325500Y-113961306D01*
X228325499Y-113961304D01*
X228290896Y-113787341D01*
X228290893Y-113787332D01*
X228223016Y-113623459D01*
X228223009Y-113623446D01*
X228124464Y-113475965D01*
X228124461Y-113475961D01*
X227999038Y-113350538D01*
X227999034Y-113350535D01*
X227851553Y-113251990D01*
X227851540Y-113251983D01*
X227687667Y-113184106D01*
X227687658Y-113184103D01*
X227513694Y-113149500D01*
X227513691Y-113149500D01*
X227425098Y-113149500D01*
X227358059Y-113129815D01*
X227337417Y-113113181D01*
X226635416Y-112411181D01*
X226624803Y-112391744D01*
X226610303Y-112375011D01*
X226608386Y-112361679D01*
X226601931Y-112349858D01*
X226603510Y-112327771D01*
X226600359Y-112305853D01*
X226605954Y-112293601D01*
X226606915Y-112280167D01*
X226620184Y-112262440D01*
X226629384Y-112242297D01*
X226640714Y-112235015D01*
X226648786Y-112224233D01*
X226669533Y-112216494D01*
X226688162Y-112204523D01*
X226710080Y-112201371D01*
X226714251Y-112199816D01*
X226723097Y-112199500D01*
X226889331Y-112199500D01*
X226889347Y-112199501D01*
X226896943Y-112199501D01*
X227055054Y-112199501D01*
X227055057Y-112199501D01*
X227207785Y-112158577D01*
X227257904Y-112129639D01*
X227344716Y-112079520D01*
X227349005Y-112075230D01*
X227361061Y-112068033D01*
X227388187Y-112061029D01*
X227414316Y-112050930D01*
X227424628Y-112050500D01*
X227513693Y-112050500D01*
X227513694Y-112050499D01*
X227571682Y-112038964D01*
X227687658Y-112015896D01*
X227687661Y-112015894D01*
X227687666Y-112015894D01*
X227851547Y-111948013D01*
X227999035Y-111849464D01*
X228124464Y-111724035D01*
X228223013Y-111576547D01*
X228290894Y-111412666D01*
X228303360Y-111349999D01*
X228325499Y-111238695D01*
X228325500Y-111238693D01*
X228325500Y-111061306D01*
X228325499Y-111061304D01*
X228290896Y-110887341D01*
X228290893Y-110887332D01*
X228223016Y-110723459D01*
X228223009Y-110723446D01*
X228124464Y-110575965D01*
X228124461Y-110575961D01*
X227999038Y-110450538D01*
X227999034Y-110450535D01*
X227851553Y-110351990D01*
X227851540Y-110351983D01*
X227687667Y-110284106D01*
X227687658Y-110284103D01*
X227513694Y-110249500D01*
X227513691Y-110249500D01*
X227336309Y-110249500D01*
X227336306Y-110249500D01*
X227162341Y-110284103D01*
X227162332Y-110284106D01*
X226998459Y-110351983D01*
X226998446Y-110351990D01*
X226850965Y-110450535D01*
X226850961Y-110450538D01*
X226725538Y-110575961D01*
X226725535Y-110575965D01*
X226626990Y-110723446D01*
X226626983Y-110723459D01*
X226559106Y-110887332D01*
X226559105Y-110887338D01*
X226558023Y-110892774D01*
X226557016Y-110897844D01*
X226556848Y-110898687D01*
X226524465Y-110960600D01*
X226463750Y-110995176D01*
X226435230Y-110998500D01*
X224899000Y-110998500D01*
X224831961Y-110978815D01*
X224786206Y-110926011D01*
X224775000Y-110874500D01*
X224775000Y-109350000D01*
X221750985Y-109350000D01*
X221775000Y-109198377D01*
X221775000Y-109001623D01*
X221750985Y-108850000D01*
X224775000Y-108850000D01*
X224775000Y-107399500D01*
X224794685Y-107332461D01*
X224847489Y-107286706D01*
X224899000Y-107275500D01*
X224934108Y-107275500D01*
X233375500Y-107275500D01*
X233442539Y-107295185D01*
G37*
%TD.AperFunction*%
%TD*%
M02*
