%TF.GenerationSoftware,KiCad,Pcbnew,9.0.7*%
%TF.CreationDate,2026-03-05T12:45:39+11:00*%
%TF.ProjectId,video_flx,76696465-6f5f-4666-9c78-2e6b69636164,rev?*%
%TF.SameCoordinates,Original*%
%TF.FileFunction,Paste,Top*%
%TF.FilePolarity,Positive*%
%FSLAX46Y46*%
G04 Gerber Fmt 4.6, Leading zero omitted, Abs format (unit mm)*
G04 Created by KiCad (PCBNEW 9.0.7) date 2026-03-05 12:45:39*
%MOMM*%
%LPD*%
G01*
G04 APERTURE LIST*
%ADD10R,0.300000X1.100000*%
%ADD11R,2.300000X3.100000*%
G04 APERTURE END LIST*
D10*
%TO.C,VIDEO*%
X214975000Y-118475000D03*
X214475000Y-118475000D03*
X213975000Y-118475000D03*
X213475000Y-118475000D03*
X212975000Y-118475000D03*
X212475000Y-118475000D03*
X211975000Y-118475000D03*
X211475000Y-118475000D03*
X210975000Y-118475000D03*
X210475000Y-118475000D03*
X209975000Y-118475000D03*
X209475000Y-118475000D03*
X208975000Y-118475000D03*
X208475000Y-118475000D03*
D11*
X216645000Y-116775000D03*
X206805000Y-116775000D03*
%TD*%
D10*
%TO.C,AUDIO & IO*%
X196470000Y-132025000D03*
X195970000Y-132025000D03*
X195470000Y-132025000D03*
X194970000Y-132025000D03*
X194470000Y-132025000D03*
X193970000Y-132025000D03*
X193470000Y-132025000D03*
X192970000Y-132025000D03*
X192470000Y-132025000D03*
X191970000Y-132025000D03*
X191470000Y-132025000D03*
X190970000Y-132025000D03*
X190470000Y-132025000D03*
X189970000Y-132025000D03*
X189470000Y-132025000D03*
X188970000Y-132025000D03*
X188470000Y-132025000D03*
X187970000Y-132025000D03*
X187470000Y-132025000D03*
X186970000Y-132025000D03*
X186470000Y-132025000D03*
X185970000Y-132025000D03*
D11*
X198140000Y-130325000D03*
X184300000Y-130325000D03*
%TD*%
M02*
