%TF.GenerationSoftware,KiCad,Pcbnew,9.0.7*%
%TF.CreationDate,2026-03-05T12:45:39+11:00*%
%TF.ProjectId,video_flx,76696465-6f5f-4666-9c78-2e6b69636164,rev?*%
%TF.SameCoordinates,Original*%
%TF.FileFunction,Copper,L1,Top*%
%TF.FilePolarity,Positive*%
%FSLAX46Y46*%
G04 Gerber Fmt 4.6, Leading zero omitted, Abs format (unit mm)*
G04 Created by KiCad (PCBNEW 9.0.7) date 2026-03-05 12:45:39*
%MOMM*%
%LPD*%
G01*
G04 APERTURE LIST*
%TA.AperFunction,SMDPad,CuDef*%
%ADD10R,2.000000X2.000000*%
%TD*%
%TA.AperFunction,SMDPad,CuDef*%
%ADD11R,1.500000X1.500000*%
%TD*%
%TA.AperFunction,ComponentPad*%
%ADD12R,8.000000X3.500000*%
%TD*%
%TA.AperFunction,ComponentPad*%
%ADD13R,7.500000X3.500000*%
%TD*%
%TA.AperFunction,SMDPad,CuDef*%
%ADD14R,0.300000X1.100000*%
%TD*%
%TA.AperFunction,SMDPad,CuDef*%
%ADD15R,2.300000X3.100000*%
%TD*%
%TA.AperFunction,ViaPad*%
%ADD16C,0.800000*%
%TD*%
%TA.AperFunction,ViaPad*%
%ADD17C,0.600000*%
%TD*%
%TA.AperFunction,ViaPad*%
%ADD18C,1.000000*%
%TD*%
%TA.AperFunction,Conductor*%
%ADD19C,1.000000*%
%TD*%
%TA.AperFunction,Conductor*%
%ADD20C,0.200000*%
%TD*%
%TA.AperFunction,Conductor*%
%ADD21C,0.250000*%
%TD*%
%TA.AperFunction,Conductor*%
%ADD22C,0.500000*%
%TD*%
G04 APERTURE END LIST*
D10*
%TO.P,,1,1*%
%TO.N,VSYS*%
X181425000Y-118875000D03*
%TD*%
%TO.P,,1,1*%
%TO.N,VSYS*%
X181425000Y-113795000D03*
%TD*%
%TO.P,,1,1*%
%TO.N,GND*%
X186325000Y-118880000D03*
%TD*%
%TO.P,,1,1*%
%TO.N,GND*%
X186325000Y-113800000D03*
%TD*%
D11*
%TO.P,HS,1,1*%
%TO.N,HS*%
X218500000Y-126950000D03*
%TD*%
D12*
%TO.P,,1*%
%TO.N,GND*%
X178750000Y-109100000D03*
%TD*%
D11*
%TO.P,G,1,1*%
%TO.N,LEDG*%
X174975000Y-124925000D03*
%TD*%
%TO.P,G,1,1*%
%TO.N,GND*%
X175050000Y-113275000D03*
%TD*%
%TO.P,1V8,1,1*%
%TO.N,+1V8*%
X190000000Y-136875000D03*
%TD*%
%TO.P,CV,1,1*%
%TO.N,CV*%
X212250000Y-136875000D03*
%TD*%
%TO.P,D,1,1*%
%TO.N,D*%
X202675000Y-136875000D03*
%TD*%
D10*
%TO.P,,1,1*%
%TO.N,5V*%
X183875000Y-118880000D03*
%TD*%
D11*
%TO.P,R,1,1*%
%TO.N,RA*%
X232450000Y-114050000D03*
%TD*%
D13*
%TO.P,REF\u002A\u002A,1*%
%TO.N,GND*%
X220525000Y-109100000D03*
%TD*%
D11*
%TO.P,G,1,1*%
%TO.N,GREEN*%
X218500000Y-133600000D03*
%TD*%
%TO.P,LT,1,1*%
%TO.N,LT*%
X175050000Y-116150000D03*
%TD*%
%TO.P,B,1,1*%
%TO.N,BLUE*%
X218600000Y-136875000D03*
%TD*%
D10*
%TO.P,,1,1*%
%TO.N,5V*%
X183875000Y-113800000D03*
%TD*%
D11*
%TO.P,MC,1,1*%
%TO.N,MC*%
X209175000Y-136875000D03*
%TD*%
D10*
%TO.P,,1,1*%
%TO.N,3V3*%
X188772800Y-113792000D03*
%TD*%
D11*
%TO.P,R,1,1*%
%TO.N,LEDR*%
X175000000Y-127750000D03*
%TD*%
D10*
%TO.P,,1,1*%
%TO.N,3V3*%
X188772800Y-118872000D03*
%TD*%
D11*
%TO.P,B,1,1*%
%TO.N,LEDB*%
X175000000Y-122000000D03*
%TD*%
%TO.P,WS,1,1*%
%TO.N,WS*%
X199450000Y-136875000D03*
%TD*%
%TO.P,G,1,1*%
%TO.N,GND*%
X232450000Y-108300000D03*
%TD*%
%TO.P,L,1,1*%
%TO.N,L*%
X186950000Y-136875000D03*
%TD*%
%TO.P,VS,1,1*%
%TO.N,VS*%
X218475000Y-123650000D03*
%TD*%
%TO.P,BT,1,1*%
%TO.N,BT*%
X193050000Y-136875000D03*
%TD*%
%TO.P,C,1,1*%
%TO.N,C*%
X205875000Y-136875000D03*
%TD*%
D14*
%TO.P,VIDEO,1,Pin_1*%
%TO.N,GND*%
X214975000Y-118475000D03*
%TO.P,VIDEO,2,Pin_2*%
%TO.N,VS*%
X214475000Y-118475000D03*
%TO.P,VIDEO,3,Pin_3*%
%TO.N,HS*%
X213975000Y-118475000D03*
%TO.P,VIDEO,4,Pin_4*%
%TO.N,GND*%
X213475000Y-118475000D03*
%TO.P,VIDEO,5,Pin_5*%
%TO.N,RED*%
X212975000Y-118475000D03*
%TO.P,VIDEO,6,Pin_6*%
%TO.N,GND*%
X212475000Y-118475000D03*
%TO.P,VIDEO,7,Pin_7*%
%TO.N,GREEN*%
X211975000Y-118475000D03*
%TO.P,VIDEO,8,Pin_8*%
%TO.N,GND*%
X211475000Y-118475000D03*
%TO.P,VIDEO,9,Pin_9*%
%TO.N,BLUE*%
X210975000Y-118475000D03*
%TO.P,VIDEO,10,Pin_10*%
%TO.N,GND*%
X210475000Y-118475000D03*
%TO.P,VIDEO,11,Pin_11*%
%TO.N,CV*%
X209975000Y-118475000D03*
%TO.P,VIDEO,12,Pin_12*%
%TO.N,GND*%
X209475000Y-118475000D03*
%TO.P,VIDEO,13,Pin_13*%
%TO.N,MODE*%
X208975000Y-118475000D03*
%TO.P,VIDEO,14,Pin_14*%
%TO.N,GND*%
X208475000Y-118475000D03*
D15*
%TO.P,VIDEO,MP,MountPin*%
X216645000Y-116775000D03*
X206805000Y-116775000D03*
%TD*%
D11*
%TO.P,L,1,1*%
%TO.N,LA*%
X175050000Y-119025000D03*
%TD*%
%TO.P,RT,1,1*%
%TO.N,RT*%
X232450000Y-111150000D03*
%TD*%
%TO.P,DATA,1,1*%
%TO.N,CDATA*%
X196200000Y-136875000D03*
%TD*%
D14*
%TO.P,AUDIO & IO,1,Pin_1*%
%TO.N,RA*%
X196470000Y-132025000D03*
%TO.P,AUDIO & IO,2,Pin_2*%
%TO.N,RT*%
X195970000Y-132025000D03*
%TO.P,AUDIO & IO,3,Pin_3*%
%TO.N,GND*%
X195470000Y-132025000D03*
%TO.P,AUDIO & IO,4,Pin_4*%
%TO.N,MC*%
X194970000Y-132025000D03*
%TO.P,AUDIO & IO,5,Pin_5*%
%TO.N,GND*%
X194470000Y-132025000D03*
%TO.P,AUDIO & IO,6,Pin_6*%
%TO.N,C*%
X193970000Y-132025000D03*
%TO.P,AUDIO & IO,7,Pin_7*%
%TO.N,GND*%
X193470000Y-132025000D03*
%TO.P,AUDIO & IO,8,Pin_8*%
%TO.N,D*%
X192970000Y-132025000D03*
%TO.P,AUDIO & IO,9,Pin_9*%
%TO.N,GND*%
X192470000Y-132025000D03*
%TO.P,AUDIO & IO,10,Pin_10*%
%TO.N,WS*%
X191970000Y-132025000D03*
%TO.P,AUDIO & IO,11,Pin_11*%
%TO.N,GND*%
X191470000Y-132025000D03*
%TO.P,AUDIO & IO,12,Pin_12*%
%TO.N,CDATA*%
X190970000Y-132025000D03*
%TO.P,AUDIO & IO,13,Pin_13*%
%TO.N,BT*%
X190470000Y-132025000D03*
%TO.P,AUDIO & IO,14,Pin_14*%
%TO.N,+1V8*%
X189970000Y-132025000D03*
%TO.P,AUDIO & IO,15*%
%TO.N,GND*%
X189470000Y-132025000D03*
%TO.P,AUDIO & IO,16*%
%TO.N,LEDB*%
X188970000Y-132025000D03*
%TO.P,AUDIO & IO,17*%
%TO.N,LEDG*%
X188470000Y-132025000D03*
%TO.P,AUDIO & IO,18*%
%TO.N,LEDR*%
X187970000Y-132025000D03*
%TO.P,AUDIO & IO,19*%
%TO.N,L*%
X187470000Y-132025000D03*
%TO.P,AUDIO & IO,20*%
%TO.N,R*%
X186970000Y-132025000D03*
%TO.P,AUDIO & IO,21*%
%TO.N,LT*%
X186470000Y-132025000D03*
%TO.P,AUDIO & IO,22*%
%TO.N,LA*%
X185970000Y-132025000D03*
D15*
%TO.P,AUDIO & IO,MP,MountPin*%
%TO.N,GND*%
X198140000Y-130325000D03*
X184300000Y-130325000D03*
%TD*%
D11*
%TO.P,MODE,1,1*%
%TO.N,MODE*%
X221000000Y-113975000D03*
%TD*%
%TO.P,R,1,1*%
%TO.N,R*%
X184025000Y-136875000D03*
%TD*%
%TO.P,R,1,1*%
%TO.N,RED*%
X218475000Y-130475000D03*
%TD*%
D16*
%TO.N,GND*%
X193675000Y-129600000D03*
X209957475Y-117032475D03*
D17*
X197800000Y-136800000D03*
D16*
X210850000Y-116200000D03*
X191450000Y-130675000D03*
X192275000Y-129600000D03*
D17*
X201350000Y-134125000D03*
X216550000Y-114650000D03*
X198100000Y-132325000D03*
X187850000Y-134925000D03*
X198400000Y-134600000D03*
D16*
X189900000Y-130675000D03*
D17*
X213275000Y-130825000D03*
D16*
X212175000Y-115375000D03*
D17*
X201075000Y-137250000D03*
X215325000Y-123700000D03*
D16*
X193200000Y-130675000D03*
X198140000Y-130325000D03*
D17*
X213775000Y-134775000D03*
X188450000Y-136875000D03*
X184275000Y-133750000D03*
D16*
X208525000Y-114700000D03*
X214925000Y-115875000D03*
D17*
X211050000Y-133750000D03*
X207500000Y-135925000D03*
D16*
X195050000Y-130675000D03*
D17*
X211050000Y-130225000D03*
D18*
X206805000Y-116775000D03*
X216645000Y-116775000D03*
D17*
X204250000Y-137250000D03*
X204125000Y-134100000D03*
D16*
X184300000Y-130300000D03*
X213500000Y-115150000D03*
D17*
X194600000Y-136925000D03*
D16*
X213475000Y-117000000D03*
%TO.N,RT*%
X195050000Y-129600000D03*
X227425000Y-111150000D03*
%TO.N,RA*%
X196375000Y-129600000D03*
X227425000Y-114050000D03*
%TO.N,LEDB*%
X188775000Y-128599997D03*
X176825000Y-123375000D03*
%TO.N,LEDG*%
X188100000Y-129600000D03*
X176825000Y-126200000D03*
%TO.N,LEDR*%
X187325000Y-130675000D03*
X178300000Y-128175000D03*
%TD*%
D19*
%TO.N,VSYS*%
X181425000Y-113795000D02*
X181425000Y-118875000D01*
%TO.N,GND*%
X183825000Y-109100000D02*
X178750000Y-109100000D01*
X186325000Y-111600000D02*
X183825000Y-109100000D01*
X186325000Y-113800000D02*
X186325000Y-111600000D01*
X186325000Y-113800000D02*
X186325000Y-118880000D01*
%TO.N,3V3*%
X188772800Y-113792000D02*
X188772800Y-118872000D01*
%TO.N,5V*%
X183875000Y-113800000D02*
X183875000Y-118880000D01*
D20*
%TO.N,RED*%
X218475000Y-129750000D02*
X212975000Y-124250000D01*
X213000000Y-118450000D02*
X212975000Y-118475000D01*
X218475000Y-130475000D02*
X218475000Y-129750000D01*
X212975000Y-124250000D02*
X212975000Y-118425000D01*
%TO.N,GREEN*%
X218500000Y-133075000D02*
X211975000Y-126550000D01*
X211975000Y-126100000D02*
X211975000Y-118525000D01*
X211975000Y-126550000D02*
X211975000Y-126100000D01*
X218500000Y-133600000D02*
X218500000Y-133075000D01*
%TO.N,BLUE*%
X217075000Y-135350000D02*
X217075000Y-132825000D01*
X218600000Y-136875000D02*
X217075000Y-135350000D01*
X217075000Y-132825000D02*
X210975000Y-126725000D01*
X210975000Y-126725000D02*
X210975000Y-118500000D01*
%TO.N,HS*%
X217450000Y-126950000D02*
X213975000Y-123475000D01*
X213975000Y-123475000D02*
X213975000Y-118475000D01*
X218500000Y-126950000D02*
X217450000Y-126950000D01*
%TO.N,VS*%
X214475000Y-121875000D02*
X214475000Y-118475000D01*
X216250000Y-123650000D02*
X214475000Y-121875000D01*
X218475000Y-123650000D02*
X216250000Y-123650000D01*
%TO.N,CV*%
X209975000Y-126842100D02*
X212250000Y-129117100D01*
X211850000Y-136875000D02*
X212150000Y-136575000D01*
X209993274Y-118456726D02*
X209975000Y-118475000D01*
X209975000Y-118450000D02*
X209975000Y-126842100D01*
X212250000Y-129117100D02*
X212250000Y-136875000D01*
%TO.N,MODE*%
X221000000Y-113975000D02*
X211650000Y-113975000D01*
X211650000Y-113975000D02*
X208975000Y-116650000D01*
X208975000Y-116650000D02*
X208975000Y-118475000D01*
%TO.N,GND*%
X208500000Y-118450000D02*
X208475000Y-118475000D01*
D21*
X209475000Y-118475000D02*
X209475000Y-117514950D01*
X209475000Y-117514950D02*
X209957475Y-117032475D01*
D20*
X195470000Y-131045000D02*
X195470000Y-132025000D01*
X194470000Y-130045000D02*
X194470000Y-132025000D01*
X192470000Y-129795000D02*
X192470000Y-132025000D01*
X191450000Y-132005000D02*
X191470000Y-132025000D01*
X193200000Y-130675000D02*
X193470000Y-130945000D01*
X192500000Y-131970000D02*
X192470000Y-132000000D01*
D22*
X198100000Y-130365000D02*
X198140000Y-130325000D01*
D20*
X191450000Y-130675000D02*
X191450000Y-132005000D01*
X214925000Y-115875000D02*
X214975000Y-115925000D01*
D22*
X216550000Y-114650000D02*
X216550000Y-116680000D01*
D21*
X211475000Y-116075000D02*
X212175000Y-115375000D01*
X213475000Y-118475000D02*
X213475000Y-117000000D01*
D20*
X194025000Y-129600000D02*
X194470000Y-130045000D01*
X189475000Y-131995000D02*
X189470000Y-132000000D01*
D21*
X212475000Y-116175000D02*
X213500000Y-115150000D01*
D20*
X193470000Y-130945000D02*
X193470000Y-132025000D01*
X192275000Y-129600000D02*
X192470000Y-129795000D01*
D21*
X211475000Y-118475000D02*
X211475000Y-116075000D01*
D20*
X189475000Y-131100000D02*
X189475000Y-132020000D01*
D21*
X212475000Y-118475000D02*
X212475000Y-116175000D01*
D22*
X198100000Y-132325000D02*
X198100000Y-130365000D01*
D21*
X210475000Y-116575000D02*
X210850000Y-116200000D01*
D20*
X209524000Y-118548000D02*
X209426000Y-118450000D01*
X193675000Y-129600000D02*
X194025000Y-129600000D01*
D21*
X210475000Y-118475000D02*
X210475000Y-116575000D01*
X208500000Y-114725000D02*
X208500000Y-118450000D01*
X214975000Y-115925000D02*
X214975000Y-118475000D01*
D20*
X208525000Y-114700000D02*
X208500000Y-114725000D01*
X189475000Y-132020000D02*
X189470000Y-132025000D01*
D22*
X216550000Y-116680000D02*
X216645000Y-116775000D01*
D20*
X195100000Y-130675000D02*
X195470000Y-131045000D01*
X189900000Y-130675000D02*
X189475000Y-131100000D01*
D22*
X221325000Y-108300000D02*
X220525000Y-109100000D01*
D20*
X191500000Y-131970000D02*
X191470000Y-132000000D01*
%TO.N,MC*%
X194970000Y-132827000D02*
X194970000Y-132025000D01*
X209175000Y-136875000D02*
X209175000Y-136225000D01*
X209175000Y-136225000D02*
X205950000Y-133000000D01*
X205950000Y-133000000D02*
X195143000Y-133000000D01*
X195143000Y-133000000D02*
X194970000Y-132827000D01*
%TO.N,WS*%
X196825000Y-134250000D02*
X193393000Y-134250000D01*
X199450000Y-136875000D02*
X196825000Y-134250000D01*
X191970000Y-132827000D02*
X191970000Y-132025000D01*
X193393000Y-134250000D02*
X191970000Y-132827000D01*
%TO.N,CDATA*%
X192801000Y-134651000D02*
X191775000Y-133625000D01*
X191775000Y-133625000D02*
X191768000Y-133625000D01*
X191019000Y-132025000D02*
X190970000Y-132025000D01*
X195276000Y-134651000D02*
X192801000Y-134651000D01*
X190970000Y-132827000D02*
X190970000Y-132025000D01*
X196200000Y-136875000D02*
X196200000Y-135575000D01*
X196200000Y-135575000D02*
X195276000Y-134651000D01*
X191768000Y-133625000D02*
X190970000Y-132827000D01*
%TO.N,D*%
X199625000Y-133825000D02*
X193900000Y-133825000D01*
X193900000Y-133825000D02*
X192970000Y-132895000D01*
X202675000Y-136875000D02*
X199625000Y-133825000D01*
X192970000Y-132895000D02*
X192970000Y-132025000D01*
%TO.N,BT*%
X190470000Y-133845000D02*
X190470000Y-132025000D01*
X193050000Y-136875000D02*
X193050000Y-136425000D01*
X193050000Y-136425000D02*
X190470000Y-133845000D01*
%TO.N,+1V8*%
X190000000Y-132055000D02*
X189970000Y-132025000D01*
X190000000Y-136875000D02*
X190000000Y-132055000D01*
%TO.N,C*%
X193970000Y-132827000D02*
X193970000Y-132025000D01*
X204800000Y-133425000D02*
X194568000Y-133425000D01*
X205875000Y-136875000D02*
X205875000Y-134500000D01*
X205875000Y-134500000D02*
X204800000Y-133425000D01*
X194568000Y-133425000D02*
X193970000Y-132827000D01*
%TO.N,L*%
X186475000Y-136400000D02*
X186475000Y-134992100D01*
X186950000Y-136875000D02*
X186475000Y-136400000D01*
X186950000Y-136875000D02*
X186525000Y-136450000D01*
X187421000Y-134046100D02*
X187421000Y-132074000D01*
X187421000Y-132074000D02*
X187470000Y-132025000D01*
X186475000Y-134992100D02*
X187421000Y-134046100D01*
%TO.N,R*%
X186970000Y-133930000D02*
X186970000Y-132025000D01*
X186981752Y-131988248D02*
X186970000Y-132000000D01*
X184025000Y-136875000D02*
X186970000Y-133930000D01*
%TO.N,RT*%
X195970000Y-130520000D02*
X195970000Y-132025000D01*
X232450000Y-111150000D02*
X227425000Y-111150000D01*
X195050000Y-129600000D02*
X195970000Y-130520000D01*
%TO.N,RA*%
X232450000Y-114050000D02*
X227425000Y-114050000D01*
X196375000Y-129600000D02*
X196470000Y-129695000D01*
X196470000Y-129695000D02*
X196470000Y-132025000D01*
%TO.N,LEDB*%
X188970000Y-128794997D02*
X188970000Y-132025000D01*
X188775000Y-128599997D02*
X188970000Y-128794997D01*
X176375000Y-123375000D02*
X176825000Y-123375000D01*
X175000000Y-122000000D02*
X176375000Y-123375000D01*
%TO.N,LEDG*%
X188100000Y-129600000D02*
X188470000Y-129970000D01*
X174975000Y-124925000D02*
X176250000Y-126200000D01*
X188470000Y-129970000D02*
X188470000Y-132025000D01*
X188475000Y-131995000D02*
X188470000Y-132000000D01*
X176250000Y-126200000D02*
X176825000Y-126200000D01*
%TO.N,LEDR*%
X187325000Y-130675000D02*
X187970000Y-131320000D01*
X187970000Y-131320000D02*
X187970000Y-132025000D01*
X177875000Y-127750000D02*
X175000000Y-127750000D01*
X178300000Y-128175000D02*
X177875000Y-127750000D01*
%TO.N,LT*%
X175050000Y-116579200D02*
X186470000Y-127999200D01*
X175050000Y-116150000D02*
X175050000Y-116579200D01*
X186519000Y-132049000D02*
X186470000Y-132000000D01*
X186470000Y-127999200D02*
X186470000Y-132025000D01*
%TO.N,LA*%
X176928700Y-119025000D02*
X185970000Y-128066300D01*
X175050000Y-119025000D02*
X176928700Y-119025000D01*
X185970000Y-128066300D02*
X185970000Y-132025000D01*
%TD*%
%TA.AperFunction,Conductor*%
%TO.N,GND*%
G36*
X189286291Y-133075470D02*
G01*
X189314003Y-133086306D01*
X189342539Y-133094685D01*
X189346180Y-133098887D01*
X189351363Y-133100914D01*
X189368817Y-133125011D01*
X189388294Y-133147489D01*
X189389085Y-133152994D01*
X189392349Y-133157500D01*
X189399500Y-133199000D01*
X189399500Y-135500500D01*
X189379815Y-135567539D01*
X189327011Y-135613294D01*
X189275502Y-135624500D01*
X189202130Y-135624500D01*
X189202123Y-135624501D01*
X189142516Y-135630908D01*
X189007671Y-135681202D01*
X189007664Y-135681206D01*
X188892455Y-135767452D01*
X188892452Y-135767455D01*
X188806206Y-135882664D01*
X188806202Y-135882671D01*
X188755908Y-136017517D01*
X188749501Y-136077116D01*
X188749501Y-136077125D01*
X188749500Y-136077135D01*
X188749500Y-137672870D01*
X188749501Y-137672876D01*
X188755909Y-137732487D01*
X188757692Y-137740031D01*
X188756375Y-137740342D01*
X188760775Y-137801858D01*
X188727291Y-137863181D01*
X188665968Y-137896666D01*
X188639609Y-137899500D01*
X188310391Y-137899500D01*
X188243352Y-137879815D01*
X188197597Y-137827011D01*
X188187653Y-137757853D01*
X188193633Y-137734422D01*
X188194091Y-137732483D01*
X188200500Y-137672873D01*
X188200499Y-136077128D01*
X188194091Y-136017517D01*
X188166918Y-135944663D01*
X188143797Y-135882671D01*
X188143793Y-135882664D01*
X188057547Y-135767455D01*
X188057544Y-135767452D01*
X187942335Y-135681206D01*
X187942328Y-135681202D01*
X187807482Y-135630908D01*
X187807483Y-135630908D01*
X187747883Y-135624501D01*
X187747881Y-135624500D01*
X187747873Y-135624500D01*
X187747865Y-135624500D01*
X187199500Y-135624500D01*
X187190814Y-135621949D01*
X187181853Y-135623238D01*
X187157812Y-135612259D01*
X187132461Y-135604815D01*
X187126533Y-135597974D01*
X187118297Y-135594213D01*
X187104007Y-135571978D01*
X187086706Y-135552011D01*
X187084418Y-135541496D01*
X187080523Y-135535435D01*
X187075500Y-135500500D01*
X187075500Y-135292196D01*
X187095185Y-135225157D01*
X187111815Y-135204519D01*
X187779506Y-134536827D01*
X187779511Y-134536824D01*
X187789714Y-134526620D01*
X187789716Y-134526620D01*
X187901520Y-134414816D01*
X187953075Y-134325520D01*
X187980577Y-134277885D01*
X188021501Y-134125157D01*
X188021501Y-133967043D01*
X188021501Y-133959448D01*
X188021500Y-133959430D01*
X188021500Y-133199499D01*
X188022891Y-133194760D01*
X188021870Y-133189929D01*
X188032638Y-133161565D01*
X188041185Y-133132460D01*
X188044916Y-133129226D01*
X188046670Y-133124608D01*
X188071069Y-133106564D01*
X188093989Y-133086705D01*
X188099962Y-133085198D01*
X188102848Y-133083065D01*
X188121664Y-133079727D01*
X188137379Y-133075765D01*
X188141432Y-133075499D01*
X188167872Y-133075499D01*
X188209320Y-133071042D01*
X188211880Y-133070875D01*
X188213869Y-133071320D01*
X188233252Y-133071320D01*
X188272127Y-133075500D01*
X188667872Y-133075499D01*
X188667873Y-133075498D01*
X188667885Y-133075498D01*
X188706744Y-133071320D01*
X188733252Y-133071320D01*
X188772127Y-133075500D01*
X189167872Y-133075499D01*
X189184282Y-133073735D01*
X189209094Y-133071068D01*
X189228816Y-133071068D01*
X189233140Y-133070827D01*
X189286291Y-133075470D01*
G37*
%TD.AperFunction*%
%TA.AperFunction,Conductor*%
G36*
X195042942Y-135271185D02*
G01*
X195063584Y-135287819D01*
X195252809Y-135477044D01*
X195286294Y-135538367D01*
X195281310Y-135608059D01*
X195239438Y-135663992D01*
X195208474Y-135680902D01*
X195207678Y-135681198D01*
X195207664Y-135681206D01*
X195092455Y-135767452D01*
X195092452Y-135767455D01*
X195006206Y-135882664D01*
X195006202Y-135882671D01*
X194955908Y-136017517D01*
X194949501Y-136077116D01*
X194949501Y-136077125D01*
X194949500Y-136077135D01*
X194949500Y-137672870D01*
X194949501Y-137672876D01*
X194955909Y-137732487D01*
X194957692Y-137740031D01*
X194956375Y-137740342D01*
X194960775Y-137801858D01*
X194927291Y-137863181D01*
X194865968Y-137896666D01*
X194839609Y-137899500D01*
X194410391Y-137899500D01*
X194343352Y-137879815D01*
X194297597Y-137827011D01*
X194287653Y-137757853D01*
X194293633Y-137734422D01*
X194294091Y-137732483D01*
X194300500Y-137672873D01*
X194300499Y-136077128D01*
X194294091Y-136017517D01*
X194266918Y-135944663D01*
X194243797Y-135882671D01*
X194243793Y-135882664D01*
X194157547Y-135767455D01*
X194157544Y-135767452D01*
X194042335Y-135681206D01*
X194042328Y-135681202D01*
X193907482Y-135630908D01*
X193907483Y-135630908D01*
X193847883Y-135624501D01*
X193847881Y-135624500D01*
X193847873Y-135624500D01*
X193847865Y-135624500D01*
X193150097Y-135624500D01*
X193120656Y-135615855D01*
X193090670Y-135609332D01*
X193085654Y-135605577D01*
X193083058Y-135604815D01*
X193062416Y-135588181D01*
X192937416Y-135463181D01*
X192903931Y-135401858D01*
X192908915Y-135332166D01*
X192950787Y-135276233D01*
X193016251Y-135251816D01*
X193025097Y-135251500D01*
X194975903Y-135251500D01*
X195042942Y-135271185D01*
G37*
%TD.AperFunction*%
%TA.AperFunction,Conductor*%
G36*
X197639633Y-135916653D02*
G01*
X197656593Y-135930828D01*
X198163181Y-136437416D01*
X198196666Y-136498739D01*
X198199500Y-136525097D01*
X198199500Y-137672870D01*
X198199501Y-137672876D01*
X198205909Y-137732487D01*
X198207692Y-137740031D01*
X198206375Y-137740342D01*
X198210775Y-137801858D01*
X198177291Y-137863181D01*
X198115968Y-137896666D01*
X198089609Y-137899500D01*
X197560391Y-137899500D01*
X197493352Y-137879815D01*
X197447597Y-137827011D01*
X197437653Y-137757853D01*
X197443633Y-137734422D01*
X197444091Y-137732483D01*
X197450500Y-137672873D01*
X197450499Y-136077128D01*
X197445622Y-136031761D01*
X197458028Y-135963004D01*
X197505639Y-135911867D01*
X197573338Y-135894588D01*
X197639633Y-135916653D01*
G37*
%TD.AperFunction*%
%TA.AperFunction,Conductor*%
G36*
X200892642Y-135944663D02*
G01*
X200909604Y-135958839D01*
X201388181Y-136437416D01*
X201421666Y-136498739D01*
X201424500Y-136525097D01*
X201424500Y-137672870D01*
X201424501Y-137672876D01*
X201430909Y-137732487D01*
X201432692Y-137740031D01*
X201431375Y-137740342D01*
X201435775Y-137801858D01*
X201402291Y-137863181D01*
X201340968Y-137896666D01*
X201314609Y-137899500D01*
X200810391Y-137899500D01*
X200743352Y-137879815D01*
X200697597Y-137827011D01*
X200687653Y-137757853D01*
X200693633Y-137734422D01*
X200694091Y-137732483D01*
X200700500Y-137672873D01*
X200700499Y-136077128D01*
X200700499Y-136077125D01*
X200700498Y-136077112D01*
X200698634Y-136059776D01*
X200711038Y-135991017D01*
X200758648Y-135939879D01*
X200826347Y-135922599D01*
X200892642Y-135944663D01*
G37*
%TD.AperFunction*%
%TA.AperFunction,Conductor*%
G36*
X204566942Y-134045185D02*
G01*
X204587584Y-134061819D01*
X205238181Y-134712416D01*
X205271666Y-134773739D01*
X205274500Y-134800097D01*
X205274500Y-135500500D01*
X205254815Y-135567539D01*
X205202011Y-135613294D01*
X205150502Y-135624500D01*
X205077130Y-135624500D01*
X205077123Y-135624501D01*
X205017516Y-135630908D01*
X204882671Y-135681202D01*
X204882664Y-135681206D01*
X204767455Y-135767452D01*
X204767452Y-135767455D01*
X204681206Y-135882664D01*
X204681202Y-135882671D01*
X204630908Y-136017517D01*
X204624501Y-136077116D01*
X204624501Y-136077125D01*
X204624500Y-136077135D01*
X204624500Y-137672870D01*
X204624501Y-137672876D01*
X204630909Y-137732487D01*
X204632692Y-137740031D01*
X204631375Y-137740342D01*
X204635775Y-137801858D01*
X204602291Y-137863181D01*
X204540968Y-137896666D01*
X204514609Y-137899500D01*
X204035391Y-137899500D01*
X203968352Y-137879815D01*
X203922597Y-137827011D01*
X203912653Y-137757853D01*
X203918633Y-137734422D01*
X203919091Y-137732483D01*
X203925500Y-137672873D01*
X203925499Y-136077128D01*
X203919091Y-136017517D01*
X203891918Y-135944663D01*
X203868797Y-135882671D01*
X203868793Y-135882664D01*
X203782547Y-135767455D01*
X203782544Y-135767452D01*
X203667335Y-135681206D01*
X203667328Y-135681202D01*
X203532482Y-135630908D01*
X203532483Y-135630908D01*
X203472883Y-135624501D01*
X203472881Y-135624500D01*
X203472873Y-135624500D01*
X203472865Y-135624500D01*
X202325097Y-135624500D01*
X202258058Y-135604815D01*
X202237416Y-135588181D01*
X200886416Y-134237181D01*
X200852931Y-134175858D01*
X200857915Y-134106166D01*
X200899787Y-134050233D01*
X200965251Y-134025816D01*
X200974097Y-134025500D01*
X204499903Y-134025500D01*
X204566942Y-134045185D01*
G37*
%TD.AperFunction*%
%TA.AperFunction,Conductor*%
G36*
X206680703Y-134580384D02*
G01*
X206687178Y-134586413D01*
X207307048Y-135206284D01*
X207925460Y-135824696D01*
X207958945Y-135886019D01*
X207953961Y-135955710D01*
X207930908Y-136017517D01*
X207924501Y-136077116D01*
X207924501Y-136077125D01*
X207924500Y-136077135D01*
X207924500Y-137672870D01*
X207924501Y-137672876D01*
X207930909Y-137732487D01*
X207932692Y-137740031D01*
X207931375Y-137740342D01*
X207935775Y-137801858D01*
X207902291Y-137863181D01*
X207840968Y-137896666D01*
X207814609Y-137899500D01*
X207235391Y-137899500D01*
X207168352Y-137879815D01*
X207122597Y-137827011D01*
X207112653Y-137757853D01*
X207118633Y-137734422D01*
X207119091Y-137732483D01*
X207125500Y-137672873D01*
X207125499Y-136077128D01*
X207119091Y-136017517D01*
X207091918Y-135944663D01*
X207068797Y-135882671D01*
X207068793Y-135882664D01*
X206982547Y-135767455D01*
X206982544Y-135767452D01*
X206867335Y-135681206D01*
X206867328Y-135681202D01*
X206732482Y-135630908D01*
X206732483Y-135630908D01*
X206672883Y-135624501D01*
X206672881Y-135624500D01*
X206672873Y-135624500D01*
X206672865Y-135624500D01*
X206599500Y-135624500D01*
X206532461Y-135604815D01*
X206486706Y-135552011D01*
X206475500Y-135500500D01*
X206475500Y-134674097D01*
X206495185Y-134607058D01*
X206547989Y-134561303D01*
X206617147Y-134551359D01*
X206680703Y-134580384D01*
G37*
%TD.AperFunction*%
%TA.AperFunction,Conductor*%
G36*
X174193039Y-107295185D02*
G01*
X174238794Y-107347989D01*
X174250000Y-107399500D01*
X174250000Y-108850000D01*
X177524015Y-108850000D01*
X177500000Y-109001623D01*
X177500000Y-109198377D01*
X177524015Y-109350000D01*
X174250000Y-109350000D01*
X174250000Y-110897844D01*
X174256401Y-110957372D01*
X174256403Y-110957379D01*
X174306645Y-111092086D01*
X174306649Y-111092093D01*
X174392809Y-111207187D01*
X174392812Y-111207190D01*
X174507906Y-111293350D01*
X174507913Y-111293354D01*
X174642620Y-111343596D01*
X174642627Y-111343598D01*
X174702155Y-111349999D01*
X174702172Y-111350000D01*
X178500000Y-111350000D01*
X178500000Y-110325985D01*
X178651623Y-110350000D01*
X178848377Y-110350000D01*
X179000000Y-110325985D01*
X179000000Y-111350000D01*
X182797828Y-111350000D01*
X182797844Y-111349999D01*
X182857372Y-111343598D01*
X182857379Y-111343596D01*
X182992086Y-111293354D01*
X182992093Y-111293350D01*
X183107187Y-111207190D01*
X183107190Y-111207187D01*
X183193350Y-111092093D01*
X183193354Y-111092086D01*
X183243596Y-110957379D01*
X183243598Y-110957372D01*
X183249999Y-110897844D01*
X183250000Y-110897827D01*
X183250000Y-109350000D01*
X179975985Y-109350000D01*
X180000000Y-109198377D01*
X180000000Y-109001623D01*
X179975985Y-108850000D01*
X183250000Y-108850000D01*
X183250000Y-107399500D01*
X183269685Y-107332461D01*
X183322489Y-107286706D01*
X183374000Y-107275500D01*
X216151000Y-107275500D01*
X216218039Y-107295185D01*
X216263794Y-107347989D01*
X216275000Y-107399500D01*
X216275000Y-108850000D01*
X219299015Y-108850000D01*
X219275000Y-109001623D01*
X219275000Y-109198377D01*
X219299015Y-109350000D01*
X216275000Y-109350000D01*
X216275000Y-110897844D01*
X216281401Y-110957372D01*
X216281403Y-110957379D01*
X216331645Y-111092086D01*
X216331649Y-111092093D01*
X216417809Y-111207187D01*
X216417812Y-111207190D01*
X216532906Y-111293350D01*
X216532913Y-111293354D01*
X216667620Y-111343596D01*
X216667627Y-111343598D01*
X216727155Y-111349999D01*
X216727172Y-111350000D01*
X220275000Y-111350000D01*
X220275000Y-110325985D01*
X220426623Y-110350000D01*
X220623377Y-110350000D01*
X220775000Y-110325985D01*
X220775000Y-111350000D01*
X224322828Y-111350000D01*
X224322844Y-111349999D01*
X224382372Y-111343598D01*
X224382379Y-111343596D01*
X224517086Y-111293354D01*
X224517093Y-111293350D01*
X224632187Y-111207190D01*
X224632190Y-111207187D01*
X224718350Y-111092093D01*
X224718354Y-111092086D01*
X224768596Y-110957379D01*
X224768598Y-110957372D01*
X224774999Y-110897844D01*
X224775000Y-110897827D01*
X224775000Y-109350000D01*
X221750985Y-109350000D01*
X221775000Y-109198377D01*
X221775000Y-109097844D01*
X231200000Y-109097844D01*
X231206401Y-109157372D01*
X231206403Y-109157379D01*
X231256645Y-109292086D01*
X231256649Y-109292093D01*
X231342809Y-109407187D01*
X231342812Y-109407190D01*
X231457906Y-109493350D01*
X231457913Y-109493354D01*
X231592620Y-109543596D01*
X231592627Y-109543598D01*
X231652155Y-109549999D01*
X231652172Y-109550000D01*
X232200000Y-109550000D01*
X232200000Y-108550000D01*
X231200000Y-108550000D01*
X231200000Y-109097844D01*
X221775000Y-109097844D01*
X221775000Y-109001623D01*
X221750985Y-108850000D01*
X224775000Y-108850000D01*
X224775000Y-107399500D01*
X224794685Y-107332461D01*
X224847489Y-107286706D01*
X224899000Y-107275500D01*
X224934108Y-107275500D01*
X231090142Y-107275500D01*
X231157181Y-107295185D01*
X231202936Y-107347989D01*
X231212880Y-107417147D01*
X231206718Y-107441283D01*
X231206401Y-107442627D01*
X231200000Y-107502155D01*
X231200000Y-108050000D01*
X232326000Y-108050000D01*
X232393039Y-108069685D01*
X232438794Y-108122489D01*
X232450000Y-108174000D01*
X232450000Y-108300000D01*
X232576000Y-108300000D01*
X232643039Y-108319685D01*
X232688794Y-108372489D01*
X232700000Y-108424000D01*
X232700000Y-109550000D01*
X233247828Y-109550000D01*
X233247844Y-109549999D01*
X233307372Y-109543598D01*
X233307377Y-109543597D01*
X233332164Y-109534352D01*
X233362776Y-109532161D01*
X233393147Y-109527795D01*
X233397300Y-109529691D01*
X233401856Y-109529366D01*
X233428791Y-109544073D01*
X233456703Y-109556820D01*
X233459171Y-109560661D01*
X233463180Y-109562850D01*
X233477887Y-109589784D01*
X233494477Y-109615598D01*
X233495368Y-109621796D01*
X233496666Y-109624173D01*
X233499500Y-109650533D01*
X233499500Y-109798933D01*
X233479815Y-109865972D01*
X233427011Y-109911727D01*
X233357853Y-109921671D01*
X233332168Y-109915115D01*
X233307485Y-109905909D01*
X233307483Y-109905908D01*
X233247883Y-109899501D01*
X233247881Y-109899500D01*
X233247873Y-109899500D01*
X233247864Y-109899500D01*
X231652129Y-109899500D01*
X231652123Y-109899501D01*
X231592516Y-109905908D01*
X231457671Y-109956202D01*
X231457664Y-109956206D01*
X231342455Y-110042452D01*
X231342452Y-110042455D01*
X231256206Y-110157664D01*
X231256202Y-110157671D01*
X231205908Y-110292517D01*
X231199501Y-110352116D01*
X231199500Y-110352135D01*
X231199500Y-110425500D01*
X231179815Y-110492539D01*
X231127011Y-110538294D01*
X231075500Y-110549500D01*
X228149361Y-110549500D01*
X228082322Y-110529815D01*
X228061684Y-110513185D01*
X227999035Y-110450536D01*
X227999034Y-110450535D01*
X227999033Y-110450534D01*
X227851553Y-110351990D01*
X227851540Y-110351983D01*
X227687667Y-110284106D01*
X227687658Y-110284103D01*
X227513694Y-110249500D01*
X227513691Y-110249500D01*
X227336309Y-110249500D01*
X227336306Y-110249500D01*
X227162341Y-110284103D01*
X227162332Y-110284106D01*
X226998459Y-110351983D01*
X226998446Y-110351990D01*
X226850965Y-110450535D01*
X226850961Y-110450538D01*
X226725538Y-110575961D01*
X226725535Y-110575965D01*
X226626990Y-110723446D01*
X226626983Y-110723459D01*
X226559106Y-110887332D01*
X226559103Y-110887341D01*
X226524500Y-111061304D01*
X226524500Y-111238695D01*
X226559103Y-111412658D01*
X226559106Y-111412667D01*
X226626983Y-111576540D01*
X226626990Y-111576553D01*
X226725535Y-111724034D01*
X226725538Y-111724038D01*
X226850961Y-111849461D01*
X226850965Y-111849464D01*
X226998446Y-111948009D01*
X226998459Y-111948016D01*
X227121363Y-111998923D01*
X227162334Y-112015894D01*
X227162336Y-112015894D01*
X227162341Y-112015896D01*
X227336304Y-112050499D01*
X227336307Y-112050500D01*
X227336309Y-112050500D01*
X227513693Y-112050500D01*
X227513694Y-112050499D01*
X227571682Y-112038964D01*
X227687658Y-112015896D01*
X227687661Y-112015894D01*
X227687666Y-112015894D01*
X227851547Y-111948013D01*
X227999035Y-111849464D01*
X228061681Y-111786817D01*
X228123002Y-111753334D01*
X228149361Y-111750500D01*
X231075501Y-111750500D01*
X231142540Y-111770185D01*
X231188295Y-111822989D01*
X231199501Y-111874500D01*
X231199501Y-111947876D01*
X231205908Y-112007483D01*
X231256202Y-112142328D01*
X231256206Y-112142335D01*
X231342452Y-112257544D01*
X231342455Y-112257547D01*
X231457664Y-112343793D01*
X231457671Y-112343797D01*
X231592517Y-112394091D01*
X231592516Y-112394091D01*
X231597288Y-112394604D01*
X231652127Y-112400500D01*
X233247872Y-112400499D01*
X233307483Y-112394091D01*
X233332165Y-112384884D01*
X233362775Y-112382694D01*
X233393147Y-112378328D01*
X233397300Y-112380224D01*
X233401856Y-112379899D01*
X233428786Y-112394604D01*
X233456703Y-112407353D01*
X233459172Y-112411195D01*
X233463180Y-112413384D01*
X233477885Y-112440314D01*
X233494477Y-112466131D01*
X233495368Y-112472329D01*
X233496666Y-112474706D01*
X233499500Y-112501066D01*
X233499500Y-112698933D01*
X233479815Y-112765972D01*
X233427011Y-112811727D01*
X233357853Y-112821671D01*
X233332168Y-112815115D01*
X233307485Y-112805909D01*
X233307483Y-112805908D01*
X233247883Y-112799501D01*
X233247881Y-112799500D01*
X233247873Y-112799500D01*
X233247864Y-112799500D01*
X231652129Y-112799500D01*
X231652123Y-112799501D01*
X231592516Y-112805908D01*
X231457671Y-112856202D01*
X231457664Y-112856206D01*
X231342455Y-112942452D01*
X231342452Y-112942455D01*
X231256206Y-113057664D01*
X231256202Y-113057671D01*
X231205908Y-113192517D01*
X231199501Y-113252116D01*
X231199500Y-113252135D01*
X231199500Y-113325500D01*
X231179815Y-113392539D01*
X231127011Y-113438294D01*
X231075500Y-113449500D01*
X228149361Y-113449500D01*
X228082322Y-113429815D01*
X228061684Y-113413185D01*
X227999035Y-113350536D01*
X227999034Y-113350535D01*
X227999033Y-113350534D01*
X227851553Y-113251990D01*
X227851540Y-113251983D01*
X227687667Y-113184106D01*
X227687658Y-113184103D01*
X227513694Y-113149500D01*
X227513691Y-113149500D01*
X227336309Y-113149500D01*
X227336306Y-113149500D01*
X227162341Y-113184103D01*
X227162332Y-113184106D01*
X226998459Y-113251983D01*
X226998446Y-113251990D01*
X226850965Y-113350535D01*
X226850961Y-113350538D01*
X226725538Y-113475961D01*
X226725535Y-113475965D01*
X226626990Y-113623446D01*
X226626983Y-113623459D01*
X226559106Y-113787332D01*
X226559103Y-113787341D01*
X226524500Y-113961304D01*
X226524500Y-114138695D01*
X226559103Y-114312658D01*
X226559106Y-114312667D01*
X226626983Y-114476540D01*
X226626990Y-114476553D01*
X226725535Y-114624034D01*
X226725538Y-114624038D01*
X226850961Y-114749461D01*
X226885288Y-114772398D01*
X226930092Y-114826011D01*
X226938799Y-114895336D01*
X226908644Y-114958363D01*
X226849201Y-114995082D01*
X226816396Y-114999500D01*
X222360391Y-114999500D01*
X222293352Y-114979815D01*
X222247597Y-114927011D01*
X222237653Y-114857853D01*
X222243633Y-114834422D01*
X222244091Y-114832483D01*
X222247716Y-114798766D01*
X222250500Y-114772873D01*
X222250499Y-113177128D01*
X222244091Y-113117517D01*
X222221767Y-113057664D01*
X222193797Y-112982671D01*
X222193793Y-112982664D01*
X222107547Y-112867455D01*
X222107544Y-112867452D01*
X221992335Y-112781206D01*
X221992328Y-112781202D01*
X221857482Y-112730908D01*
X221857483Y-112730908D01*
X221797883Y-112724501D01*
X221797881Y-112724500D01*
X221797873Y-112724500D01*
X221797864Y-112724500D01*
X220202129Y-112724500D01*
X220202123Y-112724501D01*
X220142516Y-112730908D01*
X220007671Y-112781202D01*
X220007664Y-112781206D01*
X219892455Y-112867452D01*
X219892452Y-112867455D01*
X219806206Y-112982664D01*
X219806202Y-112982671D01*
X219755908Y-113117517D01*
X219752470Y-113149500D01*
X219749501Y-113177123D01*
X219749500Y-113177135D01*
X219749500Y-113250500D01*
X219729815Y-113317539D01*
X219677011Y-113363294D01*
X219625500Y-113374500D01*
X211729057Y-113374500D01*
X211570942Y-113374500D01*
X211418215Y-113415423D01*
X211418214Y-113415423D01*
X211418212Y-113415424D01*
X211418209Y-113415425D01*
X211368096Y-113444359D01*
X211368095Y-113444360D01*
X211324689Y-113469420D01*
X211281285Y-113494479D01*
X211281282Y-113494481D01*
X208666681Y-116109083D01*
X208605358Y-116142568D01*
X208535666Y-116137584D01*
X208479733Y-116095712D01*
X208455316Y-116030248D01*
X208455000Y-116021402D01*
X208455000Y-115177172D01*
X208454999Y-115177155D01*
X208448598Y-115117627D01*
X208448596Y-115117620D01*
X208398354Y-114982913D01*
X208398350Y-114982906D01*
X208312190Y-114867812D01*
X208312187Y-114867809D01*
X208197093Y-114781649D01*
X208197086Y-114781645D01*
X208062379Y-114731403D01*
X208062372Y-114731401D01*
X208002844Y-114725000D01*
X207055000Y-114725000D01*
X207055000Y-118825000D01*
X207701000Y-118825000D01*
X207768039Y-118844685D01*
X207813794Y-118897489D01*
X207825000Y-118949000D01*
X207825000Y-119072844D01*
X207831401Y-119132372D01*
X207831403Y-119132379D01*
X207881645Y-119267086D01*
X207881649Y-119267093D01*
X207967809Y-119382187D01*
X207967812Y-119382190D01*
X208082906Y-119468350D01*
X208082913Y-119468354D01*
X208217620Y-119518596D01*
X208217627Y-119518598D01*
X208277155Y-119524999D01*
X208277172Y-119525000D01*
X208325000Y-119525000D01*
X208325000Y-119523627D01*
X208328794Y-119510703D01*
X208327834Y-119497268D01*
X208338447Y-119477831D01*
X208344685Y-119456588D01*
X208354862Y-119447769D01*
X208361319Y-119435945D01*
X208380757Y-119425331D01*
X208397489Y-119410833D01*
X208410819Y-119408916D01*
X208422642Y-119402461D01*
X208444728Y-119404040D01*
X208466647Y-119400889D01*
X208480417Y-119406592D01*
X208492334Y-119407445D01*
X208523308Y-119424358D01*
X208575312Y-119463288D01*
X208611111Y-119511111D01*
X208625000Y-119525000D01*
X208672819Y-119525000D01*
X208672833Y-119524999D01*
X208709395Y-119521068D01*
X208735905Y-119521068D01*
X208777127Y-119525500D01*
X209172872Y-119525499D01*
X209181711Y-119524548D01*
X209214094Y-119521068D01*
X209240604Y-119521067D01*
X209263755Y-119523556D01*
X209328306Y-119550294D01*
X209368154Y-119607687D01*
X209374500Y-119646846D01*
X209374500Y-126755430D01*
X209374499Y-126755448D01*
X209374499Y-126921154D01*
X209374498Y-126921154D01*
X209415423Y-127073887D01*
X209436029Y-127109575D01*
X209436030Y-127109578D01*
X209494475Y-127210809D01*
X209494481Y-127210817D01*
X209613349Y-127329685D01*
X209613355Y-127329690D01*
X211613181Y-129329516D01*
X211646666Y-129390839D01*
X211649500Y-129417197D01*
X211649500Y-135500500D01*
X211629815Y-135567539D01*
X211577011Y-135613294D01*
X211525502Y-135624500D01*
X211452130Y-135624500D01*
X211452123Y-135624501D01*
X211392516Y-135630908D01*
X211257671Y-135681202D01*
X211257664Y-135681206D01*
X211142455Y-135767452D01*
X211142452Y-135767455D01*
X211056206Y-135882664D01*
X211056202Y-135882671D01*
X211005908Y-136017517D01*
X210999501Y-136077116D01*
X210999501Y-136077125D01*
X210999500Y-136077135D01*
X210999500Y-137672870D01*
X210999501Y-137672876D01*
X211005909Y-137732487D01*
X211007692Y-137740031D01*
X211006375Y-137740342D01*
X211010775Y-137801858D01*
X210977291Y-137863181D01*
X210915968Y-137896666D01*
X210889609Y-137899500D01*
X210535391Y-137899500D01*
X210468352Y-137879815D01*
X210422597Y-137827011D01*
X210412653Y-137757853D01*
X210418633Y-137734422D01*
X210419091Y-137732483D01*
X210425500Y-137672873D01*
X210425499Y-136077128D01*
X210419091Y-136017517D01*
X210391918Y-135944663D01*
X210368797Y-135882671D01*
X210368793Y-135882664D01*
X210282547Y-135767455D01*
X210282544Y-135767452D01*
X210167335Y-135681206D01*
X210167328Y-135681202D01*
X210032482Y-135630908D01*
X210032483Y-135630908D01*
X209972883Y-135624501D01*
X209972881Y-135624500D01*
X209972873Y-135624500D01*
X209972865Y-135624500D01*
X209475098Y-135624500D01*
X209408059Y-135604815D01*
X209387417Y-135588181D01*
X206437590Y-132638355D01*
X206437588Y-132638352D01*
X206318717Y-132519481D01*
X206318716Y-132519480D01*
X206231904Y-132469360D01*
X206231904Y-132469359D01*
X206231900Y-132469358D01*
X206181785Y-132440423D01*
X206029057Y-132399499D01*
X205870943Y-132399499D01*
X205863347Y-132399499D01*
X205863331Y-132399500D01*
X199769662Y-132399500D01*
X199702623Y-132379815D01*
X199656868Y-132327011D01*
X199646924Y-132257853D01*
X199670396Y-132201188D01*
X199733352Y-132117089D01*
X199733354Y-132117086D01*
X199783596Y-131982379D01*
X199783598Y-131982372D01*
X199789999Y-131922844D01*
X199790000Y-131922827D01*
X199790000Y-130575000D01*
X198264000Y-130575000D01*
X198196961Y-130555315D01*
X198151206Y-130502511D01*
X198140000Y-130451000D01*
X198140000Y-130325000D01*
X198014000Y-130325000D01*
X197946961Y-130305315D01*
X197901206Y-130252511D01*
X197890000Y-130201000D01*
X197890000Y-130075000D01*
X198390000Y-130075000D01*
X199790000Y-130075000D01*
X199790000Y-128727172D01*
X199789999Y-128727155D01*
X199783598Y-128667627D01*
X199783596Y-128667620D01*
X199733354Y-128532913D01*
X199733350Y-128532906D01*
X199647190Y-128417812D01*
X199647187Y-128417809D01*
X199532093Y-128331649D01*
X199532086Y-128331645D01*
X199397379Y-128281403D01*
X199397372Y-128281401D01*
X199337844Y-128275000D01*
X198390000Y-128275000D01*
X198390000Y-130075000D01*
X197890000Y-130075000D01*
X197890000Y-128275000D01*
X196942155Y-128275000D01*
X196882627Y-128281401D01*
X196882620Y-128281403D01*
X196747913Y-128331645D01*
X196747906Y-128331649D01*
X196632812Y-128417809D01*
X196632809Y-128417812D01*
X196546649Y-128532906D01*
X196546645Y-128532913D01*
X196514600Y-128618833D01*
X196472729Y-128674767D01*
X196407265Y-128699184D01*
X196398418Y-128699500D01*
X196286306Y-128699500D01*
X196112341Y-128734103D01*
X196112332Y-128734106D01*
X195948459Y-128801983D01*
X195948446Y-128801990D01*
X195800965Y-128900535D01*
X195800961Y-128900538D01*
X195800181Y-128901319D01*
X195799671Y-128901597D01*
X195796255Y-128904401D01*
X195795723Y-128903753D01*
X195738858Y-128934804D01*
X195669166Y-128929820D01*
X195629045Y-128904035D01*
X195628745Y-128904401D01*
X195625605Y-128901824D01*
X195624819Y-128901319D01*
X195624038Y-128900538D01*
X195624034Y-128900535D01*
X195476553Y-128801990D01*
X195476540Y-128801983D01*
X195312667Y-128734106D01*
X195312658Y-128734103D01*
X195138694Y-128699500D01*
X195138691Y-128699500D01*
X194961309Y-128699500D01*
X194961306Y-128699500D01*
X194787341Y-128734103D01*
X194787332Y-128734106D01*
X194623459Y-128801983D01*
X194623446Y-128801990D01*
X194475965Y-128900535D01*
X194475961Y-128900538D01*
X194350538Y-129025961D01*
X194350535Y-129025965D01*
X194251990Y-129173446D01*
X194251983Y-129173459D01*
X194184106Y-129337332D01*
X194184103Y-129337341D01*
X194149500Y-129511304D01*
X194149500Y-129688695D01*
X194184103Y-129862658D01*
X194184106Y-129862667D01*
X194251983Y-130026540D01*
X194251990Y-130026553D01*
X194350535Y-130174034D01*
X194350538Y-130174038D01*
X194475961Y-130299461D01*
X194475965Y-130299464D01*
X194623446Y-130398009D01*
X194623459Y-130398016D01*
X194746363Y-130448923D01*
X194787334Y-130465894D01*
X194787336Y-130465894D01*
X194787341Y-130465896D01*
X194961304Y-130500499D01*
X194961307Y-130500500D01*
X194961309Y-130500500D01*
X195049903Y-130500500D01*
X195116942Y-130520185D01*
X195137584Y-130536819D01*
X195333181Y-130732416D01*
X195347884Y-130759343D01*
X195364477Y-130785162D01*
X195365368Y-130791362D01*
X195366666Y-130793739D01*
X195369500Y-130820097D01*
X195369500Y-130853152D01*
X195349815Y-130920191D01*
X195297011Y-130965946D01*
X195258753Y-130976442D01*
X195235599Y-130978931D01*
X195209092Y-130978931D01*
X195167873Y-130974500D01*
X194772132Y-130974500D01*
X194772117Y-130974501D01*
X194746177Y-130977289D01*
X194746170Y-130977291D01*
X194712517Y-130980909D01*
X194577669Y-131031204D01*
X194544308Y-131056177D01*
X194478845Y-131080593D01*
X194410572Y-131065741D01*
X194395694Y-131056179D01*
X194369688Y-131036711D01*
X194333887Y-130988887D01*
X194320000Y-130975000D01*
X194272165Y-130975000D01*
X194235598Y-130978931D01*
X194209092Y-130978931D01*
X194167873Y-130974500D01*
X193772132Y-130974500D01*
X193772117Y-130974501D01*
X193746177Y-130977289D01*
X193746170Y-130977291D01*
X193712517Y-130980909D01*
X193577669Y-131031204D01*
X193544308Y-131056177D01*
X193478845Y-131080593D01*
X193410572Y-131065741D01*
X193395694Y-131056179D01*
X193369688Y-131036711D01*
X193333887Y-130988887D01*
X193320000Y-130975000D01*
X193272165Y-130975000D01*
X193235598Y-130978931D01*
X193209092Y-130978931D01*
X193167873Y-130974500D01*
X192772132Y-130974500D01*
X192772117Y-130974501D01*
X192746177Y-130977289D01*
X192746170Y-130977291D01*
X192712517Y-130980909D01*
X192577669Y-131031204D01*
X192544308Y-131056177D01*
X192478845Y-131080593D01*
X192410572Y-131065741D01*
X192395694Y-131056179D01*
X192369688Y-131036711D01*
X192333887Y-130988887D01*
X192320000Y-130975000D01*
X192272165Y-130975000D01*
X192235598Y-130978931D01*
X192209092Y-130978931D01*
X192167873Y-130974500D01*
X191772132Y-130974500D01*
X191772117Y-130974501D01*
X191746177Y-130977289D01*
X191746170Y-130977291D01*
X191712517Y-130980909D01*
X191577669Y-131031204D01*
X191544308Y-131056177D01*
X191478845Y-131080593D01*
X191410572Y-131065741D01*
X191395694Y-131056179D01*
X191369688Y-131036711D01*
X191333887Y-130988887D01*
X191320000Y-130975000D01*
X191272165Y-130975000D01*
X191235598Y-130978931D01*
X191209092Y-130978931D01*
X191167873Y-130974500D01*
X190772130Y-130974500D01*
X190772119Y-130974501D01*
X190733253Y-130978679D01*
X190706748Y-130978679D01*
X190667874Y-130974500D01*
X190272130Y-130974500D01*
X190272119Y-130974501D01*
X190233253Y-130978679D01*
X190206748Y-130978679D01*
X190167874Y-130974500D01*
X189772132Y-130974500D01*
X189772117Y-130974501D01*
X189730904Y-130978931D01*
X189704401Y-130978931D01*
X189681247Y-130976442D01*
X189616695Y-130949705D01*
X189576846Y-130892313D01*
X189570500Y-130853152D01*
X189570500Y-129057276D01*
X189579939Y-129009824D01*
X189605533Y-128948032D01*
X189640894Y-128862663D01*
X189659199Y-128770641D01*
X189668224Y-128725265D01*
X189675500Y-128688688D01*
X189675500Y-128511306D01*
X189675500Y-128511303D01*
X189675499Y-128511301D01*
X189640896Y-128337338D01*
X189640893Y-128337329D01*
X189573016Y-128173456D01*
X189573009Y-128173443D01*
X189474464Y-128025962D01*
X189474461Y-128025958D01*
X189349038Y-127900535D01*
X189349034Y-127900532D01*
X189201553Y-127801987D01*
X189201540Y-127801980D01*
X189037667Y-127734103D01*
X189037658Y-127734100D01*
X188863694Y-127699497D01*
X188863691Y-127699497D01*
X188686309Y-127699497D01*
X188686306Y-127699497D01*
X188512341Y-127734100D01*
X188512332Y-127734103D01*
X188348459Y-127801980D01*
X188348446Y-127801987D01*
X188200965Y-127900532D01*
X188200961Y-127900535D01*
X188075538Y-128025958D01*
X188075535Y-128025962D01*
X187976990Y-128173443D01*
X187976983Y-128173456D01*
X187909106Y-128337329D01*
X187909103Y-128337338D01*
X187874500Y-128511301D01*
X187874500Y-128635857D01*
X187854815Y-128702896D01*
X187802011Y-128748651D01*
X187797952Y-128750418D01*
X187673459Y-128801983D01*
X187673446Y-128801990D01*
X187525965Y-128900535D01*
X187525961Y-128900538D01*
X187400538Y-129025961D01*
X187400535Y-129025965D01*
X187298602Y-129178518D01*
X187296698Y-129177245D01*
X187254875Y-129219806D01*
X187186734Y-129235254D01*
X187121059Y-129211409D01*
X187078701Y-129155843D01*
X187070500Y-129111497D01*
X187070500Y-128088259D01*
X187070501Y-128088246D01*
X187070501Y-127920145D01*
X187070501Y-127920143D01*
X187029577Y-127767415D01*
X186989260Y-127697584D01*
X186950520Y-127630484D01*
X186838716Y-127518680D01*
X186838715Y-127518679D01*
X186834385Y-127514349D01*
X186834374Y-127514339D01*
X176336818Y-117016783D01*
X176303333Y-116955460D01*
X176300499Y-116929111D01*
X176300499Y-115352128D01*
X176294865Y-115299717D01*
X176294091Y-115292516D01*
X176243797Y-115157671D01*
X176243793Y-115157664D01*
X176157547Y-115042455D01*
X176157544Y-115042452D01*
X176042335Y-114956206D01*
X176042328Y-114956202D01*
X175907482Y-114905908D01*
X175907483Y-114905908D01*
X175847883Y-114899501D01*
X175847881Y-114899500D01*
X175847873Y-114899500D01*
X175847864Y-114899500D01*
X174252129Y-114899500D01*
X174252123Y-114899501D01*
X174192514Y-114905909D01*
X174167832Y-114915115D01*
X174137225Y-114917303D01*
X174106853Y-114921671D01*
X174102697Y-114919773D01*
X174098140Y-114920099D01*
X174071210Y-114905393D01*
X174043297Y-114892646D01*
X174040826Y-114888801D01*
X174036818Y-114886613D01*
X174022114Y-114859684D01*
X174005523Y-114833868D01*
X174004631Y-114827666D01*
X174003333Y-114825289D01*
X174000500Y-114798933D01*
X174000500Y-114625533D01*
X174020185Y-114558494D01*
X174072989Y-114512739D01*
X174142147Y-114502795D01*
X174167836Y-114509352D01*
X174192622Y-114518597D01*
X174192627Y-114518598D01*
X174252155Y-114524999D01*
X174252172Y-114525000D01*
X174800000Y-114525000D01*
X175300000Y-114525000D01*
X175847828Y-114525000D01*
X175847844Y-114524999D01*
X175907372Y-114518598D01*
X175907379Y-114518596D01*
X176042086Y-114468354D01*
X176042093Y-114468350D01*
X176157187Y-114382190D01*
X176157190Y-114382187D01*
X176243350Y-114267093D01*
X176243354Y-114267086D01*
X176293596Y-114132379D01*
X176293598Y-114132372D01*
X176299999Y-114072844D01*
X176300000Y-114072827D01*
X176300000Y-113525000D01*
X175300000Y-113525000D01*
X175300000Y-114525000D01*
X174800000Y-114525000D01*
X174800000Y-113025000D01*
X175300000Y-113025000D01*
X176300000Y-113025000D01*
X176300000Y-112747135D01*
X179924500Y-112747135D01*
X179924500Y-114842870D01*
X179924501Y-114842876D01*
X179930908Y-114902483D01*
X179981202Y-115037328D01*
X179981206Y-115037335D01*
X180067452Y-115152544D01*
X180067455Y-115152547D01*
X180182664Y-115238793D01*
X180182671Y-115238797D01*
X180317517Y-115289091D01*
X180325062Y-115290874D01*
X180324523Y-115293151D01*
X180378287Y-115315408D01*
X180418147Y-115372793D01*
X180424500Y-115411975D01*
X180424500Y-117258023D01*
X180404815Y-117325062D01*
X180352011Y-117370817D01*
X180324865Y-117378266D01*
X180325068Y-117379124D01*
X180317520Y-117380907D01*
X180182671Y-117431202D01*
X180182664Y-117431206D01*
X180067455Y-117517452D01*
X180067452Y-117517455D01*
X179981206Y-117632664D01*
X179981202Y-117632671D01*
X179930908Y-117767517D01*
X179924501Y-117827116D01*
X179924500Y-117827135D01*
X179924500Y-119922870D01*
X179924501Y-119922876D01*
X179930908Y-119982483D01*
X179981202Y-120117328D01*
X179981206Y-120117335D01*
X180067452Y-120232544D01*
X180067455Y-120232547D01*
X180182664Y-120318793D01*
X180182671Y-120318797D01*
X180317517Y-120369091D01*
X180317516Y-120369091D01*
X180324444Y-120369835D01*
X180377127Y-120375500D01*
X182472872Y-120375499D01*
X182532483Y-120369091D01*
X182599964Y-120343921D01*
X182669655Y-120338938D01*
X182686628Y-120343921D01*
X182767517Y-120374091D01*
X182767516Y-120374091D01*
X182774444Y-120374835D01*
X182827127Y-120380500D01*
X184922872Y-120380499D01*
X184982483Y-120374091D01*
X185057380Y-120346155D01*
X185127071Y-120341171D01*
X185144049Y-120346156D01*
X185217621Y-120373597D01*
X185277155Y-120379999D01*
X185277172Y-120380000D01*
X186075000Y-120380000D01*
X186075000Y-117380000D01*
X185277155Y-117380000D01*
X185217627Y-117386401D01*
X185217623Y-117386402D01*
X185144046Y-117413844D01*
X185119313Y-117415612D01*
X185095244Y-117421540D01*
X185079935Y-117418427D01*
X185074354Y-117418827D01*
X185060565Y-117414981D01*
X185058917Y-117414417D01*
X184982483Y-117385909D01*
X184972465Y-117384831D01*
X184959351Y-117380344D01*
X184941681Y-117367853D01*
X184921688Y-117359571D01*
X184913713Y-117348084D01*
X184902296Y-117340014D01*
X184894183Y-117319953D01*
X184881843Y-117302177D01*
X184878398Y-117280917D01*
X184876103Y-117275240D01*
X184876844Y-117271321D01*
X184875500Y-117263024D01*
X184875500Y-115416976D01*
X184895185Y-115349937D01*
X184947989Y-115304182D01*
X184975135Y-115296736D01*
X184974932Y-115295876D01*
X184982483Y-115294091D01*
X184995889Y-115289091D01*
X185057380Y-115266155D01*
X185127071Y-115261171D01*
X185144049Y-115266156D01*
X185217621Y-115293597D01*
X185277155Y-115299999D01*
X185277172Y-115300000D01*
X186075000Y-115300000D01*
X186075000Y-112300000D01*
X186575000Y-112300000D01*
X186575000Y-115300000D01*
X187372828Y-115300000D01*
X187372844Y-115299999D01*
X187432371Y-115293598D01*
X187515575Y-115262565D01*
X187540090Y-115260811D01*
X187563928Y-115254849D01*
X187579529Y-115257991D01*
X187585266Y-115257581D01*
X187598631Y-115261281D01*
X187600418Y-115261885D01*
X187665317Y-115286091D01*
X187675115Y-115287144D01*
X187688022Y-115291509D01*
X187705905Y-115304053D01*
X187726087Y-115312408D01*
X187733945Y-115323721D01*
X187745223Y-115331632D01*
X187753485Y-115351853D01*
X187765947Y-115369793D01*
X187769321Y-115390607D01*
X187771652Y-115396310D01*
X187770902Y-115400354D01*
X187772300Y-115408975D01*
X187772300Y-117255023D01*
X187752615Y-117322062D01*
X187699811Y-117367817D01*
X187672665Y-117375266D01*
X187672868Y-117376124D01*
X187665316Y-117377908D01*
X187580792Y-117409433D01*
X187511100Y-117414417D01*
X187494128Y-117409433D01*
X187432382Y-117386403D01*
X187432372Y-117386401D01*
X187372844Y-117380000D01*
X186575000Y-117380000D01*
X186575000Y-120380000D01*
X187372828Y-120380000D01*
X187372844Y-120379999D01*
X187432371Y-120373598D01*
X187515575Y-120342565D01*
X187585266Y-120337581D01*
X187602240Y-120342564D01*
X187638246Y-120355994D01*
X187665311Y-120366089D01*
X187665312Y-120366089D01*
X187665317Y-120366091D01*
X187724927Y-120372500D01*
X189820672Y-120372499D01*
X189880283Y-120366091D01*
X190015131Y-120315796D01*
X190130346Y-120229546D01*
X190216596Y-120114331D01*
X190259318Y-119999786D01*
X190301189Y-119943854D01*
X190366653Y-119919436D01*
X190434926Y-119934287D01*
X190484332Y-119983692D01*
X190499500Y-120043120D01*
X190499500Y-126334108D01*
X190499500Y-126465892D01*
X190510359Y-126506420D01*
X190533608Y-126593187D01*
X190552865Y-126626540D01*
X190599500Y-126707314D01*
X190692686Y-126800500D01*
X190806814Y-126866392D01*
X190934108Y-126900500D01*
X190934110Y-126900500D01*
X205065890Y-126900500D01*
X205065892Y-126900500D01*
X205193186Y-126866392D01*
X205307314Y-126800500D01*
X205400500Y-126707314D01*
X205466392Y-126593186D01*
X205500500Y-126465892D01*
X205500500Y-118949000D01*
X205520185Y-118881961D01*
X205572989Y-118836206D01*
X205624500Y-118825000D01*
X206555000Y-118825000D01*
X206555000Y-114725000D01*
X205624500Y-114725000D01*
X205557461Y-114705315D01*
X205511706Y-114652511D01*
X205500500Y-114601000D01*
X205500500Y-110909110D01*
X205500500Y-110909108D01*
X205466392Y-110781814D01*
X205400500Y-110667686D01*
X205307314Y-110574500D01*
X205229918Y-110529815D01*
X205193187Y-110508608D01*
X205129539Y-110491554D01*
X205065892Y-110474500D01*
X191065892Y-110474500D01*
X190934108Y-110474500D01*
X190806812Y-110508608D01*
X190692686Y-110574500D01*
X190692683Y-110574502D01*
X190599502Y-110667683D01*
X190599500Y-110667686D01*
X190533608Y-110781812D01*
X190499500Y-110909108D01*
X190499500Y-112620879D01*
X190479815Y-112687918D01*
X190427011Y-112733673D01*
X190357853Y-112743617D01*
X190294297Y-112714592D01*
X190259318Y-112664212D01*
X190216597Y-112549671D01*
X190216593Y-112549664D01*
X190130347Y-112434455D01*
X190130344Y-112434452D01*
X190015135Y-112348206D01*
X190015128Y-112348202D01*
X189880282Y-112297908D01*
X189880283Y-112297908D01*
X189820683Y-112291501D01*
X189820681Y-112291500D01*
X189820673Y-112291500D01*
X189820664Y-112291500D01*
X187724929Y-112291500D01*
X187724923Y-112291501D01*
X187665314Y-112297909D01*
X187580792Y-112329433D01*
X187511100Y-112334417D01*
X187494128Y-112329433D01*
X187432382Y-112306403D01*
X187432372Y-112306401D01*
X187372844Y-112300000D01*
X186575000Y-112300000D01*
X186075000Y-112300000D01*
X185277155Y-112300000D01*
X185217627Y-112306401D01*
X185217623Y-112306402D01*
X185144046Y-112333844D01*
X185074354Y-112338827D01*
X185057382Y-112333843D01*
X184982485Y-112305909D01*
X184982483Y-112305908D01*
X184922883Y-112299501D01*
X184922881Y-112299500D01*
X184922873Y-112299500D01*
X184922864Y-112299500D01*
X182827129Y-112299500D01*
X182827123Y-112299501D01*
X182767518Y-112305908D01*
X182700033Y-112331078D01*
X182630342Y-112336061D01*
X182613369Y-112331077D01*
X182532482Y-112300908D01*
X182532483Y-112300908D01*
X182472883Y-112294501D01*
X182472881Y-112294500D01*
X182472873Y-112294500D01*
X182472864Y-112294500D01*
X180377129Y-112294500D01*
X180377123Y-112294501D01*
X180317516Y-112300908D01*
X180182671Y-112351202D01*
X180182664Y-112351206D01*
X180067455Y-112437452D01*
X180067452Y-112437455D01*
X179981206Y-112552664D01*
X179981202Y-112552671D01*
X179930908Y-112687517D01*
X179924501Y-112747116D01*
X179924500Y-112747135D01*
X176300000Y-112747135D01*
X176300000Y-112477172D01*
X176299999Y-112477155D01*
X176293598Y-112417627D01*
X176293596Y-112417620D01*
X176243354Y-112282913D01*
X176243350Y-112282906D01*
X176157190Y-112167812D01*
X176157187Y-112167809D01*
X176042093Y-112081649D01*
X176042086Y-112081645D01*
X175907379Y-112031403D01*
X175907372Y-112031401D01*
X175847844Y-112025000D01*
X175300000Y-112025000D01*
X175300000Y-113025000D01*
X174800000Y-113025000D01*
X174800000Y-112025000D01*
X174252155Y-112025000D01*
X174192627Y-112031401D01*
X174192617Y-112031403D01*
X174167832Y-112040648D01*
X174098141Y-112045632D01*
X174036818Y-112012146D01*
X174003334Y-111950823D01*
X174000500Y-111924466D01*
X174000500Y-107399500D01*
X174020185Y-107332461D01*
X174072989Y-107286706D01*
X174124500Y-107275500D01*
X174126000Y-107275500D01*
X174193039Y-107295185D01*
G37*
%TD.AperFunction*%
%TA.AperFunction,Conductor*%
G36*
X213055703Y-129655384D02*
G01*
X213062181Y-129661416D01*
X216438181Y-133037416D01*
X216471666Y-133098739D01*
X216474500Y-133125097D01*
X216474500Y-135263330D01*
X216474499Y-135263348D01*
X216474499Y-135429054D01*
X216474498Y-135429054D01*
X216515423Y-135581787D01*
X216521667Y-135592601D01*
X216521669Y-135592603D01*
X216594477Y-135718712D01*
X216594481Y-135718717D01*
X216713349Y-135837585D01*
X216713355Y-135837590D01*
X217313181Y-136437416D01*
X217346666Y-136498739D01*
X217349500Y-136525097D01*
X217349500Y-137672870D01*
X217349501Y-137672876D01*
X217355909Y-137732487D01*
X217357692Y-137740031D01*
X217356375Y-137740342D01*
X217360775Y-137801858D01*
X217327291Y-137863181D01*
X217265968Y-137896666D01*
X217239609Y-137899500D01*
X213610391Y-137899500D01*
X213543352Y-137879815D01*
X213497597Y-137827011D01*
X213487653Y-137757853D01*
X213493633Y-137734422D01*
X213494091Y-137732483D01*
X213500500Y-137672873D01*
X213500499Y-136077128D01*
X213494091Y-136017517D01*
X213466918Y-135944663D01*
X213443797Y-135882671D01*
X213443793Y-135882664D01*
X213357547Y-135767455D01*
X213357544Y-135767452D01*
X213242335Y-135681206D01*
X213242328Y-135681202D01*
X213107482Y-135630908D01*
X213107483Y-135630908D01*
X213047883Y-135624501D01*
X213047881Y-135624500D01*
X213047873Y-135624500D01*
X213047865Y-135624500D01*
X212974500Y-135624500D01*
X212907461Y-135604815D01*
X212861706Y-135552011D01*
X212850500Y-135500500D01*
X212850500Y-129749097D01*
X212870185Y-129682058D01*
X212922989Y-129636303D01*
X212992147Y-129626359D01*
X213055703Y-129655384D01*
G37*
%TD.AperFunction*%
%TA.AperFunction,Conductor*%
G36*
X176695642Y-119645185D02*
G01*
X176716284Y-119661819D01*
X185117784Y-128063319D01*
X185151269Y-128124642D01*
X185146285Y-128194334D01*
X185104413Y-128250267D01*
X185038949Y-128274684D01*
X185030103Y-128275000D01*
X184550000Y-128275000D01*
X184550000Y-132375000D01*
X185195501Y-132375000D01*
X185262540Y-132394685D01*
X185308295Y-132447489D01*
X185319501Y-132499000D01*
X185319501Y-132622876D01*
X185325908Y-132682483D01*
X185376202Y-132817328D01*
X185376206Y-132817335D01*
X185462452Y-132932544D01*
X185462455Y-132932547D01*
X185577664Y-133018793D01*
X185577671Y-133018797D01*
X185622618Y-133035561D01*
X185712517Y-133069091D01*
X185772127Y-133075500D01*
X186167872Y-133075499D01*
X186167873Y-133075498D01*
X186167885Y-133075498D01*
X186206744Y-133071320D01*
X186233252Y-133071320D01*
X186258759Y-133074062D01*
X186323308Y-133100801D01*
X186363155Y-133158194D01*
X186369500Y-133197351D01*
X186369500Y-133629902D01*
X186349815Y-133696941D01*
X186333181Y-133717583D01*
X184462582Y-135588181D01*
X184401259Y-135621666D01*
X184374901Y-135624500D01*
X183227129Y-135624500D01*
X183227123Y-135624501D01*
X183167512Y-135630909D01*
X183159969Y-135632692D01*
X183159658Y-135631377D01*
X183098127Y-135635771D01*
X183036808Y-135602279D01*
X183003331Y-135540951D01*
X183000500Y-135514608D01*
X183000500Y-132499000D01*
X183020185Y-132431961D01*
X183072989Y-132386206D01*
X183124500Y-132375000D01*
X184050000Y-132375000D01*
X184050000Y-128275000D01*
X183102155Y-128275000D01*
X183042627Y-128281401D01*
X183042620Y-128281403D01*
X182907913Y-128331645D01*
X182907906Y-128331649D01*
X182792812Y-128417809D01*
X182792809Y-128417812D01*
X182706649Y-128532906D01*
X182706645Y-128532913D01*
X182656403Y-128667620D01*
X182654620Y-128675168D01*
X182652315Y-128674623D01*
X182630084Y-128728302D01*
X182572693Y-128768153D01*
X182533529Y-128774500D01*
X179211953Y-128774500D01*
X179144914Y-128754815D01*
X179099159Y-128702011D01*
X179089215Y-128632853D01*
X179097392Y-128603048D01*
X179150637Y-128474500D01*
X179165894Y-128437666D01*
X179168174Y-128426208D01*
X179200499Y-128263695D01*
X179200500Y-128263693D01*
X179200500Y-128086306D01*
X179200499Y-128086304D01*
X179165896Y-127912341D01*
X179165893Y-127912332D01*
X179161005Y-127900532D01*
X179148923Y-127871363D01*
X179098016Y-127748459D01*
X179098009Y-127748446D01*
X178999464Y-127600965D01*
X178999461Y-127600961D01*
X178874038Y-127475538D01*
X178874034Y-127475535D01*
X178726553Y-127376990D01*
X178726540Y-127376983D01*
X178562667Y-127309106D01*
X178562658Y-127309103D01*
X178388694Y-127274500D01*
X178388691Y-127274500D01*
X178285637Y-127274500D01*
X178270149Y-127270350D01*
X178256404Y-127271005D01*
X178223638Y-127257888D01*
X178215813Y-127253370D01*
X178132933Y-127205520D01*
X178123806Y-127200250D01*
X178106786Y-127190423D01*
X178068603Y-127180192D01*
X177954057Y-127149499D01*
X177795943Y-127149499D01*
X177788347Y-127149499D01*
X177788331Y-127149500D01*
X177433604Y-127149500D01*
X177366565Y-127129815D01*
X177320810Y-127077011D01*
X177310866Y-127007853D01*
X177339891Y-126944297D01*
X177364712Y-126922398D01*
X177366574Y-126921154D01*
X177399035Y-126899464D01*
X177524464Y-126774035D01*
X177623013Y-126626547D01*
X177690894Y-126462666D01*
X177725500Y-126288691D01*
X177725500Y-126111309D01*
X177725500Y-126111306D01*
X177725499Y-126111304D01*
X177690896Y-125937341D01*
X177690893Y-125937332D01*
X177623016Y-125773459D01*
X177623009Y-125773446D01*
X177524464Y-125625965D01*
X177524461Y-125625961D01*
X177399038Y-125500538D01*
X177399034Y-125500535D01*
X177251553Y-125401990D01*
X177251540Y-125401983D01*
X177087667Y-125334106D01*
X177087658Y-125334103D01*
X176913694Y-125299500D01*
X176913691Y-125299500D01*
X176736309Y-125299500D01*
X176736306Y-125299500D01*
X176562341Y-125334103D01*
X176562341Y-125334104D01*
X176562338Y-125334105D01*
X176562334Y-125334106D01*
X176420080Y-125393029D01*
X176406246Y-125398759D01*
X176386367Y-125400895D01*
X176367640Y-125407881D01*
X176352343Y-125404553D01*
X176336776Y-125406227D01*
X176318898Y-125397277D01*
X176299367Y-125393029D01*
X176277076Y-125376342D01*
X176274297Y-125374951D01*
X176271113Y-125371878D01*
X176261818Y-125362583D01*
X176228333Y-125301260D01*
X176225499Y-125274902D01*
X176225499Y-124286952D01*
X176245184Y-124219913D01*
X176297988Y-124174158D01*
X176367146Y-124164214D01*
X176396951Y-124172391D01*
X176398453Y-124173013D01*
X176562334Y-124240894D01*
X176562336Y-124240894D01*
X176562341Y-124240896D01*
X176736304Y-124275499D01*
X176736307Y-124275500D01*
X176736309Y-124275500D01*
X176913693Y-124275500D01*
X176913694Y-124275499D01*
X176971682Y-124263964D01*
X177087658Y-124240896D01*
X177087661Y-124240894D01*
X177087666Y-124240894D01*
X177251547Y-124173013D01*
X177399035Y-124074464D01*
X177524464Y-123949035D01*
X177623013Y-123801547D01*
X177690894Y-123637666D01*
X177691955Y-123632335D01*
X177725499Y-123463695D01*
X177725500Y-123463693D01*
X177725500Y-123286306D01*
X177725499Y-123286304D01*
X177690896Y-123112341D01*
X177690893Y-123112332D01*
X177623016Y-122948459D01*
X177623009Y-122948446D01*
X177524464Y-122800965D01*
X177524461Y-122800961D01*
X177399038Y-122675538D01*
X177399034Y-122675535D01*
X177251553Y-122576990D01*
X177251540Y-122576983D01*
X177087667Y-122509106D01*
X177087658Y-122509103D01*
X176913694Y-122474500D01*
X176913691Y-122474500D01*
X176736309Y-122474500D01*
X176736306Y-122474500D01*
X176562341Y-122509103D01*
X176562337Y-122509105D01*
X176562335Y-122509105D01*
X176562334Y-122509106D01*
X176552117Y-122513338D01*
X176494635Y-122537147D01*
X176474759Y-122539283D01*
X176456030Y-122546269D01*
X176440731Y-122542940D01*
X176425165Y-122544614D01*
X176407290Y-122535666D01*
X176387757Y-122531417D01*
X176365464Y-122514729D01*
X176362686Y-122513338D01*
X176359503Y-122510266D01*
X176286818Y-122437581D01*
X176253333Y-122376258D01*
X176250499Y-122349900D01*
X176250499Y-121202129D01*
X176250498Y-121202123D01*
X176244091Y-121142516D01*
X176193797Y-121007671D01*
X176193793Y-121007664D01*
X176107547Y-120892455D01*
X176107544Y-120892452D01*
X175992335Y-120806206D01*
X175992328Y-120806202D01*
X175857482Y-120755908D01*
X175857483Y-120755908D01*
X175797883Y-120749501D01*
X175797881Y-120749500D01*
X175797873Y-120749500D01*
X175797864Y-120749500D01*
X174202129Y-120749500D01*
X174202120Y-120749501D01*
X174137752Y-120756420D01*
X174068992Y-120744012D01*
X174017856Y-120696400D01*
X174000500Y-120633130D01*
X174000500Y-120376066D01*
X174020185Y-120309027D01*
X174072989Y-120263272D01*
X174142147Y-120253328D01*
X174167833Y-120259884D01*
X174192517Y-120269091D01*
X174192516Y-120269091D01*
X174199444Y-120269835D01*
X174252127Y-120275500D01*
X175847872Y-120275499D01*
X175907483Y-120269091D01*
X176042331Y-120218796D01*
X176157546Y-120132546D01*
X176243796Y-120017331D01*
X176294091Y-119882483D01*
X176300500Y-119822873D01*
X176300500Y-119749500D01*
X176303050Y-119740814D01*
X176301762Y-119731853D01*
X176312740Y-119707812D01*
X176320185Y-119682461D01*
X176327025Y-119676533D01*
X176330787Y-119668297D01*
X176353021Y-119654007D01*
X176372989Y-119636706D01*
X176383503Y-119634418D01*
X176389565Y-119630523D01*
X176424500Y-119625500D01*
X176628603Y-119625500D01*
X176695642Y-119645185D01*
G37*
%TD.AperFunction*%
%TA.AperFunction,Conductor*%
G36*
X199391942Y-134445185D02*
G01*
X199412584Y-134461819D01*
X200366160Y-135415395D01*
X200399645Y-135476718D01*
X200394661Y-135546410D01*
X200352789Y-135602343D01*
X200287325Y-135626760D01*
X200265229Y-135626366D01*
X200247873Y-135624500D01*
X200247869Y-135624500D01*
X199100098Y-135624500D01*
X199033059Y-135604815D01*
X199012417Y-135588181D01*
X198548333Y-135124097D01*
X198061415Y-134637180D01*
X198027931Y-134575858D01*
X198032915Y-134506167D01*
X198074787Y-134450233D01*
X198140251Y-134425816D01*
X198149097Y-134425500D01*
X199324903Y-134425500D01*
X199391942Y-134445185D01*
G37*
%TD.AperFunction*%
%TA.AperFunction,Conductor*%
G36*
X214780703Y-123030384D02*
G01*
X214787181Y-123036416D01*
X215765139Y-124014374D01*
X215765149Y-124014385D01*
X215769479Y-124018715D01*
X215769480Y-124018716D01*
X215881284Y-124130520D01*
X215954885Y-124173013D01*
X216018215Y-124209577D01*
X216170943Y-124250500D01*
X217100501Y-124250500D01*
X217167540Y-124270185D01*
X217213295Y-124322989D01*
X217224501Y-124374500D01*
X217224501Y-124447876D01*
X217230908Y-124507483D01*
X217281202Y-124642328D01*
X217281206Y-124642335D01*
X217367452Y-124757544D01*
X217367455Y-124757547D01*
X217482664Y-124843793D01*
X217482671Y-124843797D01*
X217617517Y-124894091D01*
X217617516Y-124894091D01*
X217624444Y-124894835D01*
X217677127Y-124900500D01*
X219272872Y-124900499D01*
X219332483Y-124894091D01*
X219332485Y-124894090D01*
X219332487Y-124894090D01*
X219340031Y-124892308D01*
X219340342Y-124893624D01*
X219401858Y-124889225D01*
X219463181Y-124922709D01*
X219496666Y-124984032D01*
X219499500Y-125010391D01*
X219499500Y-125583131D01*
X219479815Y-125650170D01*
X219427011Y-125695925D01*
X219362246Y-125706421D01*
X219355756Y-125705723D01*
X219297873Y-125699500D01*
X219297865Y-125699500D01*
X217702129Y-125699500D01*
X217702123Y-125699501D01*
X217642516Y-125705908D01*
X217507671Y-125756202D01*
X217507664Y-125756206D01*
X217392457Y-125842451D01*
X217392447Y-125842461D01*
X217392255Y-125842718D01*
X217391998Y-125842910D01*
X217386180Y-125848728D01*
X217385343Y-125847891D01*
X217336317Y-125884584D01*
X217266625Y-125889562D01*
X217205314Y-125856079D01*
X214611819Y-123262584D01*
X214597115Y-123235656D01*
X214580523Y-123209838D01*
X214579631Y-123203637D01*
X214578334Y-123201261D01*
X214575500Y-123174903D01*
X214575500Y-123124097D01*
X214595185Y-123057058D01*
X214647989Y-123011303D01*
X214717147Y-123001359D01*
X214780703Y-123030384D01*
G37*
%TD.AperFunction*%
%TA.AperFunction,Conductor*%
G36*
X215222770Y-114595185D02*
G01*
X215268525Y-114647989D01*
X215278469Y-114717147D01*
X215249444Y-114780703D01*
X215230042Y-114798766D01*
X215137812Y-114867809D01*
X215137809Y-114867812D01*
X215051649Y-114982906D01*
X215051645Y-114982913D01*
X215001403Y-115117620D01*
X215001401Y-115117627D01*
X214995000Y-115177155D01*
X214995000Y-116525000D01*
X218295000Y-116525000D01*
X218295000Y-115177172D01*
X218294999Y-115177155D01*
X218288598Y-115117627D01*
X218288596Y-115117620D01*
X218238354Y-114982913D01*
X218238350Y-114982906D01*
X218152190Y-114867812D01*
X218152187Y-114867809D01*
X218059958Y-114798766D01*
X218018087Y-114742832D01*
X218013103Y-114673141D01*
X218046589Y-114611818D01*
X218107912Y-114578334D01*
X218134269Y-114575500D01*
X219625501Y-114575500D01*
X219692540Y-114595185D01*
X219738295Y-114647989D01*
X219749501Y-114699500D01*
X219749501Y-114772876D01*
X219755908Y-114832483D01*
X219789997Y-114923879D01*
X219794981Y-114993571D01*
X219761496Y-115054894D01*
X219735816Y-115074599D01*
X219692686Y-115099500D01*
X219692683Y-115099502D01*
X219599502Y-115192683D01*
X219599500Y-115192686D01*
X219533608Y-115306812D01*
X219499500Y-115434108D01*
X219499500Y-122289608D01*
X219479815Y-122356647D01*
X219427011Y-122402402D01*
X219357853Y-122412346D01*
X219334419Y-122406366D01*
X219332483Y-122405908D01*
X219272883Y-122399501D01*
X219272881Y-122399500D01*
X219272873Y-122399500D01*
X219272864Y-122399500D01*
X217677129Y-122399500D01*
X217677123Y-122399501D01*
X217617516Y-122405908D01*
X217482671Y-122456202D01*
X217482664Y-122456206D01*
X217367455Y-122542452D01*
X217367452Y-122542455D01*
X217281206Y-122657664D01*
X217281202Y-122657671D01*
X217230908Y-122792517D01*
X217224501Y-122852116D01*
X217224500Y-122852135D01*
X217224500Y-122925500D01*
X217204815Y-122992539D01*
X217152011Y-123038294D01*
X217100500Y-123049500D01*
X216550097Y-123049500D01*
X216483058Y-123029815D01*
X216462416Y-123013181D01*
X215111819Y-121662584D01*
X215078334Y-121601261D01*
X215075500Y-121574903D01*
X215075500Y-119646847D01*
X215095185Y-119579808D01*
X215147989Y-119534053D01*
X215186244Y-119523558D01*
X215232373Y-119518598D01*
X215232379Y-119518596D01*
X215367086Y-119468354D01*
X215367093Y-119468350D01*
X215482187Y-119382190D01*
X215482190Y-119382187D01*
X215568350Y-119267093D01*
X215568354Y-119267086D01*
X215618596Y-119132379D01*
X215618598Y-119132372D01*
X215624999Y-119072844D01*
X215625000Y-119072827D01*
X215625000Y-118949000D01*
X215644685Y-118881961D01*
X215697489Y-118836206D01*
X215749000Y-118825000D01*
X216395000Y-118825000D01*
X216895000Y-118825000D01*
X217842828Y-118825000D01*
X217842844Y-118824999D01*
X217902372Y-118818598D01*
X217902379Y-118818596D01*
X218037086Y-118768354D01*
X218037093Y-118768350D01*
X218152187Y-118682190D01*
X218152190Y-118682187D01*
X218238350Y-118567093D01*
X218238354Y-118567086D01*
X218288596Y-118432379D01*
X218288598Y-118432372D01*
X218294999Y-118372844D01*
X218295000Y-118372827D01*
X218295000Y-117025000D01*
X216895000Y-117025000D01*
X216895000Y-118825000D01*
X216395000Y-118825000D01*
X216395000Y-117025000D01*
X214995000Y-117025000D01*
X214995000Y-117301000D01*
X214993018Y-117307748D01*
X214994244Y-117314675D01*
X214983302Y-117340837D01*
X214975315Y-117368039D01*
X214970000Y-117372644D01*
X214967286Y-117379134D01*
X214943938Y-117395227D01*
X214922511Y-117413794D01*
X214914160Y-117415752D01*
X214909758Y-117418787D01*
X214882777Y-117423112D01*
X214875004Y-117424935D01*
X214731350Y-117429576D01*
X214728858Y-117428931D01*
X214714092Y-117428931D01*
X214672873Y-117424500D01*
X214277130Y-117424500D01*
X214277119Y-117424501D01*
X214238253Y-117428679D01*
X214211748Y-117428679D01*
X214172874Y-117424500D01*
X213777132Y-117424500D01*
X213777117Y-117424501D01*
X213751177Y-117427289D01*
X213751170Y-117427291D01*
X213717517Y-117430909D01*
X213582669Y-117481204D01*
X213549308Y-117506177D01*
X213483845Y-117530593D01*
X213415572Y-117515741D01*
X213400694Y-117506179D01*
X213374688Y-117486711D01*
X213338887Y-117438887D01*
X213325000Y-117425000D01*
X213277165Y-117425000D01*
X213240598Y-117428931D01*
X213214092Y-117428931D01*
X213172873Y-117424500D01*
X212777132Y-117424500D01*
X212777117Y-117424501D01*
X212751177Y-117427289D01*
X212751170Y-117427291D01*
X212717517Y-117430909D01*
X212582669Y-117481204D01*
X212549308Y-117506177D01*
X212483845Y-117530593D01*
X212415572Y-117515741D01*
X212400694Y-117506179D01*
X212374688Y-117486711D01*
X212338887Y-117438887D01*
X212325000Y-117425000D01*
X212277165Y-117425000D01*
X212240598Y-117428931D01*
X212214092Y-117428931D01*
X212172873Y-117424500D01*
X211777132Y-117424500D01*
X211777117Y-117424501D01*
X211751177Y-117427289D01*
X211751170Y-117427291D01*
X211717517Y-117430909D01*
X211582669Y-117481204D01*
X211549308Y-117506177D01*
X211483845Y-117530593D01*
X211415572Y-117515741D01*
X211400694Y-117506179D01*
X211374688Y-117486711D01*
X211338887Y-117438887D01*
X211325000Y-117425000D01*
X211277165Y-117425000D01*
X211240598Y-117428931D01*
X211214092Y-117428931D01*
X211172873Y-117424500D01*
X210777132Y-117424500D01*
X210777117Y-117424501D01*
X210751177Y-117427289D01*
X210751170Y-117427291D01*
X210717517Y-117430909D01*
X210582669Y-117481204D01*
X210549308Y-117506177D01*
X210483845Y-117530593D01*
X210415572Y-117515741D01*
X210400694Y-117506179D01*
X210374688Y-117486711D01*
X210338887Y-117438887D01*
X210325000Y-117425000D01*
X210277165Y-117425000D01*
X210240598Y-117428931D01*
X210214092Y-117428931D01*
X210172873Y-117424500D01*
X209777132Y-117424500D01*
X209777117Y-117424501D01*
X209735904Y-117428931D01*
X209709401Y-117428931D01*
X209686247Y-117426442D01*
X209621695Y-117399705D01*
X209581846Y-117342313D01*
X209575500Y-117303152D01*
X209575500Y-116950097D01*
X209595185Y-116883058D01*
X209611819Y-116862416D01*
X211862416Y-114611819D01*
X211923739Y-114578334D01*
X211950097Y-114575500D01*
X215155731Y-114575500D01*
X215222770Y-114595185D01*
G37*
%TD.AperFunction*%
%TD*%
M02*
