M48
; DRILL file {KiCad 9.0.7} date 2026-03-05T12:45:36+1100
; FORMAT={-:-/ absolute / metric / decimal}
; #@! TF.CreationDate,2026-03-05T12:45:36+11:00
; #@! TF.GenerationSoftware,Kicad,Pcbnew,9.0.7
; #@! TF.FileFunction,Plated,1,2,PTH
FMAT,2
METRIC
; #@! TA.AperFunction,Plated,PTH,ViaDrill
T1C0.300
; #@! TA.AperFunction,Plated,PTH,ViaDrill
T2C0.500
; #@! TA.AperFunction,Plated,PTH,ViaDrill
T3C0.600
; #@! TA.AperFunction,Plated,PTH,ComponentDrill
T4C2.500
%
G90
G05
T1
X184.275Y-133.75
X187.85Y-134.925
X188.45Y-136.875
X194.6Y-136.925
X197.8Y-136.8
X198.1Y-132.325
X198.4Y-134.6
X201.075Y-137.25
X201.35Y-134.125
X204.125Y-134.1
X204.25Y-137.25
X207.5Y-135.925
X211.05Y-130.225
X211.05Y-133.75
X213.275Y-130.825
X213.775Y-134.775
X215.325Y-123.7
X216.55Y-114.65
T2
X176.825Y-123.375
X176.825Y-126.2
X178.3Y-128.175
X184.3Y-130.3
X187.325Y-130.675
X188.1Y-129.6
X188.775Y-128.6
X189.9Y-130.675
X191.45Y-130.675
X192.275Y-129.6
X193.2Y-130.675
X193.675Y-129.6
X195.05Y-129.6
X195.05Y-130.675
X196.375Y-129.6
X198.14Y-130.325
X208.525Y-114.7
X209.957Y-117.032
X210.85Y-116.2
X212.175Y-115.375
X213.475Y-117.0
X213.5Y-115.15
X214.925Y-115.875
X227.425Y-111.15
X227.425Y-114.05
T3
X206.805Y-116.775
X216.645Y-116.775
T4
X178.75Y-109.1
X220.525Y-109.1
M30
