%TF.GenerationSoftware,KiCad,Pcbnew,9.0.7*%
%TF.CreationDate,2026-03-05T13:28:40+11:00*%
%TF.ProjectId,wii_breakout,7769695f-6272-4656-916b-6f75742e6b69,rev?*%
%TF.SameCoordinates,Original*%
%TF.FileFunction,Copper,L1,Top*%
%TF.FilePolarity,Positive*%
%FSLAX46Y46*%
G04 Gerber Fmt 4.6, Leading zero omitted, Abs format (unit mm)*
G04 Created by KiCad (PCBNEW 9.0.7) date 2026-03-05 13:28:40*
%MOMM*%
%LPD*%
G01*
G04 APERTURE LIST*
%TA.AperFunction,ComponentPad*%
%ADD10O,2.000000X3.100000*%
%TD*%
%TA.AperFunction,ComponentPad*%
%ADD11R,1.700000X1.700000*%
%TD*%
%TA.AperFunction,ComponentPad*%
%ADD12C,1.700000*%
%TD*%
%TA.AperFunction,Conductor*%
%ADD13C,0.200000*%
%TD*%
G04 APERTURE END LIST*
D10*
%TO.P,H1,1,1*%
%TO.N,GND*%
X216800000Y-119175000D03*
%TD*%
%TO.P,H1,1,1*%
%TO.N,GND*%
X217050000Y-108000000D03*
%TD*%
%TO.P,H1,1,1*%
%TO.N,GND*%
X230200000Y-119175000D03*
%TD*%
D11*
%TO.P,J1,1,Pin_1*%
%TO.N,+3.3V*%
X214500000Y-111125000D03*
D12*
%TO.P,J1,2,Pin_2*%
%TO.N,Y*%
X214500000Y-113665000D03*
%TO.P,J1,3,Pin_3*%
%TO.N,GND*%
X214500000Y-116205000D03*
%TD*%
D10*
%TO.P,H1,1,1*%
%TO.N,GND*%
X230175000Y-108100000D03*
%TD*%
D11*
%TO.P,REF\u002A\u002A,1*%
%TO.N,+3.3V*%
X219430000Y-127200002D03*
D12*
%TO.P,REF\u002A\u002A,2*%
%TO.N,X*%
X221970000Y-127199998D03*
%TO.P,REF\u002A\u002A,3*%
%TO.N,Y*%
X224510001Y-127200000D03*
%TO.P,REF\u002A\u002A,4*%
%TO.N,GND*%
X227050000Y-127199999D03*
%TD*%
D11*
%TO.P,J2,1,Pin_1*%
%TO.N,+3.3V*%
X221035000Y-122750000D03*
D12*
%TO.P,J2,2,Pin_2*%
%TO.N,X*%
X223575000Y-122750000D03*
%TO.P,J2,3,Pin_3*%
%TO.N,GND*%
X226115000Y-122750000D03*
%TD*%
D13*
%TO.N,X*%
X223575000Y-122750000D02*
X223575000Y-123700000D01*
X223575000Y-123700000D02*
X221970000Y-125305000D01*
X221970000Y-125305000D02*
X221970000Y-127199998D01*
%TO.N,+3.3V*%
X213875000Y-111125000D02*
X214500000Y-111125000D01*
X217650000Y-122750000D02*
X212800000Y-117900000D01*
X221035000Y-122750000D02*
X217650000Y-122750000D01*
X212800000Y-117900000D02*
X212800000Y-112200000D01*
X212800000Y-112200000D02*
X213875000Y-111125000D01*
X221035000Y-122750000D02*
X221035000Y-125595002D01*
X221035000Y-125595002D02*
X219430000Y-127200002D01*
%TD*%
%TA.AperFunction,Conductor*%
%TO.N,GND*%
G36*
X213605703Y-114681045D02*
G01*
X213612181Y-114687077D01*
X213620213Y-114695109D01*
X213792179Y-114820048D01*
X213792181Y-114820049D01*
X213792184Y-114820051D01*
X213801493Y-114824794D01*
X213852290Y-114872766D01*
X213869087Y-114940587D01*
X213846552Y-115006722D01*
X213801505Y-115045760D01*
X213792446Y-115050376D01*
X213792440Y-115050380D01*
X213738282Y-115089727D01*
X213738282Y-115089728D01*
X214370591Y-115722037D01*
X214307007Y-115739075D01*
X214192993Y-115804901D01*
X214099901Y-115897993D01*
X214034075Y-116012007D01*
X214017037Y-116075591D01*
X213436819Y-115495373D01*
X213403334Y-115434050D01*
X213400500Y-115407692D01*
X213400500Y-114774758D01*
X213420185Y-114707719D01*
X213472989Y-114661964D01*
X213542147Y-114652020D01*
X213605703Y-114681045D01*
G37*
%TD.AperFunction*%
%TA.AperFunction,Conductor*%
G36*
X238942539Y-98020185D02*
G01*
X238988294Y-98072989D01*
X238999500Y-98124500D01*
X238999500Y-128875500D01*
X238979815Y-128942539D01*
X238927011Y-128988294D01*
X238875500Y-128999500D01*
X208124500Y-128999500D01*
X208057461Y-128979815D01*
X208011706Y-128927011D01*
X208000500Y-128875500D01*
X208000500Y-127046113D01*
X208656700Y-127046113D01*
X208656700Y-127258687D01*
X208689954Y-127468643D01*
X208752665Y-127661648D01*
X208755644Y-127670814D01*
X208852151Y-127860220D01*
X208977090Y-128032186D01*
X209127413Y-128182509D01*
X209299379Y-128307448D01*
X209299381Y-128307449D01*
X209299384Y-128307451D01*
X209488788Y-128403957D01*
X209690957Y-128469646D01*
X209900913Y-128502900D01*
X209900914Y-128502900D01*
X210113486Y-128502900D01*
X210113487Y-128502900D01*
X210323443Y-128469646D01*
X210525612Y-128403957D01*
X210715016Y-128307451D01*
X210821472Y-128230107D01*
X210886986Y-128182509D01*
X210886988Y-128182506D01*
X210886992Y-128182504D01*
X211037304Y-128032192D01*
X211037306Y-128032188D01*
X211037309Y-128032186D01*
X211162248Y-127860220D01*
X211162247Y-127860220D01*
X211162251Y-127860216D01*
X211258757Y-127670812D01*
X211324446Y-127468643D01*
X211357700Y-127258687D01*
X211357700Y-127046113D01*
X211324446Y-126836157D01*
X211258757Y-126633988D01*
X211162251Y-126444584D01*
X211162249Y-126444581D01*
X211162248Y-126444579D01*
X211037309Y-126272613D01*
X210886986Y-126122290D01*
X210715020Y-125997351D01*
X210525614Y-125900844D01*
X210525613Y-125900843D01*
X210525612Y-125900843D01*
X210323443Y-125835154D01*
X210323441Y-125835153D01*
X210323440Y-125835153D01*
X210162157Y-125809608D01*
X210113487Y-125801900D01*
X209900913Y-125801900D01*
X209852242Y-125809608D01*
X209690960Y-125835153D01*
X209488785Y-125900844D01*
X209299379Y-125997351D01*
X209127413Y-126122290D01*
X208977090Y-126272613D01*
X208852151Y-126444579D01*
X208755644Y-126633985D01*
X208689953Y-126836160D01*
X208680952Y-126892992D01*
X208656700Y-127046113D01*
X208000500Y-127046113D01*
X208000500Y-117979054D01*
X212199498Y-117979054D01*
X212240423Y-118131785D01*
X212269358Y-118181900D01*
X212269359Y-118181904D01*
X212269360Y-118181904D01*
X212319479Y-118268714D01*
X212319481Y-118268717D01*
X212438349Y-118387585D01*
X212438354Y-118387589D01*
X217281284Y-123230520D01*
X217281286Y-123230521D01*
X217281290Y-123230524D01*
X217346915Y-123268412D01*
X217418216Y-123309577D01*
X217570943Y-123350501D01*
X217570945Y-123350501D01*
X217736654Y-123350501D01*
X217736670Y-123350500D01*
X219560501Y-123350500D01*
X219627540Y-123370185D01*
X219673295Y-123422989D01*
X219684501Y-123474500D01*
X219684501Y-123647876D01*
X219690908Y-123707483D01*
X219741202Y-123842328D01*
X219741206Y-123842335D01*
X219827452Y-123957544D01*
X219827455Y-123957547D01*
X219942664Y-124043793D01*
X219942671Y-124043797D01*
X219987618Y-124060561D01*
X220077517Y-124094091D01*
X220137127Y-124100500D01*
X220310500Y-124100499D01*
X220377539Y-124120183D01*
X220423294Y-124172987D01*
X220434500Y-124224499D01*
X220434500Y-125294904D01*
X220414815Y-125361943D01*
X220398181Y-125382585D01*
X219967582Y-125813183D01*
X219906259Y-125846668D01*
X219879901Y-125849502D01*
X218532129Y-125849502D01*
X218532123Y-125849503D01*
X218472516Y-125855910D01*
X218337671Y-125906204D01*
X218337664Y-125906208D01*
X218222455Y-125992454D01*
X218222452Y-125992457D01*
X218136206Y-126107666D01*
X218136202Y-126107673D01*
X218085908Y-126242519D01*
X218079501Y-126302118D01*
X218079500Y-126302137D01*
X218079500Y-128097872D01*
X218079501Y-128097878D01*
X218085908Y-128157485D01*
X218136202Y-128292330D01*
X218136206Y-128292337D01*
X218222452Y-128407546D01*
X218222455Y-128407549D01*
X218337664Y-128493795D01*
X218337671Y-128493799D01*
X218472517Y-128544093D01*
X218472516Y-128544093D01*
X218479444Y-128544837D01*
X218532127Y-128550502D01*
X220327872Y-128550501D01*
X220387483Y-128544093D01*
X220522331Y-128493798D01*
X220637546Y-128407548D01*
X220723796Y-128292333D01*
X220772811Y-128160917D01*
X220814682Y-128104983D01*
X220880146Y-128080565D01*
X220948419Y-128095416D01*
X220976674Y-128116568D01*
X221090213Y-128230107D01*
X221262179Y-128355046D01*
X221262181Y-128355047D01*
X221262184Y-128355049D01*
X221451588Y-128451555D01*
X221653757Y-128517244D01*
X221863713Y-128550498D01*
X221863714Y-128550498D01*
X222076286Y-128550498D01*
X222076287Y-128550498D01*
X222286243Y-128517244D01*
X222488412Y-128451555D01*
X222677816Y-128355049D01*
X222732570Y-128315268D01*
X222849786Y-128230107D01*
X222849788Y-128230104D01*
X222849792Y-128230102D01*
X223000104Y-128079790D01*
X223000106Y-128079786D01*
X223000109Y-128079784D01*
X223125049Y-127907817D01*
X223125184Y-127907553D01*
X223129511Y-127899059D01*
X223177480Y-127848261D01*
X223245300Y-127831460D01*
X223311436Y-127853993D01*
X223350482Y-127899048D01*
X223354951Y-127907819D01*
X223479891Y-128079786D01*
X223630214Y-128230109D01*
X223802180Y-128355048D01*
X223802182Y-128355049D01*
X223802185Y-128355051D01*
X223991589Y-128451557D01*
X224193758Y-128517246D01*
X224403714Y-128550500D01*
X224403715Y-128550500D01*
X224616287Y-128550500D01*
X224616288Y-128550500D01*
X224826244Y-128517246D01*
X225028413Y-128451557D01*
X225217817Y-128355051D01*
X225283333Y-128307451D01*
X225389787Y-128230109D01*
X225389789Y-128230106D01*
X225389793Y-128230104D01*
X225540105Y-128079792D01*
X225540107Y-128079788D01*
X225540110Y-128079786D01*
X225665049Y-127907820D01*
X225665051Y-127907817D01*
X225665052Y-127907816D01*
X225669795Y-127898506D01*
X225717767Y-127847710D01*
X225785588Y-127830913D01*
X225851723Y-127853448D01*
X225890764Y-127898501D01*
X225895372Y-127907545D01*
X225895373Y-127907546D01*
X225934728Y-127961715D01*
X226567037Y-127329407D01*
X226584075Y-127392992D01*
X226649901Y-127507006D01*
X226742993Y-127600098D01*
X226857007Y-127665924D01*
X226920590Y-127682961D01*
X226288282Y-128315268D01*
X226288282Y-128315269D01*
X226342449Y-128354623D01*
X226531782Y-128451094D01*
X226733870Y-128516756D01*
X226943754Y-128549999D01*
X227156246Y-128549999D01*
X227366127Y-128516756D01*
X227366130Y-128516756D01*
X227568217Y-128451094D01*
X227757554Y-128354621D01*
X227811716Y-128315269D01*
X227811717Y-128315269D01*
X227179408Y-127682961D01*
X227242993Y-127665924D01*
X227357007Y-127600098D01*
X227450099Y-127507006D01*
X227515925Y-127392992D01*
X227532962Y-127329407D01*
X228165270Y-127961716D01*
X228165270Y-127961715D01*
X228204622Y-127907553D01*
X228301095Y-127718216D01*
X228366757Y-127516129D01*
X228366757Y-127516126D01*
X228400000Y-127306245D01*
X228400000Y-127093754D01*
X228394755Y-127060640D01*
X228394755Y-127060639D01*
X228392454Y-127046113D01*
X235682300Y-127046113D01*
X235682300Y-127258687D01*
X235715554Y-127468643D01*
X235778265Y-127661648D01*
X235781244Y-127670814D01*
X235877751Y-127860220D01*
X236002690Y-128032186D01*
X236153013Y-128182509D01*
X236324979Y-128307448D01*
X236324981Y-128307449D01*
X236324984Y-128307451D01*
X236514388Y-128403957D01*
X236716557Y-128469646D01*
X236926513Y-128502900D01*
X236926514Y-128502900D01*
X237139086Y-128502900D01*
X237139087Y-128502900D01*
X237349043Y-128469646D01*
X237551212Y-128403957D01*
X237740616Y-128307451D01*
X237847072Y-128230107D01*
X237912586Y-128182509D01*
X237912588Y-128182506D01*
X237912592Y-128182504D01*
X238062904Y-128032192D01*
X238062906Y-128032188D01*
X238062909Y-128032186D01*
X238187848Y-127860220D01*
X238187847Y-127860220D01*
X238187851Y-127860216D01*
X238284357Y-127670812D01*
X238350046Y-127468643D01*
X238383300Y-127258687D01*
X238383300Y-127046113D01*
X238350046Y-126836157D01*
X238284357Y-126633988D01*
X238187851Y-126444584D01*
X238187849Y-126444581D01*
X238187848Y-126444579D01*
X238062909Y-126272613D01*
X237912586Y-126122290D01*
X237740620Y-125997351D01*
X237551214Y-125900844D01*
X237551213Y-125900843D01*
X237551212Y-125900843D01*
X237349043Y-125835154D01*
X237349041Y-125835153D01*
X237349040Y-125835153D01*
X237187757Y-125809608D01*
X237139087Y-125801900D01*
X236926513Y-125801900D01*
X236877842Y-125809608D01*
X236716560Y-125835153D01*
X236514385Y-125900844D01*
X236324979Y-125997351D01*
X236153013Y-126122290D01*
X236002690Y-126272613D01*
X235877751Y-126444579D01*
X235781244Y-126633985D01*
X235715553Y-126836160D01*
X235706552Y-126892992D01*
X235682300Y-127046113D01*
X228392454Y-127046113D01*
X228366757Y-126883871D01*
X228366757Y-126883868D01*
X228301095Y-126681781D01*
X228204624Y-126492448D01*
X228165270Y-126438281D01*
X228165269Y-126438281D01*
X227532962Y-127070589D01*
X227515925Y-127007006D01*
X227450099Y-126892992D01*
X227357007Y-126799900D01*
X227242993Y-126734074D01*
X227179409Y-126717036D01*
X227811716Y-126084727D01*
X227757550Y-126045374D01*
X227568217Y-125948903D01*
X227366129Y-125883241D01*
X227156246Y-125849999D01*
X226943754Y-125849999D01*
X226733872Y-125883241D01*
X226733869Y-125883241D01*
X226531782Y-125948903D01*
X226342439Y-126045379D01*
X226288282Y-126084726D01*
X226288282Y-126084727D01*
X226920591Y-126717036D01*
X226857007Y-126734074D01*
X226742993Y-126799900D01*
X226649901Y-126892992D01*
X226584075Y-127007006D01*
X226567037Y-127070590D01*
X225934728Y-126438281D01*
X225934727Y-126438281D01*
X225895380Y-126492439D01*
X225895377Y-126492443D01*
X225890764Y-126501498D01*
X225842789Y-126552292D01*
X225774967Y-126569086D01*
X225708833Y-126546547D01*
X225669796Y-126501495D01*
X225669516Y-126500946D01*
X225665052Y-126492184D01*
X225665050Y-126492181D01*
X225665049Y-126492179D01*
X225540110Y-126320213D01*
X225389787Y-126169890D01*
X225217821Y-126044951D01*
X225028415Y-125948444D01*
X225028414Y-125948443D01*
X225028413Y-125948443D01*
X224826244Y-125882754D01*
X224826242Y-125882753D01*
X224826241Y-125882753D01*
X224656759Y-125855910D01*
X224616288Y-125849500D01*
X224403714Y-125849500D01*
X224363243Y-125855910D01*
X224193761Y-125882753D01*
X223991586Y-125948444D01*
X223802180Y-126044951D01*
X223630214Y-126169890D01*
X223479891Y-126320213D01*
X223354950Y-126492182D01*
X223350485Y-126500946D01*
X223302510Y-126551742D01*
X223234689Y-126568536D01*
X223168554Y-126545998D01*
X223129517Y-126500946D01*
X223125050Y-126492180D01*
X223000109Y-126320211D01*
X222849786Y-126169888D01*
X222677815Y-126044946D01*
X222677814Y-126044945D01*
X222638205Y-126024763D01*
X222587409Y-125976789D01*
X222570500Y-125914279D01*
X222570500Y-125605097D01*
X222590185Y-125538058D01*
X222606819Y-125517416D01*
X222829331Y-125294904D01*
X224055520Y-124068716D01*
X224076296Y-124032730D01*
X224126862Y-123984513D01*
X224126915Y-123984485D01*
X224282816Y-123905051D01*
X224374672Y-123838313D01*
X224454786Y-123780109D01*
X224454788Y-123780106D01*
X224454792Y-123780104D01*
X224605104Y-123629792D01*
X224605106Y-123629788D01*
X224605109Y-123629786D01*
X224690890Y-123511717D01*
X224730051Y-123457816D01*
X224734793Y-123448508D01*
X224782763Y-123397711D01*
X224850583Y-123380911D01*
X224916719Y-123403445D01*
X224955763Y-123448500D01*
X224960373Y-123457547D01*
X224999728Y-123511716D01*
X225632037Y-122879408D01*
X225649075Y-122942993D01*
X225714901Y-123057007D01*
X225807993Y-123150099D01*
X225922007Y-123215925D01*
X225985590Y-123232962D01*
X225353282Y-123865269D01*
X225353282Y-123865270D01*
X225407449Y-123904624D01*
X225596782Y-124001095D01*
X225798870Y-124066757D01*
X226008754Y-124100000D01*
X226221246Y-124100000D01*
X226431127Y-124066757D01*
X226431130Y-124066757D01*
X226633217Y-124001095D01*
X226822554Y-123904622D01*
X226876716Y-123865270D01*
X226876717Y-123865270D01*
X226244408Y-123232962D01*
X226307993Y-123215925D01*
X226422007Y-123150099D01*
X226515099Y-123057007D01*
X226580925Y-122942993D01*
X226597962Y-122879408D01*
X227230270Y-123511717D01*
X227230270Y-123511716D01*
X227269622Y-123457554D01*
X227366095Y-123268217D01*
X227431757Y-123066130D01*
X227431757Y-123066127D01*
X227465000Y-122856246D01*
X227465000Y-122643753D01*
X227431757Y-122433872D01*
X227431757Y-122433869D01*
X227366095Y-122231782D01*
X227269624Y-122042449D01*
X227230270Y-121988282D01*
X227230269Y-121988282D01*
X226597962Y-122620590D01*
X226580925Y-122557007D01*
X226515099Y-122442993D01*
X226422007Y-122349901D01*
X226307993Y-122284075D01*
X226244409Y-122267037D01*
X226876716Y-121634728D01*
X226822550Y-121595375D01*
X226633217Y-121498904D01*
X226431129Y-121433242D01*
X226221246Y-121400000D01*
X226008754Y-121400000D01*
X225798872Y-121433242D01*
X225798869Y-121433242D01*
X225596782Y-121498904D01*
X225407439Y-121595380D01*
X225353282Y-121634727D01*
X225353282Y-121634728D01*
X225985591Y-122267037D01*
X225922007Y-122284075D01*
X225807993Y-122349901D01*
X225714901Y-122442993D01*
X225649075Y-122557007D01*
X225632037Y-122620591D01*
X224999728Y-121988282D01*
X224999727Y-121988282D01*
X224960380Y-122042440D01*
X224960376Y-122042446D01*
X224955760Y-122051505D01*
X224907781Y-122102297D01*
X224839959Y-122119087D01*
X224773826Y-122096543D01*
X224734794Y-122051493D01*
X224730051Y-122042184D01*
X224730049Y-122042181D01*
X224730048Y-122042179D01*
X224605109Y-121870213D01*
X224454786Y-121719890D01*
X224282820Y-121594951D01*
X224093414Y-121498444D01*
X224093413Y-121498443D01*
X224093412Y-121498443D01*
X223891243Y-121432754D01*
X223891241Y-121432753D01*
X223891240Y-121432753D01*
X223729957Y-121407208D01*
X223681287Y-121399500D01*
X223468713Y-121399500D01*
X223420042Y-121407208D01*
X223258760Y-121432753D01*
X223056585Y-121498444D01*
X222867179Y-121594951D01*
X222695215Y-121719889D01*
X222581673Y-121833431D01*
X222520350Y-121866915D01*
X222450658Y-121861931D01*
X222394725Y-121820059D01*
X222377810Y-121789082D01*
X222328797Y-121657671D01*
X222328793Y-121657664D01*
X222242547Y-121542455D01*
X222242544Y-121542452D01*
X222127335Y-121456206D01*
X222127328Y-121456202D01*
X221992482Y-121405908D01*
X221992483Y-121405908D01*
X221932883Y-121399501D01*
X221932881Y-121399500D01*
X221932873Y-121399500D01*
X221932864Y-121399500D01*
X220137129Y-121399500D01*
X220137123Y-121399501D01*
X220077516Y-121405908D01*
X219942671Y-121456202D01*
X219942664Y-121456206D01*
X219827455Y-121542452D01*
X219827452Y-121542455D01*
X219741206Y-121657664D01*
X219741202Y-121657671D01*
X219690908Y-121792517D01*
X219684501Y-121852116D01*
X219684500Y-121852135D01*
X219684500Y-122025500D01*
X219664815Y-122092539D01*
X219612011Y-122138294D01*
X219560500Y-122149500D01*
X217950098Y-122149500D01*
X217883059Y-122129815D01*
X217862417Y-122113181D01*
X214215874Y-118466638D01*
X221817900Y-118466638D01*
X221817900Y-118718561D01*
X221857310Y-118967385D01*
X221935160Y-119206983D01*
X222049532Y-119431448D01*
X222197601Y-119635249D01*
X222197605Y-119635254D01*
X222375745Y-119813394D01*
X222375750Y-119813398D01*
X222553517Y-119942552D01*
X222579555Y-119961470D01*
X222722584Y-120034347D01*
X222804016Y-120075839D01*
X222804018Y-120075839D01*
X222804021Y-120075841D01*
X223043615Y-120153690D01*
X223292438Y-120193100D01*
X223292439Y-120193100D01*
X223544361Y-120193100D01*
X223544362Y-120193100D01*
X223793185Y-120153690D01*
X224032779Y-120075841D01*
X224257245Y-119961470D01*
X224461056Y-119813393D01*
X224639193Y-119635256D01*
X224787270Y-119431445D01*
X224901641Y-119206979D01*
X224979490Y-118967385D01*
X225018900Y-118718562D01*
X225018900Y-118466638D01*
X224979490Y-118217815D01*
X224901641Y-117978221D01*
X224901639Y-117978218D01*
X224901639Y-117978216D01*
X224860147Y-117896784D01*
X224787270Y-117753755D01*
X224675490Y-117599902D01*
X224639198Y-117549950D01*
X224639194Y-117549945D01*
X224461054Y-117371805D01*
X224461049Y-117371801D01*
X224257248Y-117223732D01*
X224257247Y-117223731D01*
X224257245Y-117223730D01*
X224187147Y-117188013D01*
X224032783Y-117109360D01*
X223793185Y-117031510D01*
X223608812Y-117002308D01*
X223544362Y-116992100D01*
X223292438Y-116992100D01*
X223227988Y-117002308D01*
X223043614Y-117031510D01*
X222804016Y-117109360D01*
X222579551Y-117223732D01*
X222375750Y-117371801D01*
X222375745Y-117371805D01*
X222197605Y-117549945D01*
X222197601Y-117549950D01*
X222049532Y-117753751D01*
X221935160Y-117978216D01*
X221857310Y-118217814D01*
X221817900Y-118466638D01*
X214215874Y-118466638D01*
X213436819Y-117687583D01*
X213403334Y-117626260D01*
X213400500Y-117599902D01*
X213400500Y-117002308D01*
X213420185Y-116935269D01*
X213436819Y-116914627D01*
X214017037Y-116334408D01*
X214034075Y-116397993D01*
X214099901Y-116512007D01*
X214192993Y-116605099D01*
X214307007Y-116670925D01*
X214370590Y-116687962D01*
X213738282Y-117320269D01*
X213738282Y-117320270D01*
X213792449Y-117359624D01*
X213981782Y-117456095D01*
X214183870Y-117521757D01*
X214393754Y-117555000D01*
X214606246Y-117555000D01*
X214816127Y-117521757D01*
X214816130Y-117521757D01*
X215018217Y-117456095D01*
X215207554Y-117359622D01*
X215261716Y-117320270D01*
X215261717Y-117320270D01*
X214629408Y-116687962D01*
X214692993Y-116670925D01*
X214807007Y-116605099D01*
X214900099Y-116512007D01*
X214965925Y-116397993D01*
X214982962Y-116334408D01*
X215615270Y-116966717D01*
X215615270Y-116966716D01*
X215654622Y-116912554D01*
X215751095Y-116723217D01*
X215816757Y-116521130D01*
X215816757Y-116521127D01*
X215850000Y-116311246D01*
X215850000Y-116098753D01*
X215816757Y-115888872D01*
X215816757Y-115888869D01*
X215751095Y-115686782D01*
X215654624Y-115497449D01*
X215615270Y-115443282D01*
X215615269Y-115443282D01*
X214982962Y-116075590D01*
X214965925Y-116012007D01*
X214900099Y-115897993D01*
X214807007Y-115804901D01*
X214692993Y-115739075D01*
X214629409Y-115722037D01*
X215261716Y-115089728D01*
X215207547Y-115050373D01*
X215207547Y-115050372D01*
X215198500Y-115045763D01*
X215147706Y-114997788D01*
X215130912Y-114929966D01*
X215153451Y-114863832D01*
X215198508Y-114824793D01*
X215207816Y-114820051D01*
X215287007Y-114762515D01*
X215379786Y-114695109D01*
X215379788Y-114695106D01*
X215379792Y-114695104D01*
X215530104Y-114544792D01*
X215530106Y-114544788D01*
X215530109Y-114544786D01*
X215655048Y-114372820D01*
X215655047Y-114372820D01*
X215655051Y-114372816D01*
X215751557Y-114183412D01*
X215817246Y-113981243D01*
X215850500Y-113771287D01*
X215850500Y-113623102D01*
X217676100Y-113623102D01*
X217676100Y-113859297D01*
X217713046Y-114092568D01*
X217786033Y-114317196D01*
X217893257Y-114527633D01*
X218032083Y-114718710D01*
X218199090Y-114885717D01*
X218390167Y-115024543D01*
X218440875Y-115050380D01*
X218600603Y-115131766D01*
X218600605Y-115131766D01*
X218600608Y-115131768D01*
X218721012Y-115170889D01*
X218825231Y-115204753D01*
X219058503Y-115241700D01*
X219058508Y-115241700D01*
X219294697Y-115241700D01*
X219527968Y-115204753D01*
X219752592Y-115131768D01*
X219963033Y-115024543D01*
X220154110Y-114885717D01*
X220321117Y-114718710D01*
X220459943Y-114527633D01*
X220567168Y-114317192D01*
X220640153Y-114092568D01*
X220657786Y-113981239D01*
X220677100Y-113859297D01*
X220677100Y-113623102D01*
X226464500Y-113623102D01*
X226464500Y-113859297D01*
X226501446Y-114092568D01*
X226574433Y-114317196D01*
X226681657Y-114527633D01*
X226820483Y-114718710D01*
X226987490Y-114885717D01*
X227178567Y-115024543D01*
X227229275Y-115050380D01*
X227389003Y-115131766D01*
X227389005Y-115131766D01*
X227389008Y-115131768D01*
X227509412Y-115170889D01*
X227613631Y-115204753D01*
X227846903Y-115241700D01*
X227846908Y-115241700D01*
X228083097Y-115241700D01*
X228316368Y-115204753D01*
X228540992Y-115131768D01*
X228751433Y-115024543D01*
X228942510Y-114885717D01*
X229109517Y-114718710D01*
X229248343Y-114527633D01*
X229355568Y-114317192D01*
X229428553Y-114092568D01*
X229446186Y-113981239D01*
X229465500Y-113859297D01*
X229465500Y-113623102D01*
X229428553Y-113389831D01*
X229355566Y-113165203D01*
X229299002Y-113054191D01*
X229248343Y-112954767D01*
X229109517Y-112763690D01*
X228942510Y-112596683D01*
X228751433Y-112457857D01*
X228733530Y-112448735D01*
X228540996Y-112350633D01*
X228316368Y-112277646D01*
X228083097Y-112240700D01*
X228083092Y-112240700D01*
X227846908Y-112240700D01*
X227846903Y-112240700D01*
X227613631Y-112277646D01*
X227389003Y-112350633D01*
X227178566Y-112457857D01*
X227069550Y-112537062D01*
X226987490Y-112596683D01*
X226987488Y-112596685D01*
X226987487Y-112596685D01*
X226820485Y-112763687D01*
X226820485Y-112763688D01*
X226820483Y-112763690D01*
X226804846Y-112785213D01*
X226681657Y-112954766D01*
X226574433Y-113165203D01*
X226501446Y-113389831D01*
X226464500Y-113623102D01*
X220677100Y-113623102D01*
X220640153Y-113389831D01*
X220567166Y-113165203D01*
X220510602Y-113054191D01*
X220459943Y-112954767D01*
X220321117Y-112763690D01*
X220154110Y-112596683D01*
X219963033Y-112457857D01*
X219945130Y-112448735D01*
X219752596Y-112350633D01*
X219527968Y-112277646D01*
X219294697Y-112240700D01*
X219294692Y-112240700D01*
X219058508Y-112240700D01*
X219058503Y-112240700D01*
X218825231Y-112277646D01*
X218600603Y-112350633D01*
X218390166Y-112457857D01*
X218281150Y-112537062D01*
X218199090Y-112596683D01*
X218199088Y-112596685D01*
X218199087Y-112596685D01*
X218032085Y-112763687D01*
X218032085Y-112763688D01*
X218032083Y-112763690D01*
X218016446Y-112785213D01*
X217893257Y-112954766D01*
X217786033Y-113165203D01*
X217713046Y-113389831D01*
X217676100Y-113623102D01*
X215850500Y-113623102D01*
X215850500Y-113558713D01*
X215817246Y-113348757D01*
X215751557Y-113146588D01*
X215655051Y-112957184D01*
X215655049Y-112957181D01*
X215655048Y-112957179D01*
X215530109Y-112785213D01*
X215416569Y-112671673D01*
X215383084Y-112610350D01*
X215388068Y-112540658D01*
X215429940Y-112484725D01*
X215460915Y-112467810D01*
X215592331Y-112418796D01*
X215707546Y-112332546D01*
X215793796Y-112217331D01*
X215844091Y-112082483D01*
X215850500Y-112022873D01*
X215850499Y-110227128D01*
X215844091Y-110167517D01*
X215793796Y-110032669D01*
X215793795Y-110032668D01*
X215793793Y-110032664D01*
X215707547Y-109917455D01*
X215707544Y-109917452D01*
X215592335Y-109831206D01*
X215592328Y-109831202D01*
X215457482Y-109780908D01*
X215457483Y-109780908D01*
X215397883Y-109774501D01*
X215397881Y-109774500D01*
X215397873Y-109774500D01*
X215397864Y-109774500D01*
X213602129Y-109774500D01*
X213602123Y-109774501D01*
X213542516Y-109780908D01*
X213407671Y-109831202D01*
X213407664Y-109831206D01*
X213292455Y-109917452D01*
X213292452Y-109917455D01*
X213206206Y-110032664D01*
X213206202Y-110032671D01*
X213155908Y-110167517D01*
X213152928Y-110195239D01*
X213149501Y-110227123D01*
X213149500Y-110227135D01*
X213149500Y-110949901D01*
X213129815Y-111016940D01*
X213113181Y-111037582D01*
X212431286Y-111719478D01*
X212319481Y-111831282D01*
X212319475Y-111831290D01*
X212278572Y-111902138D01*
X212278572Y-111902139D01*
X212240423Y-111968215D01*
X212199499Y-112120943D01*
X212199499Y-112279057D01*
X212199499Y-112279059D01*
X212199500Y-112289053D01*
X212199500Y-117813330D01*
X212199499Y-117813348D01*
X212199499Y-117979054D01*
X212199498Y-117979054D01*
X208000500Y-117979054D01*
X208000500Y-108586038D01*
X221817900Y-108586038D01*
X221817900Y-108837961D01*
X221857310Y-109086785D01*
X221935160Y-109326383D01*
X222049532Y-109550848D01*
X222197601Y-109754649D01*
X222197605Y-109754654D01*
X222375745Y-109932794D01*
X222375750Y-109932798D01*
X222553517Y-110061952D01*
X222579555Y-110080870D01*
X222722584Y-110153747D01*
X222804016Y-110195239D01*
X222804018Y-110195239D01*
X222804021Y-110195241D01*
X223043615Y-110273090D01*
X223292438Y-110312500D01*
X223292439Y-110312500D01*
X223544361Y-110312500D01*
X223544362Y-110312500D01*
X223793185Y-110273090D01*
X224032779Y-110195241D01*
X224257245Y-110080870D01*
X224461056Y-109932793D01*
X224639193Y-109754656D01*
X224787270Y-109550845D01*
X224901641Y-109326379D01*
X224979490Y-109086785D01*
X225018900Y-108837962D01*
X225018900Y-108586038D01*
X224979490Y-108337215D01*
X224901641Y-108097621D01*
X224901639Y-108097618D01*
X224901639Y-108097616D01*
X224860147Y-108016184D01*
X224787270Y-107873155D01*
X224768352Y-107847117D01*
X224639198Y-107669350D01*
X224639194Y-107669345D01*
X224461054Y-107491205D01*
X224461049Y-107491201D01*
X224257248Y-107343132D01*
X224257247Y-107343131D01*
X224257245Y-107343130D01*
X224187147Y-107307413D01*
X224032783Y-107228760D01*
X223793185Y-107150910D01*
X223544362Y-107111500D01*
X223292438Y-107111500D01*
X223168026Y-107131205D01*
X223043614Y-107150910D01*
X222804016Y-107228760D01*
X222579551Y-107343132D01*
X222375750Y-107491201D01*
X222375745Y-107491205D01*
X222197605Y-107669345D01*
X222197601Y-107669350D01*
X222049532Y-107873151D01*
X221935160Y-108097616D01*
X221857310Y-108337214D01*
X221817900Y-108586038D01*
X208000500Y-108586038D01*
X208000500Y-100020513D01*
X208656700Y-100020513D01*
X208656700Y-100233086D01*
X208689953Y-100443039D01*
X208755644Y-100645214D01*
X208852151Y-100834620D01*
X208977090Y-101006586D01*
X209127413Y-101156909D01*
X209299379Y-101281848D01*
X209299381Y-101281849D01*
X209299384Y-101281851D01*
X209488788Y-101378357D01*
X209690957Y-101444046D01*
X209900913Y-101477300D01*
X209900914Y-101477300D01*
X210113486Y-101477300D01*
X210113487Y-101477300D01*
X210323443Y-101444046D01*
X210525612Y-101378357D01*
X210715016Y-101281851D01*
X210736989Y-101265886D01*
X210886986Y-101156909D01*
X210886988Y-101156906D01*
X210886992Y-101156904D01*
X211037304Y-101006592D01*
X211037306Y-101006588D01*
X211037309Y-101006586D01*
X211162248Y-100834620D01*
X211162247Y-100834620D01*
X211162251Y-100834616D01*
X211258757Y-100645212D01*
X211324446Y-100443043D01*
X211357700Y-100233087D01*
X211357700Y-100020513D01*
X235682300Y-100020513D01*
X235682300Y-100233086D01*
X235715553Y-100443039D01*
X235781244Y-100645214D01*
X235877751Y-100834620D01*
X236002690Y-101006586D01*
X236153013Y-101156909D01*
X236324979Y-101281848D01*
X236324981Y-101281849D01*
X236324984Y-101281851D01*
X236514388Y-101378357D01*
X236716557Y-101444046D01*
X236926513Y-101477300D01*
X236926514Y-101477300D01*
X237139086Y-101477300D01*
X237139087Y-101477300D01*
X237349043Y-101444046D01*
X237551212Y-101378357D01*
X237740616Y-101281851D01*
X237762589Y-101265886D01*
X237912586Y-101156909D01*
X237912588Y-101156906D01*
X237912592Y-101156904D01*
X238062904Y-101006592D01*
X238062906Y-101006588D01*
X238062909Y-101006586D01*
X238187848Y-100834620D01*
X238187847Y-100834620D01*
X238187851Y-100834616D01*
X238284357Y-100645212D01*
X238350046Y-100443043D01*
X238383300Y-100233087D01*
X238383300Y-100020513D01*
X238350046Y-99810557D01*
X238284357Y-99608388D01*
X238187851Y-99418984D01*
X238187849Y-99418981D01*
X238187848Y-99418979D01*
X238062909Y-99247013D01*
X237912586Y-99096690D01*
X237740620Y-98971751D01*
X237551214Y-98875244D01*
X237551213Y-98875243D01*
X237551212Y-98875243D01*
X237349043Y-98809554D01*
X237349041Y-98809553D01*
X237349040Y-98809553D01*
X237187757Y-98784008D01*
X237139087Y-98776300D01*
X236926513Y-98776300D01*
X236877842Y-98784008D01*
X236716560Y-98809553D01*
X236514385Y-98875244D01*
X236324979Y-98971751D01*
X236153013Y-99096690D01*
X236002690Y-99247013D01*
X235877751Y-99418979D01*
X235781244Y-99608385D01*
X235715553Y-99810560D01*
X235682300Y-100020513D01*
X211357700Y-100020513D01*
X211324446Y-99810557D01*
X211258757Y-99608388D01*
X211162251Y-99418984D01*
X211162249Y-99418981D01*
X211162248Y-99418979D01*
X211037309Y-99247013D01*
X210886986Y-99096690D01*
X210715020Y-98971751D01*
X210525614Y-98875244D01*
X210525613Y-98875243D01*
X210525612Y-98875243D01*
X210323443Y-98809554D01*
X210323441Y-98809553D01*
X210323440Y-98809553D01*
X210162157Y-98784008D01*
X210113487Y-98776300D01*
X209900913Y-98776300D01*
X209852242Y-98784008D01*
X209690960Y-98809553D01*
X209488785Y-98875244D01*
X209299379Y-98971751D01*
X209127413Y-99096690D01*
X208977090Y-99247013D01*
X208852151Y-99418979D01*
X208755644Y-99608385D01*
X208689953Y-99810560D01*
X208656700Y-100020513D01*
X208000500Y-100020513D01*
X208000500Y-98124500D01*
X208020185Y-98057461D01*
X208072989Y-98011706D01*
X208124500Y-98000500D01*
X238875500Y-98000500D01*
X238942539Y-98020185D01*
G37*
%TD.AperFunction*%
%TD*%
M02*
