M48
; DRILL file {KiCad 9.0.7} date 2026-03-05T12:26:57+1100
; FORMAT={-:-/ absolute / metric / decimal}
; #@! TF.CreationDate,2026-03-05T12:26:57+11:00
; #@! TF.GenerationSoftware,Kicad,Pcbnew,9.0.7
; #@! TF.FileFunction,Plated,1,2,PTH
FMAT,2
METRIC
; #@! TA.AperFunction,Plated,PTH,ComponentDrill
T1C0.900
; #@! TA.AperFunction,Plated,PTH,ComponentDrill
T2C0.990
; #@! TA.AperFunction,Plated,PTH,ComponentDrill
T3C1.000
; #@! TA.AperFunction,Plated,PTH,ComponentDrill
T4C1.300
%
G90
G05
T1
X159.309Y-76.365
X159.309Y-77.635
X159.309Y-78.905
X159.309Y-80.175
T2
X139.21Y-84.132
X143.465Y-82.667
T3
X127.89Y-98.731
X131.211Y-90.906
X132.032Y-100.489
X133.014Y-110.805
X135.354Y-92.665
X135.498Y-111.333
X137.983Y-111.861
X140.467Y-112.389
X142.952Y-112.917
X143.1Y-97.8
X143.1Y-106.3
X145.436Y-113.445
X146.698Y-90.434
X147.6Y-97.8
X147.6Y-106.3
X149.325Y-82.35
X150.978Y-91.825
X153.605Y-83.741
X158.275Y-105.55
X158.275Y-114.05
X162.775Y-105.55
X162.775Y-114.05
T4
X138.839Y-86.894
X145.467Y-84.611
M30
