%TF.GenerationSoftware,KiCad,Pcbnew,9.0.7*%
%TF.CreationDate,2026-03-05T12:27:01+11:00*%
%TF.ProjectId,BCY,4243592e-6b69-4636-9164-5f7063625858,rev?*%
%TF.SameCoordinates,Original*%
%TF.FileFunction,Profile,NP*%
%FSLAX46Y46*%
G04 Gerber Fmt 4.6, Leading zero omitted, Abs format (unit mm)*
G04 Created by KiCad (PCBNEW 9.0.7) date 2026-03-05 12:27:01*
%MOMM*%
%LPD*%
G01*
G04 APERTURE LIST*
%TA.AperFunction,Profile*%
%ADD10C,0.050000*%
%TD*%
G04 APERTURE END LIST*
D10*
X156972000Y-75438000D02*
X161696400Y-75438000D01*
X156972000Y-75438000D02*
X156972000Y-83058000D01*
X125200000Y-110900000D02*
X125025000Y-110650000D01*
X166450000Y-116350000D02*
X166250000Y-116525000D01*
X166775000Y-115775000D02*
X166575000Y-116175000D01*
X166550000Y-86475000D02*
X166650000Y-86625000D01*
X125025000Y-110650000D02*
X124875000Y-110200000D01*
X131975000Y-82825000D02*
X132100000Y-82700000D01*
X125575000Y-111225000D02*
X125200000Y-110900000D01*
X166250000Y-116525000D02*
X166050000Y-116650000D01*
X165775000Y-85925000D02*
X166075000Y-86050000D01*
X166425000Y-86325000D02*
X166550000Y-86475000D01*
X165825000Y-116750000D02*
X165600000Y-116800000D01*
X125800000Y-111325000D02*
X125575000Y-111225000D01*
X132200000Y-82600000D02*
X132325000Y-82500000D01*
X146950000Y-79875000D02*
X147125000Y-79875000D01*
X165350000Y-116825000D02*
X152000000Y-116800000D01*
X166800000Y-86975000D02*
X166825000Y-87150000D01*
X132500000Y-82400000D02*
X132750000Y-82325000D01*
X166050000Y-116650000D02*
X165825000Y-116750000D01*
X132750000Y-82325000D02*
X146950000Y-79875000D01*
X166075000Y-86050000D02*
X166275000Y-86200000D01*
X165600000Y-116800000D02*
X165350000Y-116825000D01*
X131850000Y-82975000D02*
X131975000Y-82825000D01*
X166850000Y-87375000D02*
X166850000Y-115300000D01*
X161696400Y-84601915D02*
X165775000Y-85925000D01*
X126175000Y-111425000D02*
X125800000Y-111325000D01*
X132325000Y-82500000D02*
X132500000Y-82400000D01*
X161696400Y-75438000D02*
X161696400Y-84601915D01*
X166650000Y-86625000D02*
X166725000Y-86800000D01*
X166850000Y-115300000D02*
X166850000Y-115500000D01*
X152000000Y-116800000D02*
X126175000Y-111425000D01*
X124850000Y-109925000D02*
X124850000Y-99550000D01*
X166275000Y-86200000D02*
X166425000Y-86325000D01*
X166575000Y-116175000D02*
X166450000Y-116350000D01*
X166725000Y-86800000D02*
X166800000Y-86975000D01*
X166825000Y-87150000D02*
X166850000Y-87375000D01*
X124850000Y-99550000D02*
X131850000Y-82975000D01*
X132100000Y-82700000D02*
X132200000Y-82600000D01*
X124875000Y-110200000D02*
X124850000Y-109925000D01*
X166850000Y-115500000D02*
X166775000Y-115775000D01*
X156972000Y-83058000D02*
X147125000Y-79875000D01*
M02*
