%TF.GenerationSoftware,KiCad,Pcbnew,9.0.7*%
%TF.CreationDate,2026-03-05T12:27:01+11:00*%
%TF.ProjectId,BCY,4243592e-6b69-4636-9164-5f7063625858,rev?*%
%TF.SameCoordinates,Original*%
%TF.FileFunction,Legend,Top*%
%TF.FilePolarity,Positive*%
%FSLAX46Y46*%
G04 Gerber Fmt 4.6, Leading zero omitted, Abs format (unit mm)*
G04 Created by KiCad (PCBNEW 9.0.7) date 2026-03-05 12:27:01*
%MOMM*%
%LPD*%
G01*
G04 APERTURE LIST*
%ADD10C,0.100000*%
%ADD11C,0.150000*%
%ADD12C,0.120000*%
G04 APERTURE END LIST*
D10*
X161261297Y-93109329D02*
X161386961Y-93192299D01*
X161386961Y-93192299D02*
X161420633Y-93250620D01*
X161420633Y-93250620D02*
X161441980Y-93354938D01*
X161441980Y-93354938D02*
X161405006Y-93492928D01*
X161405006Y-93492928D02*
X161334360Y-93572596D01*
X161334360Y-93572596D02*
X161276039Y-93606267D01*
X161276039Y-93606267D02*
X161171721Y-93627615D01*
X161171721Y-93627615D02*
X160803750Y-93529017D01*
X160803750Y-93529017D02*
X161062569Y-92563091D01*
X161062569Y-92563091D02*
X161384544Y-92649364D01*
X161384544Y-92649364D02*
X161464212Y-92720010D01*
X161464212Y-92720010D02*
X161497884Y-92778331D01*
X161497884Y-92778331D02*
X161519231Y-92882649D01*
X161519231Y-92882649D02*
X161494581Y-92974642D01*
X161494581Y-92974642D02*
X161423936Y-93054310D01*
X161423936Y-93054310D02*
X161365614Y-93087982D01*
X161365614Y-93087982D02*
X161261297Y-93109329D01*
X161261297Y-93109329D02*
X160939321Y-93023056D01*
X162042179Y-89681317D02*
X162105335Y-90733516D01*
X162105335Y-90733516D02*
X162686130Y-89853863D01*
X162715614Y-90847741D02*
X162841279Y-90930711D01*
X162841279Y-90930711D02*
X163071261Y-90992335D01*
X163071261Y-90992335D02*
X163175579Y-90970988D01*
X163175579Y-90970988D02*
X163233900Y-90937316D01*
X163233900Y-90937316D02*
X163304546Y-90857648D01*
X163304546Y-90857648D02*
X163329196Y-90765655D01*
X163329196Y-90765655D02*
X163307848Y-90661337D01*
X163307848Y-90661337D02*
X163274177Y-90603016D01*
X163274177Y-90603016D02*
X163194509Y-90532370D01*
X163194509Y-90532370D02*
X163022847Y-90437075D01*
X163022847Y-90437075D02*
X162943179Y-90366429D01*
X162943179Y-90366429D02*
X162909507Y-90308108D01*
X162909507Y-90308108D02*
X162888160Y-90203790D01*
X162888160Y-90203790D02*
X162912810Y-90111797D01*
X162912810Y-90111797D02*
X162983456Y-90032129D01*
X162983456Y-90032129D02*
X163041777Y-89998457D01*
X163041777Y-89998457D02*
X163146095Y-89977110D01*
X163146095Y-89977110D02*
X163376077Y-90038734D01*
X163376077Y-90038734D02*
X163501742Y-90121704D01*
X163976449Y-90741890D02*
X163853201Y-91201855D01*
X163790045Y-90149656D02*
X163976449Y-90741890D01*
X163976449Y-90741890D02*
X164433996Y-90322202D01*
X164463480Y-91316080D02*
X164589145Y-91399050D01*
X164589145Y-91399050D02*
X164819127Y-91460674D01*
X164819127Y-91460674D02*
X164923445Y-91439327D01*
X164923445Y-91439327D02*
X164981766Y-91405655D01*
X164981766Y-91405655D02*
X165052412Y-91325987D01*
X165052412Y-91325987D02*
X165077061Y-91233994D01*
X165077061Y-91233994D02*
X165055714Y-91129676D01*
X165055714Y-91129676D02*
X165022043Y-91071355D01*
X165022043Y-91071355D02*
X164942374Y-91000709D01*
X164942374Y-91000709D02*
X164770713Y-90905414D01*
X164770713Y-90905414D02*
X164691045Y-90834768D01*
X164691045Y-90834768D02*
X164657373Y-90776447D01*
X164657373Y-90776447D02*
X164636026Y-90672129D01*
X164636026Y-90672129D02*
X164660676Y-90580136D01*
X164660676Y-90580136D02*
X164731322Y-90500468D01*
X164731322Y-90500468D02*
X164789643Y-90466796D01*
X164789643Y-90466796D02*
X164893960Y-90445449D01*
X164893960Y-90445449D02*
X165123943Y-90507073D01*
X165123943Y-90507073D02*
X165249608Y-90590044D01*
X163184507Y-87885713D02*
X162985779Y-87339476D01*
X162632550Y-87737817D02*
X162891369Y-86771891D01*
X162891369Y-86771891D02*
X163259340Y-86870489D01*
X163259340Y-86870489D02*
X163339009Y-86941135D01*
X163339009Y-86941135D02*
X163372680Y-86999456D01*
X163372680Y-86999456D02*
X163394027Y-87103773D01*
X163394027Y-87103773D02*
X163357053Y-87241763D01*
X163357053Y-87241763D02*
X163286407Y-87321431D01*
X163286407Y-87321431D02*
X163228086Y-87355103D01*
X163228086Y-87355103D02*
X163123768Y-87376450D01*
X163123768Y-87376450D02*
X162755797Y-87277852D01*
X160692605Y-95691059D02*
X160612937Y-95620413D01*
X160612937Y-95620413D02*
X160474947Y-95583439D01*
X160474947Y-95583439D02*
X160324633Y-95592462D01*
X160324633Y-95592462D02*
X160207991Y-95659805D01*
X160207991Y-95659805D02*
X160137345Y-95739473D01*
X160137345Y-95739473D02*
X160042050Y-95911134D01*
X160042050Y-95911134D02*
X160005075Y-96049124D01*
X160005075Y-96049124D02*
X160001773Y-96245434D01*
X160001773Y-96245434D02*
X160023120Y-96349752D01*
X160023120Y-96349752D02*
X160090464Y-96466394D01*
X160090464Y-96466394D02*
X160216128Y-96549365D01*
X160216128Y-96549365D02*
X160308121Y-96574015D01*
X160308121Y-96574015D02*
X160458435Y-96564992D01*
X160458435Y-96564992D02*
X160516757Y-96531320D01*
X160516757Y-96531320D02*
X160603030Y-96209345D01*
X160603030Y-96209345D02*
X160419044Y-96160046D01*
D11*
X131415152Y-107394671D02*
X131878761Y-108503505D01*
X132069570Y-107521877D02*
X131224343Y-108376299D01*
X134593755Y-108012529D02*
X135248173Y-108139735D01*
X135248173Y-108139735D02*
X134402946Y-108994156D01*
X134402946Y-108994156D02*
X135057364Y-109121362D01*
X137952875Y-109199090D02*
X137862014Y-109666531D01*
X137725614Y-108621301D02*
X137952875Y-109199090D01*
X137952875Y-109199090D02*
X138380032Y-108748507D01*
X140767925Y-109940321D02*
X141235366Y-110031182D01*
X140619919Y-110202614D02*
X141137937Y-109284590D01*
X141137937Y-109284590D02*
X141274337Y-110329820D01*
X145020330Y-110524353D02*
X145151476Y-110598356D01*
X145151476Y-110598356D02*
X145189134Y-110654186D01*
X145189134Y-110654186D02*
X145217706Y-110756761D01*
X145217706Y-110756761D02*
X145190448Y-110896993D01*
X145190448Y-110896993D02*
X145125531Y-110981395D01*
X145125531Y-110981395D02*
X145069701Y-111019053D01*
X145069701Y-111019053D02*
X144967127Y-111047625D01*
X144967127Y-111047625D02*
X144593173Y-110974936D01*
X144593173Y-110974936D02*
X144783982Y-109993309D01*
X144783982Y-109993309D02*
X145111191Y-110056912D01*
X145111191Y-110056912D02*
X145195594Y-110121828D01*
X145195594Y-110121828D02*
X145233252Y-110177659D01*
X145233252Y-110177659D02*
X145261823Y-110280233D01*
X145261823Y-110280233D02*
X145243651Y-110373721D01*
X145243651Y-110373721D02*
X145178735Y-110458123D01*
X145178735Y-110458123D02*
X145122904Y-110495781D01*
X145122904Y-110495781D02*
X145020330Y-110524353D01*
X145020330Y-110524353D02*
X144693121Y-110460750D01*
X148514429Y-110766945D02*
X148430027Y-110702028D01*
X148430027Y-110702028D02*
X148289794Y-110674770D01*
X148289794Y-110674770D02*
X148140476Y-110694255D01*
X148140476Y-110694255D02*
X148028815Y-110769571D01*
X148028815Y-110769571D02*
X147963899Y-110853974D01*
X147963899Y-110853974D02*
X147880810Y-111031864D01*
X147880810Y-111031864D02*
X147853552Y-111172096D01*
X147853552Y-111172096D02*
X147863951Y-111368159D01*
X147863951Y-111368159D02*
X147892523Y-111470734D01*
X147892523Y-111470734D02*
X147967839Y-111582394D01*
X147967839Y-111582394D02*
X148098985Y-111656397D01*
X148098985Y-111656397D02*
X148192474Y-111674569D01*
X148192474Y-111674569D02*
X148341792Y-111655083D01*
X148341792Y-111655083D02*
X148397623Y-111617425D01*
X148397623Y-111617425D02*
X148461226Y-111290216D01*
X148461226Y-111290216D02*
X148274249Y-111253872D01*
X141392124Y-84581282D02*
X142022469Y-84364237D01*
X142022469Y-84364237D02*
X141717692Y-85526801D01*
X141717692Y-85526801D02*
X142348037Y-85309755D01*
D12*
%TO.C,REF\u002A\u002A*%
X158228800Y-75710000D02*
X157763800Y-75710000D01*
X160853800Y-75710000D02*
X160388800Y-75710000D01*
X158228800Y-80524684D02*
G75*
G02*
X158228800Y-76015316I1080000J2254684D01*
G01*
X158228800Y-81058136D02*
G75*
G02*
X157763970Y-75710000I1080000J2788136D01*
G01*
X160388800Y-76015316D02*
G75*
G02*
X160388800Y-80524684I-1080000J-2254684D01*
G01*
X160853630Y-75710000D02*
G75*
G02*
X160388800Y-81058136I-1544830J-2560000D01*
G01*
X131377001Y-111867686D02*
X131663919Y-110517844D01*
X132726846Y-112154605D02*
X131377001Y-111867686D01*
X133969093Y-112418652D02*
X146499164Y-115082002D01*
X133969093Y-112418652D02*
X134542929Y-109718965D01*
X146499164Y-115082002D02*
X147072999Y-112382313D01*
X134542929Y-109718965D02*
X147072999Y-112382313D01*
%TO.C,Z*%
X137395121Y-83805494D02*
X138078813Y-85791084D01*
X138495604Y-85404319D02*
X138570487Y-85621786D01*
X138495604Y-85404319D02*
X139006185Y-85228510D01*
X138925293Y-88249433D02*
X139091334Y-88731646D01*
X139091334Y-88731646D02*
X139583001Y-88562351D01*
X139416962Y-88080137D02*
X139583001Y-88562351D01*
X140046255Y-84870385D02*
X143261015Y-83763453D01*
X144301088Y-83405329D02*
X144811670Y-83229524D01*
X144694524Y-81292107D02*
X145378216Y-83277696D01*
X144811670Y-83229524D02*
X144886549Y-83446993D01*
X145733025Y-85905340D02*
X145899066Y-86387556D01*
X145899066Y-86387556D02*
X146390733Y-86218260D01*
X146224697Y-85736044D02*
X146390733Y-86218260D01*
%TO.C,R*%
X157620107Y-96195865D02*
X158159735Y-94374107D01*
X158159735Y-94374107D02*
X159981493Y-94913735D01*
X159441865Y-96735493D02*
X157620107Y-96195865D01*
X159981493Y-94913735D02*
X159441865Y-96735493D01*
X160312507Y-87509065D02*
X160852135Y-85687307D01*
X160852135Y-85687307D02*
X162673893Y-86226935D01*
X162134265Y-88048693D02*
X160312507Y-87509065D01*
X162673893Y-86226935D02*
X162134265Y-88048693D01*
X159398107Y-90455465D02*
X159937735Y-88633707D01*
X159937735Y-88633707D02*
X161759493Y-89173335D01*
X161219865Y-90995093D02*
X159398107Y-90455465D01*
X161759493Y-89173335D02*
X161219865Y-90995093D01*
X158483707Y-93351065D02*
X159023335Y-91529307D01*
X159023335Y-91529307D02*
X160845093Y-92068935D01*
X160305465Y-93890693D02*
X158483707Y-93351065D01*
X160845093Y-92068935D02*
X160305465Y-93890693D01*
%TD*%
M02*
