%TF.GenerationSoftware,KiCad,Pcbnew,9.0.7*%
%TF.CreationDate,2026-03-05T12:27:01+11:00*%
%TF.ProjectId,BCY,4243592e-6b69-4636-9164-5f7063625858,rev?*%
%TF.SameCoordinates,Original*%
%TF.FileFunction,Legend,Bot*%
%TF.FilePolarity,Positive*%
%FSLAX46Y46*%
G04 Gerber Fmt 4.6, Leading zero omitted, Abs format (unit mm)*
G04 Created by KiCad (PCBNEW 9.0.7) date 2026-03-05 12:27:01*
%MOMM*%
%LPD*%
G01*
G04 APERTURE LIST*
%ADD10C,0.150000*%
%ADD11C,0.120000*%
G04 APERTURE END LIST*
D10*
X150251308Y-87045944D02*
X150704192Y-87193095D01*
X149650130Y-87201097D02*
X150251308Y-87045944D01*
X150251308Y-87045944D02*
X149856141Y-86567059D01*
X131003412Y-95843875D02*
X132184405Y-95620936D01*
X131263900Y-95230205D02*
X131923917Y-96234606D01*
X160456009Y-109728571D02*
X160503628Y-109585714D01*
X160503628Y-109585714D02*
X160551247Y-109538095D01*
X160551247Y-109538095D02*
X160646485Y-109490476D01*
X160646485Y-109490476D02*
X160789342Y-109490476D01*
X160789342Y-109490476D02*
X160884580Y-109538095D01*
X160884580Y-109538095D02*
X160932200Y-109585714D01*
X160932200Y-109585714D02*
X160979819Y-109680952D01*
X160979819Y-109680952D02*
X160979819Y-110061904D01*
X160979819Y-110061904D02*
X159979819Y-110061904D01*
X159979819Y-110061904D02*
X159979819Y-109728571D01*
X159979819Y-109728571D02*
X160027438Y-109633333D01*
X160027438Y-109633333D02*
X160075057Y-109585714D01*
X160075057Y-109585714D02*
X160170295Y-109538095D01*
X160170295Y-109538095D02*
X160265533Y-109538095D01*
X160265533Y-109538095D02*
X160360771Y-109585714D01*
X160360771Y-109585714D02*
X160408390Y-109633333D01*
X160408390Y-109633333D02*
X160456009Y-109728571D01*
X160456009Y-109728571D02*
X160456009Y-110061904D01*
X145519104Y-101811905D02*
X145519104Y-102288095D01*
X145804819Y-101716667D02*
X144804819Y-102050000D01*
X144804819Y-102050000D02*
X145804819Y-102383333D01*
D11*
%TO.C,Y*%
X145237269Y-89591233D02*
X152655510Y-92001564D01*
X147647600Y-82172992D02*
X145237269Y-89591233D01*
X152655510Y-92001564D02*
X155065841Y-84583323D01*
X155065841Y-84583323D02*
X147647600Y-82172992D01*
%TO.C,X*%
X126507940Y-97763786D02*
X133687879Y-100811485D01*
X129555639Y-90583847D02*
X126507940Y-97763786D01*
X133687879Y-100811485D02*
X136735578Y-93631546D01*
X136735578Y-93631546D02*
X129555639Y-90583847D01*
%TO.C,B*%
X156625000Y-105900000D02*
X156625000Y-113700000D01*
X156625000Y-113700000D02*
X164425000Y-113700000D01*
X164425000Y-105900000D02*
X156625000Y-105900000D01*
X164425000Y-113700000D02*
X164425000Y-105900000D01*
%TO.C,A*%
X141450000Y-98150000D02*
X141450000Y-105950000D01*
X141450000Y-105950000D02*
X149250000Y-105950000D01*
X149250000Y-98150000D02*
X141450000Y-98150000D01*
X149250000Y-105950000D02*
X149250000Y-98150000D01*
%TD*%
M02*
