%TF.GenerationSoftware,KiCad,Pcbnew,9.0.7*%
%TF.CreationDate,2026-03-05T13:00:06+11:00*%
%TF.ProjectId,DPAD,44504144-2e6b-4696-9361-645f70636258,rev?*%
%TF.SameCoordinates,Original*%
%TF.FileFunction,Legend,Bot*%
%TF.FilePolarity,Positive*%
%FSLAX46Y46*%
G04 Gerber Fmt 4.6, Leading zero omitted, Abs format (unit mm)*
G04 Created by KiCad (PCBNEW 9.0.7) date 2026-03-05 13:00:06*
%MOMM*%
%LPD*%
G01*
G04 APERTURE LIST*
%ADD10C,0.200000*%
G04 APERTURE END LIST*
D10*
X126425917Y-102405201D02*
X126391018Y-101405810D01*
X126391018Y-101405810D02*
X126153068Y-101414119D01*
X126153068Y-101414119D02*
X126011960Y-101466695D01*
X126011960Y-101466695D02*
X125920103Y-101565199D01*
X125920103Y-101565199D02*
X125875837Y-101662041D01*
X125875837Y-101662041D02*
X125834894Y-101854063D01*
X125834894Y-101854063D02*
X125839880Y-101996833D01*
X125839880Y-101996833D02*
X125894118Y-102185531D01*
X125894118Y-102185531D02*
X125945031Y-102279050D01*
X125945031Y-102279050D02*
X126043535Y-102370906D01*
X126043535Y-102370906D02*
X126187967Y-102413510D01*
X126187967Y-102413510D02*
X126425917Y-102405201D01*
X124950626Y-102456719D02*
X125426527Y-102440100D01*
X125426527Y-102440100D02*
X125391627Y-101440710D01*
X131625917Y-102380201D02*
X131591018Y-101380810D01*
X131591018Y-101380810D02*
X131353068Y-101389119D01*
X131353068Y-101389119D02*
X131211960Y-101441695D01*
X131211960Y-101441695D02*
X131120103Y-101540199D01*
X131120103Y-101540199D02*
X131075837Y-101637041D01*
X131075837Y-101637041D02*
X131034894Y-101829063D01*
X131034894Y-101829063D02*
X131039880Y-101971833D01*
X131039880Y-101971833D02*
X131094118Y-102160531D01*
X131094118Y-102160531D02*
X131145031Y-102254050D01*
X131145031Y-102254050D02*
X131243535Y-102345906D01*
X131243535Y-102345906D02*
X131387967Y-102388510D01*
X131387967Y-102388510D02*
X131625917Y-102380201D01*
X130626527Y-102415100D02*
X130591627Y-101415710D01*
X130591627Y-101415710D02*
X130353677Y-101424019D01*
X130353677Y-101424019D02*
X130212569Y-101476595D01*
X130212569Y-101476595D02*
X130120712Y-101575098D01*
X130120712Y-101575098D02*
X130076446Y-101671940D01*
X130076446Y-101671940D02*
X130035504Y-101863962D01*
X130035504Y-101863962D02*
X130040489Y-102006733D01*
X130040489Y-102006733D02*
X130094727Y-102195431D01*
X130094727Y-102195431D02*
X130145641Y-102288949D01*
X130145641Y-102288949D02*
X130244144Y-102380805D01*
X130244144Y-102380805D02*
X130388576Y-102423410D01*
X130388576Y-102423410D02*
X130626527Y-102415100D01*
X133819189Y-101421681D02*
X133912708Y-101370767D01*
X133912708Y-101370767D02*
X134055478Y-101365781D01*
X134055478Y-101365781D02*
X134199910Y-101408386D01*
X134199910Y-101408386D02*
X134298414Y-101500242D01*
X134298414Y-101500242D02*
X134349327Y-101593760D01*
X134349327Y-101593760D02*
X134403565Y-101782458D01*
X134403565Y-101782458D02*
X134408551Y-101925229D01*
X134408551Y-101925229D02*
X134367608Y-102117251D01*
X134367608Y-102117251D02*
X134323342Y-102214093D01*
X134323342Y-102214093D02*
X134231485Y-102312596D01*
X134231485Y-102312596D02*
X134090377Y-102365172D01*
X134090377Y-102365172D02*
X133995197Y-102368496D01*
X133995197Y-102368496D02*
X133850765Y-102325891D01*
X133850765Y-102325891D02*
X133801513Y-102279963D01*
X133801513Y-102279963D02*
X133789880Y-101946833D01*
X133789880Y-101946833D02*
X133980240Y-101940186D01*
X133376527Y-102390100D02*
X133341627Y-101390710D01*
X133341627Y-101390710D02*
X133103677Y-101399019D01*
X133103677Y-101399019D02*
X132962569Y-101451595D01*
X132962569Y-101451595D02*
X132870712Y-101550098D01*
X132870712Y-101550098D02*
X132826446Y-101646940D01*
X132826446Y-101646940D02*
X132785504Y-101838962D01*
X132785504Y-101838962D02*
X132790489Y-101981733D01*
X132790489Y-101981733D02*
X132844727Y-102170431D01*
X132844727Y-102170431D02*
X132895641Y-102263949D01*
X132895641Y-102263949D02*
X132994144Y-102355805D01*
X132994144Y-102355805D02*
X133138576Y-102398410D01*
X133138576Y-102398410D02*
X133376527Y-102390100D01*
X123900917Y-102430201D02*
X123866018Y-101430810D01*
X123866018Y-101430810D02*
X123628068Y-101439119D01*
X123628068Y-101439119D02*
X123486960Y-101491695D01*
X123486960Y-101491695D02*
X123395103Y-101590199D01*
X123395103Y-101590199D02*
X123350837Y-101687041D01*
X123350837Y-101687041D02*
X123309894Y-101879063D01*
X123309894Y-101879063D02*
X123314880Y-102021833D01*
X123314880Y-102021833D02*
X123369118Y-102210531D01*
X123369118Y-102210531D02*
X123420031Y-102304050D01*
X123420031Y-102304050D02*
X123518535Y-102395906D01*
X123518535Y-102395906D02*
X123662967Y-102438510D01*
X123662967Y-102438510D02*
X123900917Y-102430201D01*
X122330446Y-102485043D02*
X122646958Y-101997509D01*
X122901527Y-102465100D02*
X122866627Y-101465710D01*
X122866627Y-101465710D02*
X122485907Y-101479005D01*
X122485907Y-101479005D02*
X122392389Y-101529918D01*
X122392389Y-101529918D02*
X122346460Y-101579170D01*
X122346460Y-101579170D02*
X122302194Y-101676012D01*
X122302194Y-101676012D02*
X122307180Y-101818782D01*
X122307180Y-101818782D02*
X122358094Y-101912301D01*
X122358094Y-101912301D02*
X122407346Y-101958229D01*
X122407346Y-101958229D02*
X122504188Y-102002495D01*
X122504188Y-102002495D02*
X122884908Y-101989200D01*
X129100917Y-102405201D02*
X129066018Y-101405810D01*
X129066018Y-101405810D02*
X128828068Y-101414119D01*
X128828068Y-101414119D02*
X128686960Y-101466695D01*
X128686960Y-101466695D02*
X128595103Y-101565199D01*
X128595103Y-101565199D02*
X128550837Y-101662041D01*
X128550837Y-101662041D02*
X128509894Y-101854063D01*
X128509894Y-101854063D02*
X128514880Y-101996833D01*
X128514880Y-101996833D02*
X128569118Y-102185531D01*
X128569118Y-102185531D02*
X128620031Y-102279050D01*
X128620031Y-102279050D02*
X128718535Y-102370906D01*
X128718535Y-102370906D02*
X128862967Y-102413510D01*
X128862967Y-102413510D02*
X129100917Y-102405201D01*
X128066627Y-101440710D02*
X128094879Y-102249740D01*
X128094879Y-102249740D02*
X128050613Y-102346582D01*
X128050613Y-102346582D02*
X128004685Y-102395834D01*
X128004685Y-102395834D02*
X127911166Y-102446748D01*
X127911166Y-102446748D02*
X127720806Y-102453395D01*
X127720806Y-102453395D02*
X127623964Y-102409129D01*
X127623964Y-102409129D02*
X127574712Y-102363201D01*
X127574712Y-102363201D02*
X127523799Y-102269683D01*
X127523799Y-102269683D02*
X127495547Y-101460652D01*
M02*
