%TF.GenerationSoftware,KiCad,Pcbnew,9.0.7*%
%TF.CreationDate,2026-03-05T13:00:06+11:00*%
%TF.ProjectId,DPAD,44504144-2e6b-4696-9361-645f70636258,rev?*%
%TF.SameCoordinates,Original*%
%TF.FileFunction,Copper,L2,Bot*%
%TF.FilePolarity,Positive*%
%FSLAX46Y46*%
G04 Gerber Fmt 4.6, Leading zero omitted, Abs format (unit mm)*
G04 Created by KiCad (PCBNEW 9.0.7) date 2026-03-05 13:00:06*
%MOMM*%
%LPD*%
G01*
G04 APERTURE LIST*
%TA.AperFunction,ComponentPad*%
%ADD10R,1.700000X1.700000*%
%TD*%
%TA.AperFunction,ComponentPad*%
%ADD11C,1.700000*%
%TD*%
%TA.AperFunction,ComponentPad*%
%ADD12C,2.000000*%
%TD*%
%TA.AperFunction,Conductor*%
%ADD13C,0.200000*%
%TD*%
G04 APERTURE END LIST*
D10*
%TO.P,REF\u002A\u002A,1*%
%TO.N,DR*%
X123370000Y-104100000D03*
D11*
%TO.P,REF\u002A\u002A,2*%
%TO.N,DL*%
X125910000Y-104100000D03*
%TO.P,REF\u002A\u002A,3*%
%TO.N,DU*%
X128450000Y-104100000D03*
%TO.P,REF\u002A\u002A,4*%
%TO.N,DD*%
X130990000Y-104100000D03*
%TO.P,REF\u002A\u002A,5*%
%TO.N,GND*%
X133530000Y-104100000D03*
%TD*%
D12*
%TO.P,SW?,1*%
%TO.N,GND*%
X133000001Y-94974999D03*
%TO.N,DD*%
X132999998Y-99474999D03*
%TO.P,SW?,2*%
%TO.N,GND*%
X124500002Y-94975001D03*
%TO.N,DD*%
X124499999Y-99475001D03*
%TD*%
%TO.P,SW?,1*%
%TO.N,GND*%
X139500003Y-92975003D03*
%TO.N,DR*%
X135000002Y-92974993D03*
%TO.P,SW?,2*%
%TO.N,GND*%
X139499998Y-84475007D03*
%TO.N,DR*%
X134999997Y-84474997D03*
%TD*%
%TO.P,SW?,1*%
%TO.N,GND*%
X117999998Y-84474999D03*
%TO.N,DL*%
X122499997Y-84475004D03*
%TO.P,SW?,2*%
%TO.N,GND*%
X118000003Y-92974996D03*
%TO.N,DL*%
X122500002Y-92975001D03*
%TD*%
%TO.P,SW?,1*%
%TO.N,DU*%
X124524998Y-82475003D03*
%TO.N,GND*%
X124525006Y-77975002D03*
%TO.P,SW?,2*%
%TO.N,DU*%
X133024994Y-82474998D03*
%TO.N,GND*%
X133025002Y-77974997D03*
%TD*%
D13*
%TO.N,DU*%
X131699001Y-100850999D02*
X128450000Y-104100000D01*
X133024994Y-82474998D02*
X124525003Y-82474998D01*
X124525003Y-82474998D02*
X124524998Y-82475003D01*
X131699001Y-83800991D02*
X131699001Y-100850999D01*
X133024994Y-82474998D02*
X131699001Y-83800991D01*
%TO.N,DL*%
X122500002Y-92975001D02*
X122500002Y-84475009D01*
X122500002Y-100690002D02*
X125910000Y-104100000D01*
X122500002Y-84475009D02*
X122499997Y-84475004D01*
X122500002Y-92975001D02*
X122500002Y-100690002D01*
%TD*%
%TA.AperFunction,Conductor*%
%TO.N,GND*%
G36*
X141692539Y-75745185D02*
G01*
X141738294Y-75797989D01*
X141749500Y-75849500D01*
X141749500Y-101600500D01*
X141729815Y-101667539D01*
X141677011Y-101713294D01*
X141625500Y-101724500D01*
X137909355Y-101724500D01*
X137885038Y-101722143D01*
X137870897Y-101724500D01*
X137837630Y-101724500D01*
X137837628Y-101724500D01*
X137837622Y-101724501D01*
X137788669Y-101737616D01*
X137788670Y-101737617D01*
X137782866Y-101739172D01*
X137755047Y-101743810D01*
X137739980Y-101750663D01*
X137730072Y-101753319D01*
X137730067Y-101753320D01*
X137723670Y-101755035D01*
X137710334Y-101758608D01*
X137670238Y-101781758D01*
X137670237Y-101781757D01*
X137665030Y-101784763D01*
X137635094Y-101798383D01*
X137620187Y-101810653D01*
X137611304Y-101815783D01*
X137611300Y-101815786D01*
X137596205Y-101824501D01*
X137567077Y-101853628D01*
X137562835Y-101857869D01*
X137533352Y-101882143D01*
X137520328Y-101900375D01*
X137513075Y-101907629D01*
X137513070Y-101907636D01*
X137503021Y-101917685D01*
X137485172Y-101948600D01*
X137478691Y-101958669D01*
X135075996Y-105322572D01*
X135021013Y-105365684D01*
X134975092Y-105374500D01*
X134413328Y-105374500D01*
X134346289Y-105354815D01*
X134300534Y-105302011D01*
X134289710Y-105240771D01*
X134291716Y-105215270D01*
X133659408Y-104582962D01*
X133722993Y-104565925D01*
X133837007Y-104500099D01*
X133930099Y-104407007D01*
X133995925Y-104292993D01*
X134012962Y-104229408D01*
X134645270Y-104861717D01*
X134645270Y-104861716D01*
X134684622Y-104807554D01*
X134781095Y-104618217D01*
X134846757Y-104416130D01*
X134846757Y-104416127D01*
X134880000Y-104206246D01*
X134880000Y-103993753D01*
X134846757Y-103783872D01*
X134846757Y-103783869D01*
X134781095Y-103581782D01*
X134684624Y-103392449D01*
X134645270Y-103338282D01*
X134645269Y-103338282D01*
X134012962Y-103970590D01*
X133995925Y-103907007D01*
X133930099Y-103792993D01*
X133837007Y-103699901D01*
X133722993Y-103634075D01*
X133659409Y-103617037D01*
X134291716Y-102984728D01*
X134237550Y-102945375D01*
X134048217Y-102848904D01*
X133846129Y-102783242D01*
X133636246Y-102750000D01*
X133423754Y-102750000D01*
X133213872Y-102783242D01*
X133213869Y-102783242D01*
X133011782Y-102848904D01*
X132822439Y-102945380D01*
X132768282Y-102984727D01*
X132768282Y-102984728D01*
X133400591Y-103617037D01*
X133337007Y-103634075D01*
X133222993Y-103699901D01*
X133129901Y-103792993D01*
X133064075Y-103907007D01*
X133047037Y-103970591D01*
X132414728Y-103338282D01*
X132414727Y-103338282D01*
X132375380Y-103392440D01*
X132375376Y-103392446D01*
X132370760Y-103401505D01*
X132322781Y-103452297D01*
X132254959Y-103469087D01*
X132188826Y-103446543D01*
X132149794Y-103401493D01*
X132145051Y-103392184D01*
X132145049Y-103392181D01*
X132145048Y-103392179D01*
X132020109Y-103220213D01*
X131869786Y-103069890D01*
X131697820Y-102944951D01*
X131508414Y-102848444D01*
X131508413Y-102848443D01*
X131508412Y-102848443D01*
X131306243Y-102782754D01*
X131306241Y-102782753D01*
X131306240Y-102782753D01*
X131144957Y-102757208D01*
X131096287Y-102749500D01*
X130949096Y-102749500D01*
X130882057Y-102729815D01*
X130836302Y-102677011D01*
X130826358Y-102607853D01*
X130855383Y-102544297D01*
X130861415Y-102537819D01*
X131450634Y-101948600D01*
X132067714Y-101331520D01*
X132067717Y-101331519D01*
X132179521Y-101219715D01*
X132229640Y-101132903D01*
X132258578Y-101082784D01*
X132292980Y-100954392D01*
X132294872Y-100949222D01*
X132312484Y-100925384D01*
X132327912Y-100900074D01*
X132333018Y-100897593D01*
X132336392Y-100893028D01*
X132364094Y-100882497D01*
X132390759Y-100869544D01*
X132396962Y-100870002D01*
X132401702Y-100868201D01*
X132417399Y-100871513D01*
X132449639Y-100873895D01*
X132583546Y-100917405D01*
X132648629Y-100938552D01*
X132881901Y-100975499D01*
X132881906Y-100975499D01*
X133118095Y-100975499D01*
X133351366Y-100938552D01*
X133377511Y-100930057D01*
X133575990Y-100865567D01*
X133786431Y-100758342D01*
X133977508Y-100619516D01*
X134144515Y-100452509D01*
X134283341Y-100261432D01*
X134390566Y-100050991D01*
X134463551Y-99826367D01*
X134495817Y-99622648D01*
X138449500Y-99622648D01*
X138449500Y-99827351D01*
X138481522Y-100029534D01*
X138544781Y-100224223D01*
X138637715Y-100406613D01*
X138758028Y-100572213D01*
X138902785Y-100716970D01*
X138974477Y-100769056D01*
X139068390Y-100837287D01*
X139177788Y-100893028D01*
X139250776Y-100930218D01*
X139250778Y-100930218D01*
X139250781Y-100930220D01*
X139355137Y-100964127D01*
X139445465Y-100993477D01*
X139514790Y-101004457D01*
X139647648Y-101025500D01*
X139647649Y-101025500D01*
X139852351Y-101025500D01*
X139852352Y-101025500D01*
X140054534Y-100993477D01*
X140249219Y-100930220D01*
X140431610Y-100837287D01*
X140540267Y-100758344D01*
X140597215Y-100716970D01*
X140597216Y-100716967D01*
X140597219Y-100716966D01*
X140741966Y-100572219D01*
X140741968Y-100572215D01*
X140741971Y-100572213D01*
X140794732Y-100499590D01*
X140862287Y-100406610D01*
X140955220Y-100224219D01*
X141018477Y-100029534D01*
X141050500Y-99827352D01*
X141050500Y-99622648D01*
X141018477Y-99420466D01*
X140997825Y-99356907D01*
X140955218Y-99225776D01*
X140903171Y-99123630D01*
X140862287Y-99043390D01*
X140854556Y-99032749D01*
X140741971Y-98877786D01*
X140597213Y-98733028D01*
X140431613Y-98612715D01*
X140431612Y-98612714D01*
X140431610Y-98612713D01*
X140372037Y-98582359D01*
X140249223Y-98519781D01*
X140054534Y-98456522D01*
X139879995Y-98428878D01*
X139852352Y-98424500D01*
X139647648Y-98424500D01*
X139623329Y-98428351D01*
X139445465Y-98456522D01*
X139250776Y-98519781D01*
X139068386Y-98612715D01*
X138902786Y-98733028D01*
X138758028Y-98877786D01*
X138637715Y-99043386D01*
X138544781Y-99225776D01*
X138481522Y-99420465D01*
X138449500Y-99622648D01*
X134495817Y-99622648D01*
X134499661Y-99598377D01*
X134499662Y-99598373D01*
X134500498Y-99593096D01*
X134500498Y-99356901D01*
X134463551Y-99123630D01*
X134399495Y-98926489D01*
X134390566Y-98899007D01*
X134390564Y-98899004D01*
X134390564Y-98899002D01*
X134334000Y-98787990D01*
X134283341Y-98688566D01*
X134144515Y-98497489D01*
X133977508Y-98330482D01*
X133786431Y-98191656D01*
X133575994Y-98084432D01*
X133351366Y-98011445D01*
X133118095Y-97974499D01*
X133118090Y-97974499D01*
X132881906Y-97974499D01*
X132881901Y-97974499D01*
X132648628Y-98011446D01*
X132648625Y-98011446D01*
X132461819Y-98072144D01*
X132391978Y-98074139D01*
X132332145Y-98038059D01*
X132301317Y-97975358D01*
X132299501Y-97954213D01*
X132299501Y-96495256D01*
X132319186Y-96428217D01*
X132371990Y-96382462D01*
X132441148Y-96372518D01*
X132461820Y-96377325D01*
X132648755Y-96438064D01*
X132881949Y-96474999D01*
X133118053Y-96474999D01*
X133351248Y-96438064D01*
X133575803Y-96365101D01*
X133786164Y-96257917D01*
X133786170Y-96257913D01*
X133869105Y-96197657D01*
X133869106Y-96197657D01*
X133129410Y-95457961D01*
X133192994Y-95440924D01*
X133307008Y-95375098D01*
X133400100Y-95282006D01*
X133465926Y-95167992D01*
X133482963Y-95104408D01*
X134222659Y-95844104D01*
X134222659Y-95844103D01*
X134282915Y-95761168D01*
X134282919Y-95761162D01*
X134390103Y-95550801D01*
X134463066Y-95326246D01*
X134500001Y-95093051D01*
X134500001Y-94856946D01*
X134463066Y-94623753D01*
X134449087Y-94580728D01*
X134447092Y-94510887D01*
X134483172Y-94451054D01*
X134545873Y-94420225D01*
X134605337Y-94424478D01*
X134648633Y-94438546D01*
X134881905Y-94475493D01*
X134881910Y-94475493D01*
X135118099Y-94475493D01*
X135351370Y-94438546D01*
X135380540Y-94429068D01*
X135575994Y-94365561D01*
X135786435Y-94258336D01*
X135977512Y-94119510D01*
X136144519Y-93952503D01*
X136283345Y-93761426D01*
X136390570Y-93550985D01*
X136463555Y-93326361D01*
X136463574Y-93326243D01*
X136500502Y-93093090D01*
X136500502Y-92856950D01*
X138000003Y-92856950D01*
X138000003Y-93093055D01*
X138036937Y-93326250D01*
X138109900Y-93550805D01*
X138217090Y-93761177D01*
X138277341Y-93844107D01*
X138277343Y-93844108D01*
X139017040Y-93104411D01*
X139034078Y-93167996D01*
X139099904Y-93282010D01*
X139192996Y-93375102D01*
X139307010Y-93440928D01*
X139370593Y-93457965D01*
X138630896Y-94197661D01*
X138713831Y-94257917D01*
X138924200Y-94365105D01*
X139148755Y-94438068D01*
X139148754Y-94438068D01*
X139381951Y-94475003D01*
X139618055Y-94475003D01*
X139851250Y-94438068D01*
X140075805Y-94365105D01*
X140286166Y-94257921D01*
X140286172Y-94257917D01*
X140369107Y-94197661D01*
X140369108Y-94197661D01*
X139629411Y-93457965D01*
X139692996Y-93440928D01*
X139807010Y-93375102D01*
X139900102Y-93282010D01*
X139965928Y-93167996D01*
X139982965Y-93104412D01*
X140722661Y-93844108D01*
X140722661Y-93844107D01*
X140782917Y-93761172D01*
X140782921Y-93761166D01*
X140890105Y-93550805D01*
X140963068Y-93326250D01*
X141000003Y-93093055D01*
X141000003Y-92856950D01*
X140963068Y-92623755D01*
X140890105Y-92399200D01*
X140782917Y-92188831D01*
X140722661Y-92105897D01*
X140722661Y-92105896D01*
X139982965Y-92845593D01*
X139965928Y-92782010D01*
X139900102Y-92667996D01*
X139807010Y-92574904D01*
X139692996Y-92509078D01*
X139629412Y-92492040D01*
X140369108Y-91752343D01*
X140369107Y-91752341D01*
X140286177Y-91692090D01*
X140075805Y-91584900D01*
X139851250Y-91511937D01*
X139851251Y-91511937D01*
X139618055Y-91475003D01*
X139381951Y-91475003D01*
X139148755Y-91511937D01*
X138924200Y-91584900D01*
X138713833Y-91692087D01*
X138630897Y-91752343D01*
X139370594Y-92492040D01*
X139307010Y-92509078D01*
X139192996Y-92574904D01*
X139099904Y-92667996D01*
X139034078Y-92782010D01*
X139017040Y-92845594D01*
X138277343Y-92105897D01*
X138217087Y-92188833D01*
X138109900Y-92399200D01*
X138036937Y-92623755D01*
X138000003Y-92856950D01*
X136500502Y-92856950D01*
X136500502Y-92856895D01*
X136463555Y-92623624D01*
X136426334Y-92509071D01*
X136390570Y-92399001D01*
X136390568Y-92398998D01*
X136390568Y-92398996D01*
X136283483Y-92188831D01*
X136283345Y-92188560D01*
X136144519Y-91997483D01*
X135977512Y-91830476D01*
X135786435Y-91691650D01*
X135575998Y-91584426D01*
X135351370Y-91511439D01*
X135118099Y-91474493D01*
X135118094Y-91474493D01*
X134881910Y-91474493D01*
X134881905Y-91474493D01*
X134648633Y-91511439D01*
X134424005Y-91584426D01*
X134213568Y-91691650D01*
X134104552Y-91770855D01*
X134022492Y-91830476D01*
X134022490Y-91830478D01*
X134022489Y-91830478D01*
X133855487Y-91997480D01*
X133855487Y-91997481D01*
X133855485Y-91997483D01*
X133795864Y-92079543D01*
X133716659Y-92188559D01*
X133609435Y-92398996D01*
X133536448Y-92623624D01*
X133499502Y-92856895D01*
X133499502Y-93093090D01*
X133536448Y-93326360D01*
X133550518Y-93369663D01*
X133552512Y-93439505D01*
X133516430Y-93499337D01*
X133453729Y-93530164D01*
X133394268Y-93525911D01*
X133351249Y-93511933D01*
X133118053Y-93474999D01*
X132881949Y-93474999D01*
X132648752Y-93511933D01*
X132461819Y-93572672D01*
X132391978Y-93574667D01*
X132332145Y-93538587D01*
X132301317Y-93475886D01*
X132299501Y-93454741D01*
X132299501Y-84101087D01*
X132308144Y-84071650D01*
X132314668Y-84041661D01*
X132318423Y-84036643D01*
X132319186Y-84034048D01*
X132335811Y-84013415D01*
X132421433Y-83927793D01*
X132482751Y-83894311D01*
X132547427Y-83897545D01*
X132673626Y-83938551D01*
X132761104Y-83952406D01*
X132906897Y-83975498D01*
X132906902Y-83975498D01*
X133143091Y-83975498D01*
X133309711Y-83949107D01*
X133376362Y-83938551D01*
X133391116Y-83933756D01*
X133460956Y-83931760D01*
X133520790Y-83967838D01*
X133551620Y-84030538D01*
X133547368Y-84090004D01*
X133536445Y-84123620D01*
X133536444Y-84123627D01*
X133499497Y-84356899D01*
X133499497Y-84593094D01*
X133536443Y-84826365D01*
X133609430Y-85050993D01*
X133716517Y-85261162D01*
X133716654Y-85261430D01*
X133855480Y-85452507D01*
X134022487Y-85619514D01*
X134213564Y-85758340D01*
X134312988Y-85808999D01*
X134424000Y-85865563D01*
X134424002Y-85865563D01*
X134424005Y-85865565D01*
X134544409Y-85904686D01*
X134648628Y-85938550D01*
X134881900Y-85975497D01*
X134881905Y-85975497D01*
X135118094Y-85975497D01*
X135351365Y-85938550D01*
X135380544Y-85929069D01*
X135575989Y-85865565D01*
X135786430Y-85758340D01*
X135977507Y-85619514D01*
X136144514Y-85452507D01*
X136283340Y-85261430D01*
X136390565Y-85050989D01*
X136463550Y-84826365D01*
X136463569Y-84826246D01*
X136500497Y-84593094D01*
X136500497Y-84356954D01*
X137999998Y-84356954D01*
X137999998Y-84593059D01*
X138036932Y-84826254D01*
X138109895Y-85050809D01*
X138217085Y-85261181D01*
X138277336Y-85344111D01*
X138277338Y-85344112D01*
X139017035Y-84604415D01*
X139034073Y-84668000D01*
X139099899Y-84782014D01*
X139192991Y-84875106D01*
X139307005Y-84940932D01*
X139370588Y-84957969D01*
X138630891Y-85697665D01*
X138713826Y-85757921D01*
X138924195Y-85865109D01*
X139148750Y-85938072D01*
X139148749Y-85938072D01*
X139381946Y-85975007D01*
X139618050Y-85975007D01*
X139851245Y-85938072D01*
X140075800Y-85865109D01*
X140286161Y-85757925D01*
X140286167Y-85757921D01*
X140369102Y-85697665D01*
X140369103Y-85697665D01*
X139629406Y-84957969D01*
X139692991Y-84940932D01*
X139807005Y-84875106D01*
X139900097Y-84782014D01*
X139965923Y-84668000D01*
X139982960Y-84604416D01*
X140722656Y-85344112D01*
X140722656Y-85344111D01*
X140782912Y-85261176D01*
X140782916Y-85261170D01*
X140890100Y-85050809D01*
X140963063Y-84826254D01*
X140999998Y-84593059D01*
X140999998Y-84356954D01*
X140963063Y-84123759D01*
X140890100Y-83899204D01*
X140782912Y-83688835D01*
X140722656Y-83605901D01*
X140722656Y-83605900D01*
X139982960Y-84345597D01*
X139965923Y-84282014D01*
X139900097Y-84168000D01*
X139807005Y-84074908D01*
X139692991Y-84009082D01*
X139629407Y-83992044D01*
X140369103Y-83252347D01*
X140369102Y-83252345D01*
X140286172Y-83192094D01*
X140075800Y-83084904D01*
X139851245Y-83011941D01*
X139851246Y-83011941D01*
X139618050Y-82975007D01*
X139381946Y-82975007D01*
X139148750Y-83011941D01*
X138924195Y-83084904D01*
X138713828Y-83192091D01*
X138630892Y-83252347D01*
X139370589Y-83992044D01*
X139307005Y-84009082D01*
X139192991Y-84074908D01*
X139099899Y-84168000D01*
X139034073Y-84282014D01*
X139017035Y-84345598D01*
X138277338Y-83605901D01*
X138217082Y-83688837D01*
X138109895Y-83899204D01*
X138036932Y-84123759D01*
X137999998Y-84356954D01*
X136500497Y-84356954D01*
X136500497Y-84356899D01*
X136463550Y-84123628D01*
X136415419Y-83975498D01*
X136390565Y-83899005D01*
X136390563Y-83899002D01*
X136390563Y-83899000D01*
X136283474Y-83688827D01*
X136283340Y-83688564D01*
X136144514Y-83497487D01*
X135977507Y-83330480D01*
X135786430Y-83191654D01*
X135691340Y-83143203D01*
X135575993Y-83084430D01*
X135351365Y-83011443D01*
X135118094Y-82974497D01*
X135118089Y-82974497D01*
X134881905Y-82974497D01*
X134881900Y-82974497D01*
X134648627Y-83011444D01*
X134648623Y-83011445D01*
X134633868Y-83016239D01*
X134564027Y-83018232D01*
X134504195Y-82982150D01*
X134473369Y-82919449D01*
X134477623Y-82859986D01*
X134488546Y-82826369D01*
X134488547Y-82826366D01*
X134507582Y-82706182D01*
X134525494Y-82593095D01*
X134525494Y-82356900D01*
X134488547Y-82123629D01*
X134454683Y-82019410D01*
X134415562Y-81899006D01*
X134415560Y-81899003D01*
X134415560Y-81899001D01*
X134358996Y-81787989D01*
X134308337Y-81688565D01*
X134169511Y-81497488D01*
X134002504Y-81330481D01*
X133811427Y-81191655D01*
X133600990Y-81084431D01*
X133376362Y-81011444D01*
X133143091Y-80974498D01*
X133143086Y-80974498D01*
X132906902Y-80974498D01*
X132906897Y-80974498D01*
X132673625Y-81011444D01*
X132448997Y-81084431D01*
X132238560Y-81191655D01*
X132129544Y-81270860D01*
X132047484Y-81330481D01*
X132047482Y-81330483D01*
X132047481Y-81330483D01*
X131880479Y-81497485D01*
X131880479Y-81497486D01*
X131880477Y-81497488D01*
X131872035Y-81509108D01*
X131741651Y-81688564D01*
X131681411Y-81806793D01*
X131633436Y-81857589D01*
X131570926Y-81874498D01*
X125979064Y-81874498D01*
X125912025Y-81854813D01*
X125868579Y-81806793D01*
X125808340Y-81688569D01*
X125808337Y-81688565D01*
X125669515Y-81497493D01*
X125502508Y-81330486D01*
X125311431Y-81191660D01*
X125311421Y-81191655D01*
X125100994Y-81084436D01*
X124876366Y-81011449D01*
X124643095Y-80974503D01*
X124643090Y-80974503D01*
X124406906Y-80974503D01*
X124406901Y-80974503D01*
X124173629Y-81011449D01*
X123949001Y-81084436D01*
X123738564Y-81191660D01*
X123629548Y-81270865D01*
X123547488Y-81330486D01*
X123547486Y-81330488D01*
X123547485Y-81330488D01*
X123380483Y-81497490D01*
X123380483Y-81497491D01*
X123380481Y-81497493D01*
X123320860Y-81579553D01*
X123241655Y-81688569D01*
X123134431Y-81899006D01*
X123061444Y-82123634D01*
X123024498Y-82356905D01*
X123024498Y-82593100D01*
X123061445Y-82826372D01*
X123061445Y-82826375D01*
X123078271Y-82878159D01*
X123080266Y-82948001D01*
X123044185Y-83007833D01*
X122981484Y-83038661D01*
X122922022Y-83034408D01*
X122851368Y-83011451D01*
X122618094Y-82974504D01*
X122618089Y-82974504D01*
X122381905Y-82974504D01*
X122381900Y-82974504D01*
X122148628Y-83011450D01*
X121924000Y-83084437D01*
X121713563Y-83191661D01*
X121678488Y-83217145D01*
X121522487Y-83330487D01*
X121522485Y-83330489D01*
X121522484Y-83330489D01*
X121355482Y-83497491D01*
X121355482Y-83497492D01*
X121355480Y-83497494D01*
X121303378Y-83569206D01*
X121216654Y-83688570D01*
X121109430Y-83899007D01*
X121036443Y-84123635D01*
X120999497Y-84356906D01*
X120999497Y-84593101D01*
X121036443Y-84826372D01*
X121109430Y-85051000D01*
X121216514Y-85261162D01*
X121216654Y-85261437D01*
X121355480Y-85452514D01*
X121522487Y-85619521D01*
X121630032Y-85697657D01*
X121713565Y-85758348D01*
X121831796Y-85818589D01*
X121882593Y-85866563D01*
X121899502Y-85929074D01*
X121899502Y-91520932D01*
X121879817Y-91587971D01*
X121831798Y-91631416D01*
X121713570Y-91691656D01*
X121579898Y-91788775D01*
X121522492Y-91830484D01*
X121522490Y-91830486D01*
X121522489Y-91830486D01*
X121355487Y-91997488D01*
X121355487Y-91997489D01*
X121355485Y-91997491D01*
X121295864Y-92079551D01*
X121216659Y-92188567D01*
X121109435Y-92399004D01*
X121036448Y-92623632D01*
X120999502Y-92856903D01*
X120999502Y-93093098D01*
X121036448Y-93326369D01*
X121109435Y-93550997D01*
X121126709Y-93584898D01*
X121216659Y-93761434D01*
X121355485Y-93952511D01*
X121522492Y-94119518D01*
X121665799Y-94223637D01*
X121713570Y-94258345D01*
X121788179Y-94296359D01*
X121831796Y-94318583D01*
X121882592Y-94366557D01*
X121899502Y-94429068D01*
X121899502Y-100603332D01*
X121899501Y-100603350D01*
X121899501Y-100769056D01*
X121899500Y-100769056D01*
X121940425Y-100921789D01*
X121950106Y-100938555D01*
X121950105Y-100938555D01*
X121950107Y-100938557D01*
X122019477Y-101058711D01*
X122019483Y-101058719D01*
X122138351Y-101177587D01*
X122138357Y-101177592D01*
X123498584Y-102537819D01*
X123532069Y-102599142D01*
X123527085Y-102668834D01*
X123485213Y-102724767D01*
X123419749Y-102749184D01*
X123410903Y-102749500D01*
X122472129Y-102749500D01*
X122472123Y-102749501D01*
X122412516Y-102755908D01*
X122277671Y-102806202D01*
X122277664Y-102806206D01*
X122162455Y-102892452D01*
X122162452Y-102892455D01*
X122076206Y-103007664D01*
X122076202Y-103007671D01*
X122025908Y-103142517D01*
X122019501Y-103202116D01*
X122019500Y-103202135D01*
X122019500Y-104997870D01*
X122019501Y-104997876D01*
X122025908Y-105057483D01*
X122078088Y-105197383D01*
X122079479Y-105198989D01*
X122083845Y-105229354D01*
X122090370Y-105259338D01*
X122088772Y-105263622D01*
X122089423Y-105268147D01*
X122076677Y-105296055D01*
X122065957Y-105324804D01*
X122062297Y-105327543D01*
X122060398Y-105331703D01*
X122034585Y-105348291D01*
X122010026Y-105366679D01*
X122004391Y-105367695D01*
X122001620Y-105369477D01*
X121966685Y-105374500D01*
X121921891Y-105374500D01*
X121854852Y-105354815D01*
X121820895Y-105322443D01*
X121810283Y-105307546D01*
X119833405Y-102532314D01*
X119424943Y-101958896D01*
X119418551Y-101948952D01*
X119415872Y-101944313D01*
X119400500Y-101917686D01*
X119383426Y-101900612D01*
X119369421Y-101880951D01*
X119337022Y-101854208D01*
X119307314Y-101824500D01*
X119307313Y-101824499D01*
X119295361Y-101817599D01*
X119295361Y-101817598D01*
X119286401Y-101812425D01*
X119267787Y-101797060D01*
X119229570Y-101779614D01*
X119224452Y-101776659D01*
X119224446Y-101776656D01*
X119193186Y-101758608D01*
X119193181Y-101758606D01*
X119179855Y-101755035D01*
X119169860Y-101752357D01*
X119147904Y-101742334D01*
X119106477Y-101735373D01*
X119100757Y-101733841D01*
X119100756Y-101733840D01*
X119065897Y-101724500D01*
X119065892Y-101724500D01*
X119052092Y-101724500D01*
X119031547Y-101722786D01*
X119017940Y-101720500D01*
X119017938Y-101720500D01*
X118982004Y-101723937D01*
X118970198Y-101724500D01*
X115874500Y-101724500D01*
X115807461Y-101704815D01*
X115761706Y-101652011D01*
X115750500Y-101600500D01*
X115750500Y-99622648D01*
X116449500Y-99622648D01*
X116449500Y-99827351D01*
X116481522Y-100029534D01*
X116544781Y-100224223D01*
X116637715Y-100406613D01*
X116758028Y-100572213D01*
X116902785Y-100716970D01*
X116974477Y-100769056D01*
X117068390Y-100837287D01*
X117177788Y-100893028D01*
X117250776Y-100930218D01*
X117250778Y-100930218D01*
X117250781Y-100930220D01*
X117355137Y-100964127D01*
X117445465Y-100993477D01*
X117514790Y-101004457D01*
X117647648Y-101025500D01*
X117647649Y-101025500D01*
X117852351Y-101025500D01*
X117852352Y-101025500D01*
X118054534Y-100993477D01*
X118249219Y-100930220D01*
X118431610Y-100837287D01*
X118540267Y-100758344D01*
X118597215Y-100716970D01*
X118597216Y-100716967D01*
X118597219Y-100716966D01*
X118741966Y-100572219D01*
X118741968Y-100572215D01*
X118741971Y-100572213D01*
X118794732Y-100499590D01*
X118862287Y-100406610D01*
X118955220Y-100224219D01*
X119018477Y-100029534D01*
X119050500Y-99827352D01*
X119050500Y-99622648D01*
X119018477Y-99420466D01*
X118997825Y-99356907D01*
X118955218Y-99225776D01*
X118903171Y-99123630D01*
X118862287Y-99043390D01*
X118854556Y-99032749D01*
X118741971Y-98877786D01*
X118597213Y-98733028D01*
X118431613Y-98612715D01*
X118431612Y-98612714D01*
X118431610Y-98612713D01*
X118372037Y-98582359D01*
X118249223Y-98519781D01*
X118054534Y-98456522D01*
X117879995Y-98428878D01*
X117852352Y-98424500D01*
X117647648Y-98424500D01*
X117623329Y-98428351D01*
X117445465Y-98456522D01*
X117250776Y-98519781D01*
X117068386Y-98612715D01*
X116902786Y-98733028D01*
X116758028Y-98877786D01*
X116637715Y-99043386D01*
X116544781Y-99225776D01*
X116481522Y-99420465D01*
X116449500Y-99622648D01*
X115750500Y-99622648D01*
X115750500Y-92856943D01*
X116500003Y-92856943D01*
X116500003Y-93093048D01*
X116536937Y-93326243D01*
X116609900Y-93550798D01*
X116717090Y-93761170D01*
X116777341Y-93844100D01*
X116777343Y-93844101D01*
X117517040Y-93104404D01*
X117534078Y-93167989D01*
X117599904Y-93282003D01*
X117692996Y-93375095D01*
X117807010Y-93440921D01*
X117870593Y-93457958D01*
X117130896Y-94197654D01*
X117213831Y-94257910D01*
X117424200Y-94365098D01*
X117648755Y-94438061D01*
X117648754Y-94438061D01*
X117881951Y-94474996D01*
X118118055Y-94474996D01*
X118351250Y-94438061D01*
X118575805Y-94365098D01*
X118786166Y-94257914D01*
X118786172Y-94257910D01*
X118869107Y-94197654D01*
X118869108Y-94197654D01*
X118129411Y-93457958D01*
X118192996Y-93440921D01*
X118307010Y-93375095D01*
X118400102Y-93282003D01*
X118465928Y-93167989D01*
X118482965Y-93104404D01*
X119222661Y-93844101D01*
X119222661Y-93844100D01*
X119282917Y-93761165D01*
X119282921Y-93761159D01*
X119390105Y-93550798D01*
X119463068Y-93326243D01*
X119500003Y-93093048D01*
X119500003Y-92856943D01*
X119463068Y-92623748D01*
X119390105Y-92399193D01*
X119282917Y-92188824D01*
X119222661Y-92105890D01*
X119222661Y-92105889D01*
X118482965Y-92845586D01*
X118465928Y-92782003D01*
X118400102Y-92667989D01*
X118307010Y-92574897D01*
X118192996Y-92509071D01*
X118129412Y-92492033D01*
X118869108Y-91752336D01*
X118869107Y-91752334D01*
X118786177Y-91692083D01*
X118575805Y-91584893D01*
X118351250Y-91511930D01*
X118351251Y-91511930D01*
X118118055Y-91474996D01*
X117881951Y-91474996D01*
X117648755Y-91511930D01*
X117424200Y-91584893D01*
X117213833Y-91692080D01*
X117130897Y-91752336D01*
X117870594Y-92492033D01*
X117807010Y-92509071D01*
X117692996Y-92574897D01*
X117599904Y-92667989D01*
X117534078Y-92782003D01*
X117517040Y-92845587D01*
X116777343Y-92105890D01*
X116717087Y-92188826D01*
X116609900Y-92399193D01*
X116536937Y-92623748D01*
X116500003Y-92856943D01*
X115750500Y-92856943D01*
X115750500Y-84356946D01*
X116499998Y-84356946D01*
X116499998Y-84593051D01*
X116536932Y-84826246D01*
X116609895Y-85050801D01*
X116717085Y-85261173D01*
X116777336Y-85344103D01*
X116777338Y-85344104D01*
X117517035Y-84604407D01*
X117534073Y-84667992D01*
X117599899Y-84782006D01*
X117692991Y-84875098D01*
X117807005Y-84940924D01*
X117870588Y-84957961D01*
X117130891Y-85697657D01*
X117213826Y-85757913D01*
X117424195Y-85865101D01*
X117648750Y-85938064D01*
X117648749Y-85938064D01*
X117881946Y-85974999D01*
X118118050Y-85974999D01*
X118351245Y-85938064D01*
X118575800Y-85865101D01*
X118786161Y-85757917D01*
X118786167Y-85757913D01*
X118869102Y-85697657D01*
X118869103Y-85697657D01*
X118129406Y-84957961D01*
X118192991Y-84940924D01*
X118307005Y-84875098D01*
X118400097Y-84782006D01*
X118465923Y-84667992D01*
X118482960Y-84604407D01*
X119222656Y-85344104D01*
X119222656Y-85344103D01*
X119282912Y-85261168D01*
X119282916Y-85261162D01*
X119390100Y-85050801D01*
X119463063Y-84826246D01*
X119499998Y-84593051D01*
X119499998Y-84356946D01*
X119463063Y-84123751D01*
X119390100Y-83899196D01*
X119282912Y-83688827D01*
X119222656Y-83605893D01*
X119222656Y-83605892D01*
X118482960Y-84345589D01*
X118465923Y-84282006D01*
X118400097Y-84167992D01*
X118307005Y-84074900D01*
X118192991Y-84009074D01*
X118129407Y-83992036D01*
X118869103Y-83252339D01*
X118869102Y-83252337D01*
X118786172Y-83192086D01*
X118575800Y-83084896D01*
X118351245Y-83011933D01*
X118351246Y-83011933D01*
X118118050Y-82974999D01*
X117881946Y-82974999D01*
X117648750Y-83011933D01*
X117424195Y-83084896D01*
X117213828Y-83192083D01*
X117130892Y-83252339D01*
X117870589Y-83992036D01*
X117807005Y-84009074D01*
X117692991Y-84074900D01*
X117599899Y-84167992D01*
X117534073Y-84282006D01*
X117517035Y-84345590D01*
X116777338Y-83605893D01*
X116717082Y-83688829D01*
X116609895Y-83899196D01*
X116536932Y-84123751D01*
X116499998Y-84356946D01*
X115750500Y-84356946D01*
X115750500Y-77622648D01*
X116449500Y-77622648D01*
X116449500Y-77827352D01*
X116450344Y-77832679D01*
X116481522Y-78029534D01*
X116544781Y-78224223D01*
X116596764Y-78326244D01*
X116621658Y-78375101D01*
X116637715Y-78406613D01*
X116758028Y-78572213D01*
X116902786Y-78716971D01*
X117057749Y-78829556D01*
X117068390Y-78837287D01*
X117184607Y-78896503D01*
X117250776Y-78930218D01*
X117250778Y-78930218D01*
X117250781Y-78930220D01*
X117355137Y-78964127D01*
X117445465Y-78993477D01*
X117546557Y-79009488D01*
X117647648Y-79025500D01*
X117647649Y-79025500D01*
X117852351Y-79025500D01*
X117852352Y-79025500D01*
X118054534Y-78993477D01*
X118249219Y-78930220D01*
X118431610Y-78837287D01*
X118536376Y-78761171D01*
X118597213Y-78716971D01*
X118597215Y-78716968D01*
X118597219Y-78716966D01*
X118741966Y-78572219D01*
X118741968Y-78572215D01*
X118741971Y-78572213D01*
X118794732Y-78499590D01*
X118862287Y-78406610D01*
X118955220Y-78224219D01*
X119018477Y-78029534D01*
X119045812Y-77856949D01*
X123025006Y-77856949D01*
X123025006Y-78093054D01*
X123061940Y-78326249D01*
X123134903Y-78550804D01*
X123242093Y-78761176D01*
X123302344Y-78844106D01*
X123302346Y-78844107D01*
X124042043Y-78104410D01*
X124059081Y-78167995D01*
X124124907Y-78282009D01*
X124217999Y-78375101D01*
X124332013Y-78440927D01*
X124395596Y-78457964D01*
X123655899Y-79197660D01*
X123738834Y-79257916D01*
X123949203Y-79365104D01*
X124173758Y-79438067D01*
X124173757Y-79438067D01*
X124406954Y-79475002D01*
X124643058Y-79475002D01*
X124876253Y-79438067D01*
X125100808Y-79365104D01*
X125311169Y-79257920D01*
X125311175Y-79257916D01*
X125394110Y-79197660D01*
X125394111Y-79197660D01*
X124654414Y-78457964D01*
X124717999Y-78440927D01*
X124832013Y-78375101D01*
X124925105Y-78282009D01*
X124990931Y-78167995D01*
X125007968Y-78104411D01*
X125747664Y-78844107D01*
X125747664Y-78844106D01*
X125807920Y-78761171D01*
X125807924Y-78761165D01*
X125915108Y-78550804D01*
X125988071Y-78326249D01*
X126025006Y-78093054D01*
X126025006Y-77856951D01*
X126025005Y-77856948D01*
X126025004Y-77856944D01*
X131525002Y-77856944D01*
X131525002Y-78093049D01*
X131561936Y-78326244D01*
X131634899Y-78550799D01*
X131742089Y-78761171D01*
X131802340Y-78844101D01*
X131802342Y-78844102D01*
X132542039Y-78104405D01*
X132559077Y-78167990D01*
X132624903Y-78282004D01*
X132717995Y-78375096D01*
X132832009Y-78440922D01*
X132895592Y-78457959D01*
X132155895Y-79197655D01*
X132238830Y-79257911D01*
X132449199Y-79365099D01*
X132673754Y-79438062D01*
X132673753Y-79438062D01*
X132906950Y-79474997D01*
X133143054Y-79474997D01*
X133376249Y-79438062D01*
X133600804Y-79365099D01*
X133811165Y-79257915D01*
X133811171Y-79257911D01*
X133894106Y-79197655D01*
X133894107Y-79197655D01*
X133154410Y-78457959D01*
X133217995Y-78440922D01*
X133332009Y-78375096D01*
X133425101Y-78282004D01*
X133490927Y-78167990D01*
X133507964Y-78104406D01*
X134247660Y-78844102D01*
X134247660Y-78844101D01*
X134307916Y-78761166D01*
X134307920Y-78761160D01*
X134415104Y-78550799D01*
X134488067Y-78326244D01*
X134525002Y-78093049D01*
X134525002Y-77856944D01*
X134490194Y-77637174D01*
X134488067Y-77623749D01*
X134487709Y-77622648D01*
X138449500Y-77622648D01*
X138449500Y-77827352D01*
X138450344Y-77832679D01*
X138481522Y-78029534D01*
X138544781Y-78224223D01*
X138596764Y-78326244D01*
X138621658Y-78375101D01*
X138637715Y-78406613D01*
X138758028Y-78572213D01*
X138902786Y-78716971D01*
X139057749Y-78829556D01*
X139068390Y-78837287D01*
X139184607Y-78896503D01*
X139250776Y-78930218D01*
X139250778Y-78930218D01*
X139250781Y-78930220D01*
X139355137Y-78964127D01*
X139445465Y-78993477D01*
X139546557Y-79009488D01*
X139647648Y-79025500D01*
X139647649Y-79025500D01*
X139852351Y-79025500D01*
X139852352Y-79025500D01*
X140054534Y-78993477D01*
X140249219Y-78930220D01*
X140431610Y-78837287D01*
X140536376Y-78761171D01*
X140597213Y-78716971D01*
X140597215Y-78716968D01*
X140597219Y-78716966D01*
X140741966Y-78572219D01*
X140741968Y-78572215D01*
X140741971Y-78572213D01*
X140794732Y-78499590D01*
X140862287Y-78406610D01*
X140955220Y-78224219D01*
X141018477Y-78029534D01*
X141050500Y-77827352D01*
X141050500Y-77622648D01*
X141018477Y-77420466D01*
X141011565Y-77399194D01*
X140955218Y-77225776D01*
X140894135Y-77105896D01*
X140862287Y-77043390D01*
X140854556Y-77032749D01*
X140741971Y-76877786D01*
X140597213Y-76733028D01*
X140431613Y-76612715D01*
X140431612Y-76612714D01*
X140431610Y-76612713D01*
X140374653Y-76583691D01*
X140249223Y-76519781D01*
X140054534Y-76456522D01*
X139879995Y-76428878D01*
X139852352Y-76424500D01*
X139647648Y-76424500D01*
X139623329Y-76428351D01*
X139445465Y-76456522D01*
X139250776Y-76519781D01*
X139068386Y-76612715D01*
X138902786Y-76733028D01*
X138758028Y-76877786D01*
X138637715Y-77043386D01*
X138544781Y-77225776D01*
X138481522Y-77420465D01*
X138467488Y-77509077D01*
X138449500Y-77622648D01*
X134487709Y-77622648D01*
X134415104Y-77399194D01*
X134307916Y-77188825D01*
X134247660Y-77105891D01*
X134247660Y-77105890D01*
X133507964Y-77845587D01*
X133490927Y-77782004D01*
X133425101Y-77667990D01*
X133332009Y-77574898D01*
X133217995Y-77509072D01*
X133154411Y-77492034D01*
X133894107Y-76752337D01*
X133894106Y-76752335D01*
X133811176Y-76692084D01*
X133600804Y-76584894D01*
X133376249Y-76511931D01*
X133376250Y-76511931D01*
X133143054Y-76474997D01*
X132906950Y-76474997D01*
X132673754Y-76511931D01*
X132449199Y-76584894D01*
X132238832Y-76692081D01*
X132155896Y-76752337D01*
X132895593Y-77492034D01*
X132832009Y-77509072D01*
X132717995Y-77574898D01*
X132624903Y-77667990D01*
X132559077Y-77782004D01*
X132542039Y-77845588D01*
X131802342Y-77105891D01*
X131742086Y-77188827D01*
X131634899Y-77399194D01*
X131561936Y-77623749D01*
X131525002Y-77856944D01*
X126025004Y-77856944D01*
X125988071Y-77623754D01*
X125915108Y-77399199D01*
X125807920Y-77188830D01*
X125747664Y-77105896D01*
X125747664Y-77105895D01*
X125007968Y-77845592D01*
X124990931Y-77782009D01*
X124925105Y-77667995D01*
X124832013Y-77574903D01*
X124717999Y-77509077D01*
X124654415Y-77492039D01*
X125394111Y-76752342D01*
X125394111Y-76752341D01*
X125311180Y-76692089D01*
X125100808Y-76584899D01*
X124876253Y-76511936D01*
X124876254Y-76511936D01*
X124643058Y-76475002D01*
X124406954Y-76475002D01*
X124173758Y-76511936D01*
X123949203Y-76584899D01*
X123738836Y-76692086D01*
X123655900Y-76752342D01*
X124395597Y-77492039D01*
X124332013Y-77509077D01*
X124217999Y-77574903D01*
X124124907Y-77667995D01*
X124059081Y-77782009D01*
X124042043Y-77845593D01*
X123302346Y-77105896D01*
X123242090Y-77188832D01*
X123134903Y-77399199D01*
X123061940Y-77623754D01*
X123025006Y-77856949D01*
X119045812Y-77856949D01*
X119050500Y-77827352D01*
X119050500Y-77622648D01*
X119018477Y-77420466D01*
X119011565Y-77399194D01*
X118955218Y-77225776D01*
X118894135Y-77105896D01*
X118862287Y-77043390D01*
X118741966Y-76877781D01*
X118597219Y-76733034D01*
X118597213Y-76733028D01*
X118431613Y-76612715D01*
X118431612Y-76612714D01*
X118431610Y-76612713D01*
X118374653Y-76583691D01*
X118249223Y-76519781D01*
X118054534Y-76456522D01*
X117879995Y-76428878D01*
X117852352Y-76424500D01*
X117647648Y-76424500D01*
X117623329Y-76428351D01*
X117445465Y-76456522D01*
X117250776Y-76519781D01*
X117068386Y-76612715D01*
X116902786Y-76733028D01*
X116758028Y-76877786D01*
X116637715Y-77043386D01*
X116544781Y-77225776D01*
X116481522Y-77420465D01*
X116467488Y-77509077D01*
X116449500Y-77622648D01*
X115750500Y-77622648D01*
X115750500Y-75849500D01*
X115770185Y-75782461D01*
X115822989Y-75736706D01*
X115874500Y-75725500D01*
X117209108Y-75725500D01*
X141625500Y-75725500D01*
X141692539Y-75745185D01*
G37*
%TD.AperFunction*%
%TA.AperFunction,Conductor*%
G36*
X133064075Y-104292993D02*
G01*
X133129901Y-104407007D01*
X133222993Y-104500099D01*
X133337007Y-104565925D01*
X133400590Y-104582962D01*
X132768282Y-105215269D01*
X132770290Y-105240770D01*
X132755926Y-105309147D01*
X132706876Y-105358904D01*
X132646672Y-105374500D01*
X131915043Y-105374500D01*
X131848004Y-105354815D01*
X131802249Y-105302011D01*
X131792305Y-105232853D01*
X131821330Y-105169297D01*
X131842158Y-105150181D01*
X131869792Y-105130104D01*
X132020104Y-104979792D01*
X132020106Y-104979788D01*
X132020109Y-104979786D01*
X132105890Y-104861717D01*
X132145051Y-104807816D01*
X132149793Y-104798508D01*
X132197763Y-104747711D01*
X132265583Y-104730911D01*
X132331719Y-104753445D01*
X132370763Y-104798500D01*
X132375373Y-104807547D01*
X132414728Y-104861716D01*
X133047037Y-104229408D01*
X133064075Y-104292993D01*
G37*
%TD.AperFunction*%
%TA.AperFunction,Conductor*%
G36*
X131342935Y-83095183D02*
G01*
X131388690Y-83147987D01*
X131398634Y-83217145D01*
X131369609Y-83280701D01*
X131363577Y-83287179D01*
X131218482Y-83432273D01*
X131218478Y-83432278D01*
X131193525Y-83475501D01*
X131193524Y-83475503D01*
X131139424Y-83569206D01*
X131098500Y-83721934D01*
X131098500Y-83721936D01*
X131098500Y-83890037D01*
X131098501Y-83890050D01*
X131098501Y-87332298D01*
X131078816Y-87399337D01*
X131026012Y-87445092D01*
X130956854Y-87455036D01*
X130893298Y-87426011D01*
X130869507Y-87398270D01*
X130828053Y-87332298D01*
X130792523Y-87275752D01*
X130617416Y-87056175D01*
X130418825Y-86857584D01*
X130199248Y-86682477D01*
X129961445Y-86533055D01*
X129961442Y-86533053D01*
X129708411Y-86411200D01*
X129443329Y-86318443D01*
X129443317Y-86318439D01*
X129169512Y-86255945D01*
X129169494Y-86255942D01*
X128890431Y-86224500D01*
X128890425Y-86224500D01*
X128609575Y-86224500D01*
X128609568Y-86224500D01*
X128330505Y-86255942D01*
X128330487Y-86255945D01*
X128056682Y-86318439D01*
X128056670Y-86318443D01*
X127791588Y-86411200D01*
X127538557Y-86533053D01*
X127300753Y-86682476D01*
X127081175Y-86857583D01*
X126882583Y-87056175D01*
X126707476Y-87275753D01*
X126558053Y-87513557D01*
X126436200Y-87766588D01*
X126343443Y-88031670D01*
X126343439Y-88031682D01*
X126280945Y-88305487D01*
X126280942Y-88305505D01*
X126249500Y-88584568D01*
X126249500Y-88865431D01*
X126280942Y-89144494D01*
X126280945Y-89144512D01*
X126343439Y-89418317D01*
X126343443Y-89418329D01*
X126436200Y-89683411D01*
X126558053Y-89936442D01*
X126558055Y-89936445D01*
X126707477Y-90174248D01*
X126882584Y-90393825D01*
X127081175Y-90592416D01*
X127300752Y-90767523D01*
X127538555Y-90916945D01*
X127791592Y-91038801D01*
X127990680Y-91108465D01*
X128056670Y-91131556D01*
X128056682Y-91131560D01*
X128330491Y-91194055D01*
X128330497Y-91194055D01*
X128330505Y-91194057D01*
X128516547Y-91215018D01*
X128609569Y-91225499D01*
X128609572Y-91225500D01*
X128609575Y-91225500D01*
X128890428Y-91225500D01*
X128890429Y-91225499D01*
X129033055Y-91209429D01*
X129169494Y-91194057D01*
X129169499Y-91194056D01*
X129169509Y-91194055D01*
X129443318Y-91131560D01*
X129708408Y-91038801D01*
X129961445Y-90916945D01*
X130199248Y-90767523D01*
X130418825Y-90592416D01*
X130617416Y-90393825D01*
X130792523Y-90174248D01*
X130869507Y-90051728D01*
X130921842Y-90005438D01*
X130990895Y-89994790D01*
X131054744Y-90023165D01*
X131093116Y-90081555D01*
X131098501Y-90117701D01*
X131098501Y-100550901D01*
X131078816Y-100617940D01*
X131062182Y-100638582D01*
X128934522Y-102766241D01*
X128873199Y-102799726D01*
X128808523Y-102796491D01*
X128766245Y-102782754D01*
X128626272Y-102760584D01*
X128556287Y-102749500D01*
X128343713Y-102749500D01*
X128295042Y-102757208D01*
X128133760Y-102782753D01*
X127931585Y-102848444D01*
X127742179Y-102944951D01*
X127570213Y-103069890D01*
X127419890Y-103220213D01*
X127294949Y-103392182D01*
X127290484Y-103400946D01*
X127242509Y-103451742D01*
X127174688Y-103468536D01*
X127108553Y-103445998D01*
X127069516Y-103400946D01*
X127065050Y-103392182D01*
X126940109Y-103220213D01*
X126789786Y-103069890D01*
X126617820Y-102944951D01*
X126428414Y-102848444D01*
X126428413Y-102848443D01*
X126428412Y-102848443D01*
X126226243Y-102782754D01*
X126226241Y-102782753D01*
X126226240Y-102782753D01*
X126064957Y-102757208D01*
X126016287Y-102749500D01*
X125803713Y-102749500D01*
X125775006Y-102754046D01*
X125593757Y-102782753D01*
X125551473Y-102796492D01*
X125481632Y-102798486D01*
X125425476Y-102766241D01*
X123663692Y-101004457D01*
X123630207Y-100943134D01*
X123635191Y-100873442D01*
X123677063Y-100817509D01*
X123742527Y-100793092D01*
X123807666Y-100806290D01*
X123829684Y-100817509D01*
X123924002Y-100865567D01*
X123924004Y-100865567D01*
X123924007Y-100865569D01*
X124030202Y-100900074D01*
X124148630Y-100938554D01*
X124381902Y-100975501D01*
X124381907Y-100975501D01*
X124618096Y-100975501D01*
X124851367Y-100938554D01*
X124902970Y-100921787D01*
X125075991Y-100865569D01*
X125286432Y-100758344D01*
X125477509Y-100619518D01*
X125644516Y-100452511D01*
X125783342Y-100261434D01*
X125890567Y-100050993D01*
X125963552Y-99826369D01*
X125963552Y-99826367D01*
X126000499Y-99593098D01*
X126000499Y-99356903D01*
X125963552Y-99123632D01*
X125890565Y-98899004D01*
X125834001Y-98787992D01*
X125783342Y-98688568D01*
X125644516Y-98497491D01*
X125477509Y-98330484D01*
X125286432Y-98191658D01*
X125286428Y-98191656D01*
X125075995Y-98084434D01*
X124851367Y-98011447D01*
X124618096Y-97974501D01*
X124618091Y-97974501D01*
X124381907Y-97974501D01*
X124381902Y-97974501D01*
X124148630Y-98011447D01*
X123924002Y-98084434D01*
X123713565Y-98191658D01*
X123604549Y-98270863D01*
X123522489Y-98330484D01*
X123522487Y-98330486D01*
X123522486Y-98330486D01*
X123355483Y-98497489D01*
X123324820Y-98539694D01*
X123269489Y-98582359D01*
X123199876Y-98588338D01*
X123138081Y-98555732D01*
X123103724Y-98494893D01*
X123100502Y-98466808D01*
X123100502Y-95964331D01*
X123120187Y-95897292D01*
X123172991Y-95851537D01*
X123234231Y-95840713D01*
X123277343Y-95844105D01*
X124017039Y-95104409D01*
X124034077Y-95167994D01*
X124099903Y-95282008D01*
X124192995Y-95375100D01*
X124307009Y-95440926D01*
X124370592Y-95457963D01*
X123630895Y-96197659D01*
X123713830Y-96257915D01*
X123924199Y-96365103D01*
X124148754Y-96438066D01*
X124148753Y-96438066D01*
X124381950Y-96475001D01*
X124618054Y-96475001D01*
X124851249Y-96438066D01*
X125075804Y-96365103D01*
X125286165Y-96257919D01*
X125286171Y-96257915D01*
X125369106Y-96197659D01*
X125369107Y-96197659D01*
X124629410Y-95457963D01*
X124692995Y-95440926D01*
X124807009Y-95375100D01*
X124900101Y-95282008D01*
X124965927Y-95167994D01*
X124982964Y-95104410D01*
X125722660Y-95844106D01*
X125722660Y-95844105D01*
X125782916Y-95761170D01*
X125782920Y-95761164D01*
X125890104Y-95550803D01*
X125963067Y-95326248D01*
X126000002Y-95093053D01*
X126000002Y-94856948D01*
X125963067Y-94623753D01*
X125890104Y-94399198D01*
X125782916Y-94188829D01*
X125722660Y-94105895D01*
X125722660Y-94105894D01*
X124982964Y-94845591D01*
X124965927Y-94782008D01*
X124900101Y-94667994D01*
X124807009Y-94574902D01*
X124692995Y-94509076D01*
X124629410Y-94492038D01*
X125369107Y-93752341D01*
X125369106Y-93752339D01*
X125286176Y-93692088D01*
X125075804Y-93584898D01*
X124851249Y-93511935D01*
X124851250Y-93511935D01*
X124618054Y-93475001D01*
X124381950Y-93475001D01*
X124148753Y-93511935D01*
X124148749Y-93511936D01*
X124105736Y-93525912D01*
X124035895Y-93527907D01*
X123976062Y-93491826D01*
X123945235Y-93429125D01*
X123949488Y-93369662D01*
X123963555Y-93326369D01*
X124000502Y-93093098D01*
X124000502Y-92856903D01*
X123963555Y-92623632D01*
X123890632Y-92399200D01*
X123890570Y-92399009D01*
X123890568Y-92399006D01*
X123890568Y-92399004D01*
X123783344Y-92188567D01*
X123783338Y-92188559D01*
X123644519Y-91997491D01*
X123477512Y-91830484D01*
X123381973Y-91761071D01*
X123286433Y-91691656D01*
X123168206Y-91631416D01*
X123117411Y-91583442D01*
X123100502Y-91520932D01*
X123100502Y-85929069D01*
X123120187Y-85862030D01*
X123168208Y-85818584D01*
X123286428Y-85758348D01*
X123286427Y-85758348D01*
X123286430Y-85758347D01*
X123477507Y-85619521D01*
X123644514Y-85452514D01*
X123783340Y-85261437D01*
X123890565Y-85050996D01*
X123963550Y-84826372D01*
X123970577Y-84782006D01*
X124000497Y-84593101D01*
X124000497Y-84356906D01*
X123963550Y-84123635D01*
X123946723Y-84071848D01*
X123944728Y-84002007D01*
X123980808Y-83942174D01*
X124043509Y-83911345D01*
X124102973Y-83915598D01*
X124173629Y-83938556D01*
X124406901Y-83975503D01*
X124406906Y-83975503D01*
X124643095Y-83975503D01*
X124876366Y-83938556D01*
X124897282Y-83931760D01*
X125100990Y-83865571D01*
X125311431Y-83758346D01*
X125502508Y-83619520D01*
X125669515Y-83452513D01*
X125808341Y-83261436D01*
X125868584Y-83143203D01*
X125916559Y-83092407D01*
X125979069Y-83075498D01*
X131275896Y-83075498D01*
X131342935Y-83095183D01*
G37*
%TD.AperFunction*%
%TD*%
M02*
