M48
; DRILL file {KiCad 9.0.7} date 2026-03-05T13:00:02+1100
; FORMAT={-:-/ absolute / metric / decimal}
; #@! TF.CreationDate,2026-03-05T13:00:02+11:00
; #@! TF.GenerationSoftware,Kicad,Pcbnew,9.0.7
; #@! TF.FileFunction,Plated,1,2,PTH
FMAT,2
METRIC
; #@! TA.AperFunction,Plated,PTH,ComponentDrill
T1C1.000
%
G90
G05
T1
X118.0Y-84.475
X118.0Y-92.975
X122.5Y-84.475
X122.5Y-92.975
X123.37Y-104.1
X124.5Y-99.475
X124.5Y-94.975
X124.525Y-82.475
X124.525Y-77.975
X125.91Y-104.1
X128.45Y-104.1
X130.99Y-104.1
X133.0Y-99.475
X133.0Y-94.975
X133.025Y-82.475
X133.025Y-77.975
X133.53Y-104.1
X135.0Y-84.475
X135.0Y-92.975
X139.5Y-84.475
X139.5Y-92.975
M30
