%TF.GenerationSoftware,KiCad,Pcbnew,9.0.7*%
%TF.CreationDate,2026-03-05T15:08:44+11:00*%
%TF.ProjectId,daughterboard,64617567-6874-4657-9262-6f6172642e6b,rev?*%
%TF.SameCoordinates,Original*%
%TF.FileFunction,Legend,Top*%
%TF.FilePolarity,Positive*%
%FSLAX46Y46*%
G04 Gerber Fmt 4.6, Leading zero omitted, Abs format (unit mm)*
G04 Created by KiCad (PCBNEW 9.0.7) date 2026-03-05 15:08:44*
%MOMM*%
%LPD*%
G01*
G04 APERTURE LIST*
%ADD10C,0.100000*%
%ADD11C,0.150000*%
%ADD12C,0.120000*%
G04 APERTURE END LIST*
D10*
X156112217Y-60023609D02*
X156255074Y-60071228D01*
X156255074Y-60071228D02*
X156302693Y-60118847D01*
X156302693Y-60118847D02*
X156350312Y-60214085D01*
X156350312Y-60214085D02*
X156350312Y-60356942D01*
X156350312Y-60356942D02*
X156302693Y-60452180D01*
X156302693Y-60452180D02*
X156255074Y-60499800D01*
X156255074Y-60499800D02*
X156159836Y-60547419D01*
X156159836Y-60547419D02*
X155778884Y-60547419D01*
X155778884Y-60547419D02*
X155778884Y-59547419D01*
X155778884Y-59547419D02*
X156112217Y-59547419D01*
X156112217Y-59547419D02*
X156207455Y-59595038D01*
X156207455Y-59595038D02*
X156255074Y-59642657D01*
X156255074Y-59642657D02*
X156302693Y-59737895D01*
X156302693Y-59737895D02*
X156302693Y-59833133D01*
X156302693Y-59833133D02*
X156255074Y-59928371D01*
X156255074Y-59928371D02*
X156207455Y-59975990D01*
X156207455Y-59975990D02*
X156112217Y-60023609D01*
X156112217Y-60023609D02*
X155778884Y-60023609D01*
X157255074Y-60547419D02*
X156778884Y-60547419D01*
X156778884Y-60547419D02*
X156778884Y-59547419D01*
X86269360Y-76621228D02*
X86269360Y-77097419D01*
X85936027Y-76097419D02*
X86269360Y-76621228D01*
X86269360Y-76621228D02*
X86602693Y-76097419D01*
X148752693Y-59595038D02*
X148657455Y-59547419D01*
X148657455Y-59547419D02*
X148514598Y-59547419D01*
X148514598Y-59547419D02*
X148371741Y-59595038D01*
X148371741Y-59595038D02*
X148276503Y-59690276D01*
X148276503Y-59690276D02*
X148228884Y-59785514D01*
X148228884Y-59785514D02*
X148181265Y-59975990D01*
X148181265Y-59975990D02*
X148181265Y-60118847D01*
X148181265Y-60118847D02*
X148228884Y-60309323D01*
X148228884Y-60309323D02*
X148276503Y-60404561D01*
X148276503Y-60404561D02*
X148371741Y-60499800D01*
X148371741Y-60499800D02*
X148514598Y-60547419D01*
X148514598Y-60547419D02*
X148609836Y-60547419D01*
X148609836Y-60547419D02*
X148752693Y-60499800D01*
X148752693Y-60499800D02*
X148800312Y-60452180D01*
X148800312Y-60452180D02*
X148800312Y-60118847D01*
X148800312Y-60118847D02*
X148609836Y-60118847D01*
X149228884Y-60547419D02*
X149228884Y-59547419D01*
X149228884Y-59547419D02*
X149466979Y-59547419D01*
X149466979Y-59547419D02*
X149609836Y-59595038D01*
X149609836Y-59595038D02*
X149705074Y-59690276D01*
X149705074Y-59690276D02*
X149752693Y-59785514D01*
X149752693Y-59785514D02*
X149800312Y-59975990D01*
X149800312Y-59975990D02*
X149800312Y-60118847D01*
X149800312Y-60118847D02*
X149752693Y-60309323D01*
X149752693Y-60309323D02*
X149705074Y-60404561D01*
X149705074Y-60404561D02*
X149609836Y-60499800D01*
X149609836Y-60499800D02*
X149466979Y-60547419D01*
X149466979Y-60547419D02*
X149228884Y-60547419D01*
X85555074Y-82247419D02*
X85078884Y-82247419D01*
X85078884Y-82247419D02*
X85078884Y-81247419D01*
X86459836Y-82247419D02*
X86126503Y-81771228D01*
X85888408Y-82247419D02*
X85888408Y-81247419D01*
X85888408Y-81247419D02*
X86269360Y-81247419D01*
X86269360Y-81247419D02*
X86364598Y-81295038D01*
X86364598Y-81295038D02*
X86412217Y-81342657D01*
X86412217Y-81342657D02*
X86459836Y-81437895D01*
X86459836Y-81437895D02*
X86459836Y-81580752D01*
X86459836Y-81580752D02*
X86412217Y-81675990D01*
X86412217Y-81675990D02*
X86364598Y-81723609D01*
X86364598Y-81723609D02*
X86269360Y-81771228D01*
X86269360Y-81771228D02*
X85888408Y-81771228D01*
X86412217Y-74148609D02*
X86555074Y-74196228D01*
X86555074Y-74196228D02*
X86602693Y-74243847D01*
X86602693Y-74243847D02*
X86650312Y-74339085D01*
X86650312Y-74339085D02*
X86650312Y-74481942D01*
X86650312Y-74481942D02*
X86602693Y-74577180D01*
X86602693Y-74577180D02*
X86555074Y-74624800D01*
X86555074Y-74624800D02*
X86459836Y-74672419D01*
X86459836Y-74672419D02*
X86078884Y-74672419D01*
X86078884Y-74672419D02*
X86078884Y-73672419D01*
X86078884Y-73672419D02*
X86412217Y-73672419D01*
X86412217Y-73672419D02*
X86507455Y-73720038D01*
X86507455Y-73720038D02*
X86555074Y-73767657D01*
X86555074Y-73767657D02*
X86602693Y-73862895D01*
X86602693Y-73862895D02*
X86602693Y-73958133D01*
X86602693Y-73958133D02*
X86555074Y-74053371D01*
X86555074Y-74053371D02*
X86507455Y-74100990D01*
X86507455Y-74100990D02*
X86412217Y-74148609D01*
X86412217Y-74148609D02*
X86078884Y-74148609D01*
X143627693Y-59595038D02*
X143532455Y-59547419D01*
X143532455Y-59547419D02*
X143389598Y-59547419D01*
X143389598Y-59547419D02*
X143246741Y-59595038D01*
X143246741Y-59595038D02*
X143151503Y-59690276D01*
X143151503Y-59690276D02*
X143103884Y-59785514D01*
X143103884Y-59785514D02*
X143056265Y-59975990D01*
X143056265Y-59975990D02*
X143056265Y-60118847D01*
X143056265Y-60118847D02*
X143103884Y-60309323D01*
X143103884Y-60309323D02*
X143151503Y-60404561D01*
X143151503Y-60404561D02*
X143246741Y-60499800D01*
X143246741Y-60499800D02*
X143389598Y-60547419D01*
X143389598Y-60547419D02*
X143484836Y-60547419D01*
X143484836Y-60547419D02*
X143627693Y-60499800D01*
X143627693Y-60499800D02*
X143675312Y-60452180D01*
X143675312Y-60452180D02*
X143675312Y-60118847D01*
X143675312Y-60118847D02*
X143484836Y-60118847D01*
X144103884Y-60547419D02*
X144103884Y-59547419D01*
X144103884Y-59547419D02*
X144341979Y-59547419D01*
X144341979Y-59547419D02*
X144484836Y-59595038D01*
X144484836Y-59595038D02*
X144580074Y-59690276D01*
X144580074Y-59690276D02*
X144627693Y-59785514D01*
X144627693Y-59785514D02*
X144675312Y-59975990D01*
X144675312Y-59975990D02*
X144675312Y-60118847D01*
X144675312Y-60118847D02*
X144627693Y-60309323D01*
X144627693Y-60309323D02*
X144580074Y-60404561D01*
X144580074Y-60404561D02*
X144484836Y-60499800D01*
X144484836Y-60499800D02*
X144341979Y-60547419D01*
X144341979Y-60547419D02*
X144103884Y-60547419D01*
X97753884Y-122272419D02*
X97753884Y-121272419D01*
X97753884Y-121748609D02*
X98325312Y-121748609D01*
X98325312Y-122272419D02*
X98325312Y-121272419D01*
X99372931Y-122272419D02*
X99039598Y-121796228D01*
X98801503Y-122272419D02*
X98801503Y-121272419D01*
X98801503Y-121272419D02*
X99182455Y-121272419D01*
X99182455Y-121272419D02*
X99277693Y-121320038D01*
X99277693Y-121320038D02*
X99325312Y-121367657D01*
X99325312Y-121367657D02*
X99372931Y-121462895D01*
X99372931Y-121462895D02*
X99372931Y-121605752D01*
X99372931Y-121605752D02*
X99325312Y-121700990D01*
X99325312Y-121700990D02*
X99277693Y-121748609D01*
X99277693Y-121748609D02*
X99182455Y-121796228D01*
X99182455Y-121796228D02*
X98801503Y-121796228D01*
X137961027Y-59547419D02*
X138294360Y-60547419D01*
X138294360Y-60547419D02*
X138627693Y-59547419D01*
X138913408Y-60499800D02*
X139056265Y-60547419D01*
X139056265Y-60547419D02*
X139294360Y-60547419D01*
X139294360Y-60547419D02*
X139389598Y-60499800D01*
X139389598Y-60499800D02*
X139437217Y-60452180D01*
X139437217Y-60452180D02*
X139484836Y-60356942D01*
X139484836Y-60356942D02*
X139484836Y-60261704D01*
X139484836Y-60261704D02*
X139437217Y-60166466D01*
X139437217Y-60166466D02*
X139389598Y-60118847D01*
X139389598Y-60118847D02*
X139294360Y-60071228D01*
X139294360Y-60071228D02*
X139103884Y-60023609D01*
X139103884Y-60023609D02*
X139008646Y-59975990D01*
X139008646Y-59975990D02*
X138961027Y-59928371D01*
X138961027Y-59928371D02*
X138913408Y-59833133D01*
X138913408Y-59833133D02*
X138913408Y-59737895D01*
X138913408Y-59737895D02*
X138961027Y-59642657D01*
X138961027Y-59642657D02*
X139008646Y-59595038D01*
X139008646Y-59595038D02*
X139103884Y-59547419D01*
X139103884Y-59547419D02*
X139341979Y-59547419D01*
X139341979Y-59547419D02*
X139484836Y-59595038D01*
X153827693Y-59595038D02*
X153732455Y-59547419D01*
X153732455Y-59547419D02*
X153589598Y-59547419D01*
X153589598Y-59547419D02*
X153446741Y-59595038D01*
X153446741Y-59595038D02*
X153351503Y-59690276D01*
X153351503Y-59690276D02*
X153303884Y-59785514D01*
X153303884Y-59785514D02*
X153256265Y-59975990D01*
X153256265Y-59975990D02*
X153256265Y-60118847D01*
X153256265Y-60118847D02*
X153303884Y-60309323D01*
X153303884Y-60309323D02*
X153351503Y-60404561D01*
X153351503Y-60404561D02*
X153446741Y-60499800D01*
X153446741Y-60499800D02*
X153589598Y-60547419D01*
X153589598Y-60547419D02*
X153684836Y-60547419D01*
X153684836Y-60547419D02*
X153827693Y-60499800D01*
X153827693Y-60499800D02*
X153875312Y-60452180D01*
X153875312Y-60452180D02*
X153875312Y-60118847D01*
X153875312Y-60118847D02*
X153684836Y-60118847D01*
X154303884Y-60547419D02*
X154303884Y-59547419D01*
X154303884Y-59547419D02*
X154541979Y-59547419D01*
X154541979Y-59547419D02*
X154684836Y-59595038D01*
X154684836Y-59595038D02*
X154780074Y-59690276D01*
X154780074Y-59690276D02*
X154827693Y-59785514D01*
X154827693Y-59785514D02*
X154875312Y-59975990D01*
X154875312Y-59975990D02*
X154875312Y-60118847D01*
X154875312Y-60118847D02*
X154827693Y-60309323D01*
X154827693Y-60309323D02*
X154780074Y-60404561D01*
X154780074Y-60404561D02*
X154684836Y-60499800D01*
X154684836Y-60499800D02*
X154541979Y-60547419D01*
X154541979Y-60547419D02*
X154303884Y-60547419D01*
X100403884Y-122272419D02*
X100403884Y-121272419D01*
X100403884Y-121748609D02*
X100975312Y-121748609D01*
X100975312Y-122272419D02*
X100975312Y-121272419D01*
X101403884Y-122224800D02*
X101546741Y-122272419D01*
X101546741Y-122272419D02*
X101784836Y-122272419D01*
X101784836Y-122272419D02*
X101880074Y-122224800D01*
X101880074Y-122224800D02*
X101927693Y-122177180D01*
X101927693Y-122177180D02*
X101975312Y-122081942D01*
X101975312Y-122081942D02*
X101975312Y-121986704D01*
X101975312Y-121986704D02*
X101927693Y-121891466D01*
X101927693Y-121891466D02*
X101880074Y-121843847D01*
X101880074Y-121843847D02*
X101784836Y-121796228D01*
X101784836Y-121796228D02*
X101594360Y-121748609D01*
X101594360Y-121748609D02*
X101499122Y-121700990D01*
X101499122Y-121700990D02*
X101451503Y-121653371D01*
X101451503Y-121653371D02*
X101403884Y-121558133D01*
X101403884Y-121558133D02*
X101403884Y-121462895D01*
X101403884Y-121462895D02*
X101451503Y-121367657D01*
X101451503Y-121367657D02*
X101499122Y-121320038D01*
X101499122Y-121320038D02*
X101594360Y-121272419D01*
X101594360Y-121272419D02*
X101832455Y-121272419D01*
X101832455Y-121272419D02*
X101975312Y-121320038D01*
X202277693Y-115745038D02*
X202182455Y-115697419D01*
X202182455Y-115697419D02*
X202039598Y-115697419D01*
X202039598Y-115697419D02*
X201896741Y-115745038D01*
X201896741Y-115745038D02*
X201801503Y-115840276D01*
X201801503Y-115840276D02*
X201753884Y-115935514D01*
X201753884Y-115935514D02*
X201706265Y-116125990D01*
X201706265Y-116125990D02*
X201706265Y-116268847D01*
X201706265Y-116268847D02*
X201753884Y-116459323D01*
X201753884Y-116459323D02*
X201801503Y-116554561D01*
X201801503Y-116554561D02*
X201896741Y-116649800D01*
X201896741Y-116649800D02*
X202039598Y-116697419D01*
X202039598Y-116697419D02*
X202134836Y-116697419D01*
X202134836Y-116697419D02*
X202277693Y-116649800D01*
X202277693Y-116649800D02*
X202325312Y-116602180D01*
X202325312Y-116602180D02*
X202325312Y-116268847D01*
X202325312Y-116268847D02*
X202134836Y-116268847D01*
X202753884Y-116697419D02*
X202753884Y-115697419D01*
X202753884Y-115697419D02*
X202991979Y-115697419D01*
X202991979Y-115697419D02*
X203134836Y-115745038D01*
X203134836Y-115745038D02*
X203230074Y-115840276D01*
X203230074Y-115840276D02*
X203277693Y-115935514D01*
X203277693Y-115935514D02*
X203325312Y-116125990D01*
X203325312Y-116125990D02*
X203325312Y-116268847D01*
X203325312Y-116268847D02*
X203277693Y-116459323D01*
X203277693Y-116459323D02*
X203230074Y-116554561D01*
X203230074Y-116554561D02*
X203134836Y-116649800D01*
X203134836Y-116649800D02*
X202991979Y-116697419D01*
X202991979Y-116697419D02*
X202753884Y-116697419D01*
X90033646Y-107922419D02*
X90652693Y-107922419D01*
X90652693Y-107922419D02*
X90319360Y-108303371D01*
X90319360Y-108303371D02*
X90462217Y-108303371D01*
X90462217Y-108303371D02*
X90557455Y-108350990D01*
X90557455Y-108350990D02*
X90605074Y-108398609D01*
X90605074Y-108398609D02*
X90652693Y-108493847D01*
X90652693Y-108493847D02*
X90652693Y-108731942D01*
X90652693Y-108731942D02*
X90605074Y-108827180D01*
X90605074Y-108827180D02*
X90557455Y-108874800D01*
X90557455Y-108874800D02*
X90462217Y-108922419D01*
X90462217Y-108922419D02*
X90176503Y-108922419D01*
X90176503Y-108922419D02*
X90081265Y-108874800D01*
X90081265Y-108874800D02*
X90033646Y-108827180D01*
X90938408Y-107922419D02*
X91271741Y-108922419D01*
X91271741Y-108922419D02*
X91605074Y-107922419D01*
X91843170Y-107922419D02*
X92462217Y-107922419D01*
X92462217Y-107922419D02*
X92128884Y-108303371D01*
X92128884Y-108303371D02*
X92271741Y-108303371D01*
X92271741Y-108303371D02*
X92366979Y-108350990D01*
X92366979Y-108350990D02*
X92414598Y-108398609D01*
X92414598Y-108398609D02*
X92462217Y-108493847D01*
X92462217Y-108493847D02*
X92462217Y-108731942D01*
X92462217Y-108731942D02*
X92414598Y-108827180D01*
X92414598Y-108827180D02*
X92366979Y-108874800D01*
X92366979Y-108874800D02*
X92271741Y-108922419D01*
X92271741Y-108922419D02*
X91986027Y-108922419D01*
X91986027Y-108922419D02*
X91890789Y-108874800D01*
X91890789Y-108874800D02*
X91843170Y-108827180D01*
X199830074Y-133097419D02*
X199353884Y-133097419D01*
X199353884Y-133097419D02*
X199353884Y-132097419D01*
X200163408Y-132716466D02*
X200925313Y-132716466D01*
X200544360Y-133097419D02*
X200544360Y-132335514D01*
X195712217Y-81996895D02*
X195331265Y-81996895D01*
X195331265Y-81996895D02*
X195293169Y-82377847D01*
X195293169Y-82377847D02*
X195331265Y-82339752D01*
X195331265Y-82339752D02*
X195407455Y-82301657D01*
X195407455Y-82301657D02*
X195597931Y-82301657D01*
X195597931Y-82301657D02*
X195674122Y-82339752D01*
X195674122Y-82339752D02*
X195712217Y-82377847D01*
X195712217Y-82377847D02*
X195750312Y-82454038D01*
X195750312Y-82454038D02*
X195750312Y-82644514D01*
X195750312Y-82644514D02*
X195712217Y-82720704D01*
X195712217Y-82720704D02*
X195674122Y-82758800D01*
X195674122Y-82758800D02*
X195597931Y-82796895D01*
X195597931Y-82796895D02*
X195407455Y-82796895D01*
X195407455Y-82796895D02*
X195331265Y-82758800D01*
X195331265Y-82758800D02*
X195293169Y-82720704D01*
X195978884Y-81996895D02*
X196245551Y-82796895D01*
X196245551Y-82796895D02*
X196512217Y-81996895D01*
X201753884Y-109022419D02*
X201753884Y-108022419D01*
X201753884Y-108022419D02*
X201991979Y-108022419D01*
X201991979Y-108022419D02*
X202134836Y-108070038D01*
X202134836Y-108070038D02*
X202230074Y-108165276D01*
X202230074Y-108165276D02*
X202277693Y-108260514D01*
X202277693Y-108260514D02*
X202325312Y-108450990D01*
X202325312Y-108450990D02*
X202325312Y-108593847D01*
X202325312Y-108593847D02*
X202277693Y-108784323D01*
X202277693Y-108784323D02*
X202230074Y-108879561D01*
X202230074Y-108879561D02*
X202134836Y-108974800D01*
X202134836Y-108974800D02*
X201991979Y-109022419D01*
X201991979Y-109022419D02*
X201753884Y-109022419D01*
X203325312Y-109022419D02*
X202991979Y-108546228D01*
X202753884Y-109022419D02*
X202753884Y-108022419D01*
X202753884Y-108022419D02*
X203134836Y-108022419D01*
X203134836Y-108022419D02*
X203230074Y-108070038D01*
X203230074Y-108070038D02*
X203277693Y-108117657D01*
X203277693Y-108117657D02*
X203325312Y-108212895D01*
X203325312Y-108212895D02*
X203325312Y-108355752D01*
X203325312Y-108355752D02*
X203277693Y-108450990D01*
X203277693Y-108450990D02*
X203230074Y-108498609D01*
X203230074Y-108498609D02*
X203134836Y-108546228D01*
X203134836Y-108546228D02*
X202753884Y-108546228D01*
X176889425Y-59621506D02*
X176508473Y-59621506D01*
X176508473Y-59621506D02*
X176470377Y-60002458D01*
X176470377Y-60002458D02*
X176508473Y-59964363D01*
X176508473Y-59964363D02*
X176584663Y-59926268D01*
X176584663Y-59926268D02*
X176775139Y-59926268D01*
X176775139Y-59926268D02*
X176851330Y-59964363D01*
X176851330Y-59964363D02*
X176889425Y-60002458D01*
X176889425Y-60002458D02*
X176927520Y-60078649D01*
X176927520Y-60078649D02*
X176927520Y-60269125D01*
X176927520Y-60269125D02*
X176889425Y-60345315D01*
X176889425Y-60345315D02*
X176851330Y-60383411D01*
X176851330Y-60383411D02*
X176775139Y-60421506D01*
X176775139Y-60421506D02*
X176584663Y-60421506D01*
X176584663Y-60421506D02*
X176508473Y-60383411D01*
X176508473Y-60383411D02*
X176470377Y-60345315D01*
X177156092Y-59621506D02*
X177422759Y-60421506D01*
X177422759Y-60421506D02*
X177689425Y-59621506D01*
X90053884Y-94222419D02*
X90053884Y-93222419D01*
X90053884Y-93222419D02*
X90291979Y-93222419D01*
X90291979Y-93222419D02*
X90434836Y-93270038D01*
X90434836Y-93270038D02*
X90530074Y-93365276D01*
X90530074Y-93365276D02*
X90577693Y-93460514D01*
X90577693Y-93460514D02*
X90625312Y-93650990D01*
X90625312Y-93650990D02*
X90625312Y-93793847D01*
X90625312Y-93793847D02*
X90577693Y-93984323D01*
X90577693Y-93984323D02*
X90530074Y-94079561D01*
X90530074Y-94079561D02*
X90434836Y-94174800D01*
X90434836Y-94174800D02*
X90291979Y-94222419D01*
X90291979Y-94222419D02*
X90053884Y-94222419D01*
X91053884Y-94222419D02*
X91053884Y-93222419D01*
X92053883Y-93270038D02*
X91958645Y-93222419D01*
X91958645Y-93222419D02*
X91815788Y-93222419D01*
X91815788Y-93222419D02*
X91672931Y-93270038D01*
X91672931Y-93270038D02*
X91577693Y-93365276D01*
X91577693Y-93365276D02*
X91530074Y-93460514D01*
X91530074Y-93460514D02*
X91482455Y-93650990D01*
X91482455Y-93650990D02*
X91482455Y-93793847D01*
X91482455Y-93793847D02*
X91530074Y-93984323D01*
X91530074Y-93984323D02*
X91577693Y-94079561D01*
X91577693Y-94079561D02*
X91672931Y-94174800D01*
X91672931Y-94174800D02*
X91815788Y-94222419D01*
X91815788Y-94222419D02*
X91911026Y-94222419D01*
X91911026Y-94222419D02*
X92053883Y-94174800D01*
X92053883Y-94174800D02*
X92101502Y-94127180D01*
X92101502Y-94127180D02*
X92101502Y-93793847D01*
X92101502Y-93793847D02*
X91911026Y-93793847D01*
X92530074Y-94222419D02*
X92530074Y-93222419D01*
X92863407Y-93222419D02*
X93434835Y-93222419D01*
X93149121Y-94222419D02*
X93149121Y-93222419D01*
X93720550Y-93936704D02*
X94196740Y-93936704D01*
X93625312Y-94222419D02*
X93958645Y-93222419D01*
X93958645Y-93222419D02*
X94291978Y-94222419D01*
X95101502Y-94222419D02*
X94625312Y-94222419D01*
X94625312Y-94222419D02*
X94625312Y-93222419D01*
X90650312Y-111377180D02*
X90602693Y-111424800D01*
X90602693Y-111424800D02*
X90459836Y-111472419D01*
X90459836Y-111472419D02*
X90364598Y-111472419D01*
X90364598Y-111472419D02*
X90221741Y-111424800D01*
X90221741Y-111424800D02*
X90126503Y-111329561D01*
X90126503Y-111329561D02*
X90078884Y-111234323D01*
X90078884Y-111234323D02*
X90031265Y-111043847D01*
X90031265Y-111043847D02*
X90031265Y-110900990D01*
X90031265Y-110900990D02*
X90078884Y-110710514D01*
X90078884Y-110710514D02*
X90126503Y-110615276D01*
X90126503Y-110615276D02*
X90221741Y-110520038D01*
X90221741Y-110520038D02*
X90364598Y-110472419D01*
X90364598Y-110472419D02*
X90459836Y-110472419D01*
X90459836Y-110472419D02*
X90602693Y-110520038D01*
X90602693Y-110520038D02*
X90650312Y-110567657D01*
X90983646Y-110472419D02*
X91650312Y-111472419D01*
X91650312Y-110472419D02*
X90983646Y-111472419D01*
X203606265Y-81649800D02*
X203749122Y-81697419D01*
X203749122Y-81697419D02*
X203987217Y-81697419D01*
X203987217Y-81697419D02*
X204082455Y-81649800D01*
X204082455Y-81649800D02*
X204130074Y-81602180D01*
X204130074Y-81602180D02*
X204177693Y-81506942D01*
X204177693Y-81506942D02*
X204177693Y-81411704D01*
X204177693Y-81411704D02*
X204130074Y-81316466D01*
X204130074Y-81316466D02*
X204082455Y-81268847D01*
X204082455Y-81268847D02*
X203987217Y-81221228D01*
X203987217Y-81221228D02*
X203796741Y-81173609D01*
X203796741Y-81173609D02*
X203701503Y-81125990D01*
X203701503Y-81125990D02*
X203653884Y-81078371D01*
X203653884Y-81078371D02*
X203606265Y-80983133D01*
X203606265Y-80983133D02*
X203606265Y-80887895D01*
X203606265Y-80887895D02*
X203653884Y-80792657D01*
X203653884Y-80792657D02*
X203701503Y-80745038D01*
X203701503Y-80745038D02*
X203796741Y-80697419D01*
X203796741Y-80697419D02*
X204034836Y-80697419D01*
X204034836Y-80697419D02*
X204177693Y-80745038D01*
X204511027Y-80697419D02*
X205177693Y-81697419D01*
X205177693Y-80697419D02*
X204511027Y-81697419D01*
X90489598Y-103147419D02*
X90489598Y-103861704D01*
X90489598Y-103861704D02*
X90441979Y-104004561D01*
X90441979Y-104004561D02*
X90346741Y-104099800D01*
X90346741Y-104099800D02*
X90203884Y-104147419D01*
X90203884Y-104147419D02*
X90108646Y-104147419D01*
X90918170Y-103242657D02*
X90965789Y-103195038D01*
X90965789Y-103195038D02*
X91061027Y-103147419D01*
X91061027Y-103147419D02*
X91299122Y-103147419D01*
X91299122Y-103147419D02*
X91394360Y-103195038D01*
X91394360Y-103195038D02*
X91441979Y-103242657D01*
X91441979Y-103242657D02*
X91489598Y-103337895D01*
X91489598Y-103337895D02*
X91489598Y-103433133D01*
X91489598Y-103433133D02*
X91441979Y-103575990D01*
X91441979Y-103575990D02*
X90870551Y-104147419D01*
X90870551Y-104147419D02*
X91489598Y-104147419D01*
X95153884Y-122272419D02*
X95153884Y-121272419D01*
X95153884Y-121748609D02*
X95725312Y-121748609D01*
X95725312Y-122272419D02*
X95725312Y-121272419D01*
X96677693Y-122272419D02*
X96201503Y-122272419D01*
X96201503Y-122272419D02*
X96201503Y-121272419D01*
X146275312Y-60547419D02*
X145941979Y-60071228D01*
X145703884Y-60547419D02*
X145703884Y-59547419D01*
X145703884Y-59547419D02*
X146084836Y-59547419D01*
X146084836Y-59547419D02*
X146180074Y-59595038D01*
X146180074Y-59595038D02*
X146227693Y-59642657D01*
X146227693Y-59642657D02*
X146275312Y-59737895D01*
X146275312Y-59737895D02*
X146275312Y-59880752D01*
X146275312Y-59880752D02*
X146227693Y-59975990D01*
X146227693Y-59975990D02*
X146180074Y-60023609D01*
X146180074Y-60023609D02*
X146084836Y-60071228D01*
X146084836Y-60071228D02*
X145703884Y-60071228D01*
X146703884Y-60547419D02*
X146703884Y-59547419D01*
X146703884Y-59547419D02*
X146941979Y-59547419D01*
X146941979Y-59547419D02*
X147084836Y-59595038D01*
X147084836Y-59595038D02*
X147180074Y-59690276D01*
X147180074Y-59690276D02*
X147227693Y-59785514D01*
X147227693Y-59785514D02*
X147275312Y-59975990D01*
X147275312Y-59975990D02*
X147275312Y-60118847D01*
X147275312Y-60118847D02*
X147227693Y-60309323D01*
X147227693Y-60309323D02*
X147180074Y-60404561D01*
X147180074Y-60404561D02*
X147084836Y-60499800D01*
X147084836Y-60499800D02*
X146941979Y-60547419D01*
X146941979Y-60547419D02*
X146703884Y-60547419D01*
X204177693Y-73295038D02*
X204082455Y-73247419D01*
X204082455Y-73247419D02*
X203939598Y-73247419D01*
X203939598Y-73247419D02*
X203796741Y-73295038D01*
X203796741Y-73295038D02*
X203701503Y-73390276D01*
X203701503Y-73390276D02*
X203653884Y-73485514D01*
X203653884Y-73485514D02*
X203606265Y-73675990D01*
X203606265Y-73675990D02*
X203606265Y-73818847D01*
X203606265Y-73818847D02*
X203653884Y-74009323D01*
X203653884Y-74009323D02*
X203701503Y-74104561D01*
X203701503Y-74104561D02*
X203796741Y-74199800D01*
X203796741Y-74199800D02*
X203939598Y-74247419D01*
X203939598Y-74247419D02*
X204034836Y-74247419D01*
X204034836Y-74247419D02*
X204177693Y-74199800D01*
X204177693Y-74199800D02*
X204225312Y-74152180D01*
X204225312Y-74152180D02*
X204225312Y-73818847D01*
X204225312Y-73818847D02*
X204034836Y-73818847D01*
X204653884Y-74247419D02*
X204653884Y-73247419D01*
X204653884Y-73247419D02*
X204891979Y-73247419D01*
X204891979Y-73247419D02*
X205034836Y-73295038D01*
X205034836Y-73295038D02*
X205130074Y-73390276D01*
X205130074Y-73390276D02*
X205177693Y-73485514D01*
X205177693Y-73485514D02*
X205225312Y-73675990D01*
X205225312Y-73675990D02*
X205225312Y-73818847D01*
X205225312Y-73818847D02*
X205177693Y-74009323D01*
X205177693Y-74009323D02*
X205130074Y-74104561D01*
X205130074Y-74104561D02*
X205034836Y-74199800D01*
X205034836Y-74199800D02*
X204891979Y-74247419D01*
X204891979Y-74247419D02*
X204653884Y-74247419D01*
X91353884Y-63397419D02*
X91353884Y-62397419D01*
X91925312Y-63397419D02*
X91496741Y-62825990D01*
X91925312Y-62397419D02*
X91353884Y-62968847D01*
X92353884Y-62873609D02*
X92687217Y-62873609D01*
X92830074Y-63397419D02*
X92353884Y-63397419D01*
X92353884Y-63397419D02*
X92353884Y-62397419D01*
X92353884Y-62397419D02*
X92830074Y-62397419D01*
X93449122Y-62921228D02*
X93449122Y-63397419D01*
X93115789Y-62397419D02*
X93449122Y-62921228D01*
X93449122Y-62921228D02*
X93782455Y-62397419D01*
X143691979Y-136496895D02*
X143958646Y-137296895D01*
X143958646Y-137296895D02*
X144225312Y-136496895D01*
X144491979Y-136992133D02*
X145101503Y-136992133D01*
X196428884Y-60472419D02*
X196428884Y-59472419D01*
X196428884Y-59472419D02*
X196762217Y-60186704D01*
X196762217Y-60186704D02*
X197095550Y-59472419D01*
X197095550Y-59472419D02*
X197095550Y-60472419D01*
X197762217Y-59472419D02*
X197952693Y-59472419D01*
X197952693Y-59472419D02*
X198047931Y-59520038D01*
X198047931Y-59520038D02*
X198143169Y-59615276D01*
X198143169Y-59615276D02*
X198190788Y-59805752D01*
X198190788Y-59805752D02*
X198190788Y-60139085D01*
X198190788Y-60139085D02*
X198143169Y-60329561D01*
X198143169Y-60329561D02*
X198047931Y-60424800D01*
X198047931Y-60424800D02*
X197952693Y-60472419D01*
X197952693Y-60472419D02*
X197762217Y-60472419D01*
X197762217Y-60472419D02*
X197666979Y-60424800D01*
X197666979Y-60424800D02*
X197571741Y-60329561D01*
X197571741Y-60329561D02*
X197524122Y-60139085D01*
X197524122Y-60139085D02*
X197524122Y-59805752D01*
X197524122Y-59805752D02*
X197571741Y-59615276D01*
X197571741Y-59615276D02*
X197666979Y-59520038D01*
X197666979Y-59520038D02*
X197762217Y-59472419D01*
X198619360Y-60472419D02*
X198619360Y-59472419D01*
X198619360Y-59472419D02*
X198857455Y-59472419D01*
X198857455Y-59472419D02*
X199000312Y-59520038D01*
X199000312Y-59520038D02*
X199095550Y-59615276D01*
X199095550Y-59615276D02*
X199143169Y-59710514D01*
X199143169Y-59710514D02*
X199190788Y-59900990D01*
X199190788Y-59900990D02*
X199190788Y-60043847D01*
X199190788Y-60043847D02*
X199143169Y-60234323D01*
X199143169Y-60234323D02*
X199095550Y-60329561D01*
X199095550Y-60329561D02*
X199000312Y-60424800D01*
X199000312Y-60424800D02*
X198857455Y-60472419D01*
X198857455Y-60472419D02*
X198619360Y-60472419D01*
X199619360Y-59948609D02*
X199952693Y-59948609D01*
X200095550Y-60472419D02*
X199619360Y-60472419D01*
X199619360Y-60472419D02*
X199619360Y-59472419D01*
X199619360Y-59472419D02*
X200095550Y-59472419D01*
X204177693Y-85895038D02*
X204082455Y-85847419D01*
X204082455Y-85847419D02*
X203939598Y-85847419D01*
X203939598Y-85847419D02*
X203796741Y-85895038D01*
X203796741Y-85895038D02*
X203701503Y-85990276D01*
X203701503Y-85990276D02*
X203653884Y-86085514D01*
X203653884Y-86085514D02*
X203606265Y-86275990D01*
X203606265Y-86275990D02*
X203606265Y-86418847D01*
X203606265Y-86418847D02*
X203653884Y-86609323D01*
X203653884Y-86609323D02*
X203701503Y-86704561D01*
X203701503Y-86704561D02*
X203796741Y-86799800D01*
X203796741Y-86799800D02*
X203939598Y-86847419D01*
X203939598Y-86847419D02*
X204034836Y-86847419D01*
X204034836Y-86847419D02*
X204177693Y-86799800D01*
X204177693Y-86799800D02*
X204225312Y-86752180D01*
X204225312Y-86752180D02*
X204225312Y-86418847D01*
X204225312Y-86418847D02*
X204034836Y-86418847D01*
X204653884Y-86847419D02*
X204653884Y-85847419D01*
X204653884Y-85847419D02*
X204891979Y-85847419D01*
X204891979Y-85847419D02*
X205034836Y-85895038D01*
X205034836Y-85895038D02*
X205130074Y-85990276D01*
X205130074Y-85990276D02*
X205177693Y-86085514D01*
X205177693Y-86085514D02*
X205225312Y-86275990D01*
X205225312Y-86275990D02*
X205225312Y-86418847D01*
X205225312Y-86418847D02*
X205177693Y-86609323D01*
X205177693Y-86609323D02*
X205130074Y-86704561D01*
X205130074Y-86704561D02*
X205034836Y-86799800D01*
X205034836Y-86799800D02*
X204891979Y-86847419D01*
X204891979Y-86847419D02*
X204653884Y-86847419D01*
X116625312Y-58277180D02*
X116577693Y-58324800D01*
X116577693Y-58324800D02*
X116434836Y-58372419D01*
X116434836Y-58372419D02*
X116339598Y-58372419D01*
X116339598Y-58372419D02*
X116196741Y-58324800D01*
X116196741Y-58324800D02*
X116101503Y-58229561D01*
X116101503Y-58229561D02*
X116053884Y-58134323D01*
X116053884Y-58134323D02*
X116006265Y-57943847D01*
X116006265Y-57943847D02*
X116006265Y-57800990D01*
X116006265Y-57800990D02*
X116053884Y-57610514D01*
X116053884Y-57610514D02*
X116101503Y-57515276D01*
X116101503Y-57515276D02*
X116196741Y-57420038D01*
X116196741Y-57420038D02*
X116339598Y-57372419D01*
X116339598Y-57372419D02*
X116434836Y-57372419D01*
X116434836Y-57372419D02*
X116577693Y-57420038D01*
X116577693Y-57420038D02*
X116625312Y-57467657D01*
X116911027Y-57372419D02*
X117244360Y-58372419D01*
X117244360Y-58372419D02*
X117577693Y-57372419D01*
X136450312Y-136534990D02*
X136374122Y-136496895D01*
X136374122Y-136496895D02*
X136259836Y-136496895D01*
X136259836Y-136496895D02*
X136145550Y-136534990D01*
X136145550Y-136534990D02*
X136069360Y-136611180D01*
X136069360Y-136611180D02*
X136031265Y-136687371D01*
X136031265Y-136687371D02*
X135993169Y-136839752D01*
X135993169Y-136839752D02*
X135993169Y-136954038D01*
X135993169Y-136954038D02*
X136031265Y-137106419D01*
X136031265Y-137106419D02*
X136069360Y-137182609D01*
X136069360Y-137182609D02*
X136145550Y-137258800D01*
X136145550Y-137258800D02*
X136259836Y-137296895D01*
X136259836Y-137296895D02*
X136336027Y-137296895D01*
X136336027Y-137296895D02*
X136450312Y-137258800D01*
X136450312Y-137258800D02*
X136488408Y-137220704D01*
X136488408Y-137220704D02*
X136488408Y-136954038D01*
X136488408Y-136954038D02*
X136336027Y-136954038D01*
X136831265Y-137296895D02*
X136831265Y-136496895D01*
X136831265Y-136496895D02*
X137021741Y-136496895D01*
X137021741Y-136496895D02*
X137136027Y-136534990D01*
X137136027Y-136534990D02*
X137212217Y-136611180D01*
X137212217Y-136611180D02*
X137250312Y-136687371D01*
X137250312Y-136687371D02*
X137288408Y-136839752D01*
X137288408Y-136839752D02*
X137288408Y-136954038D01*
X137288408Y-136954038D02*
X137250312Y-137106419D01*
X137250312Y-137106419D02*
X137212217Y-137182609D01*
X137212217Y-137182609D02*
X137136027Y-137258800D01*
X137136027Y-137258800D02*
X137021741Y-137296895D01*
X137021741Y-137296895D02*
X136831265Y-137296895D01*
X151725312Y-136534990D02*
X151649122Y-136496895D01*
X151649122Y-136496895D02*
X151534836Y-136496895D01*
X151534836Y-136496895D02*
X151420550Y-136534990D01*
X151420550Y-136534990D02*
X151344360Y-136611180D01*
X151344360Y-136611180D02*
X151306265Y-136687371D01*
X151306265Y-136687371D02*
X151268169Y-136839752D01*
X151268169Y-136839752D02*
X151268169Y-136954038D01*
X151268169Y-136954038D02*
X151306265Y-137106419D01*
X151306265Y-137106419D02*
X151344360Y-137182609D01*
X151344360Y-137182609D02*
X151420550Y-137258800D01*
X151420550Y-137258800D02*
X151534836Y-137296895D01*
X151534836Y-137296895D02*
X151611027Y-137296895D01*
X151611027Y-137296895D02*
X151725312Y-137258800D01*
X151725312Y-137258800D02*
X151763408Y-137220704D01*
X151763408Y-137220704D02*
X151763408Y-136954038D01*
X151763408Y-136954038D02*
X151611027Y-136954038D01*
X152106265Y-137296895D02*
X152106265Y-136496895D01*
X152106265Y-136496895D02*
X152296741Y-136496895D01*
X152296741Y-136496895D02*
X152411027Y-136534990D01*
X152411027Y-136534990D02*
X152487217Y-136611180D01*
X152487217Y-136611180D02*
X152525312Y-136687371D01*
X152525312Y-136687371D02*
X152563408Y-136839752D01*
X152563408Y-136839752D02*
X152563408Y-136954038D01*
X152563408Y-136954038D02*
X152525312Y-137106419D01*
X152525312Y-137106419D02*
X152487217Y-137182609D01*
X152487217Y-137182609D02*
X152411027Y-137258800D01*
X152411027Y-137258800D02*
X152296741Y-137296895D01*
X152296741Y-137296895D02*
X152106265Y-137296895D01*
X89250312Y-124447419D02*
X88916979Y-123971228D01*
X88678884Y-124447419D02*
X88678884Y-123447419D01*
X88678884Y-123447419D02*
X89059836Y-123447419D01*
X89059836Y-123447419D02*
X89155074Y-123495038D01*
X89155074Y-123495038D02*
X89202693Y-123542657D01*
X89202693Y-123542657D02*
X89250312Y-123637895D01*
X89250312Y-123637895D02*
X89250312Y-123780752D01*
X89250312Y-123780752D02*
X89202693Y-123875990D01*
X89202693Y-123875990D02*
X89155074Y-123923609D01*
X89155074Y-123923609D02*
X89059836Y-123971228D01*
X89059836Y-123971228D02*
X88678884Y-123971228D01*
X89678884Y-124066466D02*
X90440789Y-124066466D01*
X91852693Y-64970038D02*
X91757455Y-64922419D01*
X91757455Y-64922419D02*
X91614598Y-64922419D01*
X91614598Y-64922419D02*
X91471741Y-64970038D01*
X91471741Y-64970038D02*
X91376503Y-65065276D01*
X91376503Y-65065276D02*
X91328884Y-65160514D01*
X91328884Y-65160514D02*
X91281265Y-65350990D01*
X91281265Y-65350990D02*
X91281265Y-65493847D01*
X91281265Y-65493847D02*
X91328884Y-65684323D01*
X91328884Y-65684323D02*
X91376503Y-65779561D01*
X91376503Y-65779561D02*
X91471741Y-65874800D01*
X91471741Y-65874800D02*
X91614598Y-65922419D01*
X91614598Y-65922419D02*
X91709836Y-65922419D01*
X91709836Y-65922419D02*
X91852693Y-65874800D01*
X91852693Y-65874800D02*
X91900312Y-65827180D01*
X91900312Y-65827180D02*
X91900312Y-65493847D01*
X91900312Y-65493847D02*
X91709836Y-65493847D01*
X92328884Y-65922419D02*
X92328884Y-64922419D01*
X92328884Y-64922419D02*
X92566979Y-64922419D01*
X92566979Y-64922419D02*
X92709836Y-64970038D01*
X92709836Y-64970038D02*
X92805074Y-65065276D01*
X92805074Y-65065276D02*
X92852693Y-65160514D01*
X92852693Y-65160514D02*
X92900312Y-65350990D01*
X92900312Y-65350990D02*
X92900312Y-65493847D01*
X92900312Y-65493847D02*
X92852693Y-65684323D01*
X92852693Y-65684323D02*
X92805074Y-65779561D01*
X92805074Y-65779561D02*
X92709836Y-65874800D01*
X92709836Y-65874800D02*
X92566979Y-65922419D01*
X92566979Y-65922419D02*
X92328884Y-65922419D01*
X92383646Y-78722419D02*
X93050312Y-78722419D01*
X93050312Y-78722419D02*
X92383646Y-79722419D01*
X92383646Y-79722419D02*
X93050312Y-79722419D01*
X149097931Y-136877847D02*
X149212217Y-136915942D01*
X149212217Y-136915942D02*
X149250312Y-136954038D01*
X149250312Y-136954038D02*
X149288408Y-137030228D01*
X149288408Y-137030228D02*
X149288408Y-137144514D01*
X149288408Y-137144514D02*
X149250312Y-137220704D01*
X149250312Y-137220704D02*
X149212217Y-137258800D01*
X149212217Y-137258800D02*
X149136027Y-137296895D01*
X149136027Y-137296895D02*
X148831265Y-137296895D01*
X148831265Y-137296895D02*
X148831265Y-136496895D01*
X148831265Y-136496895D02*
X149097931Y-136496895D01*
X149097931Y-136496895D02*
X149174122Y-136534990D01*
X149174122Y-136534990D02*
X149212217Y-136573085D01*
X149212217Y-136573085D02*
X149250312Y-136649276D01*
X149250312Y-136649276D02*
X149250312Y-136725466D01*
X149250312Y-136725466D02*
X149212217Y-136801657D01*
X149212217Y-136801657D02*
X149174122Y-136839752D01*
X149174122Y-136839752D02*
X149097931Y-136877847D01*
X149097931Y-136877847D02*
X148831265Y-136877847D01*
X149516979Y-136496895D02*
X149974122Y-136496895D01*
X149745550Y-137296895D02*
X149745550Y-136496895D01*
X89250312Y-122072419D02*
X88916979Y-121596228D01*
X88678884Y-122072419D02*
X88678884Y-121072419D01*
X88678884Y-121072419D02*
X89059836Y-121072419D01*
X89059836Y-121072419D02*
X89155074Y-121120038D01*
X89155074Y-121120038D02*
X89202693Y-121167657D01*
X89202693Y-121167657D02*
X89250312Y-121262895D01*
X89250312Y-121262895D02*
X89250312Y-121405752D01*
X89250312Y-121405752D02*
X89202693Y-121500990D01*
X89202693Y-121500990D02*
X89155074Y-121548609D01*
X89155074Y-121548609D02*
X89059836Y-121596228D01*
X89059836Y-121596228D02*
X88678884Y-121596228D01*
X89678884Y-121691466D02*
X90440789Y-121691466D01*
X90059836Y-122072419D02*
X90059836Y-121310514D01*
X92955074Y-82247419D02*
X92478884Y-82247419D01*
X92478884Y-82247419D02*
X92478884Y-81247419D01*
X93812217Y-81295038D02*
X93716979Y-81247419D01*
X93716979Y-81247419D02*
X93574122Y-81247419D01*
X93574122Y-81247419D02*
X93431265Y-81295038D01*
X93431265Y-81295038D02*
X93336027Y-81390276D01*
X93336027Y-81390276D02*
X93288408Y-81485514D01*
X93288408Y-81485514D02*
X93240789Y-81675990D01*
X93240789Y-81675990D02*
X93240789Y-81818847D01*
X93240789Y-81818847D02*
X93288408Y-82009323D01*
X93288408Y-82009323D02*
X93336027Y-82104561D01*
X93336027Y-82104561D02*
X93431265Y-82199800D01*
X93431265Y-82199800D02*
X93574122Y-82247419D01*
X93574122Y-82247419D02*
X93669360Y-82247419D01*
X93669360Y-82247419D02*
X93812217Y-82199800D01*
X93812217Y-82199800D02*
X93859836Y-82152180D01*
X93859836Y-82152180D02*
X93859836Y-81818847D01*
X93859836Y-81818847D02*
X93669360Y-81818847D01*
X158877693Y-59595038D02*
X158782455Y-59547419D01*
X158782455Y-59547419D02*
X158639598Y-59547419D01*
X158639598Y-59547419D02*
X158496741Y-59595038D01*
X158496741Y-59595038D02*
X158401503Y-59690276D01*
X158401503Y-59690276D02*
X158353884Y-59785514D01*
X158353884Y-59785514D02*
X158306265Y-59975990D01*
X158306265Y-59975990D02*
X158306265Y-60118847D01*
X158306265Y-60118847D02*
X158353884Y-60309323D01*
X158353884Y-60309323D02*
X158401503Y-60404561D01*
X158401503Y-60404561D02*
X158496741Y-60499800D01*
X158496741Y-60499800D02*
X158639598Y-60547419D01*
X158639598Y-60547419D02*
X158734836Y-60547419D01*
X158734836Y-60547419D02*
X158877693Y-60499800D01*
X158877693Y-60499800D02*
X158925312Y-60452180D01*
X158925312Y-60452180D02*
X158925312Y-60118847D01*
X158925312Y-60118847D02*
X158734836Y-60118847D01*
X159353884Y-60547419D02*
X159353884Y-59547419D01*
X159353884Y-59547419D02*
X159591979Y-59547419D01*
X159591979Y-59547419D02*
X159734836Y-59595038D01*
X159734836Y-59595038D02*
X159830074Y-59690276D01*
X159830074Y-59690276D02*
X159877693Y-59785514D01*
X159877693Y-59785514D02*
X159925312Y-59975990D01*
X159925312Y-59975990D02*
X159925312Y-60118847D01*
X159925312Y-60118847D02*
X159877693Y-60309323D01*
X159877693Y-60309323D02*
X159830074Y-60404561D01*
X159830074Y-60404561D02*
X159734836Y-60499800D01*
X159734836Y-60499800D02*
X159591979Y-60547419D01*
X159591979Y-60547419D02*
X159353884Y-60547419D01*
X203606265Y-84299800D02*
X203749122Y-84347419D01*
X203749122Y-84347419D02*
X203987217Y-84347419D01*
X203987217Y-84347419D02*
X204082455Y-84299800D01*
X204082455Y-84299800D02*
X204130074Y-84252180D01*
X204130074Y-84252180D02*
X204177693Y-84156942D01*
X204177693Y-84156942D02*
X204177693Y-84061704D01*
X204177693Y-84061704D02*
X204130074Y-83966466D01*
X204130074Y-83966466D02*
X204082455Y-83918847D01*
X204082455Y-83918847D02*
X203987217Y-83871228D01*
X203987217Y-83871228D02*
X203796741Y-83823609D01*
X203796741Y-83823609D02*
X203701503Y-83775990D01*
X203701503Y-83775990D02*
X203653884Y-83728371D01*
X203653884Y-83728371D02*
X203606265Y-83633133D01*
X203606265Y-83633133D02*
X203606265Y-83537895D01*
X203606265Y-83537895D02*
X203653884Y-83442657D01*
X203653884Y-83442657D02*
X203701503Y-83395038D01*
X203701503Y-83395038D02*
X203796741Y-83347419D01*
X203796741Y-83347419D02*
X204034836Y-83347419D01*
X204034836Y-83347419D02*
X204177693Y-83395038D01*
X204796741Y-83871228D02*
X204796741Y-84347419D01*
X204463408Y-83347419D02*
X204796741Y-83871228D01*
X204796741Y-83871228D02*
X205130074Y-83347419D01*
X141575312Y-136534990D02*
X141499122Y-136496895D01*
X141499122Y-136496895D02*
X141384836Y-136496895D01*
X141384836Y-136496895D02*
X141270550Y-136534990D01*
X141270550Y-136534990D02*
X141194360Y-136611180D01*
X141194360Y-136611180D02*
X141156265Y-136687371D01*
X141156265Y-136687371D02*
X141118169Y-136839752D01*
X141118169Y-136839752D02*
X141118169Y-136954038D01*
X141118169Y-136954038D02*
X141156265Y-137106419D01*
X141156265Y-137106419D02*
X141194360Y-137182609D01*
X141194360Y-137182609D02*
X141270550Y-137258800D01*
X141270550Y-137258800D02*
X141384836Y-137296895D01*
X141384836Y-137296895D02*
X141461027Y-137296895D01*
X141461027Y-137296895D02*
X141575312Y-137258800D01*
X141575312Y-137258800D02*
X141613408Y-137220704D01*
X141613408Y-137220704D02*
X141613408Y-136954038D01*
X141613408Y-136954038D02*
X141461027Y-136954038D01*
X141956265Y-137296895D02*
X141956265Y-136496895D01*
X141956265Y-136496895D02*
X142146741Y-136496895D01*
X142146741Y-136496895D02*
X142261027Y-136534990D01*
X142261027Y-136534990D02*
X142337217Y-136611180D01*
X142337217Y-136611180D02*
X142375312Y-136687371D01*
X142375312Y-136687371D02*
X142413408Y-136839752D01*
X142413408Y-136839752D02*
X142413408Y-136954038D01*
X142413408Y-136954038D02*
X142375312Y-137106419D01*
X142375312Y-137106419D02*
X142337217Y-137182609D01*
X142337217Y-137182609D02*
X142261027Y-137258800D01*
X142261027Y-137258800D02*
X142146741Y-137296895D01*
X142146741Y-137296895D02*
X141956265Y-137296895D01*
X197633646Y-57022419D02*
X198252693Y-57022419D01*
X198252693Y-57022419D02*
X197919360Y-57403371D01*
X197919360Y-57403371D02*
X198062217Y-57403371D01*
X198062217Y-57403371D02*
X198157455Y-57450990D01*
X198157455Y-57450990D02*
X198205074Y-57498609D01*
X198205074Y-57498609D02*
X198252693Y-57593847D01*
X198252693Y-57593847D02*
X198252693Y-57831942D01*
X198252693Y-57831942D02*
X198205074Y-57927180D01*
X198205074Y-57927180D02*
X198157455Y-57974800D01*
X198157455Y-57974800D02*
X198062217Y-58022419D01*
X198062217Y-58022419D02*
X197776503Y-58022419D01*
X197776503Y-58022419D02*
X197681265Y-57974800D01*
X197681265Y-57974800D02*
X197633646Y-57927180D01*
X198538408Y-57022419D02*
X198871741Y-58022419D01*
X198871741Y-58022419D02*
X199205074Y-57022419D01*
X199443170Y-57022419D02*
X200062217Y-57022419D01*
X200062217Y-57022419D02*
X199728884Y-57403371D01*
X199728884Y-57403371D02*
X199871741Y-57403371D01*
X199871741Y-57403371D02*
X199966979Y-57450990D01*
X199966979Y-57450990D02*
X200014598Y-57498609D01*
X200014598Y-57498609D02*
X200062217Y-57593847D01*
X200062217Y-57593847D02*
X200062217Y-57831942D01*
X200062217Y-57831942D02*
X200014598Y-57927180D01*
X200014598Y-57927180D02*
X199966979Y-57974800D01*
X199966979Y-57974800D02*
X199871741Y-58022419D01*
X199871741Y-58022419D02*
X199586027Y-58022419D01*
X199586027Y-58022419D02*
X199490789Y-57974800D01*
X199490789Y-57974800D02*
X199443170Y-57927180D01*
X204656265Y-76574800D02*
X204799122Y-76622419D01*
X204799122Y-76622419D02*
X205037217Y-76622419D01*
X205037217Y-76622419D02*
X205132455Y-76574800D01*
X205132455Y-76574800D02*
X205180074Y-76527180D01*
X205180074Y-76527180D02*
X205227693Y-76431942D01*
X205227693Y-76431942D02*
X205227693Y-76336704D01*
X205227693Y-76336704D02*
X205180074Y-76241466D01*
X205180074Y-76241466D02*
X205132455Y-76193847D01*
X205132455Y-76193847D02*
X205037217Y-76146228D01*
X205037217Y-76146228D02*
X204846741Y-76098609D01*
X204846741Y-76098609D02*
X204751503Y-76050990D01*
X204751503Y-76050990D02*
X204703884Y-76003371D01*
X204703884Y-76003371D02*
X204656265Y-75908133D01*
X204656265Y-75908133D02*
X204656265Y-75812895D01*
X204656265Y-75812895D02*
X204703884Y-75717657D01*
X204703884Y-75717657D02*
X204751503Y-75670038D01*
X204751503Y-75670038D02*
X204846741Y-75622419D01*
X204846741Y-75622419D02*
X205084836Y-75622419D01*
X205084836Y-75622419D02*
X205227693Y-75670038D01*
X199855074Y-135472419D02*
X199378884Y-135472419D01*
X199378884Y-135472419D02*
X199378884Y-134472419D01*
X200188408Y-135091466D02*
X200950313Y-135091466D01*
X93127693Y-121320038D02*
X93032455Y-121272419D01*
X93032455Y-121272419D02*
X92889598Y-121272419D01*
X92889598Y-121272419D02*
X92746741Y-121320038D01*
X92746741Y-121320038D02*
X92651503Y-121415276D01*
X92651503Y-121415276D02*
X92603884Y-121510514D01*
X92603884Y-121510514D02*
X92556265Y-121700990D01*
X92556265Y-121700990D02*
X92556265Y-121843847D01*
X92556265Y-121843847D02*
X92603884Y-122034323D01*
X92603884Y-122034323D02*
X92651503Y-122129561D01*
X92651503Y-122129561D02*
X92746741Y-122224800D01*
X92746741Y-122224800D02*
X92889598Y-122272419D01*
X92889598Y-122272419D02*
X92984836Y-122272419D01*
X92984836Y-122272419D02*
X93127693Y-122224800D01*
X93127693Y-122224800D02*
X93175312Y-122177180D01*
X93175312Y-122177180D02*
X93175312Y-121843847D01*
X93175312Y-121843847D02*
X92984836Y-121843847D01*
X93603884Y-122272419D02*
X93603884Y-121272419D01*
X93603884Y-121272419D02*
X93841979Y-121272419D01*
X93841979Y-121272419D02*
X93984836Y-121320038D01*
X93984836Y-121320038D02*
X94080074Y-121415276D01*
X94080074Y-121415276D02*
X94127693Y-121510514D01*
X94127693Y-121510514D02*
X94175312Y-121700990D01*
X94175312Y-121700990D02*
X94175312Y-121843847D01*
X94175312Y-121843847D02*
X94127693Y-122034323D01*
X94127693Y-122034323D02*
X94080074Y-122129561D01*
X94080074Y-122129561D02*
X93984836Y-122224800D01*
X93984836Y-122224800D02*
X93841979Y-122272419D01*
X93841979Y-122272419D02*
X93603884Y-122272419D01*
X171951985Y-59621503D02*
X172218652Y-60421503D01*
X172218652Y-60421503D02*
X172485318Y-59621503D01*
X172713889Y-60383408D02*
X172828175Y-60421503D01*
X172828175Y-60421503D02*
X173018651Y-60421503D01*
X173018651Y-60421503D02*
X173094842Y-60383408D01*
X173094842Y-60383408D02*
X173132937Y-60345312D01*
X173132937Y-60345312D02*
X173171032Y-60269122D01*
X173171032Y-60269122D02*
X173171032Y-60192931D01*
X173171032Y-60192931D02*
X173132937Y-60116741D01*
X173132937Y-60116741D02*
X173094842Y-60078646D01*
X173094842Y-60078646D02*
X173018651Y-60040550D01*
X173018651Y-60040550D02*
X172866270Y-60002455D01*
X172866270Y-60002455D02*
X172790080Y-59964360D01*
X172790080Y-59964360D02*
X172751985Y-59926265D01*
X172751985Y-59926265D02*
X172713889Y-59850074D01*
X172713889Y-59850074D02*
X172713889Y-59773884D01*
X172713889Y-59773884D02*
X172751985Y-59697693D01*
X172751985Y-59697693D02*
X172790080Y-59659598D01*
X172790080Y-59659598D02*
X172866270Y-59621503D01*
X172866270Y-59621503D02*
X173056747Y-59621503D01*
X173056747Y-59621503D02*
X173171032Y-59659598D01*
X173666271Y-60040550D02*
X173666271Y-60421503D01*
X173399604Y-59621503D02*
X173666271Y-60040550D01*
X173666271Y-60040550D02*
X173932937Y-59621503D01*
X174161508Y-60383408D02*
X174275794Y-60421503D01*
X174275794Y-60421503D02*
X174466270Y-60421503D01*
X174466270Y-60421503D02*
X174542461Y-60383408D01*
X174542461Y-60383408D02*
X174580556Y-60345312D01*
X174580556Y-60345312D02*
X174618651Y-60269122D01*
X174618651Y-60269122D02*
X174618651Y-60192931D01*
X174618651Y-60192931D02*
X174580556Y-60116741D01*
X174580556Y-60116741D02*
X174542461Y-60078646D01*
X174542461Y-60078646D02*
X174466270Y-60040550D01*
X174466270Y-60040550D02*
X174313889Y-60002455D01*
X174313889Y-60002455D02*
X174237699Y-59964360D01*
X174237699Y-59964360D02*
X174199604Y-59926265D01*
X174199604Y-59926265D02*
X174161508Y-59850074D01*
X174161508Y-59850074D02*
X174161508Y-59773884D01*
X174161508Y-59773884D02*
X174199604Y-59697693D01*
X174199604Y-59697693D02*
X174237699Y-59659598D01*
X174237699Y-59659598D02*
X174313889Y-59621503D01*
X174313889Y-59621503D02*
X174504366Y-59621503D01*
X174504366Y-59621503D02*
X174618651Y-59659598D01*
X136102693Y-59595038D02*
X136007455Y-59547419D01*
X136007455Y-59547419D02*
X135864598Y-59547419D01*
X135864598Y-59547419D02*
X135721741Y-59595038D01*
X135721741Y-59595038D02*
X135626503Y-59690276D01*
X135626503Y-59690276D02*
X135578884Y-59785514D01*
X135578884Y-59785514D02*
X135531265Y-59975990D01*
X135531265Y-59975990D02*
X135531265Y-60118847D01*
X135531265Y-60118847D02*
X135578884Y-60309323D01*
X135578884Y-60309323D02*
X135626503Y-60404561D01*
X135626503Y-60404561D02*
X135721741Y-60499800D01*
X135721741Y-60499800D02*
X135864598Y-60547419D01*
X135864598Y-60547419D02*
X135959836Y-60547419D01*
X135959836Y-60547419D02*
X136102693Y-60499800D01*
X136102693Y-60499800D02*
X136150312Y-60452180D01*
X136150312Y-60452180D02*
X136150312Y-60118847D01*
X136150312Y-60118847D02*
X135959836Y-60118847D01*
X136578884Y-60547419D02*
X136578884Y-59547419D01*
X136578884Y-59547419D02*
X136816979Y-59547419D01*
X136816979Y-59547419D02*
X136959836Y-59595038D01*
X136959836Y-59595038D02*
X137055074Y-59690276D01*
X137055074Y-59690276D02*
X137102693Y-59785514D01*
X137102693Y-59785514D02*
X137150312Y-59975990D01*
X137150312Y-59975990D02*
X137150312Y-60118847D01*
X137150312Y-60118847D02*
X137102693Y-60309323D01*
X137102693Y-60309323D02*
X137055074Y-60404561D01*
X137055074Y-60404561D02*
X136959836Y-60499800D01*
X136959836Y-60499800D02*
X136816979Y-60547419D01*
X136816979Y-60547419D02*
X136578884Y-60547419D01*
X85602693Y-83845038D02*
X85507455Y-83797419D01*
X85507455Y-83797419D02*
X85364598Y-83797419D01*
X85364598Y-83797419D02*
X85221741Y-83845038D01*
X85221741Y-83845038D02*
X85126503Y-83940276D01*
X85126503Y-83940276D02*
X85078884Y-84035514D01*
X85078884Y-84035514D02*
X85031265Y-84225990D01*
X85031265Y-84225990D02*
X85031265Y-84368847D01*
X85031265Y-84368847D02*
X85078884Y-84559323D01*
X85078884Y-84559323D02*
X85126503Y-84654561D01*
X85126503Y-84654561D02*
X85221741Y-84749800D01*
X85221741Y-84749800D02*
X85364598Y-84797419D01*
X85364598Y-84797419D02*
X85459836Y-84797419D01*
X85459836Y-84797419D02*
X85602693Y-84749800D01*
X85602693Y-84749800D02*
X85650312Y-84702180D01*
X85650312Y-84702180D02*
X85650312Y-84368847D01*
X85650312Y-84368847D02*
X85459836Y-84368847D01*
X86078884Y-84797419D02*
X86078884Y-83797419D01*
X86078884Y-83797419D02*
X86316979Y-83797419D01*
X86316979Y-83797419D02*
X86459836Y-83845038D01*
X86459836Y-83845038D02*
X86555074Y-83940276D01*
X86555074Y-83940276D02*
X86602693Y-84035514D01*
X86602693Y-84035514D02*
X86650312Y-84225990D01*
X86650312Y-84225990D02*
X86650312Y-84368847D01*
X86650312Y-84368847D02*
X86602693Y-84559323D01*
X86602693Y-84559323D02*
X86555074Y-84654561D01*
X86555074Y-84654561D02*
X86459836Y-84749800D01*
X86459836Y-84749800D02*
X86316979Y-84797419D01*
X86316979Y-84797419D02*
X86078884Y-84797419D01*
X179835877Y-59621501D02*
X180331115Y-59621501D01*
X180331115Y-59621501D02*
X180064449Y-59926263D01*
X180064449Y-59926263D02*
X180178734Y-59926263D01*
X180178734Y-59926263D02*
X180254925Y-59964358D01*
X180254925Y-59964358D02*
X180293020Y-60002453D01*
X180293020Y-60002453D02*
X180331115Y-60078644D01*
X180331115Y-60078644D02*
X180331115Y-60269120D01*
X180331115Y-60269120D02*
X180293020Y-60345310D01*
X180293020Y-60345310D02*
X180254925Y-60383406D01*
X180254925Y-60383406D02*
X180178734Y-60421501D01*
X180178734Y-60421501D02*
X179950163Y-60421501D01*
X179950163Y-60421501D02*
X179873972Y-60383406D01*
X179873972Y-60383406D02*
X179835877Y-60345310D01*
X180559687Y-59621501D02*
X180826354Y-60421501D01*
X180826354Y-60421501D02*
X181093020Y-59621501D01*
X181283496Y-59621501D02*
X181778734Y-59621501D01*
X181778734Y-59621501D02*
X181512068Y-59926263D01*
X181512068Y-59926263D02*
X181626353Y-59926263D01*
X181626353Y-59926263D02*
X181702544Y-59964358D01*
X181702544Y-59964358D02*
X181740639Y-60002453D01*
X181740639Y-60002453D02*
X181778734Y-60078644D01*
X181778734Y-60078644D02*
X181778734Y-60269120D01*
X181778734Y-60269120D02*
X181740639Y-60345310D01*
X181740639Y-60345310D02*
X181702544Y-60383406D01*
X181702544Y-60383406D02*
X181626353Y-60421501D01*
X181626353Y-60421501D02*
X181397782Y-60421501D01*
X181397782Y-60421501D02*
X181321591Y-60383406D01*
X181321591Y-60383406D02*
X181283496Y-60345310D01*
X151277693Y-59595038D02*
X151182455Y-59547419D01*
X151182455Y-59547419D02*
X151039598Y-59547419D01*
X151039598Y-59547419D02*
X150896741Y-59595038D01*
X150896741Y-59595038D02*
X150801503Y-59690276D01*
X150801503Y-59690276D02*
X150753884Y-59785514D01*
X150753884Y-59785514D02*
X150706265Y-59975990D01*
X150706265Y-59975990D02*
X150706265Y-60118847D01*
X150706265Y-60118847D02*
X150753884Y-60309323D01*
X150753884Y-60309323D02*
X150801503Y-60404561D01*
X150801503Y-60404561D02*
X150896741Y-60499800D01*
X150896741Y-60499800D02*
X151039598Y-60547419D01*
X151039598Y-60547419D02*
X151134836Y-60547419D01*
X151134836Y-60547419D02*
X151277693Y-60499800D01*
X151277693Y-60499800D02*
X151325312Y-60452180D01*
X151325312Y-60452180D02*
X151325312Y-60118847D01*
X151325312Y-60118847D02*
X151134836Y-60118847D01*
X152325312Y-60547419D02*
X151991979Y-60071228D01*
X151753884Y-60547419D02*
X151753884Y-59547419D01*
X151753884Y-59547419D02*
X152134836Y-59547419D01*
X152134836Y-59547419D02*
X152230074Y-59595038D01*
X152230074Y-59595038D02*
X152277693Y-59642657D01*
X152277693Y-59642657D02*
X152325312Y-59737895D01*
X152325312Y-59737895D02*
X152325312Y-59880752D01*
X152325312Y-59880752D02*
X152277693Y-59975990D01*
X152277693Y-59975990D02*
X152230074Y-60023609D01*
X152230074Y-60023609D02*
X152134836Y-60071228D01*
X152134836Y-60071228D02*
X151753884Y-60071228D01*
X90131265Y-99086704D02*
X90607455Y-99086704D01*
X90036027Y-99372419D02*
X90369360Y-98372419D01*
X90369360Y-98372419D02*
X90702693Y-99372419D01*
X91036027Y-99372419D02*
X91036027Y-98372419D01*
X91036027Y-98372419D02*
X91607455Y-99372419D01*
X91607455Y-99372419D02*
X91607455Y-98372419D01*
X92036027Y-99086704D02*
X92512217Y-99086704D01*
X91940789Y-99372419D02*
X92274122Y-98372419D01*
X92274122Y-98372419D02*
X92607455Y-99372419D01*
X93416979Y-99372419D02*
X92940789Y-99372419D01*
X92940789Y-99372419D02*
X92940789Y-98372419D01*
X93940789Y-98372419D02*
X94131265Y-98372419D01*
X94131265Y-98372419D02*
X94226503Y-98420038D01*
X94226503Y-98420038D02*
X94321741Y-98515276D01*
X94321741Y-98515276D02*
X94369360Y-98705752D01*
X94369360Y-98705752D02*
X94369360Y-99039085D01*
X94369360Y-99039085D02*
X94321741Y-99229561D01*
X94321741Y-99229561D02*
X94226503Y-99324800D01*
X94226503Y-99324800D02*
X94131265Y-99372419D01*
X94131265Y-99372419D02*
X93940789Y-99372419D01*
X93940789Y-99372419D02*
X93845551Y-99324800D01*
X93845551Y-99324800D02*
X93750313Y-99229561D01*
X93750313Y-99229561D02*
X93702694Y-99039085D01*
X93702694Y-99039085D02*
X93702694Y-98705752D01*
X93702694Y-98705752D02*
X93750313Y-98515276D01*
X93750313Y-98515276D02*
X93845551Y-98420038D01*
X93845551Y-98420038D02*
X93940789Y-98372419D01*
X95321741Y-98420038D02*
X95226503Y-98372419D01*
X95226503Y-98372419D02*
X95083646Y-98372419D01*
X95083646Y-98372419D02*
X94940789Y-98420038D01*
X94940789Y-98420038D02*
X94845551Y-98515276D01*
X94845551Y-98515276D02*
X94797932Y-98610514D01*
X94797932Y-98610514D02*
X94750313Y-98800990D01*
X94750313Y-98800990D02*
X94750313Y-98943847D01*
X94750313Y-98943847D02*
X94797932Y-99134323D01*
X94797932Y-99134323D02*
X94845551Y-99229561D01*
X94845551Y-99229561D02*
X94940789Y-99324800D01*
X94940789Y-99324800D02*
X95083646Y-99372419D01*
X95083646Y-99372419D02*
X95178884Y-99372419D01*
X95178884Y-99372419D02*
X95321741Y-99324800D01*
X95321741Y-99324800D02*
X95369360Y-99277180D01*
X95369360Y-99277180D02*
X95369360Y-98943847D01*
X95369360Y-98943847D02*
X95178884Y-98943847D01*
X92336027Y-83822419D02*
X92669360Y-84822419D01*
X92669360Y-84822419D02*
X93002693Y-83822419D01*
X93288408Y-84774800D02*
X93431265Y-84822419D01*
X93431265Y-84822419D02*
X93669360Y-84822419D01*
X93669360Y-84822419D02*
X93764598Y-84774800D01*
X93764598Y-84774800D02*
X93812217Y-84727180D01*
X93812217Y-84727180D02*
X93859836Y-84631942D01*
X93859836Y-84631942D02*
X93859836Y-84536704D01*
X93859836Y-84536704D02*
X93812217Y-84441466D01*
X93812217Y-84441466D02*
X93764598Y-84393847D01*
X93764598Y-84393847D02*
X93669360Y-84346228D01*
X93669360Y-84346228D02*
X93478884Y-84298609D01*
X93478884Y-84298609D02*
X93383646Y-84250990D01*
X93383646Y-84250990D02*
X93336027Y-84203371D01*
X93336027Y-84203371D02*
X93288408Y-84108133D01*
X93288408Y-84108133D02*
X93288408Y-84012895D01*
X93288408Y-84012895D02*
X93336027Y-83917657D01*
X93336027Y-83917657D02*
X93383646Y-83870038D01*
X93383646Y-83870038D02*
X93478884Y-83822419D01*
X93478884Y-83822419D02*
X93716979Y-83822419D01*
X93716979Y-83822419D02*
X93859836Y-83870038D01*
X94478884Y-84346228D02*
X94478884Y-84822419D01*
X94145551Y-83822419D02*
X94478884Y-84346228D01*
X94478884Y-84346228D02*
X94812217Y-83822419D01*
X95097932Y-84774800D02*
X95240789Y-84822419D01*
X95240789Y-84822419D02*
X95478884Y-84822419D01*
X95478884Y-84822419D02*
X95574122Y-84774800D01*
X95574122Y-84774800D02*
X95621741Y-84727180D01*
X95621741Y-84727180D02*
X95669360Y-84631942D01*
X95669360Y-84631942D02*
X95669360Y-84536704D01*
X95669360Y-84536704D02*
X95621741Y-84441466D01*
X95621741Y-84441466D02*
X95574122Y-84393847D01*
X95574122Y-84393847D02*
X95478884Y-84346228D01*
X95478884Y-84346228D02*
X95288408Y-84298609D01*
X95288408Y-84298609D02*
X95193170Y-84250990D01*
X95193170Y-84250990D02*
X95145551Y-84203371D01*
X95145551Y-84203371D02*
X95097932Y-84108133D01*
X95097932Y-84108133D02*
X95097932Y-84012895D01*
X95097932Y-84012895D02*
X95145551Y-83917657D01*
X95145551Y-83917657D02*
X95193170Y-83870038D01*
X95193170Y-83870038D02*
X95288408Y-83822419D01*
X95288408Y-83822419D02*
X95526503Y-83822419D01*
X95526503Y-83822419D02*
X95669360Y-83870038D01*
X201753884Y-111547419D02*
X201753884Y-110547419D01*
X201753884Y-110547419D02*
X201991979Y-110547419D01*
X201991979Y-110547419D02*
X202134836Y-110595038D01*
X202134836Y-110595038D02*
X202230074Y-110690276D01*
X202230074Y-110690276D02*
X202277693Y-110785514D01*
X202277693Y-110785514D02*
X202325312Y-110975990D01*
X202325312Y-110975990D02*
X202325312Y-111118847D01*
X202325312Y-111118847D02*
X202277693Y-111309323D01*
X202277693Y-111309323D02*
X202230074Y-111404561D01*
X202230074Y-111404561D02*
X202134836Y-111499800D01*
X202134836Y-111499800D02*
X201991979Y-111547419D01*
X201991979Y-111547419D02*
X201753884Y-111547419D01*
X202753884Y-111547419D02*
X202753884Y-110547419D01*
X202753884Y-110547419D02*
X202991979Y-110547419D01*
X202991979Y-110547419D02*
X203134836Y-110595038D01*
X203134836Y-110595038D02*
X203230074Y-110690276D01*
X203230074Y-110690276D02*
X203277693Y-110785514D01*
X203277693Y-110785514D02*
X203325312Y-110975990D01*
X203325312Y-110975990D02*
X203325312Y-111118847D01*
X203325312Y-111118847D02*
X203277693Y-111309323D01*
X203277693Y-111309323D02*
X203230074Y-111404561D01*
X203230074Y-111404561D02*
X203134836Y-111499800D01*
X203134836Y-111499800D02*
X202991979Y-111547419D01*
X202991979Y-111547419D02*
X202753884Y-111547419D01*
X201753884Y-114097419D02*
X201753884Y-113097419D01*
X201753884Y-113097419D02*
X201991979Y-113097419D01*
X201991979Y-113097419D02*
X202134836Y-113145038D01*
X202134836Y-113145038D02*
X202230074Y-113240276D01*
X202230074Y-113240276D02*
X202277693Y-113335514D01*
X202277693Y-113335514D02*
X202325312Y-113525990D01*
X202325312Y-113525990D02*
X202325312Y-113668847D01*
X202325312Y-113668847D02*
X202277693Y-113859323D01*
X202277693Y-113859323D02*
X202230074Y-113954561D01*
X202230074Y-113954561D02*
X202134836Y-114049800D01*
X202134836Y-114049800D02*
X201991979Y-114097419D01*
X201991979Y-114097419D02*
X201753884Y-114097419D01*
X202753884Y-113097419D02*
X202753884Y-113906942D01*
X202753884Y-113906942D02*
X202801503Y-114002180D01*
X202801503Y-114002180D02*
X202849122Y-114049800D01*
X202849122Y-114049800D02*
X202944360Y-114097419D01*
X202944360Y-114097419D02*
X203134836Y-114097419D01*
X203134836Y-114097419D02*
X203230074Y-114049800D01*
X203230074Y-114049800D02*
X203277693Y-114002180D01*
X203277693Y-114002180D02*
X203325312Y-113906942D01*
X203325312Y-113906942D02*
X203325312Y-113097419D01*
X90650312Y-113927180D02*
X90602693Y-113974800D01*
X90602693Y-113974800D02*
X90459836Y-114022419D01*
X90459836Y-114022419D02*
X90364598Y-114022419D01*
X90364598Y-114022419D02*
X90221741Y-113974800D01*
X90221741Y-113974800D02*
X90126503Y-113879561D01*
X90126503Y-113879561D02*
X90078884Y-113784323D01*
X90078884Y-113784323D02*
X90031265Y-113593847D01*
X90031265Y-113593847D02*
X90031265Y-113450990D01*
X90031265Y-113450990D02*
X90078884Y-113260514D01*
X90078884Y-113260514D02*
X90126503Y-113165276D01*
X90126503Y-113165276D02*
X90221741Y-113070038D01*
X90221741Y-113070038D02*
X90364598Y-113022419D01*
X90364598Y-113022419D02*
X90459836Y-113022419D01*
X90459836Y-113022419D02*
X90602693Y-113070038D01*
X90602693Y-113070038D02*
X90650312Y-113117657D01*
X91269360Y-113546228D02*
X91269360Y-114022419D01*
X90936027Y-113022419D02*
X91269360Y-113546228D01*
X91269360Y-113546228D02*
X91602693Y-113022419D01*
X92383646Y-76122419D02*
X93050312Y-77122419D01*
X93050312Y-76122419D02*
X92383646Y-77122419D01*
X85555074Y-79697419D02*
X85078884Y-79697419D01*
X85078884Y-79697419D02*
X85078884Y-78697419D01*
X86221741Y-79173609D02*
X86364598Y-79221228D01*
X86364598Y-79221228D02*
X86412217Y-79268847D01*
X86412217Y-79268847D02*
X86459836Y-79364085D01*
X86459836Y-79364085D02*
X86459836Y-79506942D01*
X86459836Y-79506942D02*
X86412217Y-79602180D01*
X86412217Y-79602180D02*
X86364598Y-79649800D01*
X86364598Y-79649800D02*
X86269360Y-79697419D01*
X86269360Y-79697419D02*
X85888408Y-79697419D01*
X85888408Y-79697419D02*
X85888408Y-78697419D01*
X85888408Y-78697419D02*
X86221741Y-78697419D01*
X86221741Y-78697419D02*
X86316979Y-78745038D01*
X86316979Y-78745038D02*
X86364598Y-78792657D01*
X86364598Y-78792657D02*
X86412217Y-78887895D01*
X86412217Y-78887895D02*
X86412217Y-78983133D01*
X86412217Y-78983133D02*
X86364598Y-79078371D01*
X86364598Y-79078371D02*
X86316979Y-79125990D01*
X86316979Y-79125990D02*
X86221741Y-79173609D01*
X86221741Y-79173609D02*
X85888408Y-79173609D01*
X90053884Y-96797419D02*
X90053884Y-95797419D01*
X90053884Y-95797419D02*
X90291979Y-95797419D01*
X90291979Y-95797419D02*
X90434836Y-95845038D01*
X90434836Y-95845038D02*
X90530074Y-95940276D01*
X90530074Y-95940276D02*
X90577693Y-96035514D01*
X90577693Y-96035514D02*
X90625312Y-96225990D01*
X90625312Y-96225990D02*
X90625312Y-96368847D01*
X90625312Y-96368847D02*
X90577693Y-96559323D01*
X90577693Y-96559323D02*
X90530074Y-96654561D01*
X90530074Y-96654561D02*
X90434836Y-96749800D01*
X90434836Y-96749800D02*
X90291979Y-96797419D01*
X90291979Y-96797419D02*
X90053884Y-96797419D01*
X91053884Y-96797419D02*
X91053884Y-95797419D01*
X91053884Y-95797419D02*
X91434836Y-95797419D01*
X91434836Y-95797419D02*
X91530074Y-95845038D01*
X91530074Y-95845038D02*
X91577693Y-95892657D01*
X91577693Y-95892657D02*
X91625312Y-95987895D01*
X91625312Y-95987895D02*
X91625312Y-96130752D01*
X91625312Y-96130752D02*
X91577693Y-96225990D01*
X91577693Y-96225990D02*
X91530074Y-96273609D01*
X91530074Y-96273609D02*
X91434836Y-96321228D01*
X91434836Y-96321228D02*
X91053884Y-96321228D01*
X202783646Y-78297419D02*
X203402693Y-78297419D01*
X203402693Y-78297419D02*
X203069360Y-78678371D01*
X203069360Y-78678371D02*
X203212217Y-78678371D01*
X203212217Y-78678371D02*
X203307455Y-78725990D01*
X203307455Y-78725990D02*
X203355074Y-78773609D01*
X203355074Y-78773609D02*
X203402693Y-78868847D01*
X203402693Y-78868847D02*
X203402693Y-79106942D01*
X203402693Y-79106942D02*
X203355074Y-79202180D01*
X203355074Y-79202180D02*
X203307455Y-79249800D01*
X203307455Y-79249800D02*
X203212217Y-79297419D01*
X203212217Y-79297419D02*
X202926503Y-79297419D01*
X202926503Y-79297419D02*
X202831265Y-79249800D01*
X202831265Y-79249800D02*
X202783646Y-79202180D01*
X203688408Y-78297419D02*
X204021741Y-79297419D01*
X204021741Y-79297419D02*
X204355074Y-78297419D01*
X204593170Y-78297419D02*
X205212217Y-78297419D01*
X205212217Y-78297419D02*
X204878884Y-78678371D01*
X204878884Y-78678371D02*
X205021741Y-78678371D01*
X205021741Y-78678371D02*
X205116979Y-78725990D01*
X205116979Y-78725990D02*
X205164598Y-78773609D01*
X205164598Y-78773609D02*
X205212217Y-78868847D01*
X205212217Y-78868847D02*
X205212217Y-79106942D01*
X205212217Y-79106942D02*
X205164598Y-79202180D01*
X205164598Y-79202180D02*
X205116979Y-79249800D01*
X205116979Y-79249800D02*
X205021741Y-79297419D01*
X205021741Y-79297419D02*
X204736027Y-79297419D01*
X204736027Y-79297419D02*
X204640789Y-79249800D01*
X204640789Y-79249800D02*
X204593170Y-79202180D01*
X92431265Y-74411704D02*
X92907455Y-74411704D01*
X92336027Y-74697419D02*
X92669360Y-73697419D01*
X92669360Y-73697419D02*
X93002693Y-74697419D01*
X184191910Y-59659592D02*
X184115720Y-59621497D01*
X184115720Y-59621497D02*
X184001434Y-59621497D01*
X184001434Y-59621497D02*
X183887148Y-59659592D01*
X183887148Y-59659592D02*
X183810958Y-59735782D01*
X183810958Y-59735782D02*
X183772863Y-59811973D01*
X183772863Y-59811973D02*
X183734767Y-59964354D01*
X183734767Y-59964354D02*
X183734767Y-60078640D01*
X183734767Y-60078640D02*
X183772863Y-60231021D01*
X183772863Y-60231021D02*
X183810958Y-60307211D01*
X183810958Y-60307211D02*
X183887148Y-60383402D01*
X183887148Y-60383402D02*
X184001434Y-60421497D01*
X184001434Y-60421497D02*
X184077625Y-60421497D01*
X184077625Y-60421497D02*
X184191910Y-60383402D01*
X184191910Y-60383402D02*
X184230006Y-60345306D01*
X184230006Y-60345306D02*
X184230006Y-60078640D01*
X184230006Y-60078640D02*
X184077625Y-60078640D01*
X184572863Y-60421497D02*
X184572863Y-59621497D01*
X184572863Y-59621497D02*
X185030006Y-60421497D01*
X185030006Y-60421497D02*
X185030006Y-59621497D01*
X185410958Y-60421497D02*
X185410958Y-59621497D01*
X185410958Y-59621497D02*
X185601434Y-59621497D01*
X185601434Y-59621497D02*
X185715720Y-59659592D01*
X185715720Y-59659592D02*
X185791910Y-59735782D01*
X185791910Y-59735782D02*
X185830005Y-59811973D01*
X185830005Y-59811973D02*
X185868101Y-59964354D01*
X185868101Y-59964354D02*
X185868101Y-60078640D01*
X185868101Y-60078640D02*
X185830005Y-60231021D01*
X185830005Y-60231021D02*
X185791910Y-60307211D01*
X185791910Y-60307211D02*
X185715720Y-60383402D01*
X185715720Y-60383402D02*
X185601434Y-60421497D01*
X185601434Y-60421497D02*
X185410958Y-60421497D01*
X90602693Y-115670038D02*
X90507455Y-115622419D01*
X90507455Y-115622419D02*
X90364598Y-115622419D01*
X90364598Y-115622419D02*
X90221741Y-115670038D01*
X90221741Y-115670038D02*
X90126503Y-115765276D01*
X90126503Y-115765276D02*
X90078884Y-115860514D01*
X90078884Y-115860514D02*
X90031265Y-116050990D01*
X90031265Y-116050990D02*
X90031265Y-116193847D01*
X90031265Y-116193847D02*
X90078884Y-116384323D01*
X90078884Y-116384323D02*
X90126503Y-116479561D01*
X90126503Y-116479561D02*
X90221741Y-116574800D01*
X90221741Y-116574800D02*
X90364598Y-116622419D01*
X90364598Y-116622419D02*
X90459836Y-116622419D01*
X90459836Y-116622419D02*
X90602693Y-116574800D01*
X90602693Y-116574800D02*
X90650312Y-116527180D01*
X90650312Y-116527180D02*
X90650312Y-116193847D01*
X90650312Y-116193847D02*
X90459836Y-116193847D01*
X91078884Y-116622419D02*
X91078884Y-115622419D01*
X91078884Y-115622419D02*
X91316979Y-115622419D01*
X91316979Y-115622419D02*
X91459836Y-115670038D01*
X91459836Y-115670038D02*
X91555074Y-115765276D01*
X91555074Y-115765276D02*
X91602693Y-115860514D01*
X91602693Y-115860514D02*
X91650312Y-116050990D01*
X91650312Y-116050990D02*
X91650312Y-116193847D01*
X91650312Y-116193847D02*
X91602693Y-116384323D01*
X91602693Y-116384323D02*
X91555074Y-116479561D01*
X91555074Y-116479561D02*
X91459836Y-116574800D01*
X91459836Y-116574800D02*
X91316979Y-116622419D01*
X91316979Y-116622419D02*
X91078884Y-116622419D01*
X146091979Y-136496895D02*
X146358646Y-137296895D01*
X146358646Y-137296895D02*
X146625312Y-136496895D01*
X146891979Y-136992133D02*
X147501503Y-136992133D01*
X147196741Y-137296895D02*
X147196741Y-136687371D01*
X138181265Y-137296895D02*
X138181265Y-136496895D01*
X138638408Y-137296895D02*
X138295550Y-136839752D01*
X138638408Y-136496895D02*
X138181265Y-136954038D01*
X138981265Y-136877847D02*
X139247931Y-136877847D01*
X139362217Y-137296895D02*
X138981265Y-137296895D01*
X138981265Y-137296895D02*
X138981265Y-136496895D01*
X138981265Y-136496895D02*
X139362217Y-136496895D01*
X139857456Y-136915942D02*
X139857456Y-137296895D01*
X139590789Y-136496895D02*
X139857456Y-136915942D01*
X139857456Y-136915942D02*
X140124122Y-136496895D01*
X124152693Y-57420038D02*
X124057455Y-57372419D01*
X124057455Y-57372419D02*
X123914598Y-57372419D01*
X123914598Y-57372419D02*
X123771741Y-57420038D01*
X123771741Y-57420038D02*
X123676503Y-57515276D01*
X123676503Y-57515276D02*
X123628884Y-57610514D01*
X123628884Y-57610514D02*
X123581265Y-57800990D01*
X123581265Y-57800990D02*
X123581265Y-57943847D01*
X123581265Y-57943847D02*
X123628884Y-58134323D01*
X123628884Y-58134323D02*
X123676503Y-58229561D01*
X123676503Y-58229561D02*
X123771741Y-58324800D01*
X123771741Y-58324800D02*
X123914598Y-58372419D01*
X123914598Y-58372419D02*
X124009836Y-58372419D01*
X124009836Y-58372419D02*
X124152693Y-58324800D01*
X124152693Y-58324800D02*
X124200312Y-58277180D01*
X124200312Y-58277180D02*
X124200312Y-57943847D01*
X124200312Y-57943847D02*
X124009836Y-57943847D01*
X124628884Y-58372419D02*
X124628884Y-57372419D01*
X124628884Y-57372419D02*
X124866979Y-57372419D01*
X124866979Y-57372419D02*
X125009836Y-57420038D01*
X125009836Y-57420038D02*
X125105074Y-57515276D01*
X125105074Y-57515276D02*
X125152693Y-57610514D01*
X125152693Y-57610514D02*
X125200312Y-57800990D01*
X125200312Y-57800990D02*
X125200312Y-57943847D01*
X125200312Y-57943847D02*
X125152693Y-58134323D01*
X125152693Y-58134323D02*
X125105074Y-58229561D01*
X125105074Y-58229561D02*
X125009836Y-58324800D01*
X125009836Y-58324800D02*
X124866979Y-58372419D01*
X124866979Y-58372419D02*
X124628884Y-58372419D01*
X140678884Y-60547419D02*
X140678884Y-59547419D01*
X140678884Y-60023609D02*
X141250312Y-60023609D01*
X141250312Y-60547419D02*
X141250312Y-59547419D01*
X141678884Y-60499800D02*
X141821741Y-60547419D01*
X141821741Y-60547419D02*
X142059836Y-60547419D01*
X142059836Y-60547419D02*
X142155074Y-60499800D01*
X142155074Y-60499800D02*
X142202693Y-60452180D01*
X142202693Y-60452180D02*
X142250312Y-60356942D01*
X142250312Y-60356942D02*
X142250312Y-60261704D01*
X142250312Y-60261704D02*
X142202693Y-60166466D01*
X142202693Y-60166466D02*
X142155074Y-60118847D01*
X142155074Y-60118847D02*
X142059836Y-60071228D01*
X142059836Y-60071228D02*
X141869360Y-60023609D01*
X141869360Y-60023609D02*
X141774122Y-59975990D01*
X141774122Y-59975990D02*
X141726503Y-59928371D01*
X141726503Y-59928371D02*
X141678884Y-59833133D01*
X141678884Y-59833133D02*
X141678884Y-59737895D01*
X141678884Y-59737895D02*
X141726503Y-59642657D01*
X141726503Y-59642657D02*
X141774122Y-59595038D01*
X141774122Y-59595038D02*
X141869360Y-59547419D01*
X141869360Y-59547419D02*
X142107455Y-59547419D01*
X142107455Y-59547419D02*
X142250312Y-59595038D01*
X201853884Y-106547419D02*
X201853884Y-105547419D01*
X201853884Y-105547419D02*
X202091979Y-105547419D01*
X202091979Y-105547419D02*
X202234836Y-105595038D01*
X202234836Y-105595038D02*
X202330074Y-105690276D01*
X202330074Y-105690276D02*
X202377693Y-105785514D01*
X202377693Y-105785514D02*
X202425312Y-105975990D01*
X202425312Y-105975990D02*
X202425312Y-106118847D01*
X202425312Y-106118847D02*
X202377693Y-106309323D01*
X202377693Y-106309323D02*
X202330074Y-106404561D01*
X202330074Y-106404561D02*
X202234836Y-106499800D01*
X202234836Y-106499800D02*
X202091979Y-106547419D01*
X202091979Y-106547419D02*
X201853884Y-106547419D01*
X203330074Y-106547419D02*
X202853884Y-106547419D01*
X202853884Y-106547419D02*
X202853884Y-105547419D01*
D11*
X179858095Y-124069819D02*
X179858095Y-124879342D01*
X179858095Y-124879342D02*
X179905714Y-124974580D01*
X179905714Y-124974580D02*
X179953333Y-125022200D01*
X179953333Y-125022200D02*
X180048571Y-125069819D01*
X180048571Y-125069819D02*
X180239047Y-125069819D01*
X180239047Y-125069819D02*
X180334285Y-125022200D01*
X180334285Y-125022200D02*
X180381904Y-124974580D01*
X180381904Y-124974580D02*
X180429523Y-124879342D01*
X180429523Y-124879342D02*
X180429523Y-124069819D01*
X181429523Y-125069819D02*
X180858095Y-125069819D01*
X181143809Y-125069819D02*
X181143809Y-124069819D01*
X181143809Y-124069819D02*
X181048571Y-124212676D01*
X181048571Y-124212676D02*
X180953333Y-124307914D01*
X180953333Y-124307914D02*
X180858095Y-124355533D01*
X115068095Y-124494819D02*
X115068095Y-125304342D01*
X115068095Y-125304342D02*
X115115714Y-125399580D01*
X115115714Y-125399580D02*
X115163333Y-125447200D01*
X115163333Y-125447200D02*
X115258571Y-125494819D01*
X115258571Y-125494819D02*
X115449047Y-125494819D01*
X115449047Y-125494819D02*
X115544285Y-125447200D01*
X115544285Y-125447200D02*
X115591904Y-125399580D01*
X115591904Y-125399580D02*
X115639523Y-125304342D01*
X115639523Y-125304342D02*
X115639523Y-124494819D01*
X116068095Y-124590057D02*
X116115714Y-124542438D01*
X116115714Y-124542438D02*
X116210952Y-124494819D01*
X116210952Y-124494819D02*
X116449047Y-124494819D01*
X116449047Y-124494819D02*
X116544285Y-124542438D01*
X116544285Y-124542438D02*
X116591904Y-124590057D01*
X116591904Y-124590057D02*
X116639523Y-124685295D01*
X116639523Y-124685295D02*
X116639523Y-124780533D01*
X116639523Y-124780533D02*
X116591904Y-124923390D01*
X116591904Y-124923390D02*
X116020476Y-125494819D01*
X116020476Y-125494819D02*
X116639523Y-125494819D01*
D12*
%TO.C,U1*%
X168620000Y-113240000D02*
X168620000Y-137240000D01*
X168620000Y-137240000D02*
X192620000Y-137240000D01*
X192620000Y-113240000D02*
X168620000Y-113240000D01*
X192620000Y-137240000D02*
X192620000Y-113240000D01*
%TO.C,J2*%
X122834995Y-64410003D02*
X122834999Y-63809998D01*
X122944996Y-64410002D02*
X122834995Y-64410003D01*
X136210001Y-66999999D02*
X136610002Y-67000001D01*
X136410000Y-66599998D02*
X136210001Y-66999999D01*
X136610002Y-67000001D02*
X136410000Y-66599998D01*
X139374996Y-64409996D02*
X139484996Y-64410001D01*
X139484996Y-64410001D02*
X139484998Y-63809999D01*
%TO.C,J7*%
X86819997Y-109649996D02*
X86820007Y-117379993D01*
X86819997Y-109649996D02*
X89579998Y-109649993D01*
X86819999Y-106999999D02*
X88200005Y-106999997D01*
X86820003Y-108379993D02*
X86819999Y-106999999D01*
X86820007Y-117379993D02*
X89580001Y-117379999D01*
X89579998Y-109649993D02*
X89580001Y-117379999D01*
%TO.C,J1*%
X103945004Y-64369998D02*
X103945004Y-63769993D01*
X104055001Y-64369998D02*
X103945004Y-64369998D01*
X113320005Y-66959997D02*
X113720003Y-66960001D01*
X113520003Y-66560002D02*
X113320005Y-66959997D01*
X113720003Y-66960001D02*
X113520003Y-66560002D01*
X116485003Y-64369997D02*
X116595004Y-64369998D01*
X116595004Y-64369998D02*
X116594999Y-63769998D01*
%TO.C,J6*%
X92060000Y-122650003D02*
X92060007Y-125310004D01*
X99739997Y-125309998D02*
X92060007Y-125310004D01*
X99740004Y-122649996D02*
X92060000Y-122650003D01*
X99740004Y-122649996D02*
X99739997Y-125309998D01*
X102339996Y-125310000D02*
X101010003Y-125310001D01*
X102340002Y-123979998D02*
X102339996Y-125310000D01*
%TO.C,J11*%
X85440000Y-120050000D02*
X86820000Y-120050000D01*
X85440000Y-121430000D02*
X85440000Y-120050000D01*
X85440000Y-122700000D02*
X85440000Y-125350000D01*
X85440000Y-122700000D02*
X88200000Y-122700000D01*
X85440000Y-125350000D02*
X88200000Y-125350000D01*
X88200000Y-122700000D02*
X88200000Y-125350000D01*
%TO.C,J4*%
X117935002Y-59210001D02*
X117935002Y-57830000D01*
X119315001Y-59209999D02*
X117935002Y-59210001D01*
X120584999Y-56450001D02*
X123234999Y-56450000D01*
X120585000Y-59210002D02*
X120584999Y-56450001D01*
X120585000Y-59210002D02*
X123235002Y-59210002D01*
X123235002Y-59210002D02*
X123234999Y-56450000D01*
%TO.C,J3*%
X86900000Y-72770000D02*
X86900000Y-85590000D01*
X86900000Y-72770000D02*
X89500000Y-72770000D01*
X86900000Y-85590000D02*
X92100000Y-85590000D01*
X89500000Y-72770000D02*
X89500000Y-75370000D01*
X89500000Y-75370000D02*
X92100000Y-75370000D01*
X90770000Y-72770000D02*
X92100000Y-72770000D01*
X92100000Y-72770000D02*
X92100000Y-74100000D01*
X92100000Y-75370000D02*
X92100000Y-85590000D01*
%TO.C,J11*%
X86820003Y-103570004D02*
X86819999Y-100920004D01*
X89579999Y-104840003D02*
X89580001Y-106220000D01*
X89580001Y-106220000D02*
X88199998Y-106220000D01*
X89580004Y-100920000D02*
X86819999Y-100920004D01*
X89580004Y-103570003D02*
X86820003Y-103570004D01*
X89580004Y-103570003D02*
X89580004Y-100920000D01*
%TO.C,J14*%
X88170000Y-64120000D02*
X88170000Y-66720000D01*
X88170000Y-64120000D02*
X90830000Y-64120000D01*
X88170000Y-66720000D02*
X90830000Y-66720000D01*
X89500000Y-61520000D02*
X90830000Y-61520000D01*
X90830000Y-61520000D02*
X90830000Y-62850000D01*
X90830000Y-64120000D02*
X90830000Y-66720000D01*
%TO.C,J10*%
X201360000Y-131075000D02*
X202740000Y-131075000D01*
X201360000Y-132455000D02*
X201360000Y-131075000D01*
X201360000Y-133725000D02*
X201360000Y-136375000D01*
X201360000Y-133725000D02*
X204120000Y-133725000D01*
X201360000Y-136375000D02*
X204120000Y-136375000D01*
X204120000Y-133725000D02*
X204120000Y-136375000D01*
%TO.C,J13*%
X200494994Y-61219996D02*
X203255001Y-61219994D01*
X200494995Y-58570001D02*
X200494994Y-61219996D01*
X200494995Y-58570001D02*
X203254996Y-58569996D01*
X200495000Y-55920002D02*
X201875003Y-55920002D01*
X200495002Y-57299997D02*
X200495000Y-55920002D01*
X203254996Y-58569996D02*
X203255001Y-61219994D01*
%TO.C,J5*%
X134994999Y-57825001D02*
X134995001Y-56495000D01*
X134995001Y-56495000D02*
X136324999Y-56494999D01*
X137594999Y-59155001D02*
X137595001Y-56495000D01*
X137594999Y-59155001D02*
X160514999Y-59155000D01*
X137595001Y-56495000D02*
X160515000Y-56495001D01*
X160514999Y-59155000D02*
X160515000Y-56495001D01*
%TO.C,J12*%
X135240001Y-136360001D02*
X135240001Y-134980000D01*
X136619999Y-136360000D02*
X135240001Y-136360001D01*
X137889999Y-133600002D02*
X153240000Y-133600001D01*
X137889999Y-136360003D02*
X137889999Y-133600002D01*
X137889999Y-136360003D02*
X153240000Y-136360001D01*
X153240000Y-136360001D02*
X153240000Y-133600001D01*
%TO.C,J8*%
X205650000Y-72180000D02*
X207030000Y-72180000D01*
X205650000Y-73560000D02*
X205650000Y-72180000D01*
X205650000Y-74830000D02*
X205650000Y-87640000D01*
X205650000Y-74830000D02*
X208410000Y-74830000D01*
X205650000Y-87640000D02*
X208410000Y-87640000D01*
X208410000Y-74830000D02*
X208410000Y-87640000D01*
%TO.C,J15*%
X86820002Y-92270000D02*
X88200002Y-92270000D01*
X86820002Y-93650000D02*
X86820002Y-92270000D01*
X86820002Y-94920000D02*
X86820002Y-100110000D01*
X86820002Y-94920000D02*
X89580002Y-94920000D01*
X86820002Y-100110000D02*
X89580002Y-100110000D01*
X89580002Y-94920000D02*
X89580002Y-100110000D01*
%TO.C,U2*%
X105780000Y-115615000D02*
X105780000Y-135715000D01*
X105780000Y-135715000D02*
X125880000Y-135715000D01*
X125880000Y-115615000D02*
X105780000Y-115615000D01*
X125880000Y-135715000D02*
X125880000Y-115615000D01*
%TO.C,J9*%
X203840000Y-107170000D02*
X203840000Y-117390000D01*
X203840000Y-107170000D02*
X206500000Y-107170000D01*
X203840000Y-117390000D02*
X206500000Y-117390000D01*
X205170000Y-104570000D02*
X206500000Y-104570000D01*
X206500000Y-104570000D02*
X206500000Y-105900000D01*
X206500000Y-107170000D02*
X206500000Y-117390000D01*
%TD*%
M02*
