%TF.GenerationSoftware,KiCad,Pcbnew,9.0.7*%
%TF.CreationDate,2026-03-05T15:08:44+11:00*%
%TF.ProjectId,daughterboard,64617567-6874-4657-9262-6f6172642e6b,rev?*%
%TF.SameCoordinates,Original*%
%TF.FileFunction,Paste,Top*%
%TF.FilePolarity,Positive*%
%FSLAX46Y46*%
G04 Gerber Fmt 4.6, Leading zero omitted, Abs format (unit mm)*
G04 Created by KiCad (PCBNEW 9.0.7) date 2026-03-05 15:08:44*
%MOMM*%
%LPD*%
G01*
G04 APERTURE LIST*
G04 Aperture macros list*
%AMRoundRect*
0 Rectangle with rounded corners*
0 $1 Rounding radius*
0 $2 $3 $4 $5 $6 $7 $8 $9 X,Y pos of 4 corners*
0 Add a 4 corners polygon primitive as box body*
4,1,4,$2,$3,$4,$5,$6,$7,$8,$9,$2,$3,0*
0 Add four circle primitives for the rounded corners*
1,1,$1+$1,$2,$3*
1,1,$1+$1,$4,$5*
1,1,$1+$1,$6,$7*
1,1,$1+$1,$8,$9*
0 Add four rect primitives between the rounded corners*
20,1,$1+$1,$2,$3,$4,$5,0*
20,1,$1+$1,$4,$5,$6,$7,0*
20,1,$1+$1,$6,$7,$8,$9,0*
20,1,$1+$1,$8,$9,$2,$3,0*%
G04 Aperture macros list end*
%ADD10RoundRect,0.312500X-0.687500X-0.312500X0.687500X-0.312500X0.687500X0.312500X-0.687500X0.312500X0*%
%ADD11RoundRect,0.312500X0.312500X-0.687500X0.312500X0.687500X-0.312500X0.687500X-0.312500X-0.687500X0*%
%ADD12R,0.300000X1.100000*%
%ADD13R,2.300000X3.100000*%
%ADD14RoundRect,0.312500X-0.312500X0.687500X-0.312500X-0.687500X0.312500X-0.687500X0.312500X0.687500X0*%
%ADD15RoundRect,0.312500X0.687500X0.312500X-0.687500X0.312500X-0.687500X-0.312500X0.687500X-0.312500X0*%
G04 APERTURE END LIST*
D10*
%TO.C,U1*%
X168120000Y-118250000D03*
X168120000Y-120000000D03*
X168120000Y-121750000D03*
X168120000Y-123500000D03*
X168120000Y-125250000D03*
X168120000Y-127000000D03*
X168120000Y-128750000D03*
X168120000Y-130500000D03*
X168120000Y-132250000D03*
D11*
X180630000Y-112740000D03*
X182380000Y-112740000D03*
D10*
X193120000Y-132250000D03*
X193120000Y-130500000D03*
X193120000Y-128750000D03*
X193120000Y-127000000D03*
X193120000Y-125250000D03*
X193120000Y-123500000D03*
X193120000Y-121750000D03*
X193120000Y-120000000D03*
X193120000Y-118250000D03*
D11*
X187630000Y-112740000D03*
X185880000Y-112740000D03*
X184130000Y-112740000D03*
X178880000Y-112740000D03*
X177130000Y-112740000D03*
X175380000Y-112740000D03*
X173630000Y-112740000D03*
%TD*%
D12*
%TO.C,J2*%
X136410002Y-67799996D03*
X135910000Y-67800000D03*
X135410000Y-67799996D03*
X134909999Y-67800000D03*
X134410001Y-67800002D03*
X133910001Y-67800000D03*
X133409995Y-67800000D03*
X132910000Y-67800002D03*
X132409999Y-67800001D03*
X131909998Y-67799998D03*
X131410000Y-67800002D03*
X130910000Y-67800001D03*
X130409997Y-67800000D03*
X129909999Y-67800000D03*
X129410000Y-67799998D03*
X128909997Y-67799997D03*
X128410002Y-67799999D03*
X127909999Y-67800000D03*
X127409999Y-67800000D03*
X126909999Y-67800002D03*
X126410001Y-67800000D03*
X125909999Y-67800001D03*
D13*
X138080000Y-66100000D03*
X124239999Y-66100002D03*
%TD*%
D12*
%TO.C,J1*%
X113520006Y-67760000D03*
X113020006Y-67759998D03*
X112520000Y-67759998D03*
X112020005Y-67760000D03*
X111520004Y-67759999D03*
X111020003Y-67759996D03*
X110520005Y-67760000D03*
X110020005Y-67759999D03*
X109520002Y-67759998D03*
X109020004Y-67759998D03*
X108520005Y-67759996D03*
X108020002Y-67759995D03*
X107520007Y-67759997D03*
X107020004Y-67759998D03*
D13*
X115190001Y-66059998D03*
X105350002Y-66059996D03*
%TD*%
D10*
%TO.C,U2*%
X105280000Y-130845000D03*
X105280000Y-129095000D03*
X105280000Y-127345000D03*
X105280000Y-125595000D03*
X105280000Y-123845000D03*
X105280000Y-122095000D03*
X105280000Y-120345000D03*
D14*
X121060000Y-115115000D03*
X108810000Y-115115000D03*
X110560000Y-115115000D03*
X112310000Y-115115000D03*
X114060000Y-115115000D03*
X115810000Y-115115000D03*
X117560000Y-115115000D03*
X119310000Y-115115000D03*
D15*
X126380000Y-120345000D03*
X126380000Y-122095000D03*
X126380000Y-123845000D03*
X126380000Y-125595000D03*
X126380000Y-127345000D03*
X126380000Y-129095000D03*
%TD*%
M02*
