%TF.GenerationSoftware,KiCad,Pcbnew,9.0.7*%
%TF.CreationDate,2026-03-05T15:08:44+11:00*%
%TF.ProjectId,daughterboard,64617567-6874-4657-9262-6f6172642e6b,rev?*%
%TF.SameCoordinates,Original*%
%TF.FileFunction,Soldermask,Top*%
%TF.FilePolarity,Negative*%
%FSLAX46Y46*%
G04 Gerber Fmt 4.6, Leading zero omitted, Abs format (unit mm)*
G04 Created by KiCad (PCBNEW 9.0.7) date 2026-03-05 15:08:44*
%MOMM*%
%LPD*%
G01*
G04 APERTURE LIST*
G04 Aperture macros list*
%AMRoundRect*
0 Rectangle with rounded corners*
0 $1 Rounding radius*
0 $2 $3 $4 $5 $6 $7 $8 $9 X,Y pos of 4 corners*
0 Add a 4 corners polygon primitive as box body*
4,1,4,$2,$3,$4,$5,$6,$7,$8,$9,$2,$3,0*
0 Add four circle primitives for the rounded corners*
1,1,$1+$1,$2,$3*
1,1,$1+$1,$4,$5*
1,1,$1+$1,$6,$7*
1,1,$1+$1,$8,$9*
0 Add four rect primitives between the rounded corners*
20,1,$1+$1,$2,$3,$4,$5,0*
20,1,$1+$1,$4,$5,$6,$7,0*
20,1,$1+$1,$6,$7,$8,$9,0*
20,1,$1+$1,$8,$9,$2,$3,0*%
G04 Aperture macros list end*
%ADD10C,2.520000*%
%ADD11RoundRect,0.312500X-0.687500X-0.312500X0.687500X-0.312500X0.687500X0.312500X-0.687500X0.312500X0*%
%ADD12RoundRect,0.312500X0.312500X-0.687500X0.312500X0.687500X-0.312500X0.687500X-0.312500X-0.687500X0*%
%ADD13R,0.300000X1.100000*%
%ADD14R,2.300000X3.100000*%
%ADD15R,1.700000X1.700000*%
%ADD16C,1.700000*%
%ADD17R,3.000000X3.000000*%
%ADD18C,1.000000*%
%ADD19C,2.000000*%
%ADD20C,2.200000*%
%ADD21RoundRect,0.312500X-0.312500X0.687500X-0.312500X-0.687500X0.312500X-0.687500X0.312500X0.687500X0*%
%ADD22RoundRect,0.312500X0.687500X0.312500X-0.687500X0.312500X-0.687500X-0.312500X0.687500X-0.312500X0*%
G04 APERTURE END LIST*
D10*
%TO.C,U1*%
X170620000Y-115240000D03*
X170620000Y-135240000D03*
X190620000Y-115240000D03*
X190620000Y-135240000D03*
D11*
X168120000Y-118250000D03*
X168120000Y-120000000D03*
X168120000Y-121750000D03*
X168120000Y-123500000D03*
X168120000Y-125250000D03*
X168120000Y-127000000D03*
X168120000Y-128750000D03*
X168120000Y-130500000D03*
X168120000Y-132250000D03*
D12*
X180630000Y-112740000D03*
X182380000Y-112740000D03*
D11*
X193120000Y-132250000D03*
X193120000Y-130500000D03*
X193120000Y-128750000D03*
X193120000Y-127000000D03*
X193120000Y-125250000D03*
X193120000Y-123500000D03*
X193120000Y-121750000D03*
X193120000Y-120000000D03*
X193120000Y-118250000D03*
D12*
X187630000Y-112740000D03*
X185880000Y-112740000D03*
X184130000Y-112740000D03*
X178880000Y-112740000D03*
X177130000Y-112740000D03*
X175380000Y-112740000D03*
X173630000Y-112740000D03*
%TD*%
D13*
%TO.C,J2*%
X136410002Y-67799996D03*
X135910000Y-67800000D03*
X135410000Y-67799996D03*
X134909999Y-67800000D03*
X134410001Y-67800002D03*
X133910001Y-67800000D03*
X133409995Y-67800000D03*
X132910000Y-67800002D03*
X132409999Y-67800001D03*
X131909998Y-67799998D03*
X131410000Y-67800002D03*
X130910000Y-67800001D03*
X130409997Y-67800000D03*
X129909999Y-67800000D03*
X129410000Y-67799998D03*
X128909997Y-67799997D03*
X128410002Y-67799999D03*
X127909999Y-67800000D03*
X127409999Y-67800000D03*
X126909999Y-67800002D03*
X126410001Y-67800000D03*
X125909999Y-67800001D03*
D14*
X138080000Y-66100000D03*
X124239999Y-66100002D03*
%TD*%
D15*
%TO.C,J7*%
X88200002Y-108379996D03*
D16*
X88200002Y-110919997D03*
X88200003Y-113459998D03*
X88200000Y-116000000D03*
%TD*%
D13*
%TO.C,J1*%
X113520006Y-67760000D03*
X113020006Y-67759998D03*
X112520000Y-67759998D03*
X112020005Y-67760000D03*
X111520004Y-67759999D03*
X111020003Y-67759996D03*
X110520005Y-67760000D03*
X110020005Y-67759999D03*
X109520002Y-67759998D03*
X109020004Y-67759998D03*
X108520005Y-67759996D03*
X108020002Y-67759995D03*
X107520007Y-67759997D03*
X107020004Y-67759998D03*
D14*
X115190001Y-66059998D03*
X105350002Y-66059996D03*
%TD*%
D15*
%TO.C,J6*%
X101010001Y-123980000D03*
D16*
X98470000Y-123980000D03*
X95929999Y-123980001D03*
X93389997Y-123979998D03*
%TD*%
D15*
%TO.C,J11*%
X86820000Y-121430000D03*
D16*
X86820000Y-123970000D03*
%TD*%
D15*
%TO.C,J4*%
X119315001Y-57830000D03*
D16*
X121855002Y-57830000D03*
%TD*%
D15*
%TO.C,J3*%
X90770000Y-74100000D03*
D16*
X88230000Y-74100000D03*
X90770000Y-76640000D03*
X88230000Y-76640000D03*
X90770000Y-79180000D03*
X88230000Y-79180000D03*
X90770000Y-81720000D03*
X88230000Y-81720000D03*
X90770000Y-84260000D03*
X88230000Y-84260000D03*
%TD*%
D15*
%TO.C,J11*%
X88200000Y-104840001D03*
D16*
X88200000Y-102300000D03*
%TD*%
D17*
%TO.C,*%
X198575000Y-82200000D03*
%TD*%
D15*
%TO.C,J14*%
X89500000Y-62850000D03*
D16*
X89500000Y-65390000D03*
%TD*%
D15*
%TO.C,J10*%
X202740000Y-132455000D03*
D16*
X202740000Y-134995000D03*
%TD*%
D15*
%TO.C,J13*%
X201875000Y-57300000D03*
D16*
X201875000Y-59840001D03*
%TD*%
D18*
%TO.C,*%
X104850000Y-134725000D03*
%TD*%
D15*
%TO.C,J5*%
X136325000Y-57825000D03*
D16*
X138865001Y-57825000D03*
X141405000Y-57824999D03*
X143945001Y-57825001D03*
X146485000Y-57825000D03*
X149025000Y-57825000D03*
X151565000Y-57824999D03*
X154105001Y-57824999D03*
X156645000Y-57825000D03*
X159184999Y-57825002D03*
%TD*%
D18*
%TO.C,*%
X104850000Y-132900000D03*
%TD*%
D17*
%TO.C,*%
X180875000Y-57375000D03*
%TD*%
D19*
%TO.C,REF\u002A\u002A*%
X206980000Y-65530000D03*
%TD*%
D15*
%TO.C,J12*%
X136620000Y-134980001D03*
D16*
X139160001Y-134980001D03*
X141700000Y-134980000D03*
X144240001Y-134980002D03*
X146780000Y-134980001D03*
X149320000Y-134980001D03*
X151860000Y-134980000D03*
%TD*%
D15*
%TO.C,J8*%
X207030000Y-73560000D03*
D16*
X207030000Y-76100000D03*
X207030000Y-78640000D03*
X207030000Y-81180000D03*
X207030000Y-83720000D03*
X207030000Y-86260000D03*
%TD*%
D17*
%TO.C,*%
X184685003Y-57375006D03*
%TD*%
D19*
%TO.C,REF\u002A\u002A*%
X83720000Y-65540000D03*
%TD*%
D15*
%TO.C,J15*%
X88200002Y-93650000D03*
D16*
X88200002Y-96190000D03*
X88200002Y-98730000D03*
%TD*%
D17*
%TO.C,*%
X173210007Y-57365005D03*
%TD*%
D20*
%TO.C,U2*%
X107780000Y-133715000D03*
X123880000Y-117615000D03*
D11*
X105280000Y-130845000D03*
X105280000Y-129095000D03*
X105280000Y-127345000D03*
X105280000Y-125595000D03*
X105280000Y-123845000D03*
X105280000Y-122095000D03*
X105280000Y-120345000D03*
D21*
X121060000Y-115115000D03*
X108810000Y-115115000D03*
X110560000Y-115115000D03*
X112310000Y-115115000D03*
X114060000Y-115115000D03*
X115810000Y-115115000D03*
X117560000Y-115115000D03*
X119310000Y-115115000D03*
D22*
X126380000Y-120345000D03*
X126380000Y-122095000D03*
X126380000Y-123845000D03*
X126380000Y-125595000D03*
X126380000Y-127345000D03*
X126380000Y-129095000D03*
%TD*%
D15*
%TO.C,J9*%
X205170000Y-105900000D03*
D16*
X205170000Y-108440000D03*
X205170000Y-110980000D03*
X205170000Y-113520000D03*
X205170000Y-116060000D03*
%TD*%
D17*
%TO.C,*%
X177014205Y-57375008D03*
%TD*%
M02*
