%TF.GenerationSoftware,KiCad,Pcbnew,9.0.7*%
%TF.CreationDate,2026-03-05T15:08:44+11:00*%
%TF.ProjectId,daughterboard,64617567-6874-4657-9262-6f6172642e6b,rev?*%
%TF.SameCoordinates,Original*%
%TF.FileFunction,Soldermask,Bot*%
%TF.FilePolarity,Negative*%
%FSLAX46Y46*%
G04 Gerber Fmt 4.6, Leading zero omitted, Abs format (unit mm)*
G04 Created by KiCad (PCBNEW 9.0.7) date 2026-03-05 15:08:44*
%MOMM*%
%LPD*%
G01*
G04 APERTURE LIST*
%ADD10C,2.520000*%
%ADD11R,1.700000X1.700000*%
%ADD12C,1.700000*%
%ADD13C,2.000000*%
%ADD14C,2.200000*%
G04 APERTURE END LIST*
D10*
%TO.C,U1*%
X170620000Y-115240000D03*
X170620000Y-135240000D03*
X190620000Y-115240000D03*
X190620000Y-135240000D03*
%TD*%
D11*
%TO.C,J7*%
X88200002Y-108379996D03*
D12*
X88200002Y-110919997D03*
X88200003Y-113459998D03*
X88200000Y-116000000D03*
%TD*%
D11*
%TO.C,J6*%
X101010001Y-123980000D03*
D12*
X98470000Y-123980000D03*
X95929999Y-123980001D03*
X93389997Y-123979998D03*
%TD*%
D11*
%TO.C,J11*%
X86820000Y-121430000D03*
D12*
X86820000Y-123970000D03*
%TD*%
D11*
%TO.C,J4*%
X119315001Y-57830000D03*
D12*
X121855002Y-57830000D03*
%TD*%
D11*
%TO.C,J3*%
X90770000Y-74100000D03*
D12*
X88230000Y-74100000D03*
X90770000Y-76640000D03*
X88230000Y-76640000D03*
X90770000Y-79180000D03*
X88230000Y-79180000D03*
X90770000Y-81720000D03*
X88230000Y-81720000D03*
X90770000Y-84260000D03*
X88230000Y-84260000D03*
%TD*%
D11*
%TO.C,J11*%
X88200000Y-104840001D03*
D12*
X88200000Y-102300000D03*
%TD*%
D11*
%TO.C,J14*%
X89500000Y-62850000D03*
D12*
X89500000Y-65390000D03*
%TD*%
D11*
%TO.C,J10*%
X202740000Y-132455000D03*
D12*
X202740000Y-134995000D03*
%TD*%
D11*
%TO.C,J13*%
X201875000Y-57300000D03*
D12*
X201875000Y-59840001D03*
%TD*%
D11*
%TO.C,J5*%
X136325000Y-57825000D03*
D12*
X138865001Y-57825000D03*
X141405000Y-57824999D03*
X143945001Y-57825001D03*
X146485000Y-57825000D03*
X149025000Y-57825000D03*
X151565000Y-57824999D03*
X154105001Y-57824999D03*
X156645000Y-57825000D03*
X159184999Y-57825002D03*
%TD*%
D13*
%TO.C,REF\u002A\u002A*%
X206980000Y-65530000D03*
%TD*%
D11*
%TO.C,J12*%
X136620000Y-134980001D03*
D12*
X139160001Y-134980001D03*
X141700000Y-134980000D03*
X144240001Y-134980002D03*
X146780000Y-134980001D03*
X149320000Y-134980001D03*
X151860000Y-134980000D03*
%TD*%
D11*
%TO.C,J8*%
X207030000Y-73560000D03*
D12*
X207030000Y-76100000D03*
X207030000Y-78640000D03*
X207030000Y-81180000D03*
X207030000Y-83720000D03*
X207030000Y-86260000D03*
%TD*%
D13*
%TO.C,REF\u002A\u002A*%
X83720000Y-65540000D03*
%TD*%
D11*
%TO.C,J15*%
X88200002Y-93650000D03*
D12*
X88200002Y-96190000D03*
X88200002Y-98730000D03*
%TD*%
D14*
%TO.C,U2*%
X107780000Y-133715000D03*
X123880000Y-117615000D03*
%TD*%
D11*
%TO.C,J9*%
X205170000Y-105900000D03*
D12*
X205170000Y-108440000D03*
X205170000Y-110980000D03*
X205170000Y-113520000D03*
X205170000Y-116060000D03*
%TD*%
M02*
