M48
; DRILL file {KiCad 9.0.7} date 2026-03-05T15:08:40+1100
; FORMAT={-:-/ absolute / metric / decimal}
; #@! TF.CreationDate,2026-03-05T15:08:40+11:00
; #@! TF.GenerationSoftware,Kicad,Pcbnew,9.0.7
; #@! TF.FileFunction,Plated,1,2,PTH
FMAT,2
METRIC
; #@! TA.AperFunction,Plated,PTH,ViaDrill
T1C0.300
; #@! TA.AperFunction,Plated,PTH,ViaDrill
T2C0.400
; #@! TA.AperFunction,Plated,PTH,ViaDrill
T3C0.500
; #@! TA.AperFunction,Plated,PTH,ViaDrill
T4C0.800
; #@! TA.AperFunction,Plated,PTH,ComponentDrill
T5C1.000
%
G90
G05
T1
X85.775Y-68.875
X85.775Y-89.6
X85.8Y-88.775
X85.825Y-87.925
X86.725Y-87.925
X86.725Y-88.775
X86.725Y-89.6
X92.8Y-59.575
X92.8Y-119.6
X92.825Y-58.775
X92.825Y-118.8
X92.875Y-57.925
X93.7Y-59.6
X93.7Y-119.625
X93.725Y-58.775
X93.725Y-118.8
X93.75Y-57.925
X94.65Y-57.925
X94.65Y-58.775
X94.65Y-59.6
X94.65Y-118.8
X94.65Y-119.625
X95.3Y-92.025
X95.325Y-91.225
X95.325Y-113.675
X95.375Y-90.375
X95.375Y-107.05
X95.375Y-112.825
X95.4Y-106.25
X95.45Y-105.4
X96.2Y-92.05
X96.225Y-91.225
X96.225Y-113.675
X96.25Y-90.375
X96.25Y-112.825
X96.275Y-107.075
X96.3Y-106.25
X96.325Y-105.4
X97.15Y-90.375
X97.15Y-91.225
X97.15Y-92.05
X97.15Y-112.825
X97.15Y-113.675
X97.225Y-105.4
X97.225Y-106.25
X97.225Y-107.075
X97.8Y-69.55
X97.825Y-68.75
X97.875Y-67.9
X98.7Y-69.575
X98.725Y-68.75
X98.75Y-67.9
X99.65Y-67.9
X99.65Y-68.75
X99.65Y-69.575
X100.3Y-59.55
X100.3Y-82.05
X100.3Y-92.0
X100.325Y-58.75
X100.325Y-77.15
X100.325Y-81.25
X100.325Y-91.2
X100.35Y-76.35
X100.35Y-87.075
X100.35Y-102.075
X100.35Y-107.05
X100.375Y-57.9
X100.375Y-80.4
X100.375Y-86.275
X100.375Y-90.35
X100.375Y-101.275
X100.375Y-106.25
X100.4Y-75.5
X100.425Y-85.425
X100.425Y-100.425
X100.425Y-105.4
X101.2Y-59.575
X101.2Y-82.075
X101.2Y-92.025
X101.225Y-58.75
X101.225Y-77.175
X101.225Y-81.25
X101.225Y-91.2
X101.25Y-57.9
X101.25Y-76.35
X101.25Y-80.4
X101.25Y-87.1
X101.25Y-90.35
X101.25Y-102.1
X101.25Y-107.075
X101.275Y-75.5
X101.275Y-86.275
X101.275Y-101.275
X101.275Y-106.25
X101.3Y-85.425
X101.3Y-100.425
X101.3Y-105.4
X102.15Y-57.9
X102.15Y-58.75
X102.15Y-59.575
X102.15Y-80.4
X102.15Y-81.25
X102.15Y-82.075
X102.15Y-90.35
X102.15Y-91.2
X102.15Y-92.025
X102.175Y-75.5
X102.175Y-76.35
X102.175Y-77.175
X102.2Y-85.425
X102.2Y-86.275
X102.2Y-87.1
X102.2Y-100.425
X102.2Y-101.275
X102.2Y-102.1
X102.2Y-105.4
X102.2Y-106.25
X102.2Y-107.075
X102.825Y-114.6
X102.85Y-113.8
X102.9Y-112.95
X103.1Y-119.425
X103.625Y-118.7
X103.725Y-114.625
X103.75Y-113.8
X103.775Y-112.95
X104.362Y-135.963
X104.675Y-112.95
X104.675Y-113.8
X104.675Y-114.625
X106.99Y-115.09
X108.5Y-124.675
X108.81Y-115.115
X109.325Y-123.475
X110.56Y-115.115
X112.15Y-66.0
X112.31Y-115.115
X114.06Y-115.115
X115.81Y-115.115
X117.56Y-115.115
X119.31Y-115.115
X126.38Y-120.345
X126.38Y-122.095
X126.38Y-127.345
X126.925Y-65.5
X127.4Y-69.025
X127.925Y-65.5
X128.4Y-69.025
X128.925Y-65.5
X129.4Y-69.025
X129.91Y-65.5
X130.275Y-114.525
X130.3Y-113.725
X130.3Y-134.65
X130.325Y-133.85
X130.35Y-112.875
X130.4Y-69.025
X130.55Y-66.125
X131.175Y-114.55
X131.2Y-113.725
X131.2Y-134.675
X131.225Y-112.875
X131.225Y-133.85
X131.65Y-65.74
X132.125Y-112.875
X132.125Y-113.725
X132.125Y-114.55
X132.15Y-133.85
X132.15Y-134.675
X133.41Y-66.575
X133.427Y-69.797
X133.95Y-65.7
X134.0Y-69.075
X134.275Y-64.9
X134.975Y-69.45
X135.35Y-114.55
X135.375Y-113.75
X135.425Y-112.9
X135.95Y-69.45
X136.25Y-114.575
X136.275Y-113.75
X136.3Y-112.9
X137.2Y-112.9
X137.2Y-113.75
X137.2Y-114.575
X140.375Y-114.575
X140.4Y-113.775
X140.45Y-112.925
X141.275Y-114.6
X141.3Y-113.775
X141.325Y-112.925
X142.225Y-112.925
X142.225Y-113.775
X142.225Y-114.6
X145.3Y-67.05
X145.325Y-66.25
X145.35Y-114.525
X145.375Y-65.4
X145.375Y-113.725
X145.425Y-112.875
X146.2Y-67.075
X146.225Y-66.25
X146.25Y-65.4
X146.25Y-114.55
X146.275Y-113.725
X146.3Y-112.875
X147.15Y-65.4
X147.15Y-66.25
X147.15Y-67.075
X147.2Y-112.875
X147.2Y-113.725
X147.2Y-114.55
X150.275Y-67.05
X150.275Y-114.525
X150.3Y-66.25
X150.3Y-113.725
X150.35Y-65.4
X150.35Y-112.875
X151.175Y-67.075
X151.175Y-114.55
X151.2Y-66.25
X151.2Y-113.725
X151.225Y-65.4
X151.225Y-112.875
X152.125Y-65.4
X152.125Y-66.25
X152.125Y-67.075
X152.125Y-112.875
X152.125Y-113.725
X152.125Y-114.55
X152.6Y-119.401
X154.45Y-135.85
X155.275Y-114.525
X155.3Y-67.025
X155.3Y-113.725
X155.325Y-66.225
X155.35Y-112.875
X155.375Y-65.375
X155.725Y-135.63
X155.95Y-117.6
X156.175Y-114.55
X156.2Y-67.05
X156.2Y-113.725
X156.225Y-66.225
X156.225Y-112.875
X156.25Y-65.375
X157.125Y-112.875
X157.125Y-113.725
X157.125Y-114.55
X157.15Y-65.375
X157.15Y-66.225
X157.15Y-67.05
X157.15Y-135.775
X160.112Y-110.562
X160.3Y-67.075
X160.325Y-66.275
X160.375Y-65.425
X161.2Y-67.1
X161.225Y-66.275
X161.25Y-65.425
X161.323Y-132.15
X161.362Y-110.212
X162.15Y-65.425
X162.15Y-66.275
X162.15Y-67.1
X162.8Y-127.025
X162.825Y-126.225
X162.875Y-125.375
X163.7Y-127.05
X163.725Y-126.225
X163.75Y-125.375
X164.65Y-125.375
X164.65Y-126.225
X164.65Y-127.05
X164.875Y-108.18
X165.27Y-112.35
X165.275Y-113.15
X165.3Y-67.075
X165.3Y-113.95
X165.325Y-66.275
X165.375Y-65.425
X165.775Y-108.625
X166.2Y-67.1
X166.225Y-66.275
X166.25Y-65.425
X166.975Y-116.0
X167.15Y-65.425
X167.15Y-66.275
X167.15Y-67.1
X168.12Y-130.5
X170.25Y-67.1
X170.275Y-66.3
X170.325Y-65.45
X171.15Y-67.125
X171.175Y-66.3
X171.2Y-65.45
X172.1Y-65.45
X172.1Y-66.3
X172.1Y-67.125
X173.63Y-112.74
X175.275Y-67.075
X175.3Y-66.275
X175.35Y-65.425
X175.38Y-112.74
X176.175Y-67.1
X176.2Y-66.275
X176.225Y-65.425
X177.125Y-65.425
X177.125Y-66.275
X177.125Y-67.1
X177.13Y-112.74
X178.88Y-112.74
X180.275Y-67.05
X180.3Y-66.25
X180.35Y-65.4
X181.175Y-67.075
X181.2Y-66.25
X181.225Y-65.4
X182.125Y-65.4
X182.125Y-66.25
X182.125Y-67.075
X192.775Y-79.55
X192.775Y-87.025
X192.8Y-78.75
X192.8Y-86.225
X192.85Y-77.9
X192.85Y-85.375
X192.9Y-107.3
X193.12Y-130.5
X193.12Y-132.25
X193.675Y-79.575
X193.675Y-87.05
X193.7Y-78.75
X193.7Y-86.225
X193.725Y-77.9
X193.725Y-85.375
X193.775Y-104.975
X194.1Y-116.575
X194.625Y-77.9
X194.625Y-78.75
X194.625Y-79.575
X194.625Y-85.375
X194.625Y-86.225
X194.625Y-87.05
X195.05Y-116.575
X195.3Y-136.175
X195.35Y-135.325
X195.375Y-99.55
X195.4Y-98.75
X195.45Y-97.9
X196.2Y-136.175
X196.225Y-135.325
X196.275Y-99.575
X196.3Y-98.75
X196.325Y-97.9
X197.125Y-135.325
X197.125Y-136.175
X197.225Y-97.9
X197.225Y-98.75
X197.225Y-99.575
X197.8Y-67.025
X197.8Y-72.025
X197.825Y-66.225
X197.825Y-71.225
X197.875Y-65.375
X197.875Y-70.375
X198.7Y-67.05
X198.7Y-72.05
X198.725Y-66.225
X198.725Y-71.225
X198.75Y-65.375
X198.75Y-70.375
X199.65Y-65.375
X199.65Y-66.225
X199.65Y-67.05
X199.65Y-70.375
X199.65Y-71.225
X199.65Y-72.05
X200.325Y-129.6
X200.35Y-128.8
X200.4Y-127.95
X201.225Y-129.625
X201.25Y-128.8
X201.275Y-127.95
X202.175Y-127.95
X202.175Y-128.8
X202.175Y-129.625
X205.25Y-127.0
X205.275Y-126.2
X205.3Y-122.025
X205.325Y-102.075
X205.325Y-121.225
X205.325Y-125.35
X205.35Y-97.075
X205.35Y-101.275
X205.375Y-96.275
X205.375Y-120.375
X205.4Y-100.425
X205.425Y-95.425
X206.15Y-127.025
X206.175Y-126.2
X206.2Y-122.05
X206.2Y-125.35
X206.225Y-102.1
X206.225Y-121.225
X206.25Y-97.1
X206.25Y-101.275
X206.25Y-120.375
X206.275Y-96.275
X206.275Y-100.425
X206.3Y-95.425
X207.1Y-125.35
X207.1Y-126.2
X207.1Y-127.025
X207.15Y-120.375
X207.15Y-121.225
X207.15Y-122.05
X207.175Y-100.425
X207.175Y-101.275
X207.175Y-102.1
X207.2Y-95.425
X207.2Y-96.275
X207.2Y-97.1
T2
X105.28Y-123.845
X163.787Y-118.688
X173.21Y-57.365
X180.875Y-57.375
T3
X182.38Y-113.145
T4
X105.25Y-120.35
X105.266Y-66.067
X115.25Y-66.125
X121.075Y-115.15
X124.225Y-66.1
X138.125Y-66.2
X168.125Y-132.25
X177.014Y-57.375
X180.63Y-112.74
X184.685Y-57.375
X198.575Y-82.2
T5
X86.82Y-121.43
X86.82Y-123.97
X88.2Y-102.3
X88.2Y-104.84
X88.2Y-116.0
X88.2Y-93.65
X88.2Y-96.19
X88.2Y-98.73
X88.2Y-108.38
X88.2Y-110.92
X88.2Y-113.46
X88.23Y-74.1
X88.23Y-76.64
X88.23Y-79.18
X88.23Y-81.72
X88.23Y-84.26
X89.5Y-62.85
X89.5Y-65.39
X90.77Y-74.1
X90.77Y-76.64
X90.77Y-79.18
X90.77Y-81.72
X90.77Y-84.26
X93.39Y-123.98
X95.93Y-123.98
X98.47Y-123.98
X101.01Y-123.98
X119.315Y-57.83
X121.855Y-57.83
X136.325Y-57.825
X136.62Y-134.98
X138.865Y-57.825
X139.16Y-134.98
X141.405Y-57.825
X141.7Y-134.98
X143.945Y-57.825
X144.24Y-134.98
X146.485Y-57.825
X146.78Y-134.98
X149.025Y-57.825
X149.32Y-134.98
X151.565Y-57.825
X151.86Y-134.98
X154.105Y-57.825
X156.645Y-57.825
X159.185Y-57.825
X201.875Y-57.3
X201.875Y-59.84
X202.74Y-132.455
X202.74Y-134.995
X205.17Y-105.9
X205.17Y-108.44
X205.17Y-110.98
X205.17Y-113.52
X205.17Y-116.06
X207.03Y-73.56
X207.03Y-76.1
X207.03Y-78.64
X207.03Y-81.18
X207.03Y-83.72
X207.03Y-86.26
M30
