%TF.GenerationSoftware,KiCad,Pcbnew,9.0.7*%
%TF.CreationDate,2026-03-05T15:08:44+11:00*%
%TF.ProjectId,daughterboard,64617567-6874-4657-9262-6f6172642e6b,rev?*%
%TF.SameCoordinates,Original*%
%TF.FileFunction,Copper,L2,Bot*%
%TF.FilePolarity,Positive*%
%FSLAX46Y46*%
G04 Gerber Fmt 4.6, Leading zero omitted, Abs format (unit mm)*
G04 Created by KiCad (PCBNEW 9.0.7) date 2026-03-05 15:08:44*
%MOMM*%
%LPD*%
G01*
G04 APERTURE LIST*
%TA.AperFunction,WasherPad*%
%ADD10C,2.520000*%
%TD*%
%TA.AperFunction,ComponentPad*%
%ADD11R,1.700000X1.700000*%
%TD*%
%TA.AperFunction,ComponentPad*%
%ADD12C,1.700000*%
%TD*%
%TA.AperFunction,ViaPad*%
%ADD13C,1.000000*%
%TD*%
%TA.AperFunction,ViaPad*%
%ADD14C,0.600000*%
%TD*%
%TA.AperFunction,ViaPad*%
%ADD15C,0.800000*%
%TD*%
%TA.AperFunction,ViaPad*%
%ADD16C,0.500000*%
%TD*%
%TA.AperFunction,Conductor*%
%ADD17C,0.200000*%
%TD*%
%TA.AperFunction,Conductor*%
%ADD18C,0.250000*%
%TD*%
%TA.AperFunction,Conductor*%
%ADD19C,0.300000*%
%TD*%
%TA.AperFunction,Conductor*%
%ADD20C,0.400000*%
%TD*%
G04 APERTURE END LIST*
D10*
%TO.P,U1,*%
%TO.N,*%
X170620000Y-115240000D03*
X170620000Y-135240000D03*
X190620000Y-115240000D03*
X190620000Y-135240000D03*
%TD*%
D11*
%TO.P,J7,1,Pin_1*%
%TO.N,+3V3*%
X88200002Y-108379996D03*
D12*
%TO.P,J7,2,Pin_2*%
%TO.N,CX*%
X88200002Y-110919997D03*
%TO.P,J7,3,Pin_3*%
%TO.N,CY*%
X88200003Y-113459998D03*
%TO.P,J7,4,Pin_4*%
%TO.N,GND*%
X88200000Y-116000000D03*
%TD*%
D11*
%TO.P,J6,1,Pin_1*%
%TO.N,HS*%
X101010001Y-123980000D03*
D12*
%TO.P,J6,2,Pin_2*%
%TO.N,HR*%
X98470000Y-123980000D03*
%TO.P,J6,3,Pin_3*%
%TO.N,HL*%
X95929999Y-123980001D03*
%TO.P,J6,4,Pin_4*%
%TO.N,GND*%
X93389997Y-123979998D03*
%TD*%
D11*
%TO.P,J11,1,Pin_1*%
%TO.N,R+*%
X86820000Y-121430000D03*
D12*
%TO.P,J11,2,Pin_2*%
%TO.N,R-*%
X86820000Y-123970000D03*
%TD*%
D11*
%TO.P,J4,1,Pin_1*%
%TO.N,CV*%
X119315001Y-57830000D03*
D12*
%TO.P,J4,2,Pin_2*%
%TO.N,GND*%
X121855002Y-57830000D03*
%TD*%
D11*
%TO.P,J3,1,Pin_1*%
%TO.N,A*%
X90770000Y-74100000D03*
D12*
%TO.P,J3,2,Pin_2*%
%TO.N,B*%
X88230000Y-74100000D03*
%TO.P,J3,3,Pin_3*%
%TO.N,X*%
X90770000Y-76640000D03*
%TO.P,J3,4,Pin_4*%
%TO.N,Y*%
X88230000Y-76640000D03*
%TO.P,J3,5,Pin_5*%
%TO.N,Z*%
X90770000Y-79180000D03*
%TO.P,J3,6,Pin_6*%
%TO.N,LEDB*%
X88230000Y-79180000D03*
%TO.P,J3,7,Pin_7*%
%TO.N,LEDG*%
X90770000Y-81720000D03*
%TO.P,J3,8,Pin_8*%
%TO.N,LEDR*%
X88230000Y-81720000D03*
%TO.P,J3,9,Pin_9*%
%TO.N,VSYS*%
X90770000Y-84260000D03*
%TO.P,J3,10,Pin_10*%
%TO.N,GND*%
X88230000Y-84260000D03*
%TD*%
D11*
%TO.P,J11,1,Pin_1*%
%TO.N,J2-2*%
X88200000Y-104840001D03*
D12*
%TO.P,J11,2,Pin_2*%
%TO.N,J2-1*%
X88200000Y-102300000D03*
%TD*%
D11*
%TO.P,J14,1,Pin_1*%
%TO.N,KEY*%
X89500000Y-62850000D03*
D12*
%TO.P,J14,2,Pin_2*%
%TO.N,GND*%
X89500000Y-65390000D03*
%TD*%
D11*
%TO.P,J10,1,Pin_1*%
%TO.N,L+*%
X202740000Y-132455000D03*
D12*
%TO.P,J10,2,Pin_2*%
%TO.N,L-*%
X202740000Y-134995000D03*
%TD*%
D11*
%TO.P,J13,1,Pin_1*%
%TO.N,+3V3*%
X201875000Y-57300000D03*
D12*
%TO.P,J13,2,Pin_2*%
%TO.N,MODE*%
X201875000Y-59840001D03*
%TD*%
D11*
%TO.P,J5,1,Pin_1*%
%TO.N,GND*%
X136325000Y-57825000D03*
D12*
%TO.P,J5,2,Pin_2*%
%TO.N,VVS*%
X138865001Y-57825000D03*
%TO.P,J5,3,Pin_3*%
%TO.N,VHS*%
X141405000Y-57824999D03*
%TO.P,J5,4,Pin_4*%
%TO.N,GND*%
X143945001Y-57825001D03*
%TO.P,J5,5,Pin_5*%
%TO.N,RED*%
X146485000Y-57825000D03*
%TO.P,J5,6,Pin_6*%
%TO.N,GND*%
X149025000Y-57825000D03*
%TO.P,J5,7,Pin_7*%
%TO.N,GREEN*%
X151565000Y-57824999D03*
%TO.P,J5,8,Pin_8*%
%TO.N,GND*%
X154105001Y-57824999D03*
%TO.P,J5,9,Pin_9*%
%TO.N,BLUE*%
X156645000Y-57825000D03*
%TO.P,J5,10,Pin_10*%
%TO.N,GND*%
X159184999Y-57825002D03*
%TD*%
D11*
%TO.P,J12,1,Pin_1*%
%TO.N,GND*%
X136620000Y-134980001D03*
D12*
%TO.P,J12,2,Pin_2*%
%TO.N,KEY*%
X139160001Y-134980001D03*
%TO.P,J12,3,Pin_3*%
%TO.N,GND*%
X141700000Y-134980000D03*
%TO.P,J12,4,Pin_4*%
%TO.N,VOL-*%
X144240001Y-134980002D03*
%TO.P,J12,5,Pin_5*%
%TO.N,VOL+*%
X146780000Y-134980001D03*
%TO.P,J12,6,Pin_6*%
%TO.N,BT*%
X149320000Y-134980001D03*
%TO.P,J12,7,Pin_7*%
%TO.N,+3V3*%
X151860000Y-134980000D03*
%TD*%
D11*
%TO.P,J8,1,Pin_1*%
%TO.N,GND*%
X207030000Y-73560000D03*
D12*
%TO.P,J8,2,Pin_2*%
%TO.N,S*%
X207030000Y-76100000D03*
%TO.P,J8,3,Pin_3*%
%TO.N,+3V3*%
X207030000Y-78640000D03*
%TO.P,J8,4,Pin_4*%
%TO.N,SX*%
X207030000Y-81180000D03*
%TO.P,J8,5,Pin_5*%
%TO.N,SY*%
X207030000Y-83720000D03*
%TO.P,J8,6,Pin_6*%
%TO.N,GND*%
X207030000Y-86260000D03*
%TD*%
D11*
%TO.P,J15,1,Pin_1*%
%TO.N,+1V8*%
X88200002Y-93650000D03*
D12*
%TO.P,J15,2,Pin_2*%
%TO.N,DP*%
X88200002Y-96190000D03*
%TO.P,J15,3,Pin_3*%
%TO.N,+3V3*%
X88200002Y-98730000D03*
%TD*%
D11*
%TO.P,J9,1,Pin_1*%
%TO.N,DL*%
X205170000Y-105900000D03*
D12*
%TO.P,J9,2,Pin_2*%
%TO.N,DR*%
X205170000Y-108440000D03*
%TO.P,J9,3,Pin_3*%
%TO.N,DD*%
X205170000Y-110980000D03*
%TO.P,J9,4,Pin_4*%
%TO.N,DU*%
X205170000Y-113520000D03*
%TO.P,J9,5,Pin_5*%
%TO.N,GND*%
X205170000Y-116060000D03*
%TD*%
D13*
%TO.N,GND*%
X138125000Y-66200000D03*
D14*
X142225000Y-114600000D03*
X205350000Y-97075000D03*
X130325000Y-133850000D03*
X176225000Y-65425000D03*
X92800000Y-59575000D03*
X94650000Y-59600000D03*
X196225000Y-135325000D03*
X99650000Y-69575000D03*
X92825000Y-58775000D03*
X134000000Y-69075000D03*
X145375000Y-65400000D03*
X130300000Y-113725000D03*
X100325000Y-81250000D03*
X180350000Y-65400000D03*
X86725000Y-89600000D03*
X97800000Y-69550000D03*
X136250000Y-114575000D03*
X193700000Y-78750000D03*
X86725000Y-87925000D03*
X147150000Y-67075000D03*
D13*
X105250000Y-120350000D03*
D14*
X102150000Y-81250000D03*
X202175000Y-128800000D03*
X112150000Y-66000000D03*
X151225000Y-112875000D03*
X132150000Y-134675000D03*
X151200000Y-66250000D03*
X206200000Y-125350000D03*
X205425000Y-95425000D03*
X102150000Y-82075000D03*
X195350000Y-135325000D03*
X156200000Y-113725000D03*
X100375000Y-101275000D03*
X206275000Y-100425000D03*
X150275000Y-67050000D03*
X147200000Y-113725000D03*
X205275000Y-126200000D03*
X85800000Y-88775000D03*
X198700000Y-72050000D03*
X177125000Y-66275000D03*
D13*
X168125000Y-132250000D03*
D14*
X166225000Y-66275000D03*
X100425000Y-85425000D03*
X152125000Y-112875000D03*
X101250000Y-76350000D03*
X200325000Y-129600000D03*
X201225000Y-129625000D03*
X136300000Y-112900000D03*
X177125000Y-67100000D03*
X95325000Y-91225000D03*
X197225000Y-99575000D03*
X160300000Y-67075000D03*
X129909999Y-65500000D03*
X104675000Y-112950000D03*
X163700000Y-127050000D03*
X101300000Y-85425000D03*
X97150000Y-90375000D03*
X97825000Y-68750000D03*
X182125000Y-65400000D03*
X145325000Y-66250000D03*
X151175000Y-67075000D03*
X135350000Y-114550000D03*
X151200000Y-113725000D03*
X127925000Y-65500000D03*
X196275000Y-99575000D03*
X192775000Y-79550000D03*
X100350000Y-102075000D03*
X206250000Y-120375000D03*
D13*
X124225000Y-66100000D03*
D14*
X152125000Y-113725000D03*
X164650000Y-125375000D03*
X195300000Y-136175000D03*
X193725000Y-85375000D03*
X161200000Y-67100000D03*
X101300000Y-100425000D03*
X145300000Y-67050000D03*
X102850000Y-113800000D03*
X147150000Y-66250000D03*
X102200000Y-100425000D03*
X95300000Y-92025000D03*
X100300000Y-59550000D03*
X94650000Y-57925000D03*
X194625000Y-87050000D03*
X198750000Y-70375000D03*
X97150000Y-91225000D03*
X100375000Y-90350000D03*
X175275000Y-67075000D03*
X206150000Y-127025000D03*
X170275000Y-66300000D03*
X101200000Y-92025000D03*
X197825000Y-66225000D03*
X167150000Y-66275000D03*
X101225000Y-77175000D03*
X101275000Y-75500000D03*
X95375000Y-90375000D03*
X100425000Y-105400000D03*
X205400000Y-100425000D03*
X150350000Y-65400000D03*
X165300000Y-67075000D03*
X207150000Y-122050000D03*
X192850000Y-85375000D03*
X200400000Y-127950000D03*
X162150000Y-65425000D03*
X194625000Y-78750000D03*
X102200000Y-107075000D03*
X147200000Y-114550000D03*
X102150000Y-90350000D03*
X182125000Y-66250000D03*
X96300000Y-106250000D03*
X200350000Y-128800000D03*
X101250000Y-57900000D03*
X146200000Y-67075000D03*
X201275000Y-127950000D03*
X92875000Y-57925000D03*
X155325000Y-66225000D03*
X206275000Y-96275000D03*
X102200000Y-102100000D03*
X161250000Y-65425000D03*
X96250000Y-90375000D03*
X100300000Y-82050000D03*
X95450000Y-105400000D03*
X157125000Y-112875000D03*
X176200000Y-66275000D03*
X207175000Y-102100000D03*
X128925000Y-65500000D03*
X102200000Y-106250000D03*
X161225000Y-66275000D03*
X207200000Y-97100000D03*
X199650000Y-71225000D03*
X196200000Y-136175000D03*
X100325000Y-91200000D03*
X198700000Y-67050000D03*
X137200000Y-114575000D03*
X150300000Y-113725000D03*
X97225000Y-105400000D03*
X101200000Y-59575000D03*
X194625000Y-85375000D03*
X97225000Y-107075000D03*
X167150000Y-67100000D03*
X85825000Y-87925000D03*
X130350000Y-112875000D03*
X207150000Y-121225000D03*
X207200000Y-96275000D03*
X101250000Y-80400000D03*
X102150000Y-91200000D03*
X102825000Y-114600000D03*
X175350000Y-65425000D03*
X95375000Y-107050000D03*
X180300000Y-66250000D03*
X145375000Y-113725000D03*
X207100000Y-126200000D03*
X145350000Y-114525000D03*
X151225000Y-65400000D03*
X100300000Y-92000000D03*
X192800000Y-86225000D03*
X102150000Y-58750000D03*
X205325000Y-102075000D03*
X166200000Y-67100000D03*
X130550000Y-66125000D03*
X93750000Y-57925000D03*
X102200000Y-85425000D03*
X140375000Y-114575000D03*
X131175000Y-114550000D03*
X102200000Y-105400000D03*
X197800000Y-72025000D03*
X100325000Y-58750000D03*
X156175000Y-114550000D03*
X205325000Y-121225000D03*
X102150000Y-57900000D03*
X164650000Y-127050000D03*
D13*
X105266441Y-66067138D03*
D14*
X205250000Y-127000000D03*
X171200000Y-65450000D03*
X197125000Y-136175000D03*
X147150000Y-65400000D03*
X206200000Y-122050000D03*
X101300000Y-105400000D03*
X94650000Y-118800000D03*
X199650000Y-67050000D03*
X198725000Y-66225000D03*
X132125000Y-114550000D03*
X146225000Y-66250000D03*
X103725000Y-114625000D03*
X194625000Y-86225000D03*
X140450000Y-112925000D03*
X141275000Y-114600000D03*
X197225000Y-98750000D03*
X97225000Y-106250000D03*
X206250000Y-97100000D03*
X102175000Y-77175000D03*
X181175000Y-67075000D03*
X206175000Y-126200000D03*
X132125000Y-113725000D03*
X157125000Y-114550000D03*
X150300000Y-66250000D03*
X195375000Y-99550000D03*
X171175000Y-66300000D03*
X96250000Y-112825000D03*
X152125000Y-65400000D03*
X85775000Y-89600000D03*
X152125000Y-66250000D03*
X93725000Y-118800000D03*
X201250000Y-128800000D03*
X194625000Y-79575000D03*
X163725000Y-126225000D03*
X131225000Y-133850000D03*
X97150000Y-112825000D03*
X206250000Y-101275000D03*
X156225000Y-112875000D03*
X165325000Y-66275000D03*
X96225000Y-113675000D03*
X193675000Y-79575000D03*
X97150000Y-92050000D03*
X205325000Y-125350000D03*
X93700000Y-119625000D03*
X93725000Y-58775000D03*
X137200000Y-112900000D03*
X94650000Y-119625000D03*
X102175000Y-76350000D03*
X132125000Y-112875000D03*
X130275000Y-114525000D03*
X162150000Y-66275000D03*
X193725000Y-77900000D03*
X102150000Y-92025000D03*
X193675000Y-87050000D03*
X163750000Y-125375000D03*
X104675000Y-114625000D03*
X142225000Y-112925000D03*
D13*
X184685003Y-57375006D03*
D14*
X101275000Y-101275000D03*
X101225000Y-81250000D03*
X155375000Y-65375000D03*
X197800000Y-67025000D03*
X101250000Y-102100000D03*
X101275000Y-106250000D03*
X193700000Y-86225000D03*
X206225000Y-121225000D03*
X102200000Y-86275000D03*
X101200000Y-82075000D03*
X157150000Y-65375000D03*
X101250000Y-90350000D03*
X205350000Y-101275000D03*
X207175000Y-100425000D03*
X202175000Y-127950000D03*
X101250000Y-107075000D03*
X100375000Y-106250000D03*
X206225000Y-102100000D03*
X100400000Y-75500000D03*
X181200000Y-66250000D03*
X99650000Y-67900000D03*
X196325000Y-97900000D03*
X136275000Y-113750000D03*
X197875000Y-65375000D03*
X95400000Y-106250000D03*
X197225000Y-97900000D03*
X101275000Y-86275000D03*
X198750000Y-65375000D03*
X194625000Y-77900000D03*
X95325000Y-113675000D03*
X199650000Y-70375000D03*
X100425000Y-100425000D03*
X165375000Y-65425000D03*
X182125000Y-67075000D03*
X197125000Y-135325000D03*
X206300000Y-95425000D03*
X155275000Y-114525000D03*
X142225000Y-113775000D03*
X102150000Y-80400000D03*
X100350000Y-87075000D03*
X101225000Y-91200000D03*
X98725000Y-68750000D03*
X207175000Y-101275000D03*
X198725000Y-71225000D03*
X102200000Y-87100000D03*
X202175000Y-129625000D03*
X93700000Y-59600000D03*
X141300000Y-113775000D03*
X162825000Y-126225000D03*
X100375000Y-86275000D03*
X207200000Y-95425000D03*
X156200000Y-67050000D03*
X100325000Y-77150000D03*
X170325000Y-65450000D03*
X102900000Y-112950000D03*
X95375000Y-112825000D03*
X132150000Y-133850000D03*
X205300000Y-122025000D03*
X145425000Y-112875000D03*
X102200000Y-101275000D03*
X192775000Y-87025000D03*
X160375000Y-65425000D03*
X166250000Y-65425000D03*
X152125000Y-114550000D03*
X177125000Y-65425000D03*
D13*
X121075000Y-115150000D03*
D14*
X147200000Y-112875000D03*
X205375000Y-120375000D03*
X100350000Y-107050000D03*
X102175000Y-75500000D03*
X156250000Y-65375000D03*
X192850000Y-77900000D03*
X167150000Y-65425000D03*
X104675000Y-113800000D03*
X157150000Y-67050000D03*
X162150000Y-67100000D03*
X205375000Y-96275000D03*
X135375000Y-113750000D03*
X151175000Y-114550000D03*
X96200000Y-92050000D03*
X100350000Y-76350000D03*
X197875000Y-70375000D03*
X207100000Y-125350000D03*
X92800000Y-119600000D03*
X96325000Y-105400000D03*
X199650000Y-72050000D03*
X135425000Y-112900000D03*
X101250000Y-87100000D03*
X96275000Y-107075000D03*
X137200000Y-113750000D03*
X96225000Y-91225000D03*
X196300000Y-98750000D03*
X141325000Y-112925000D03*
X172100000Y-67125000D03*
X199650000Y-65375000D03*
X100375000Y-57900000D03*
X146275000Y-113725000D03*
X176175000Y-67100000D03*
X150350000Y-112875000D03*
X156225000Y-66225000D03*
X199650000Y-66225000D03*
X131200000Y-113725000D03*
X162875000Y-125375000D03*
X180275000Y-67050000D03*
X99650000Y-68750000D03*
X146300000Y-112875000D03*
X155350000Y-112875000D03*
X175300000Y-66275000D03*
X131225000Y-112875000D03*
X98700000Y-69575000D03*
X155300000Y-113725000D03*
X207150000Y-120375000D03*
X152125000Y-67075000D03*
X146250000Y-65400000D03*
X131200000Y-134675000D03*
X155300000Y-67025000D03*
X171150000Y-67125000D03*
X157150000Y-66225000D03*
X86725000Y-88775000D03*
X102150000Y-59575000D03*
X150275000Y-114525000D03*
X100375000Y-80400000D03*
X94650000Y-58775000D03*
X92825000Y-118800000D03*
X97150000Y-113675000D03*
X195400000Y-98750000D03*
D13*
X115250000Y-66125000D03*
D14*
X140400000Y-113775000D03*
X97875000Y-67900000D03*
X197825000Y-71225000D03*
D13*
X180630000Y-112740000D03*
D14*
X207100000Y-127025000D03*
X172100000Y-65450000D03*
X130300000Y-134650000D03*
X146250000Y-114550000D03*
X195450000Y-97900000D03*
X192800000Y-78750000D03*
X164650000Y-126225000D03*
X98750000Y-67900000D03*
X160325000Y-66275000D03*
X172100000Y-66300000D03*
X126925000Y-65500000D03*
X181225000Y-65400000D03*
X103750000Y-113800000D03*
X101225000Y-58750000D03*
X170250000Y-67100000D03*
X103775000Y-112950000D03*
X157125000Y-113725000D03*
X162800000Y-127025000D03*
%TO.N,HS*%
X119310000Y-115115000D03*
%TO.N,RA*%
X168120000Y-130500000D03*
X166975000Y-116000000D03*
%TO.N,LEDR*%
X134275000Y-64900000D03*
%TO.N,IR*%
X155725000Y-135630000D03*
X135950000Y-69450000D03*
X165300000Y-113950000D03*
X165775000Y-108625000D03*
%TO.N,LT*%
X193120000Y-130500000D03*
X194100000Y-116575000D03*
%TO.N,LA*%
X195050000Y-116575000D03*
X193120000Y-132250000D03*
%TO.N,WS*%
X130400000Y-69025000D03*
X114060000Y-115115000D03*
%TO.N,D*%
X112310000Y-115115000D03*
X129400000Y-69025000D03*
%TO.N,+1V8*%
X131650000Y-65740000D03*
%TO.N,BT*%
X133426851Y-69797000D03*
%TO.N,LEDB*%
X133409995Y-66575000D03*
%TO.N,IL*%
X164875000Y-108180000D03*
X165275000Y-113150000D03*
X126380000Y-127345000D03*
X134975000Y-69450000D03*
%TO.N,C*%
X110560000Y-115115000D03*
X128400000Y-69025000D03*
%TO.N,MC*%
X127400000Y-69025000D03*
X108810000Y-115115000D03*
%TO.N,LEDG*%
X133950000Y-65700000D03*
%TO.N,VSYS*%
X85775000Y-68875000D03*
D15*
X173210007Y-57365005D03*
D16*
%TO.N,HR*%
X117560000Y-115115000D03*
D14*
%TO.N,HL*%
X115810000Y-115115000D03*
D15*
%TO.N,+3V3*%
X180875000Y-57375000D03*
X163787500Y-118687500D03*
X182380000Y-113145000D03*
X105280000Y-123845000D03*
D14*
%TO.N,CY*%
X160112500Y-110562500D03*
X173630000Y-112740000D03*
%TO.N,CX*%
X175380000Y-112740000D03*
X161362500Y-110212500D03*
%TO.N,SY*%
X193775000Y-104975000D03*
X177130000Y-112740000D03*
%TO.N,SX*%
X192900000Y-107300000D03*
X178880000Y-112740000D03*
%TO.N,L-*%
X161323000Y-132150000D03*
X155950000Y-117600000D03*
X152600000Y-119401000D03*
%TO.N,L+*%
X157150000Y-135775000D03*
X154450000Y-135850000D03*
%TO.N,R+*%
X126380000Y-120345000D03*
X104362500Y-135962500D03*
%TO.N,R-*%
X126380000Y-122095000D03*
%TO.N,KEY*%
X165270000Y-112350000D03*
D13*
%TO.N,5V*%
X198575000Y-82200000D03*
X177014205Y-57375008D03*
D14*
%TO.N,DP*%
X106990000Y-115090000D03*
%TO.N,J2-1*%
X103100000Y-119425000D03*
X108500000Y-124675000D03*
%TO.N,J2-2*%
X103625000Y-118700000D03*
X109325000Y-123475000D03*
%TD*%
D17*
%TO.N,HS*%
X103020000Y-118020000D02*
X101010001Y-120029999D01*
X119310000Y-115115000D02*
X116405000Y-118020000D01*
X101010001Y-120029999D02*
X101010001Y-123980000D01*
X116405000Y-118020000D02*
X103020000Y-118020000D01*
%TO.N,RA*%
X166975000Y-116000000D02*
X166975000Y-129355000D01*
X166975000Y-129355000D02*
X168120000Y-130500000D01*
D18*
%TO.N,LEDR*%
X88826380Y-71173000D02*
X86726380Y-71173000D01*
X85523000Y-72376380D02*
X85523000Y-78773926D01*
X86726380Y-71173000D02*
X85523000Y-72376380D01*
X99201380Y-60798000D02*
X88826380Y-71173000D01*
X85523000Y-78773926D02*
X87744074Y-80995000D01*
X133375620Y-64900000D02*
X129273620Y-60798000D01*
X134275000Y-64900000D02*
X133375620Y-64900000D01*
X87744074Y-81234074D02*
X88230000Y-81720000D01*
X87744074Y-80995000D02*
X87744074Y-81234074D01*
X129273620Y-60798000D02*
X99201380Y-60798000D01*
D17*
%TO.N,IR*%
X135950000Y-69875000D02*
X136473000Y-70398000D01*
X162122200Y-113152000D02*
X164159900Y-113152000D01*
X166018000Y-108382000D02*
X165775000Y-108625000D01*
X135950000Y-69450000D02*
X135950000Y-69875000D01*
X188932000Y-107252142D02*
X187802142Y-108382000D01*
X158891750Y-134659550D02*
X160723000Y-132828300D01*
X164159900Y-113152000D02*
X164957900Y-113950000D01*
X160723000Y-132828300D02*
X160723000Y-114551200D01*
X155725000Y-135630000D02*
X156695450Y-134659550D01*
X188932000Y-71332000D02*
X188932000Y-107252142D01*
X166175000Y-108382000D02*
X166018000Y-108382000D01*
X160723000Y-114551200D02*
X162122200Y-113152000D01*
X164957900Y-113950000D02*
X165300000Y-113950000D01*
X187802142Y-108382000D02*
X166175000Y-108382000D01*
X187998000Y-70398000D02*
X188932000Y-71332000D01*
X156695450Y-134659550D02*
X158891750Y-134659550D01*
X136473000Y-70398000D02*
X187998000Y-70398000D01*
%TO.N,LT*%
X194550000Y-129070000D02*
X193120000Y-130500000D01*
X194100000Y-116950000D02*
X194550000Y-117400000D01*
X194100000Y-116575000D02*
X194100000Y-116950000D01*
X194550000Y-117400000D02*
X194550000Y-129070000D01*
%TO.N,LA*%
X195050000Y-130320000D02*
X193120000Y-132250000D01*
X195050000Y-116575000D02*
X195050000Y-130320000D01*
%TO.N,WS*%
X130400000Y-69025000D02*
X130400000Y-69817100D01*
X105649000Y-71551058D02*
X105649000Y-107048942D01*
X130400000Y-69817100D02*
X129018100Y-71199000D01*
X129018100Y-71199000D02*
X106001058Y-71199000D01*
X110480000Y-107800000D02*
X114060000Y-111380000D01*
X106001058Y-71199000D02*
X105649000Y-71551058D01*
X106400058Y-107800000D02*
X110480000Y-107800000D01*
X113890000Y-115115000D02*
X114060000Y-115115000D01*
X105649000Y-107048942D02*
X106400058Y-107800000D01*
X114060000Y-111380000D02*
X114060000Y-115115000D01*
%TO.N,D*%
X106233900Y-108201000D02*
X109611000Y-108201000D01*
X105834958Y-70798000D02*
X105248000Y-71384958D01*
X109611000Y-108201000D02*
X112310000Y-110900000D01*
X112310000Y-110900000D02*
X112310000Y-115115000D01*
X129400000Y-69025000D02*
X129400000Y-69600000D01*
X129400000Y-69600000D02*
X128202000Y-70798000D01*
X128202000Y-70798000D02*
X105834958Y-70798000D01*
X105248000Y-107215100D02*
X106233900Y-108201000D01*
X105248000Y-71384958D02*
X105248000Y-107215100D01*
D19*
%TO.N,+1V8*%
X88200002Y-89874998D02*
X92500000Y-85575000D01*
X131650000Y-65123166D02*
X131650000Y-65740000D01*
X128702834Y-62176000D02*
X131650000Y-65123166D01*
X99772166Y-62176000D02*
X128702834Y-62176000D01*
X92500000Y-85575000D02*
X92500000Y-69448166D01*
X88200002Y-93650000D02*
X88200002Y-89874998D01*
X92500000Y-69448166D02*
X99772166Y-62176000D01*
D17*
%TO.N,BT*%
X160610000Y-107580000D02*
X159520000Y-108670000D01*
X135459000Y-71199000D02*
X135631900Y-71199000D01*
X187649942Y-71200000D02*
X188130000Y-71680058D01*
X159520000Y-108670000D02*
X159520000Y-110305057D01*
X159511500Y-110313557D02*
X159511500Y-110811443D01*
X159511500Y-110811443D02*
X159520000Y-110819943D01*
X187469942Y-107580000D02*
X160610000Y-107580000D01*
X150930001Y-133370000D02*
X149320000Y-134980001D01*
X135631900Y-71199000D02*
X135632900Y-71200000D01*
X159520000Y-110819943D02*
X159520000Y-132330000D01*
X159520000Y-110305057D02*
X159511500Y-110313557D01*
X188130000Y-106919942D02*
X187469942Y-107580000D01*
X135632900Y-71200000D02*
X187649942Y-71200000D01*
X188130000Y-71680058D02*
X188130000Y-106919942D01*
X134057000Y-69797000D02*
X135459000Y-71199000D01*
X159520000Y-132330000D02*
X158480000Y-133370000D01*
X158480000Y-133370000D02*
X150930001Y-133370000D01*
X133426851Y-69797000D02*
X134057000Y-69797000D01*
D18*
%TO.N,LEDB*%
X128900000Y-61700000D02*
X99575000Y-61700000D01*
X87100000Y-72075000D02*
X86425000Y-72750000D01*
X89200000Y-72075000D02*
X87100000Y-72075000D01*
X133409995Y-66209995D02*
X128900000Y-61700000D01*
X86425000Y-72750000D02*
X86425000Y-77375000D01*
X99575000Y-61700000D02*
X89200000Y-72075000D01*
X133409995Y-66575000D02*
X133409995Y-66209995D01*
X86425000Y-77375000D02*
X88230000Y-79180000D01*
D17*
%TO.N,IL*%
X160322000Y-114385100D02*
X160322000Y-132662200D01*
X152716100Y-136551000D02*
X140163900Y-136551000D01*
X158725650Y-134258550D02*
X155008550Y-134258550D01*
X139762900Y-136150000D02*
X127675000Y-136150000D01*
X165074000Y-107981000D02*
X187636042Y-107981000D01*
X188531000Y-71513958D02*
X188425000Y-71407958D01*
X187636042Y-107981000D02*
X188531000Y-107086042D01*
X165275000Y-113150000D02*
X164725000Y-113150000D01*
X160322000Y-132662200D02*
X158725650Y-134258550D01*
X135799000Y-70799000D02*
X134975000Y-69975000D01*
X155008550Y-134258550D02*
X152716100Y-136551000D01*
X140163900Y-136551000D02*
X139762900Y-136150000D01*
X161956100Y-112751000D02*
X160322000Y-114385100D01*
X187824000Y-70799000D02*
X135799000Y-70799000D01*
X188531000Y-107086042D02*
X188531000Y-71513958D01*
X164725000Y-113150000D02*
X164326000Y-112751000D01*
X164326000Y-112751000D02*
X161956100Y-112751000D01*
X188425000Y-71407958D02*
X188425000Y-71400000D01*
X127675000Y-136150000D02*
X126375000Y-134850000D01*
X164875000Y-108180000D02*
X165074000Y-107981000D01*
X126375000Y-127350000D02*
X126380000Y-127345000D01*
X126375000Y-134850000D02*
X126375000Y-127350000D01*
X134975000Y-69975000D02*
X134975000Y-69450000D01*
X188425000Y-71400000D02*
X187824000Y-70799000D01*
%TO.N,C*%
X110600000Y-115075000D02*
X110560000Y-115115000D01*
X128400000Y-69025000D02*
X128400000Y-69470000D01*
X128400000Y-69470000D02*
X127473000Y-70397000D01*
X127473000Y-70397000D02*
X105668858Y-70397000D01*
X105668858Y-70397000D02*
X104847000Y-71218858D01*
X108712000Y-108602000D02*
X110560000Y-110450000D01*
X104847000Y-71218858D02*
X104847000Y-107381200D01*
X110560000Y-110450000D02*
X110560000Y-115115000D01*
X106067800Y-108602000D02*
X108712000Y-108602000D01*
X104847000Y-107381200D02*
X106067800Y-108602000D01*
%TO.N,MC*%
X108810000Y-110160000D02*
X108810000Y-115115000D01*
X104446000Y-107547300D02*
X105901700Y-109003000D01*
X104446000Y-71052758D02*
X104446000Y-107547300D01*
X105502758Y-69996000D02*
X104446000Y-71052758D01*
X126429000Y-69996000D02*
X105502758Y-69996000D01*
X107653000Y-109003000D02*
X108810000Y-110160000D01*
X105901700Y-109003000D02*
X107653000Y-109003000D01*
X127400000Y-69025000D02*
X126429000Y-69996000D01*
D18*
%TO.N,LEDG*%
X133950000Y-65700000D02*
X133537810Y-65700000D01*
X129086810Y-61249000D02*
X99388190Y-61249000D01*
X99388190Y-61249000D02*
X89013190Y-71624000D01*
X89013190Y-71624000D02*
X86913190Y-71624000D01*
X89594000Y-80544000D02*
X90770000Y-81720000D01*
X85974000Y-78587116D02*
X87930884Y-80544000D01*
X87930884Y-80544000D02*
X89594000Y-80544000D01*
X85974000Y-72563190D02*
X85974000Y-78587116D01*
X133537810Y-65700000D02*
X129086810Y-61249000D01*
X86913190Y-71624000D02*
X85974000Y-72563190D01*
%TO.N,VSYS*%
X86848112Y-67801888D02*
X85775000Y-68875000D01*
X86866000Y-63000725D02*
X86866000Y-63259298D01*
X86866000Y-63259298D02*
X86865676Y-63259622D01*
X86874490Y-56225510D02*
X86866000Y-63000725D01*
X173210007Y-57365005D02*
X171476545Y-55631543D01*
X171476545Y-55631543D02*
X87454204Y-55645796D01*
X86865675Y-63260082D02*
X86848112Y-63277601D01*
X86865676Y-63259622D02*
X86865675Y-63260082D01*
X87454204Y-55645796D02*
X86874490Y-56225510D01*
X86848112Y-63277601D02*
X86848112Y-67801888D01*
D17*
%TO.N,HR*%
X98470000Y-122002900D02*
X102853900Y-117619000D01*
X98470000Y-123980000D02*
X98470000Y-122002900D01*
X117560000Y-115670000D02*
X117560000Y-115115000D01*
X102853900Y-117619000D02*
X115611000Y-117619000D01*
X115611000Y-117619000D02*
X117560000Y-115670000D01*
%TO.N,HL*%
X102687800Y-117218000D02*
X114852000Y-117218000D01*
X114852000Y-117218000D02*
X115810000Y-116260000D01*
X115810000Y-116260000D02*
X115810000Y-115115000D01*
X95929999Y-123975801D02*
X102687800Y-117218000D01*
X95929999Y-123980001D02*
X95929999Y-123975801D01*
D19*
%TO.N,+3V3*%
X86250000Y-106429994D02*
X88200002Y-108379996D01*
X88825000Y-122875000D02*
X91131000Y-125181000D01*
X86250000Y-100680002D02*
X86250000Y-106429994D01*
X180875000Y-57375000D02*
X180875000Y-57550000D01*
X165400000Y-114950000D02*
X167300000Y-114950000D01*
X182380000Y-113145000D02*
X182785000Y-112740000D01*
X201640000Y-78640000D02*
X207030000Y-78640000D01*
X163787500Y-116562500D02*
X165400000Y-114950000D01*
X91131000Y-125181000D02*
X103944000Y-125181000D01*
X180875000Y-57550000D02*
X183925000Y-60600000D01*
X182785000Y-112740000D02*
X189060000Y-112740000D01*
X183925000Y-60600000D02*
X195175000Y-60600000D01*
X181425000Y-114100000D02*
X182380000Y-113145000D01*
X195175000Y-60600000D02*
X198575000Y-60600000D01*
X88825000Y-121175000D02*
X88825000Y-122875000D01*
X103944000Y-125181000D02*
X105280000Y-123845000D01*
X189060000Y-112740000D02*
X201640000Y-100160000D01*
X198575000Y-60600000D02*
X201875000Y-57300000D01*
X88200002Y-108379996D02*
X86450000Y-110129998D01*
X86450000Y-110129998D02*
X86450000Y-118800000D01*
X195175000Y-60600000D02*
X195175000Y-72175000D01*
X163787500Y-118687500D02*
X163787500Y-116562500D01*
X88200002Y-98730000D02*
X86250000Y-100680002D01*
X167300000Y-114950000D02*
X170875000Y-118525000D01*
X201640000Y-100160000D02*
X201640000Y-78640000D01*
X86450000Y-118800000D02*
X88825000Y-121175000D01*
X170875000Y-118525000D02*
X174450000Y-118525000D01*
X195175000Y-72175000D02*
X201640000Y-78640000D01*
X174450000Y-118525000D02*
X178875000Y-114100000D01*
X178875000Y-114100000D02*
X181425000Y-114100000D01*
D17*
%TO.N,CY*%
X173630000Y-111205000D02*
X173630000Y-112740000D01*
X160363500Y-110813500D02*
X173238500Y-110813500D01*
X173238500Y-110813500D02*
X173630000Y-111205000D01*
X160112500Y-110562500D02*
X160363500Y-110813500D01*
%TO.N,CX*%
X161525000Y-110375000D02*
X174200000Y-110375000D01*
X174200000Y-110375000D02*
X175380000Y-111555000D01*
X175380000Y-111555000D02*
X175380000Y-112740000D01*
X161362500Y-110212500D02*
X161525000Y-110375000D01*
%TO.N,SY*%
X191133900Y-106899000D02*
X187408900Y-110624000D01*
X179193900Y-110624000D02*
X179192900Y-110625000D01*
X179192900Y-110625000D02*
X178075000Y-110625000D01*
X191851000Y-106899000D02*
X191133900Y-106899000D01*
X178075000Y-110625000D02*
X177130000Y-111570000D01*
X187408900Y-110624000D02*
X179193900Y-110624000D01*
X193775000Y-104975000D02*
X191851000Y-106899000D01*
X177130000Y-111570000D02*
X177130000Y-112740000D01*
%TO.N,SX*%
X178880000Y-111505000D02*
X178880000Y-112740000D01*
X192900000Y-107300000D02*
X191300000Y-107300000D01*
X191300000Y-107300000D02*
X187575000Y-111025000D01*
X179360000Y-111025000D02*
X178880000Y-111505000D01*
X187575000Y-111025000D02*
X179360000Y-111025000D01*
%TO.N,L-*%
X153224000Y-119401000D02*
X152600000Y-119401000D01*
X162673000Y-133500000D02*
X201245000Y-133500000D01*
X155950000Y-117600000D02*
X155025000Y-117600000D01*
X161323000Y-132150000D02*
X162673000Y-133500000D01*
X155025000Y-117600000D02*
X153224000Y-119401000D01*
X201245000Y-133500000D02*
X202740000Y-134995000D01*
%TO.N,L+*%
X154875000Y-136275000D02*
X154450000Y-135850000D01*
X157150000Y-135775000D02*
X156700000Y-135775000D01*
X156700000Y-135775000D02*
X156200000Y-136275000D01*
X156200000Y-136275000D02*
X154875000Y-136275000D01*
%TO.N,R+*%
X124599000Y-122126000D02*
X126380000Y-120345000D01*
X104362500Y-135962500D02*
X104828000Y-136428000D01*
X124379900Y-136428000D02*
X124599000Y-136208900D01*
X124599000Y-136208900D02*
X124599000Y-122126000D01*
X104828000Y-136428000D02*
X124379900Y-136428000D01*
%TO.N,R-*%
X103575055Y-125955112D02*
X103750775Y-126130514D01*
X103750776Y-126131213D02*
X103751268Y-126131706D01*
X103760009Y-136335009D02*
X104254000Y-136829000D01*
X90750000Y-125750000D02*
X103369624Y-125750000D01*
X103751268Y-126131706D02*
X103751001Y-126380258D01*
X125000000Y-136375000D02*
X125000000Y-123475000D01*
X103750775Y-126130514D02*
X103750776Y-126131213D01*
X103751001Y-126380258D02*
X103760009Y-136335009D01*
X103399590Y-125779268D02*
X103575055Y-125955112D01*
X103369624Y-125750000D02*
X103398891Y-125779267D01*
X125000000Y-123475000D02*
X126380000Y-122095000D01*
X88970000Y-123970000D02*
X90750000Y-125750000D01*
X86820000Y-123970000D02*
X88970000Y-123970000D01*
X104254000Y-136829000D02*
X124546000Y-136829000D01*
X103398891Y-125779267D02*
X103399590Y-125779268D01*
X124546000Y-136829000D02*
X125000000Y-136375000D01*
%TO.N,KEY*%
X161790000Y-112350000D02*
X159921000Y-114219000D01*
X152550000Y-136150000D02*
X140330000Y-136150000D01*
X159921000Y-114219000D02*
X159921000Y-132496100D01*
X165270000Y-112350000D02*
X161790000Y-112350000D01*
X159921000Y-132496100D02*
X158646100Y-133771000D01*
X140330000Y-136150000D02*
X139160001Y-134980001D01*
X154929000Y-133771000D02*
X152550000Y-136150000D01*
X158646100Y-133771000D02*
X154929000Y-133771000D01*
D20*
%TO.N,5V*%
X198575000Y-77950000D02*
X198575000Y-82200000D01*
X180625000Y-61575000D02*
X182200000Y-61575000D01*
X177014205Y-57964205D02*
X180625000Y-61575000D01*
X182200000Y-61575000D02*
X198575000Y-77950000D01*
X177014205Y-57375008D02*
X177014205Y-57964205D01*
D17*
%TO.N,DP*%
X107450000Y-114630000D02*
X107450000Y-109875000D01*
X104045000Y-98520000D02*
X101715000Y-96190000D01*
X101715000Y-96190000D02*
X88200002Y-96190000D01*
X104045000Y-107713400D02*
X104045000Y-98520000D01*
X106990000Y-115090000D02*
X107450000Y-114630000D01*
X107450000Y-109875000D02*
X106979000Y-109404000D01*
X106979000Y-109404000D02*
X105735600Y-109404000D01*
X105735600Y-109404000D02*
X104045000Y-107713400D01*
%TO.N,J2-1*%
X104175000Y-119100000D02*
X106175000Y-119100000D01*
X106175000Y-119100000D02*
X108500000Y-121425000D01*
X103850000Y-119425000D02*
X104175000Y-119100000D01*
X108500000Y-121425000D02*
X108500000Y-124675000D01*
X103100000Y-119425000D02*
X103850000Y-119425000D01*
%TO.N,J2-2*%
X109325000Y-123475000D02*
X109325000Y-121682900D01*
X106341100Y-118699000D02*
X103626000Y-118699000D01*
X109325000Y-121682900D02*
X106341100Y-118699000D01*
X103626000Y-118699000D02*
X103625000Y-118700000D01*
%TD*%
%TA.AperFunction,Conductor*%
%TO.N,GND*%
G36*
X203592522Y-55520279D02*
G01*
X203638286Y-55573075D01*
X203649500Y-55624606D01*
X203649500Y-63055891D01*
X203683608Y-63183187D01*
X203691982Y-63197691D01*
X203749500Y-63297314D01*
X203842686Y-63390500D01*
X203956814Y-63456392D01*
X204084108Y-63490500D01*
X204215892Y-63490500D01*
X210095500Y-63490500D01*
X210162539Y-63510185D01*
X210208294Y-63562989D01*
X210219500Y-63614500D01*
X210219500Y-97576938D01*
X210213884Y-97613833D01*
X208642935Y-102654442D01*
X208638812Y-102667669D01*
X208633831Y-102676277D01*
X208619252Y-102730433D01*
X208618527Y-102732761D01*
X208602563Y-102783985D01*
X208601179Y-102791992D01*
X208600908Y-102791945D01*
X208600374Y-102795437D01*
X208600647Y-102795474D01*
X208599576Y-102803534D01*
X208599513Y-102857200D01*
X208599510Y-102859638D01*
X208597250Y-102915665D01*
X208599434Y-102925369D01*
X208599419Y-102939227D01*
X208599419Y-102939228D01*
X208569818Y-128612864D01*
X208550056Y-128679881D01*
X208529050Y-128704636D01*
X204983367Y-131915345D01*
X204964810Y-131928869D01*
X204962684Y-131930500D01*
X204927031Y-131966153D01*
X204922584Y-131970385D01*
X204885210Y-132004228D01*
X204885203Y-132004236D01*
X204878384Y-132014800D01*
X204869500Y-132023686D01*
X204842780Y-132069965D01*
X204841097Y-132072573D01*
X204841090Y-132072586D01*
X204813745Y-132114956D01*
X204812615Y-132117342D01*
X204804641Y-132135320D01*
X204803606Y-132137818D01*
X204790553Y-132186527D01*
X204790554Y-132186528D01*
X204789758Y-132189497D01*
X204773377Y-132240405D01*
X204772754Y-132252957D01*
X204769501Y-132265099D01*
X204769500Y-132265110D01*
X204769500Y-132315526D01*
X204769348Y-132321666D01*
X204766851Y-132372028D01*
X204767073Y-132374749D01*
X204769500Y-132397530D01*
X204769500Y-136805500D01*
X204749815Y-136872539D01*
X204697011Y-136918294D01*
X204645500Y-136929500D01*
X191675430Y-136929500D01*
X191608391Y-136909815D01*
X191562636Y-136857011D01*
X191552692Y-136787853D01*
X191581717Y-136724297D01*
X191599944Y-136707124D01*
X191682579Y-136643716D01*
X191783269Y-136566454D01*
X191946454Y-136403269D01*
X192086943Y-136220180D01*
X192202332Y-136020320D01*
X192290647Y-135807108D01*
X192350377Y-135584193D01*
X192380500Y-135355389D01*
X192380500Y-135124611D01*
X192350377Y-134895807D01*
X192290647Y-134672892D01*
X192202332Y-134459680D01*
X192181049Y-134422816D01*
X192102347Y-134286500D01*
X192085874Y-134218600D01*
X192108727Y-134152573D01*
X192163648Y-134109382D01*
X192209734Y-134100500D01*
X200944903Y-134100500D01*
X201011942Y-134120185D01*
X201032584Y-134136819D01*
X201406241Y-134510476D01*
X201439726Y-134571799D01*
X201436492Y-134636473D01*
X201422753Y-134678757D01*
X201394681Y-134856001D01*
X201389500Y-134888713D01*
X201389500Y-135101287D01*
X201390247Y-135106001D01*
X201420902Y-135299554D01*
X201422754Y-135311243D01*
X201483569Y-135498412D01*
X201488444Y-135513414D01*
X201584951Y-135702820D01*
X201709890Y-135874786D01*
X201860213Y-136025109D01*
X202032179Y-136150048D01*
X202032181Y-136150049D01*
X202032184Y-136150051D01*
X202221588Y-136246557D01*
X202423757Y-136312246D01*
X202633713Y-136345500D01*
X202633714Y-136345500D01*
X202846286Y-136345500D01*
X202846287Y-136345500D01*
X203056243Y-136312246D01*
X203258412Y-136246557D01*
X203447816Y-136150051D01*
X203469789Y-136134086D01*
X203619786Y-136025109D01*
X203619788Y-136025106D01*
X203619792Y-136025104D01*
X203770104Y-135874792D01*
X203770106Y-135874788D01*
X203770109Y-135874786D01*
X203895048Y-135702820D01*
X203895047Y-135702820D01*
X203895051Y-135702816D01*
X203991557Y-135513412D01*
X204057246Y-135311243D01*
X204090500Y-135101287D01*
X204090500Y-134888713D01*
X204057246Y-134678757D01*
X203991557Y-134476588D01*
X203895051Y-134287184D01*
X203895049Y-134287181D01*
X203895048Y-134287179D01*
X203770109Y-134115213D01*
X203656569Y-134001673D01*
X203623084Y-133940350D01*
X203628068Y-133870658D01*
X203669940Y-133814725D01*
X203700915Y-133797810D01*
X203832331Y-133748796D01*
X203947546Y-133662546D01*
X204033796Y-133547331D01*
X204084091Y-133412483D01*
X204090500Y-133352873D01*
X204090499Y-131557128D01*
X204084091Y-131497517D01*
X204079752Y-131485884D01*
X204033797Y-131362671D01*
X204033793Y-131362664D01*
X203947547Y-131247455D01*
X203947544Y-131247452D01*
X203832335Y-131161206D01*
X203832328Y-131161202D01*
X203697482Y-131110908D01*
X203697483Y-131110908D01*
X203637883Y-131104501D01*
X203637881Y-131104500D01*
X203637873Y-131104500D01*
X203637864Y-131104500D01*
X201842129Y-131104500D01*
X201842123Y-131104501D01*
X201782516Y-131110908D01*
X201647671Y-131161202D01*
X201647664Y-131161206D01*
X201532455Y-131247452D01*
X201532452Y-131247455D01*
X201446206Y-131362664D01*
X201446202Y-131362671D01*
X201395908Y-131497517D01*
X201391276Y-131540606D01*
X201389501Y-131557123D01*
X201389500Y-131557135D01*
X201389500Y-132775499D01*
X201386949Y-132784184D01*
X201388238Y-132793145D01*
X201377259Y-132817186D01*
X201369815Y-132842538D01*
X201362975Y-132848464D01*
X201359214Y-132856701D01*
X201336978Y-132870991D01*
X201317011Y-132888293D01*
X201306498Y-132890580D01*
X201300436Y-132894476D01*
X201265502Y-132899498D01*
X201265501Y-132899499D01*
X201165943Y-132899499D01*
X201165939Y-132899499D01*
X201158332Y-132899500D01*
X201158331Y-132899499D01*
X201158331Y-132899500D01*
X193880759Y-132899500D01*
X193813720Y-132879815D01*
X193767965Y-132827011D01*
X193758021Y-132757853D01*
X193777657Y-132706609D01*
X193803913Y-132667314D01*
X193829394Y-132629179D01*
X193889737Y-132483497D01*
X193909465Y-132384319D01*
X193920638Y-132328150D01*
X193953023Y-132266239D01*
X193954519Y-132264715D01*
X195418713Y-130800521D01*
X195418716Y-130800520D01*
X195530520Y-130688716D01*
X195580639Y-130601904D01*
X195609577Y-130551785D01*
X195650500Y-130399057D01*
X195650500Y-130240943D01*
X195650500Y-117154765D01*
X195655828Y-117136619D01*
X195656166Y-117117710D01*
X195669664Y-117089497D01*
X195670185Y-117087726D01*
X195671399Y-117085873D01*
X195689276Y-117059119D01*
X195759390Y-116954185D01*
X195759390Y-116954184D01*
X195759394Y-116954179D01*
X195819737Y-116808497D01*
X195850500Y-116653842D01*
X195850500Y-116496158D01*
X195850500Y-116496155D01*
X195850499Y-116496153D01*
X195843298Y-116459951D01*
X195819737Y-116341503D01*
X195809226Y-116316127D01*
X195759397Y-116195827D01*
X195759390Y-116195814D01*
X195671789Y-116064711D01*
X195671786Y-116064707D01*
X195560292Y-115953213D01*
X195560288Y-115953210D01*
X195429185Y-115865609D01*
X195429172Y-115865602D01*
X195283501Y-115805264D01*
X195283489Y-115805261D01*
X195128845Y-115774500D01*
X195128842Y-115774500D01*
X194971158Y-115774500D01*
X194971155Y-115774500D01*
X194816510Y-115805261D01*
X194816498Y-115805264D01*
X194670828Y-115865602D01*
X194670814Y-115865610D01*
X194643888Y-115883601D01*
X194577210Y-115904477D01*
X194509831Y-115885991D01*
X194506112Y-115883601D01*
X194479185Y-115865610D01*
X194479184Y-115865609D01*
X194479179Y-115865606D01*
X194479175Y-115865604D01*
X194479171Y-115865602D01*
X194333501Y-115805264D01*
X194333489Y-115805261D01*
X194178845Y-115774500D01*
X194178842Y-115774500D01*
X194021158Y-115774500D01*
X194021155Y-115774500D01*
X193866510Y-115805261D01*
X193866498Y-115805264D01*
X193720827Y-115865602D01*
X193720814Y-115865609D01*
X193589711Y-115953210D01*
X193589707Y-115953213D01*
X193478213Y-116064707D01*
X193478210Y-116064711D01*
X193390609Y-116195814D01*
X193390602Y-116195827D01*
X193330264Y-116341498D01*
X193330261Y-116341510D01*
X193299500Y-116496153D01*
X193299500Y-116653846D01*
X193330261Y-116808489D01*
X193330264Y-116808501D01*
X193390602Y-116954172D01*
X193390609Y-116954185D01*
X193478209Y-117085287D01*
X193478210Y-117085288D01*
X193478211Y-117085289D01*
X193504379Y-117111457D01*
X193509674Y-117119550D01*
X193514733Y-117123209D01*
X193523078Y-117140036D01*
X193532153Y-117153905D01*
X193534681Y-117160359D01*
X193540423Y-117181785D01*
X193544012Y-117188001D01*
X193548673Y-117196075D01*
X193548676Y-117196081D01*
X193619477Y-117318712D01*
X193619481Y-117318717D01*
X193738349Y-117437585D01*
X193738355Y-117437590D01*
X193913181Y-117612416D01*
X193946666Y-117673739D01*
X193949500Y-117700097D01*
X193949500Y-128769903D01*
X193929815Y-128836942D01*
X193913181Y-128857584D01*
X193105339Y-129665425D01*
X193044016Y-129698910D01*
X193041850Y-129699361D01*
X192886508Y-129730261D01*
X192886498Y-129730264D01*
X192740827Y-129790602D01*
X192740814Y-129790609D01*
X192609711Y-129878210D01*
X192609707Y-129878213D01*
X192498213Y-129989707D01*
X192498210Y-129989711D01*
X192410609Y-130120814D01*
X192410602Y-130120827D01*
X192350264Y-130266498D01*
X192350261Y-130266510D01*
X192319500Y-130421153D01*
X192319500Y-130578846D01*
X192350261Y-130733489D01*
X192350264Y-130733501D01*
X192410602Y-130879172D01*
X192410609Y-130879185D01*
X192498210Y-131010288D01*
X192498213Y-131010292D01*
X192609707Y-131121786D01*
X192609711Y-131121789D01*
X192740814Y-131209390D01*
X192740827Y-131209397D01*
X192864054Y-131260439D01*
X192918458Y-131304280D01*
X192940523Y-131370574D01*
X192923244Y-131438273D01*
X192872107Y-131485884D01*
X192864054Y-131489561D01*
X192740827Y-131540602D01*
X192740814Y-131540609D01*
X192609711Y-131628210D01*
X192609707Y-131628213D01*
X192498213Y-131739707D01*
X192498210Y-131739711D01*
X192410609Y-131870814D01*
X192410602Y-131870827D01*
X192350264Y-132016498D01*
X192350261Y-132016510D01*
X192319500Y-132171153D01*
X192319500Y-132328846D01*
X192350261Y-132483489D01*
X192350264Y-132483501D01*
X192410602Y-132629172D01*
X192410609Y-132629184D01*
X192462343Y-132706609D01*
X192483221Y-132773286D01*
X192464737Y-132840666D01*
X192412758Y-132887357D01*
X192359241Y-132899500D01*
X162973097Y-132899500D01*
X162906058Y-132879815D01*
X162885416Y-132863181D01*
X162157574Y-132135339D01*
X162124089Y-132074016D01*
X162123638Y-132071849D01*
X162095521Y-131930500D01*
X162092737Y-131916503D01*
X162069197Y-131859672D01*
X162032397Y-131770827D01*
X162032390Y-131770814D01*
X161944789Y-131639711D01*
X161944786Y-131639707D01*
X161833292Y-131528213D01*
X161833288Y-131528210D01*
X161702185Y-131440609D01*
X161702172Y-131440602D01*
X161556501Y-131380264D01*
X161556491Y-131380261D01*
X161423308Y-131353769D01*
X161361397Y-131321384D01*
X161326823Y-131260668D01*
X161323500Y-131232152D01*
X161323500Y-114851297D01*
X161343185Y-114784258D01*
X161359819Y-114763616D01*
X162334617Y-113788819D01*
X162395940Y-113755334D01*
X162422298Y-113752500D01*
X163859803Y-113752500D01*
X163926842Y-113772185D01*
X163947484Y-113788819D01*
X164473039Y-114314374D01*
X164473049Y-114314385D01*
X164477379Y-114318715D01*
X164477380Y-114318716D01*
X164589184Y-114430520D01*
X164709385Y-114499917D01*
X164757601Y-114550484D01*
X164770825Y-114619091D01*
X164744857Y-114683956D01*
X164735067Y-114694986D01*
X163282220Y-116147833D01*
X163259302Y-116182135D01*
X163250158Y-116195821D01*
X163234487Y-116219274D01*
X163211034Y-116254373D01*
X163161999Y-116372755D01*
X163161997Y-116372761D01*
X163137000Y-116498428D01*
X163137000Y-118013138D01*
X163117315Y-118080177D01*
X163100681Y-118100819D01*
X163088038Y-118113461D01*
X163088035Y-118113465D01*
X162989490Y-118260946D01*
X162989483Y-118260959D01*
X162921606Y-118424832D01*
X162921603Y-118424841D01*
X162887000Y-118598804D01*
X162887000Y-118776195D01*
X162921603Y-118950158D01*
X162921606Y-118950167D01*
X162989483Y-119114040D01*
X162989490Y-119114053D01*
X163088035Y-119261534D01*
X163088038Y-119261538D01*
X163213461Y-119386961D01*
X163213465Y-119386964D01*
X163360946Y-119485509D01*
X163360959Y-119485516D01*
X163483863Y-119536423D01*
X163524834Y-119553394D01*
X163524836Y-119553394D01*
X163524841Y-119553396D01*
X163698804Y-119587999D01*
X163698807Y-119588000D01*
X163698809Y-119588000D01*
X163876193Y-119588000D01*
X163876194Y-119587999D01*
X163940234Y-119575261D01*
X164050158Y-119553396D01*
X164050161Y-119553394D01*
X164050166Y-119553394D01*
X164214047Y-119485513D01*
X164361535Y-119386964D01*
X164486964Y-119261535D01*
X164585513Y-119114047D01*
X164653394Y-118950166D01*
X164665221Y-118890711D01*
X164687999Y-118776195D01*
X164688000Y-118776193D01*
X164688000Y-118598806D01*
X164687999Y-118598804D01*
X164653396Y-118424841D01*
X164653393Y-118424832D01*
X164585516Y-118260959D01*
X164585509Y-118260946D01*
X164486964Y-118113465D01*
X164486961Y-118113461D01*
X164474319Y-118100819D01*
X164440834Y-118039496D01*
X164438000Y-118013138D01*
X164438000Y-116883308D01*
X164457685Y-116816269D01*
X164474319Y-116795627D01*
X165633127Y-115636819D01*
X165694450Y-115603334D01*
X165720808Y-115600500D01*
X166088445Y-115600500D01*
X166155484Y-115620185D01*
X166201239Y-115672989D01*
X166211183Y-115742147D01*
X166206159Y-115760411D01*
X166207031Y-115760676D01*
X166205261Y-115766510D01*
X166174500Y-115921153D01*
X166174500Y-116078846D01*
X166205261Y-116233489D01*
X166205264Y-116233501D01*
X166265602Y-116379172D01*
X166265609Y-116379185D01*
X166353602Y-116510874D01*
X166374480Y-116577551D01*
X166374500Y-116579765D01*
X166374500Y-129268330D01*
X166374499Y-129268348D01*
X166374499Y-129434054D01*
X166374498Y-129434054D01*
X166374499Y-129434057D01*
X166415423Y-129586785D01*
X166440129Y-129629577D01*
X166494477Y-129723712D01*
X166494481Y-129723717D01*
X166613349Y-129842585D01*
X166613355Y-129842590D01*
X167285425Y-130514660D01*
X167318910Y-130575983D01*
X167319361Y-130578149D01*
X167350261Y-130733491D01*
X167350264Y-130733501D01*
X167410602Y-130879172D01*
X167410609Y-130879185D01*
X167498210Y-131010288D01*
X167498213Y-131010292D01*
X167609707Y-131121786D01*
X167609711Y-131121789D01*
X167740814Y-131209390D01*
X167740827Y-131209397D01*
X167832709Y-131247455D01*
X167886503Y-131269737D01*
X168014413Y-131295180D01*
X168041153Y-131300499D01*
X168041156Y-131300500D01*
X168041158Y-131300500D01*
X168198844Y-131300500D01*
X168198845Y-131300499D01*
X168353497Y-131269737D01*
X168499179Y-131209394D01*
X168630289Y-131121789D01*
X168741789Y-131010289D01*
X168829394Y-130879179D01*
X168889737Y-130733497D01*
X168920500Y-130578842D01*
X168920500Y-130421158D01*
X168920500Y-130421155D01*
X168920499Y-130421153D01*
X168889738Y-130266510D01*
X168889737Y-130266503D01*
X168879150Y-130240943D01*
X168829397Y-130120827D01*
X168829390Y-130120814D01*
X168741789Y-129989711D01*
X168741786Y-129989707D01*
X168630292Y-129878213D01*
X168630288Y-129878210D01*
X168499185Y-129790609D01*
X168499172Y-129790602D01*
X168353501Y-129730264D01*
X168353491Y-129730261D01*
X168198151Y-129699362D01*
X168136241Y-129666977D01*
X168134662Y-129665426D01*
X167611819Y-129142583D01*
X167578334Y-129081260D01*
X167575500Y-129054902D01*
X167575500Y-116579765D01*
X167580827Y-116561621D01*
X167581165Y-116542712D01*
X167594664Y-116514497D01*
X167595185Y-116512726D01*
X167596398Y-116510875D01*
X167650454Y-116429974D01*
X167704066Y-116385168D01*
X167773391Y-116376461D01*
X167836418Y-116406615D01*
X167841237Y-116411183D01*
X170460324Y-119030271D01*
X170460327Y-119030274D01*
X170554015Y-119092874D01*
X170554014Y-119092874D01*
X170566871Y-119101464D01*
X170566872Y-119101464D01*
X170566873Y-119101465D01*
X170685256Y-119150501D01*
X170685260Y-119150501D01*
X170685261Y-119150502D01*
X170810928Y-119175500D01*
X170810931Y-119175500D01*
X174514071Y-119175500D01*
X174598615Y-119158682D01*
X174639744Y-119150501D01*
X174758127Y-119101465D01*
X174762395Y-119098613D01*
X174770987Y-119092873D01*
X174833300Y-119051236D01*
X174864669Y-119030277D01*
X178770343Y-115124603D01*
X188859500Y-115124603D01*
X188859500Y-115355396D01*
X188882929Y-115533347D01*
X188889623Y-115584193D01*
X188918776Y-115692993D01*
X188949353Y-115807110D01*
X189037665Y-116020313D01*
X189037669Y-116020323D01*
X189153056Y-116220179D01*
X189293544Y-116403267D01*
X189293550Y-116403274D01*
X189456725Y-116566449D01*
X189456732Y-116566455D01*
X189639820Y-116706943D01*
X189839676Y-116822330D01*
X189839677Y-116822330D01*
X189839680Y-116822332D01*
X189981821Y-116881208D01*
X190052889Y-116910646D01*
X190052890Y-116910646D01*
X190052892Y-116910647D01*
X190275807Y-116970377D01*
X190504611Y-117000500D01*
X190504618Y-117000500D01*
X190735382Y-117000500D01*
X190735389Y-117000500D01*
X190964193Y-116970377D01*
X191187108Y-116910647D01*
X191400320Y-116822332D01*
X191600180Y-116706943D01*
X191783269Y-116566454D01*
X191946454Y-116403269D01*
X192086943Y-116220180D01*
X192202332Y-116020320D01*
X192290647Y-115807108D01*
X192350377Y-115584193D01*
X192380500Y-115355389D01*
X192380500Y-115124611D01*
X192350377Y-114895807D01*
X192290647Y-114672892D01*
X192285056Y-114659395D01*
X192248769Y-114571789D01*
X192202332Y-114459680D01*
X192196696Y-114449919D01*
X192086943Y-114259820D01*
X191946455Y-114076732D01*
X191946449Y-114076725D01*
X191783274Y-113913550D01*
X191783267Y-113913544D01*
X191600179Y-113773056D01*
X191400323Y-113657669D01*
X191400313Y-113657665D01*
X191187110Y-113569353D01*
X191075650Y-113539488D01*
X190964193Y-113509623D01*
X190913347Y-113502929D01*
X190735396Y-113479500D01*
X190735389Y-113479500D01*
X190504611Y-113479500D01*
X190504603Y-113479500D01*
X190301229Y-113506276D01*
X190275807Y-113509623D01*
X190223887Y-113523535D01*
X190052889Y-113569353D01*
X189839686Y-113657665D01*
X189839676Y-113657669D01*
X189639820Y-113773056D01*
X189456732Y-113913544D01*
X189456725Y-113913550D01*
X189293550Y-114076725D01*
X189293544Y-114076732D01*
X189153056Y-114259820D01*
X189037669Y-114459676D01*
X189037665Y-114459686D01*
X188949353Y-114672889D01*
X188905314Y-114837246D01*
X188889623Y-114895807D01*
X188888971Y-114900760D01*
X188859500Y-115124603D01*
X178770343Y-115124603D01*
X179108127Y-114786819D01*
X179169450Y-114753334D01*
X179195808Y-114750500D01*
X181489071Y-114750500D01*
X181603357Y-114727766D01*
X181614744Y-114725501D01*
X181733127Y-114676465D01*
X181758676Y-114659394D01*
X181759518Y-114658832D01*
X181817942Y-114619794D01*
X181839669Y-114605277D01*
X182363127Y-114081819D01*
X182424450Y-114048334D01*
X182450808Y-114045500D01*
X182468693Y-114045500D01*
X182468694Y-114045499D01*
X182552436Y-114028842D01*
X182642658Y-114010896D01*
X182642661Y-114010894D01*
X182642666Y-114010894D01*
X182806547Y-113943013D01*
X182954035Y-113844464D01*
X183079464Y-113719035D01*
X183178013Y-113571547D01*
X183190873Y-113540500D01*
X183221298Y-113467048D01*
X183265139Y-113412644D01*
X183331433Y-113390579D01*
X183335859Y-113390500D01*
X189124071Y-113390500D01*
X189208615Y-113373682D01*
X189249744Y-113365501D01*
X189368127Y-113316465D01*
X189393516Y-113299501D01*
X189393517Y-113299501D01*
X189467169Y-113250288D01*
X189474669Y-113245277D01*
X193640569Y-109079377D01*
X197717812Y-105002135D01*
X203819500Y-105002135D01*
X203819500Y-106797870D01*
X203819501Y-106797876D01*
X203825908Y-106857483D01*
X203876202Y-106992328D01*
X203876206Y-106992335D01*
X203962452Y-107107544D01*
X203962455Y-107107547D01*
X204077664Y-107193793D01*
X204077671Y-107193797D01*
X204209082Y-107242810D01*
X204265016Y-107284681D01*
X204289433Y-107350145D01*
X204274582Y-107418418D01*
X204253431Y-107446673D01*
X204139889Y-107560215D01*
X204014951Y-107732179D01*
X203918444Y-107921585D01*
X203852753Y-108123760D01*
X203819500Y-108333713D01*
X203819500Y-108546286D01*
X203851878Y-108750716D01*
X203852754Y-108756243D01*
X203915624Y-108949737D01*
X203918444Y-108958414D01*
X204014951Y-109147820D01*
X204139890Y-109319786D01*
X204290213Y-109470109D01*
X204462182Y-109595050D01*
X204470946Y-109599516D01*
X204521742Y-109647491D01*
X204538536Y-109715312D01*
X204515998Y-109781447D01*
X204470946Y-109820484D01*
X204462182Y-109824949D01*
X204290213Y-109949890D01*
X204139890Y-110100213D01*
X204014951Y-110272179D01*
X203918444Y-110461585D01*
X203852753Y-110663760D01*
X203819500Y-110873713D01*
X203819500Y-111086287D01*
X203829308Y-111148209D01*
X203850824Y-111284061D01*
X203852754Y-111296243D01*
X203917265Y-111494788D01*
X203918444Y-111498414D01*
X204014951Y-111687820D01*
X204139890Y-111859786D01*
X204290213Y-112010109D01*
X204462182Y-112135050D01*
X204470946Y-112139516D01*
X204521742Y-112187491D01*
X204538536Y-112255312D01*
X204515998Y-112321447D01*
X204470946Y-112360484D01*
X204462182Y-112364949D01*
X204290213Y-112489890D01*
X204139890Y-112640213D01*
X204014951Y-112812179D01*
X203918444Y-113001585D01*
X203852753Y-113203760D01*
X203829003Y-113353711D01*
X203819500Y-113413713D01*
X203819500Y-113626287D01*
X203829534Y-113689644D01*
X203845242Y-113788819D01*
X203852754Y-113836243D01*
X203915334Y-114028844D01*
X203918444Y-114038414D01*
X204014951Y-114227820D01*
X204139890Y-114399786D01*
X204290213Y-114550109D01*
X204462179Y-114675048D01*
X204462181Y-114675049D01*
X204462184Y-114675051D01*
X204471493Y-114679794D01*
X204522290Y-114727766D01*
X204539087Y-114795587D01*
X204516552Y-114861722D01*
X204471505Y-114900760D01*
X204462446Y-114905376D01*
X204462440Y-114905380D01*
X204408282Y-114944727D01*
X204408282Y-114944728D01*
X205040591Y-115577037D01*
X204977007Y-115594075D01*
X204862993Y-115659901D01*
X204769901Y-115752993D01*
X204704075Y-115867007D01*
X204687037Y-115930591D01*
X204054728Y-115298282D01*
X204054727Y-115298282D01*
X204015380Y-115352439D01*
X203918904Y-115541782D01*
X203853242Y-115743869D01*
X203853242Y-115743872D01*
X203820000Y-115953753D01*
X203820000Y-116166246D01*
X203853242Y-116376127D01*
X203853242Y-116376130D01*
X203918904Y-116578217D01*
X204015375Y-116767550D01*
X204054728Y-116821716D01*
X204687037Y-116189408D01*
X204704075Y-116252993D01*
X204769901Y-116367007D01*
X204862993Y-116460099D01*
X204977007Y-116525925D01*
X205040590Y-116542962D01*
X204408282Y-117175269D01*
X204408282Y-117175270D01*
X204462449Y-117214624D01*
X204651782Y-117311095D01*
X204853870Y-117376757D01*
X205063754Y-117410000D01*
X205276246Y-117410000D01*
X205486127Y-117376757D01*
X205486130Y-117376757D01*
X205688217Y-117311095D01*
X205877554Y-117214622D01*
X205931716Y-117175270D01*
X205931717Y-117175270D01*
X205299408Y-116542962D01*
X205362993Y-116525925D01*
X205477007Y-116460099D01*
X205570099Y-116367007D01*
X205635925Y-116252993D01*
X205652962Y-116189408D01*
X206285270Y-116821717D01*
X206285270Y-116821716D01*
X206324622Y-116767554D01*
X206421095Y-116578217D01*
X206486757Y-116376130D01*
X206486757Y-116376127D01*
X206520000Y-116166246D01*
X206520000Y-115953753D01*
X206486757Y-115743872D01*
X206486757Y-115743869D01*
X206421095Y-115541782D01*
X206324624Y-115352449D01*
X206285270Y-115298282D01*
X206285269Y-115298282D01*
X205652962Y-115930590D01*
X205635925Y-115867007D01*
X205570099Y-115752993D01*
X205477007Y-115659901D01*
X205362993Y-115594075D01*
X205299409Y-115577037D01*
X205931716Y-114944728D01*
X205877547Y-114905373D01*
X205877547Y-114905372D01*
X205868500Y-114900763D01*
X205817706Y-114852788D01*
X205800912Y-114784966D01*
X205823451Y-114718832D01*
X205868508Y-114679793D01*
X205877816Y-114675051D01*
X205960406Y-114615046D01*
X206049786Y-114550109D01*
X206049788Y-114550106D01*
X206049792Y-114550104D01*
X206200104Y-114399792D01*
X206200106Y-114399788D01*
X206200109Y-114399786D01*
X206325048Y-114227820D01*
X206325047Y-114227820D01*
X206325051Y-114227816D01*
X206421557Y-114038412D01*
X206487246Y-113836243D01*
X206520500Y-113626287D01*
X206520500Y-113413713D01*
X206487246Y-113203757D01*
X206421557Y-113001588D01*
X206325051Y-112812184D01*
X206325049Y-112812181D01*
X206325048Y-112812179D01*
X206200109Y-112640213D01*
X206049786Y-112489890D01*
X205877820Y-112364951D01*
X205877115Y-112364591D01*
X205869054Y-112360485D01*
X205818259Y-112312512D01*
X205801463Y-112244692D01*
X205823999Y-112178556D01*
X205869054Y-112139515D01*
X205877816Y-112135051D01*
X205960408Y-112075045D01*
X206049786Y-112010109D01*
X206049788Y-112010106D01*
X206049792Y-112010104D01*
X206200104Y-111859792D01*
X206200106Y-111859788D01*
X206200109Y-111859786D01*
X206325048Y-111687820D01*
X206325047Y-111687820D01*
X206325051Y-111687816D01*
X206421557Y-111498412D01*
X206487246Y-111296243D01*
X206520500Y-111086287D01*
X206520500Y-110873713D01*
X206487246Y-110663757D01*
X206421557Y-110461588D01*
X206325051Y-110272184D01*
X206325049Y-110272181D01*
X206325048Y-110272179D01*
X206200109Y-110100213D01*
X206049786Y-109949890D01*
X205877820Y-109824951D01*
X205877007Y-109824537D01*
X205869054Y-109820485D01*
X205818259Y-109772512D01*
X205801463Y-109704692D01*
X205823999Y-109638556D01*
X205869054Y-109599515D01*
X205877816Y-109595051D01*
X205899789Y-109579086D01*
X206049786Y-109470109D01*
X206049788Y-109470106D01*
X206049792Y-109470104D01*
X206200104Y-109319792D01*
X206200106Y-109319788D01*
X206200109Y-109319786D01*
X206325048Y-109147820D01*
X206325047Y-109147820D01*
X206325051Y-109147816D01*
X206421557Y-108958412D01*
X206487246Y-108756243D01*
X206520500Y-108546287D01*
X206520500Y-108333713D01*
X206487246Y-108123757D01*
X206421557Y-107921588D01*
X206325051Y-107732184D01*
X206325049Y-107732181D01*
X206325048Y-107732179D01*
X206200109Y-107560213D01*
X206086569Y-107446673D01*
X206053084Y-107385350D01*
X206058068Y-107315658D01*
X206099940Y-107259725D01*
X206130915Y-107242810D01*
X206262331Y-107193796D01*
X206377546Y-107107546D01*
X206463796Y-106992331D01*
X206514091Y-106857483D01*
X206520500Y-106797873D01*
X206520499Y-105002128D01*
X206514091Y-104942517D01*
X206508029Y-104926265D01*
X206463797Y-104807671D01*
X206463793Y-104807664D01*
X206377547Y-104692455D01*
X206377544Y-104692452D01*
X206262335Y-104606206D01*
X206262328Y-104606202D01*
X206127482Y-104555908D01*
X206127483Y-104555908D01*
X206067883Y-104549501D01*
X206067881Y-104549500D01*
X206067873Y-104549500D01*
X206067864Y-104549500D01*
X204272129Y-104549500D01*
X204272123Y-104549501D01*
X204212516Y-104555908D01*
X204077671Y-104606202D01*
X204077664Y-104606206D01*
X203962455Y-104692452D01*
X203962452Y-104692455D01*
X203876206Y-104807664D01*
X203876202Y-104807671D01*
X203825908Y-104942517D01*
X203819501Y-105002116D01*
X203819501Y-105002123D01*
X203819500Y-105002135D01*
X197717812Y-105002135D01*
X197808822Y-104911125D01*
X202145272Y-100574674D01*
X202145277Y-100574669D01*
X202216466Y-100468126D01*
X202265501Y-100349743D01*
X202290500Y-100224069D01*
X202290500Y-100095931D01*
X202290500Y-79414500D01*
X202310185Y-79347461D01*
X202362989Y-79301706D01*
X202414500Y-79290500D01*
X205770382Y-79290500D01*
X205837421Y-79310185D01*
X205871099Y-79344591D01*
X205872085Y-79343875D01*
X205999890Y-79519786D01*
X206150213Y-79670109D01*
X206322182Y-79795050D01*
X206330946Y-79799516D01*
X206381742Y-79847491D01*
X206398536Y-79915312D01*
X206375998Y-79981447D01*
X206330946Y-80020484D01*
X206322182Y-80024949D01*
X206150213Y-80149890D01*
X205999890Y-80300213D01*
X205874951Y-80472179D01*
X205778444Y-80661585D01*
X205712753Y-80863760D01*
X205679500Y-81073713D01*
X205679500Y-81286286D01*
X205707104Y-81460574D01*
X205712754Y-81496243D01*
X205750922Y-81613713D01*
X205778444Y-81698414D01*
X205874951Y-81887820D01*
X205999890Y-82059786D01*
X206150213Y-82210109D01*
X206322182Y-82335050D01*
X206330946Y-82339516D01*
X206381742Y-82387491D01*
X206398536Y-82455312D01*
X206375998Y-82521447D01*
X206330946Y-82560484D01*
X206322182Y-82564949D01*
X206150213Y-82689890D01*
X205999890Y-82840213D01*
X205874951Y-83012179D01*
X205778444Y-83201585D01*
X205712753Y-83403760D01*
X205679500Y-83613713D01*
X205679500Y-83826286D01*
X205698105Y-83943757D01*
X205712754Y-84036243D01*
X205750935Y-84153753D01*
X205778444Y-84238414D01*
X205874951Y-84427820D01*
X205999890Y-84599786D01*
X206150213Y-84750109D01*
X206322179Y-84875048D01*
X206322181Y-84875049D01*
X206322184Y-84875051D01*
X206331493Y-84879794D01*
X206382290Y-84927766D01*
X206399087Y-84995587D01*
X206376552Y-85061722D01*
X206331505Y-85100760D01*
X206322446Y-85105376D01*
X206322440Y-85105380D01*
X206268282Y-85144727D01*
X206268282Y-85144728D01*
X206900591Y-85777037D01*
X206837007Y-85794075D01*
X206722993Y-85859901D01*
X206629901Y-85952993D01*
X206564075Y-86067007D01*
X206547037Y-86130591D01*
X205914728Y-85498282D01*
X205914727Y-85498282D01*
X205875380Y-85552439D01*
X205778904Y-85741782D01*
X205713242Y-85943869D01*
X205713242Y-85943872D01*
X205680000Y-86153753D01*
X205680000Y-86366246D01*
X205713242Y-86576127D01*
X205713242Y-86576130D01*
X205778904Y-86778217D01*
X205875375Y-86967550D01*
X205914728Y-87021716D01*
X206547037Y-86389408D01*
X206564075Y-86452993D01*
X206629901Y-86567007D01*
X206722993Y-86660099D01*
X206837007Y-86725925D01*
X206900590Y-86742962D01*
X206268282Y-87375269D01*
X206268282Y-87375270D01*
X206322449Y-87414624D01*
X206511782Y-87511095D01*
X206713870Y-87576757D01*
X206923754Y-87610000D01*
X207136246Y-87610000D01*
X207346127Y-87576757D01*
X207346130Y-87576757D01*
X207548217Y-87511095D01*
X207737554Y-87414622D01*
X207791716Y-87375270D01*
X207791717Y-87375270D01*
X207159408Y-86742962D01*
X207222993Y-86725925D01*
X207337007Y-86660099D01*
X207430099Y-86567007D01*
X207495925Y-86452993D01*
X207512962Y-86389408D01*
X208145270Y-87021717D01*
X208145270Y-87021716D01*
X208184622Y-86967554D01*
X208281095Y-86778217D01*
X208346757Y-86576130D01*
X208346757Y-86576127D01*
X208380000Y-86366246D01*
X208380000Y-86153753D01*
X208346757Y-85943872D01*
X208346757Y-85943869D01*
X208281095Y-85741782D01*
X208184624Y-85552449D01*
X208145270Y-85498282D01*
X208145269Y-85498282D01*
X207512962Y-86130590D01*
X207495925Y-86067007D01*
X207430099Y-85952993D01*
X207337007Y-85859901D01*
X207222993Y-85794075D01*
X207159409Y-85777037D01*
X207791716Y-85144728D01*
X207737547Y-85105373D01*
X207737547Y-85105372D01*
X207728500Y-85100763D01*
X207677706Y-85052788D01*
X207660912Y-84984966D01*
X207683451Y-84918832D01*
X207728508Y-84879793D01*
X207737816Y-84875051D01*
X207817007Y-84817515D01*
X207909786Y-84750109D01*
X207909788Y-84750106D01*
X207909792Y-84750104D01*
X208060104Y-84599792D01*
X208060106Y-84599788D01*
X208060109Y-84599786D01*
X208185048Y-84427820D01*
X208185047Y-84427820D01*
X208185051Y-84427816D01*
X208281557Y-84238412D01*
X208347246Y-84036243D01*
X208380500Y-83826287D01*
X208380500Y-83613713D01*
X208347246Y-83403757D01*
X208281557Y-83201588D01*
X208185051Y-83012184D01*
X208185049Y-83012181D01*
X208185048Y-83012179D01*
X208060109Y-82840213D01*
X207909786Y-82689890D01*
X207737820Y-82564951D01*
X207737115Y-82564591D01*
X207729054Y-82560485D01*
X207678259Y-82512512D01*
X207661463Y-82444692D01*
X207683999Y-82378556D01*
X207729054Y-82339515D01*
X207737816Y-82335051D01*
X207788068Y-82298541D01*
X207909786Y-82210109D01*
X207909788Y-82210106D01*
X207909792Y-82210104D01*
X208060104Y-82059792D01*
X208060106Y-82059788D01*
X208060109Y-82059786D01*
X208185048Y-81887820D01*
X208185047Y-81887820D01*
X208185051Y-81887816D01*
X208281557Y-81698412D01*
X208347246Y-81496243D01*
X208380500Y-81286287D01*
X208380500Y-81073713D01*
X208347246Y-80863757D01*
X208281557Y-80661588D01*
X208185051Y-80472184D01*
X208185049Y-80472181D01*
X208185048Y-80472179D01*
X208060109Y-80300213D01*
X207909786Y-80149890D01*
X207737820Y-80024951D01*
X207737115Y-80024591D01*
X207729054Y-80020485D01*
X207678259Y-79972512D01*
X207661463Y-79904692D01*
X207683999Y-79838556D01*
X207729054Y-79799515D01*
X207737816Y-79795051D01*
X207759789Y-79779086D01*
X207909786Y-79670109D01*
X207909788Y-79670106D01*
X207909792Y-79670104D01*
X208060104Y-79519792D01*
X208060106Y-79519788D01*
X208060109Y-79519786D01*
X208185048Y-79347820D01*
X208185047Y-79347820D01*
X208185051Y-79347816D01*
X208281557Y-79158412D01*
X208347246Y-78956243D01*
X208380500Y-78746287D01*
X208380500Y-78533713D01*
X208347246Y-78323757D01*
X208281557Y-78121588D01*
X208185051Y-77932184D01*
X208185049Y-77932181D01*
X208185048Y-77932179D01*
X208060109Y-77760213D01*
X207909786Y-77609890D01*
X207737820Y-77484951D01*
X207737115Y-77484591D01*
X207729054Y-77480485D01*
X207678259Y-77432512D01*
X207661463Y-77364692D01*
X207683999Y-77298556D01*
X207729054Y-77259515D01*
X207737816Y-77255051D01*
X207759789Y-77239086D01*
X207909786Y-77130109D01*
X207909788Y-77130106D01*
X207909792Y-77130104D01*
X208060104Y-76979792D01*
X208060106Y-76979788D01*
X208060109Y-76979786D01*
X208185048Y-76807820D01*
X208185047Y-76807820D01*
X208185051Y-76807816D01*
X208281557Y-76618412D01*
X208347246Y-76416243D01*
X208380500Y-76206287D01*
X208380500Y-75993713D01*
X208347246Y-75783757D01*
X208281557Y-75581588D01*
X208185051Y-75392184D01*
X208185049Y-75392181D01*
X208185048Y-75392179D01*
X208060109Y-75220213D01*
X207946181Y-75106285D01*
X207912696Y-75044962D01*
X207917680Y-74975270D01*
X207959552Y-74919337D01*
X207990529Y-74902422D01*
X208122086Y-74853354D01*
X208122093Y-74853350D01*
X208237187Y-74767190D01*
X208237190Y-74767187D01*
X208323350Y-74652093D01*
X208323354Y-74652086D01*
X208373596Y-74517379D01*
X208373598Y-74517372D01*
X208379999Y-74457844D01*
X208380000Y-74457827D01*
X208380000Y-73810000D01*
X207463012Y-73810000D01*
X207495925Y-73752993D01*
X207530000Y-73625826D01*
X207530000Y-73494174D01*
X207495925Y-73367007D01*
X207463012Y-73310000D01*
X208380000Y-73310000D01*
X208380000Y-72662172D01*
X208379999Y-72662155D01*
X208373598Y-72602627D01*
X208373596Y-72602620D01*
X208323354Y-72467913D01*
X208323350Y-72467906D01*
X208237190Y-72352812D01*
X208237187Y-72352809D01*
X208122093Y-72266649D01*
X208122086Y-72266645D01*
X207987379Y-72216403D01*
X207987372Y-72216401D01*
X207927844Y-72210000D01*
X207280000Y-72210000D01*
X207280000Y-73126988D01*
X207222993Y-73094075D01*
X207095826Y-73060000D01*
X206964174Y-73060000D01*
X206837007Y-73094075D01*
X206780000Y-73126988D01*
X206780000Y-72210000D01*
X206132155Y-72210000D01*
X206072627Y-72216401D01*
X206072620Y-72216403D01*
X205937913Y-72266645D01*
X205937906Y-72266649D01*
X205822812Y-72352809D01*
X205822809Y-72352812D01*
X205736649Y-72467906D01*
X205736645Y-72467913D01*
X205686403Y-72602620D01*
X205686401Y-72602627D01*
X205680000Y-72662155D01*
X205680000Y-73310000D01*
X206596988Y-73310000D01*
X206564075Y-73367007D01*
X206530000Y-73494174D01*
X206530000Y-73625826D01*
X206564075Y-73752993D01*
X206596988Y-73810000D01*
X205680000Y-73810000D01*
X205680000Y-74457844D01*
X205686401Y-74517372D01*
X205686403Y-74517379D01*
X205736645Y-74652086D01*
X205736649Y-74652093D01*
X205822809Y-74767187D01*
X205822812Y-74767190D01*
X205937906Y-74853350D01*
X205937913Y-74853354D01*
X206069470Y-74902422D01*
X206125404Y-74944293D01*
X206149821Y-75009758D01*
X206134969Y-75078031D01*
X206113819Y-75106285D01*
X205999889Y-75220215D01*
X205874951Y-75392179D01*
X205778444Y-75581585D01*
X205712753Y-75783760D01*
X205679500Y-75993713D01*
X205679500Y-76206286D01*
X205712753Y-76416239D01*
X205778444Y-76618414D01*
X205874951Y-76807820D01*
X205999890Y-76979786D01*
X206150213Y-77130109D01*
X206322182Y-77255050D01*
X206330946Y-77259516D01*
X206381742Y-77307491D01*
X206398536Y-77375312D01*
X206375998Y-77441447D01*
X206330946Y-77480484D01*
X206322182Y-77484949D01*
X206150213Y-77609890D01*
X205999890Y-77760213D01*
X205872085Y-77936125D01*
X205870740Y-77935148D01*
X205824295Y-77977166D01*
X205770382Y-77989500D01*
X201960808Y-77989500D01*
X201893769Y-77969815D01*
X201873127Y-77953181D01*
X195861819Y-71941873D01*
X195828334Y-71880550D01*
X195825500Y-71854192D01*
X195825500Y-65431577D01*
X205729500Y-65431577D01*
X205729500Y-65628422D01*
X205760290Y-65822826D01*
X205821117Y-66010029D01*
X205893311Y-66151716D01*
X205910476Y-66185405D01*
X206026172Y-66344646D01*
X206165354Y-66483828D01*
X206324595Y-66599524D01*
X206406183Y-66641095D01*
X206499970Y-66688882D01*
X206499972Y-66688882D01*
X206499975Y-66688884D01*
X206600317Y-66721487D01*
X206687173Y-66749709D01*
X206881578Y-66780500D01*
X206881583Y-66780500D01*
X207078422Y-66780500D01*
X207272826Y-66749709D01*
X207302707Y-66740000D01*
X207460025Y-66688884D01*
X207635405Y-66599524D01*
X207794646Y-66483828D01*
X207933828Y-66344646D01*
X208049524Y-66185405D01*
X208138884Y-66010025D01*
X208199709Y-65822826D01*
X208200340Y-65818842D01*
X208230500Y-65628422D01*
X208230500Y-65431577D01*
X208199709Y-65237173D01*
X208166022Y-65133497D01*
X208138884Y-65049975D01*
X208138882Y-65049972D01*
X208138882Y-65049970D01*
X208054619Y-64884595D01*
X208049524Y-64874595D01*
X207933828Y-64715354D01*
X207794646Y-64576172D01*
X207635405Y-64460476D01*
X207460029Y-64371117D01*
X207272826Y-64310290D01*
X207078422Y-64279500D01*
X207078417Y-64279500D01*
X206881583Y-64279500D01*
X206881578Y-64279500D01*
X206687173Y-64310290D01*
X206499970Y-64371117D01*
X206324594Y-64460476D01*
X206241547Y-64520814D01*
X206165354Y-64576172D01*
X206165352Y-64576174D01*
X206165351Y-64576174D01*
X206026174Y-64715351D01*
X206026174Y-64715352D01*
X206026172Y-64715354D01*
X206018909Y-64725351D01*
X205910476Y-64874594D01*
X205821117Y-65049970D01*
X205760290Y-65237173D01*
X205729500Y-65431577D01*
X195825500Y-65431577D01*
X195825500Y-61374500D01*
X195845185Y-61307461D01*
X195897989Y-61261706D01*
X195949500Y-61250500D01*
X198639071Y-61250500D01*
X198723615Y-61233682D01*
X198764744Y-61225501D01*
X198883127Y-61176465D01*
X198929187Y-61145689D01*
X198989669Y-61105277D01*
X200312819Y-59782125D01*
X200374142Y-59748641D01*
X200443833Y-59753625D01*
X200499767Y-59795496D01*
X200524184Y-59860961D01*
X200524500Y-59869807D01*
X200524500Y-59946288D01*
X200557754Y-60156244D01*
X200608409Y-60312144D01*
X200623444Y-60358415D01*
X200719951Y-60547821D01*
X200844890Y-60719787D01*
X200995213Y-60870110D01*
X201167179Y-60995049D01*
X201167181Y-60995050D01*
X201167184Y-60995052D01*
X201356588Y-61091558D01*
X201558757Y-61157247D01*
X201768713Y-61190501D01*
X201768714Y-61190501D01*
X201981286Y-61190501D01*
X201981287Y-61190501D01*
X202191243Y-61157247D01*
X202393412Y-61091558D01*
X202582816Y-60995052D01*
X202639014Y-60954222D01*
X202754786Y-60870110D01*
X202754788Y-60870107D01*
X202754792Y-60870105D01*
X202905104Y-60719793D01*
X202905106Y-60719789D01*
X202905109Y-60719787D01*
X203030048Y-60547821D01*
X203030047Y-60547821D01*
X203030051Y-60547817D01*
X203126557Y-60358413D01*
X203192246Y-60156244D01*
X203225500Y-59946288D01*
X203225500Y-59733714D01*
X203192246Y-59523758D01*
X203126557Y-59321589D01*
X203030051Y-59132185D01*
X203030049Y-59132182D01*
X203030048Y-59132180D01*
X202905109Y-58960214D01*
X202791568Y-58846673D01*
X202758083Y-58785350D01*
X202763067Y-58715658D01*
X202804939Y-58659725D01*
X202835915Y-58642810D01*
X202967331Y-58593796D01*
X203082546Y-58507546D01*
X203168796Y-58392331D01*
X203219091Y-58257483D01*
X203225500Y-58197873D01*
X203225499Y-56402128D01*
X203219559Y-56346868D01*
X203219091Y-56342516D01*
X203168797Y-56207671D01*
X203168793Y-56207664D01*
X203082547Y-56092455D01*
X203082544Y-56092452D01*
X202967335Y-56006206D01*
X202967328Y-56006202D01*
X202832482Y-55955908D01*
X202832483Y-55955908D01*
X202772883Y-55949501D01*
X202772881Y-55949500D01*
X202772873Y-55949500D01*
X202772864Y-55949500D01*
X200977129Y-55949500D01*
X200977123Y-55949501D01*
X200917516Y-55955908D01*
X200782671Y-56006202D01*
X200782664Y-56006206D01*
X200667455Y-56092452D01*
X200667452Y-56092455D01*
X200581206Y-56207664D01*
X200581202Y-56207671D01*
X200530908Y-56342517D01*
X200527469Y-56374508D01*
X200524501Y-56402123D01*
X200524500Y-56402135D01*
X200524500Y-57679191D01*
X200504815Y-57746230D01*
X200488181Y-57766872D01*
X198341873Y-59913181D01*
X198280550Y-59946666D01*
X198254192Y-59949500D01*
X184245808Y-59949500D01*
X184178769Y-59929815D01*
X184158127Y-59913181D01*
X181810975Y-57566029D01*
X181777490Y-57504706D01*
X181775254Y-57466188D01*
X181775500Y-57463691D01*
X181775500Y-57286306D01*
X181775499Y-57286304D01*
X181740896Y-57112341D01*
X181740893Y-57112332D01*
X181673016Y-56948459D01*
X181673009Y-56948446D01*
X181574464Y-56800965D01*
X181574461Y-56800961D01*
X181449038Y-56675538D01*
X181449034Y-56675535D01*
X181301553Y-56576990D01*
X181301540Y-56576983D01*
X181137667Y-56509106D01*
X181137658Y-56509103D01*
X180963694Y-56474500D01*
X180963691Y-56474500D01*
X180786309Y-56474500D01*
X180786306Y-56474500D01*
X180612341Y-56509103D01*
X180612332Y-56509106D01*
X180448459Y-56576983D01*
X180448446Y-56576990D01*
X180300965Y-56675535D01*
X180300961Y-56675538D01*
X180175538Y-56800961D01*
X180175535Y-56800965D01*
X180076990Y-56948446D01*
X180076983Y-56948459D01*
X180009106Y-57112332D01*
X180009103Y-57112341D01*
X179974500Y-57286304D01*
X179974500Y-57463695D01*
X180009103Y-57637658D01*
X180009106Y-57637667D01*
X180076983Y-57801540D01*
X180076990Y-57801553D01*
X180175535Y-57949034D01*
X180175538Y-57949038D01*
X180300961Y-58074461D01*
X180300965Y-58074464D01*
X180448446Y-58173009D01*
X180448459Y-58173016D01*
X180473901Y-58183554D01*
X180612334Y-58240894D01*
X180617398Y-58241901D01*
X180679310Y-58274284D01*
X180680892Y-58275838D01*
X183510324Y-61105271D01*
X183510327Y-61105274D01*
X183510330Y-61105276D01*
X183570813Y-61145689D01*
X183616873Y-61176465D01*
X183735256Y-61225501D01*
X183735260Y-61225501D01*
X183735261Y-61225502D01*
X183860928Y-61250500D01*
X183860931Y-61250500D01*
X194400500Y-61250500D01*
X194467539Y-61270185D01*
X194513294Y-61322989D01*
X194524500Y-61374500D01*
X194524500Y-72239070D01*
X194536720Y-72300499D01*
X194536720Y-72300501D01*
X194549497Y-72364736D01*
X194549499Y-72364744D01*
X194594642Y-72473730D01*
X194598535Y-72483127D01*
X194669720Y-72589664D01*
X194669726Y-72589673D01*
X194669727Y-72589674D01*
X200953181Y-78873127D01*
X200986666Y-78934450D01*
X200989500Y-78960808D01*
X200989500Y-99839191D01*
X200969815Y-99906230D01*
X200953181Y-99926872D01*
X193843083Y-107036969D01*
X193781760Y-107070454D01*
X193712068Y-107065470D01*
X193656135Y-107023598D01*
X193640841Y-106996740D01*
X193609397Y-106920827D01*
X193609390Y-106920814D01*
X193521789Y-106789711D01*
X193521786Y-106789707D01*
X193410292Y-106678213D01*
X193410288Y-106678210D01*
X193279185Y-106590609D01*
X193279173Y-106590602D01*
X193259323Y-106582381D01*
X193204919Y-106538541D01*
X193182854Y-106472247D01*
X193200133Y-106404547D01*
X193219089Y-106380144D01*
X193789662Y-105809572D01*
X193850983Y-105776089D01*
X193853150Y-105775638D01*
X193911085Y-105764113D01*
X194008497Y-105744737D01*
X194154179Y-105684394D01*
X194285289Y-105596789D01*
X194396789Y-105485289D01*
X194484394Y-105354179D01*
X194544737Y-105208497D01*
X194575500Y-105053842D01*
X194575500Y-104896158D01*
X194575500Y-104896155D01*
X194575499Y-104896153D01*
X194544737Y-104741503D01*
X194524421Y-104692455D01*
X194484397Y-104595827D01*
X194484390Y-104595814D01*
X194396789Y-104464711D01*
X194396786Y-104464707D01*
X194285292Y-104353213D01*
X194285288Y-104353210D01*
X194154185Y-104265609D01*
X194154172Y-104265602D01*
X194008501Y-104205264D01*
X194008489Y-104205261D01*
X193853845Y-104174500D01*
X193853842Y-104174500D01*
X193696158Y-104174500D01*
X193696155Y-104174500D01*
X193541510Y-104205261D01*
X193541498Y-104205264D01*
X193395827Y-104265602D01*
X193395814Y-104265609D01*
X193264711Y-104353210D01*
X193264707Y-104353213D01*
X193153213Y-104464707D01*
X193153210Y-104464711D01*
X193065609Y-104595814D01*
X193065602Y-104595827D01*
X193005264Y-104741498D01*
X193005261Y-104741508D01*
X192974361Y-104896850D01*
X192941976Y-104958761D01*
X192940425Y-104960339D01*
X191638584Y-106262181D01*
X191577261Y-106295666D01*
X191550903Y-106298500D01*
X191220570Y-106298500D01*
X191220554Y-106298499D01*
X191212958Y-106298499D01*
X191054843Y-106298499D01*
X190978479Y-106318961D01*
X190902114Y-106339423D01*
X190902109Y-106339426D01*
X190765190Y-106418475D01*
X190765182Y-106418481D01*
X189742290Y-107441373D01*
X189722326Y-107452273D01*
X189704985Y-107466998D01*
X189692246Y-107468699D01*
X189680967Y-107474858D01*
X189658276Y-107473235D01*
X189635730Y-107476246D01*
X189624095Y-107470790D01*
X189611275Y-107469874D01*
X189593062Y-107456239D01*
X189572469Y-107446584D01*
X189565630Y-107435703D01*
X189555342Y-107428002D01*
X189547392Y-107406689D01*
X189535287Y-107387430D01*
X189534100Y-107371052D01*
X189530925Y-107362538D01*
X189530615Y-107352446D01*
X189530763Y-107337684D01*
X189532501Y-107331199D01*
X189532501Y-107173084D01*
X189532500Y-107173080D01*
X189532500Y-71252943D01*
X189491577Y-71100216D01*
X189484420Y-71087819D01*
X189412524Y-70963290D01*
X189412521Y-70963286D01*
X189412520Y-70963284D01*
X189300716Y-70851480D01*
X189300715Y-70851479D01*
X189296385Y-70847149D01*
X189296374Y-70847139D01*
X188485590Y-70036355D01*
X188485588Y-70036352D01*
X188366717Y-69917481D01*
X188366716Y-69917480D01*
X188272067Y-69862835D01*
X188272066Y-69862834D01*
X188229783Y-69838422D01*
X188173881Y-69823443D01*
X188077057Y-69797499D01*
X187918943Y-69797499D01*
X187911347Y-69797499D01*
X187911331Y-69797500D01*
X136848155Y-69797500D01*
X136781116Y-69777815D01*
X136735361Y-69725011D01*
X136725417Y-69655853D01*
X136726538Y-69649309D01*
X136749101Y-69535874D01*
X136750500Y-69528842D01*
X136750500Y-69371158D01*
X136750500Y-69371155D01*
X136750499Y-69371153D01*
X136733702Y-69286711D01*
X136719737Y-69216503D01*
X136711451Y-69196499D01*
X136659397Y-69070827D01*
X136659390Y-69070814D01*
X136571789Y-68939711D01*
X136571786Y-68939707D01*
X136460292Y-68828213D01*
X136460288Y-68828210D01*
X136329185Y-68740609D01*
X136329172Y-68740602D01*
X136183501Y-68680264D01*
X136183489Y-68680261D01*
X136028845Y-68649500D01*
X136028842Y-68649500D01*
X135871158Y-68649500D01*
X135871155Y-68649500D01*
X135716510Y-68680261D01*
X135716498Y-68680264D01*
X135570828Y-68740602D01*
X135570819Y-68740607D01*
X135531389Y-68766953D01*
X135464711Y-68787829D01*
X135397331Y-68769343D01*
X135393611Y-68766953D01*
X135354180Y-68740607D01*
X135354179Y-68740606D01*
X135354175Y-68740604D01*
X135354171Y-68740602D01*
X135208501Y-68680264D01*
X135208489Y-68680261D01*
X135053845Y-68649500D01*
X135053842Y-68649500D01*
X134896158Y-68649500D01*
X134896155Y-68649500D01*
X134741510Y-68680261D01*
X134741498Y-68680264D01*
X134595827Y-68740602D01*
X134595814Y-68740609D01*
X134464711Y-68828210D01*
X134464707Y-68828213D01*
X134353213Y-68939707D01*
X134353210Y-68939711D01*
X134265609Y-69070814D01*
X134265604Y-69070824D01*
X134245255Y-69119952D01*
X134232711Y-69135517D01*
X134224407Y-69153702D01*
X134211236Y-69162166D01*
X134201414Y-69174355D01*
X134182446Y-69180667D01*
X134165629Y-69191476D01*
X134138068Y-69195438D01*
X134135120Y-69196420D01*
X134130694Y-69196499D01*
X134006615Y-69196499D01*
X133939576Y-69176814D01*
X133937724Y-69175601D01*
X133806036Y-69087609D01*
X133806023Y-69087602D01*
X133660352Y-69027264D01*
X133660340Y-69027261D01*
X133505696Y-68996500D01*
X133505693Y-68996500D01*
X133348009Y-68996500D01*
X133348006Y-68996500D01*
X133193361Y-69027261D01*
X133193349Y-69027264D01*
X133047678Y-69087602D01*
X133047665Y-69087609D01*
X132916562Y-69175210D01*
X132916558Y-69175213D01*
X132805064Y-69286707D01*
X132805061Y-69286711D01*
X132717460Y-69417814D01*
X132717453Y-69417827D01*
X132657115Y-69563498D01*
X132657112Y-69563510D01*
X132626351Y-69718153D01*
X132626351Y-69875846D01*
X132657112Y-70030489D01*
X132657115Y-70030501D01*
X132717453Y-70176172D01*
X132717460Y-70176185D01*
X132805061Y-70307288D01*
X132805064Y-70307292D01*
X132916558Y-70418786D01*
X132916562Y-70418789D01*
X133047665Y-70506390D01*
X133047678Y-70506397D01*
X133166411Y-70555577D01*
X133193354Y-70566737D01*
X133348004Y-70597499D01*
X133348007Y-70597500D01*
X133348009Y-70597500D01*
X133505695Y-70597500D01*
X133505696Y-70597499D01*
X133660348Y-70566737D01*
X133736628Y-70535141D01*
X133808064Y-70505552D01*
X133877533Y-70498083D01*
X133940012Y-70529358D01*
X133943197Y-70532432D01*
X134498584Y-71087819D01*
X134532069Y-71149142D01*
X134527085Y-71218834D01*
X134485213Y-71274767D01*
X134419749Y-71299184D01*
X134410903Y-71299500D01*
X130066197Y-71299500D01*
X129999158Y-71279815D01*
X129953403Y-71227011D01*
X129943459Y-71157853D01*
X129972484Y-71094297D01*
X129978516Y-71087819D01*
X130300620Y-70765715D01*
X130880520Y-70185816D01*
X130959577Y-70048884D01*
X131000501Y-69896157D01*
X131000501Y-69738042D01*
X131000501Y-69730447D01*
X131000500Y-69730429D01*
X131000500Y-69604765D01*
X131020185Y-69537726D01*
X131021398Y-69535874D01*
X131109390Y-69404185D01*
X131109390Y-69404184D01*
X131109394Y-69404179D01*
X131169737Y-69258497D01*
X131200500Y-69103842D01*
X131200500Y-68946158D01*
X131200500Y-68946155D01*
X131200499Y-68946153D01*
X131191948Y-68903163D01*
X131169737Y-68791503D01*
X131148656Y-68740609D01*
X131109397Y-68645827D01*
X131109390Y-68645814D01*
X131021789Y-68514711D01*
X131021786Y-68514707D01*
X130910292Y-68403213D01*
X130910288Y-68403210D01*
X130779185Y-68315609D01*
X130779172Y-68315602D01*
X130633501Y-68255264D01*
X130633489Y-68255261D01*
X130478845Y-68224500D01*
X130478842Y-68224500D01*
X130321158Y-68224500D01*
X130321155Y-68224500D01*
X130166510Y-68255261D01*
X130166498Y-68255264D01*
X130020827Y-68315602D01*
X130020814Y-68315609D01*
X129968891Y-68350304D01*
X129902214Y-68371182D01*
X129834833Y-68352698D01*
X129831109Y-68350304D01*
X129779185Y-68315609D01*
X129779172Y-68315602D01*
X129633501Y-68255264D01*
X129633489Y-68255261D01*
X129478845Y-68224500D01*
X129478842Y-68224500D01*
X129321158Y-68224500D01*
X129321155Y-68224500D01*
X129166510Y-68255261D01*
X129166498Y-68255264D01*
X129020827Y-68315602D01*
X129020814Y-68315609D01*
X128968891Y-68350304D01*
X128902214Y-68371182D01*
X128834833Y-68352698D01*
X128831109Y-68350304D01*
X128779185Y-68315609D01*
X128779172Y-68315602D01*
X128633501Y-68255264D01*
X128633489Y-68255261D01*
X128478845Y-68224500D01*
X128478842Y-68224500D01*
X128321158Y-68224500D01*
X128321155Y-68224500D01*
X128166510Y-68255261D01*
X128166498Y-68255264D01*
X128020827Y-68315602D01*
X128020814Y-68315609D01*
X127968891Y-68350304D01*
X127902214Y-68371182D01*
X127834833Y-68352698D01*
X127831109Y-68350304D01*
X127779185Y-68315609D01*
X127779172Y-68315602D01*
X127633501Y-68255264D01*
X127633489Y-68255261D01*
X127478845Y-68224500D01*
X127478842Y-68224500D01*
X127321158Y-68224500D01*
X127321155Y-68224500D01*
X127166510Y-68255261D01*
X127166498Y-68255264D01*
X127020827Y-68315602D01*
X127020814Y-68315609D01*
X126889711Y-68403210D01*
X126889707Y-68403213D01*
X126778213Y-68514707D01*
X126778210Y-68514711D01*
X126690609Y-68645814D01*
X126690602Y-68645827D01*
X126630264Y-68791498D01*
X126630261Y-68791508D01*
X126599361Y-68946850D01*
X126566976Y-69008761D01*
X126565425Y-69010339D01*
X126216584Y-69359181D01*
X126155261Y-69392666D01*
X126128903Y-69395500D01*
X105423697Y-69395500D01*
X105391309Y-69404178D01*
X105391310Y-69404179D01*
X105270972Y-69436423D01*
X105270967Y-69436426D01*
X105134048Y-69515475D01*
X105134040Y-69515481D01*
X103965481Y-70684040D01*
X103965477Y-70684045D01*
X103918326Y-70765715D01*
X103918326Y-70765716D01*
X103886423Y-70820972D01*
X103872781Y-70871882D01*
X103845499Y-70973701D01*
X103845499Y-70973703D01*
X103845499Y-71141804D01*
X103845500Y-71141817D01*
X103845500Y-97171902D01*
X103825815Y-97238941D01*
X103773011Y-97284696D01*
X103703853Y-97294640D01*
X103640297Y-97265615D01*
X103633819Y-97259583D01*
X102202590Y-95828355D01*
X102202588Y-95828352D01*
X102083717Y-95709481D01*
X102083716Y-95709480D01*
X101996904Y-95659360D01*
X101996904Y-95659359D01*
X101996900Y-95659358D01*
X101946785Y-95630423D01*
X101794057Y-95589499D01*
X101635943Y-95589499D01*
X101628347Y-95589499D01*
X101628331Y-95589500D01*
X89485721Y-95589500D01*
X89418682Y-95569815D01*
X89375237Y-95521795D01*
X89355054Y-95482185D01*
X89355053Y-95482184D01*
X89230111Y-95310213D01*
X89116571Y-95196673D01*
X89083086Y-95135350D01*
X89088070Y-95065658D01*
X89129942Y-95009725D01*
X89160917Y-94992810D01*
X89292333Y-94943796D01*
X89407548Y-94857546D01*
X89493798Y-94742331D01*
X89544093Y-94607483D01*
X89550502Y-94547873D01*
X89550501Y-92752128D01*
X89544093Y-92692517D01*
X89493798Y-92557669D01*
X89493797Y-92557668D01*
X89493795Y-92557664D01*
X89407549Y-92442455D01*
X89407546Y-92442452D01*
X89292337Y-92356206D01*
X89292330Y-92356202D01*
X89157484Y-92305908D01*
X89157485Y-92305908D01*
X89097885Y-92299501D01*
X89097883Y-92299500D01*
X89097875Y-92299500D01*
X89097867Y-92299500D01*
X88974502Y-92299500D01*
X88907463Y-92279815D01*
X88861708Y-92227011D01*
X88850502Y-92175500D01*
X88850502Y-90195806D01*
X88870187Y-90128767D01*
X88886821Y-90108125D01*
X93005271Y-85989675D01*
X93005276Y-85989670D01*
X93076465Y-85883127D01*
X93125501Y-85764744D01*
X93150500Y-85639069D01*
X93150500Y-69768974D01*
X93170185Y-69701935D01*
X93186819Y-69681293D01*
X100005293Y-62862819D01*
X100066616Y-62829334D01*
X100092974Y-62826500D01*
X128382026Y-62826500D01*
X128449065Y-62846185D01*
X128469707Y-62862819D01*
X130889957Y-65283069D01*
X130923442Y-65344392D01*
X130918458Y-65414084D01*
X130916838Y-65418201D01*
X130880263Y-65506503D01*
X130880261Y-65506510D01*
X130849500Y-65661153D01*
X130849500Y-65818846D01*
X130880261Y-65973489D01*
X130880264Y-65973501D01*
X130940602Y-66119172D01*
X130940609Y-66119185D01*
X131028210Y-66250288D01*
X131028213Y-66250292D01*
X131139707Y-66361786D01*
X131139711Y-66361789D01*
X131270814Y-66449390D01*
X131270827Y-66449397D01*
X131416498Y-66509735D01*
X131416503Y-66509737D01*
X131571153Y-66540499D01*
X131571156Y-66540500D01*
X131571158Y-66540500D01*
X131728844Y-66540500D01*
X131728845Y-66540499D01*
X131883497Y-66509737D01*
X132029179Y-66449394D01*
X132160289Y-66361789D01*
X132271789Y-66250289D01*
X132305569Y-66199732D01*
X132321734Y-66186222D01*
X132334361Y-66169356D01*
X132348004Y-66164267D01*
X132359179Y-66154928D01*
X132380085Y-66152301D01*
X132399825Y-66144939D01*
X132414053Y-66148034D01*
X132428504Y-66146219D01*
X132447511Y-66155312D01*
X132468098Y-66159791D01*
X132487976Y-66174671D01*
X132491532Y-66176373D01*
X132496352Y-66180942D01*
X132596154Y-66280744D01*
X132629639Y-66342067D01*
X132630090Y-66392616D01*
X132609495Y-66496153D01*
X132609495Y-66653846D01*
X132640256Y-66808489D01*
X132640259Y-66808501D01*
X132700597Y-66954172D01*
X132700604Y-66954185D01*
X132788205Y-67085288D01*
X132788208Y-67085292D01*
X132899702Y-67196786D01*
X132899706Y-67196789D01*
X133030809Y-67284390D01*
X133030822Y-67284397D01*
X133176493Y-67344735D01*
X133176498Y-67344737D01*
X133331148Y-67375499D01*
X133331151Y-67375500D01*
X133331153Y-67375500D01*
X133488839Y-67375500D01*
X133488840Y-67375499D01*
X133643492Y-67344737D01*
X133789174Y-67284394D01*
X133920284Y-67196789D01*
X134031784Y-67085289D01*
X134119389Y-66954179D01*
X134179732Y-66808497D01*
X134210495Y-66653842D01*
X134210495Y-66541408D01*
X134230180Y-66474369D01*
X134282984Y-66428614D01*
X134287043Y-66426847D01*
X134329172Y-66409397D01*
X134329172Y-66409396D01*
X134329179Y-66409394D01*
X134460289Y-66321789D01*
X134571789Y-66210289D01*
X134659394Y-66079179D01*
X134719737Y-65933497D01*
X134750500Y-65778842D01*
X134750500Y-65621158D01*
X134750458Y-65620732D01*
X134750500Y-65620510D01*
X134750500Y-65615066D01*
X134751533Y-65615066D01*
X134763477Y-65552086D01*
X134786178Y-65520899D01*
X134896789Y-65410289D01*
X134984394Y-65279179D01*
X135044737Y-65133497D01*
X135075500Y-64978842D01*
X135075500Y-64821158D01*
X135075500Y-64821155D01*
X135075499Y-64821153D01*
X135056443Y-64725352D01*
X135044737Y-64666503D01*
X135044735Y-64666498D01*
X134984397Y-64520827D01*
X134984390Y-64520814D01*
X134896789Y-64389711D01*
X134896786Y-64389707D01*
X134785292Y-64278213D01*
X134785288Y-64278210D01*
X134654185Y-64190609D01*
X134654172Y-64190602D01*
X134508501Y-64130264D01*
X134508489Y-64130261D01*
X134353845Y-64099500D01*
X134353842Y-64099500D01*
X134196158Y-64099500D01*
X134196155Y-64099500D01*
X134041510Y-64130261D01*
X134041498Y-64130264D01*
X133895827Y-64190602D01*
X133895815Y-64190609D01*
X133801541Y-64253602D01*
X133783494Y-64259252D01*
X133767585Y-64269477D01*
X133736625Y-64273928D01*
X133734864Y-64274480D01*
X133732650Y-64274500D01*
X133686072Y-64274500D01*
X133619033Y-64254815D01*
X133598391Y-64238181D01*
X129763818Y-60403608D01*
X129763798Y-60403586D01*
X129672353Y-60312141D01*
X129626945Y-60281801D01*
X129626944Y-60281800D01*
X129621129Y-60277915D01*
X129569906Y-60243688D01*
X129489412Y-60210347D01*
X129474077Y-60203995D01*
X129456073Y-60196537D01*
X129446047Y-60194543D01*
X129395649Y-60184518D01*
X129335230Y-60172500D01*
X129335227Y-60172500D01*
X129335226Y-60172500D01*
X99269121Y-60172500D01*
X99269101Y-60172499D01*
X99262987Y-60172499D01*
X99139774Y-60172499D01*
X99038977Y-60192548D01*
X99038972Y-60192548D01*
X99018929Y-60196536D01*
X99018927Y-60196536D01*
X98971777Y-60216067D01*
X98905099Y-60243685D01*
X98905097Y-60243686D01*
X98802646Y-60312141D01*
X98802643Y-60312144D01*
X88603609Y-70511181D01*
X88542286Y-70544666D01*
X88515928Y-70547500D01*
X86787986Y-70547500D01*
X86664773Y-70547500D01*
X86624167Y-70555577D01*
X86624166Y-70555576D01*
X86543935Y-70571535D01*
X86543925Y-70571538D01*
X86430096Y-70618687D01*
X86430087Y-70618692D01*
X86327648Y-70687140D01*
X86284085Y-70730703D01*
X86240522Y-70774267D01*
X85302181Y-71712608D01*
X85240858Y-71746093D01*
X85171166Y-71741109D01*
X85115233Y-71699237D01*
X85090816Y-71633773D01*
X85090500Y-71624927D01*
X85090500Y-69612372D01*
X85110185Y-69545333D01*
X85162989Y-69499578D01*
X85232147Y-69489634D01*
X85283387Y-69509268D01*
X85395821Y-69584394D01*
X85395823Y-69584395D01*
X85395827Y-69584397D01*
X85463366Y-69612372D01*
X85541503Y-69644737D01*
X85696153Y-69675499D01*
X85696156Y-69675500D01*
X85696158Y-69675500D01*
X85853844Y-69675500D01*
X85853845Y-69675499D01*
X86008497Y-69644737D01*
X86154179Y-69584394D01*
X86285289Y-69496789D01*
X86396789Y-69385289D01*
X86484394Y-69254179D01*
X86544737Y-69108497D01*
X86566858Y-68997282D01*
X86599240Y-68935375D01*
X86600731Y-68933857D01*
X87333970Y-68200621D01*
X87402424Y-68098173D01*
X87449575Y-67984339D01*
X87473613Y-67863494D01*
X87473613Y-67740281D01*
X87473613Y-67735171D01*
X87473612Y-67735145D01*
X87473612Y-63423047D01*
X87475993Y-63398865D01*
X87475993Y-63398863D01*
X87479481Y-63381327D01*
X87491500Y-63320905D01*
X87491500Y-63197691D01*
X87491500Y-63000873D01*
X87492814Y-61952135D01*
X88149500Y-61952135D01*
X88149500Y-63747870D01*
X88149501Y-63747876D01*
X88155908Y-63807483D01*
X88206202Y-63942328D01*
X88206206Y-63942335D01*
X88292452Y-64057544D01*
X88292455Y-64057547D01*
X88407664Y-64143793D01*
X88407671Y-64143797D01*
X88452618Y-64160561D01*
X88542517Y-64194091D01*
X88602127Y-64200500D01*
X88612685Y-64200499D01*
X88679723Y-64220179D01*
X88700372Y-64236818D01*
X89370591Y-64907037D01*
X89307007Y-64924075D01*
X89192993Y-64989901D01*
X89099901Y-65082993D01*
X89034075Y-65197007D01*
X89017037Y-65260591D01*
X88384728Y-64628282D01*
X88384727Y-64628282D01*
X88345380Y-64682439D01*
X88248904Y-64871782D01*
X88183242Y-65073869D01*
X88183242Y-65073872D01*
X88150000Y-65283753D01*
X88150000Y-65496246D01*
X88183242Y-65706127D01*
X88183242Y-65706130D01*
X88248904Y-65908217D01*
X88345375Y-66097550D01*
X88384728Y-66151716D01*
X89017037Y-65519408D01*
X89034075Y-65582993D01*
X89099901Y-65697007D01*
X89192993Y-65790099D01*
X89307007Y-65855925D01*
X89370590Y-65872962D01*
X88738282Y-66505269D01*
X88738282Y-66505270D01*
X88792449Y-66544624D01*
X88981782Y-66641095D01*
X89183870Y-66706757D01*
X89393754Y-66740000D01*
X89606246Y-66740000D01*
X89816127Y-66706757D01*
X89816130Y-66706757D01*
X90018217Y-66641095D01*
X90207554Y-66544622D01*
X90261716Y-66505270D01*
X90261717Y-66505270D01*
X89629408Y-65872962D01*
X89692993Y-65855925D01*
X89807007Y-65790099D01*
X89900099Y-65697007D01*
X89965925Y-65582993D01*
X89982962Y-65519408D01*
X90615270Y-66151717D01*
X90615270Y-66151716D01*
X90654622Y-66097554D01*
X90751095Y-65908217D01*
X90816757Y-65706130D01*
X90816757Y-65706127D01*
X90850000Y-65496246D01*
X90850000Y-65283753D01*
X90816757Y-65073872D01*
X90816757Y-65073869D01*
X90751095Y-64871782D01*
X90654624Y-64682449D01*
X90615270Y-64628282D01*
X90615269Y-64628282D01*
X89982962Y-65260590D01*
X89965925Y-65197007D01*
X89900099Y-65082993D01*
X89807007Y-64989901D01*
X89692993Y-64924075D01*
X89629409Y-64907037D01*
X90299627Y-64236818D01*
X90360950Y-64203333D01*
X90387307Y-64200499D01*
X90397872Y-64200499D01*
X90457483Y-64194091D01*
X90592331Y-64143796D01*
X90707546Y-64057546D01*
X90793796Y-63942331D01*
X90844091Y-63807483D01*
X90850500Y-63747873D01*
X90850499Y-61952128D01*
X90844091Y-61892517D01*
X90793796Y-61757669D01*
X90793795Y-61757668D01*
X90793793Y-61757664D01*
X90707547Y-61642455D01*
X90707544Y-61642452D01*
X90592335Y-61556206D01*
X90592328Y-61556202D01*
X90457482Y-61505908D01*
X90457483Y-61505908D01*
X90397883Y-61499501D01*
X90397881Y-61499500D01*
X90397873Y-61499500D01*
X90397864Y-61499500D01*
X88602129Y-61499500D01*
X88602123Y-61499501D01*
X88542516Y-61505908D01*
X88407671Y-61556202D01*
X88407664Y-61556206D01*
X88292455Y-61642452D01*
X88292452Y-61642455D01*
X88206206Y-61757664D01*
X88206202Y-61757671D01*
X88155908Y-61892517D01*
X88149501Y-61952116D01*
X88149501Y-61952123D01*
X88149500Y-61952135D01*
X87492814Y-61952135D01*
X87499600Y-56536192D01*
X87508260Y-56506835D01*
X87514768Y-56476923D01*
X87518591Y-56471815D01*
X87519369Y-56469180D01*
X87535909Y-56448679D01*
X87677032Y-56307557D01*
X87738351Y-56274076D01*
X87764685Y-56271242D01*
X118259623Y-56266069D01*
X118326664Y-56285742D01*
X118372428Y-56338538D01*
X118382383Y-56407695D01*
X118353369Y-56471256D01*
X118302976Y-56506251D01*
X118222670Y-56536203D01*
X118222665Y-56536206D01*
X118107456Y-56622452D01*
X118107453Y-56622455D01*
X118021207Y-56737664D01*
X118021203Y-56737671D01*
X117970909Y-56872517D01*
X117964502Y-56932116D01*
X117964502Y-56932123D01*
X117964501Y-56932135D01*
X117964501Y-58727870D01*
X117964502Y-58727876D01*
X117970909Y-58787483D01*
X118021203Y-58922328D01*
X118021207Y-58922335D01*
X118107453Y-59037544D01*
X118107456Y-59037547D01*
X118222665Y-59123793D01*
X118222672Y-59123797D01*
X118357518Y-59174091D01*
X118357517Y-59174091D01*
X118364445Y-59174835D01*
X118417128Y-59180500D01*
X120212873Y-59180499D01*
X120272484Y-59174091D01*
X120407332Y-59123796D01*
X120522547Y-59037546D01*
X120608797Y-58922331D01*
X120659092Y-58787483D01*
X120665501Y-58727873D01*
X120665500Y-58703980D01*
X120668331Y-58690964D01*
X120678941Y-58671526D01*
X120685180Y-58650276D01*
X120701804Y-58629644D01*
X120701809Y-58629637D01*
X120701812Y-58629635D01*
X120701819Y-58629627D01*
X121372039Y-57959408D01*
X121389077Y-58022993D01*
X121454903Y-58137007D01*
X121547995Y-58230099D01*
X121662009Y-58295925D01*
X121725592Y-58312962D01*
X121093284Y-58945269D01*
X121093284Y-58945270D01*
X121147451Y-58984624D01*
X121336784Y-59081095D01*
X121538872Y-59146757D01*
X121748756Y-59180000D01*
X121961248Y-59180000D01*
X122171129Y-59146757D01*
X122171132Y-59146757D01*
X122373219Y-59081095D01*
X122562556Y-58984622D01*
X122616718Y-58945270D01*
X122616719Y-58945270D01*
X121984410Y-58312962D01*
X122047995Y-58295925D01*
X122162009Y-58230099D01*
X122255101Y-58137007D01*
X122320927Y-58022993D01*
X122337964Y-57959409D01*
X122970272Y-58591717D01*
X122970272Y-58591716D01*
X123009624Y-58537554D01*
X123106097Y-58348217D01*
X123171759Y-58146130D01*
X123171759Y-58146127D01*
X123194233Y-58004240D01*
X123205002Y-57936246D01*
X123205002Y-57723753D01*
X123171759Y-57513872D01*
X123171759Y-57513869D01*
X123106097Y-57311782D01*
X123009626Y-57122449D01*
X122970272Y-57068282D01*
X122970271Y-57068282D01*
X122337964Y-57700590D01*
X122320927Y-57637007D01*
X122255101Y-57522993D01*
X122162009Y-57429901D01*
X122047995Y-57364075D01*
X121984411Y-57347037D01*
X122616718Y-56714728D01*
X122562552Y-56675375D01*
X122373219Y-56578904D01*
X122171133Y-56513243D01*
X122162510Y-56511877D01*
X122099376Y-56481946D01*
X122062446Y-56422633D01*
X122063446Y-56352771D01*
X122102057Y-56294539D01*
X122166022Y-56266426D01*
X122181883Y-56265404D01*
X135265377Y-56263185D01*
X135332420Y-56282858D01*
X135378184Y-56335654D01*
X135388139Y-56404811D01*
X135359125Y-56468372D01*
X135308732Y-56503367D01*
X135232911Y-56531646D01*
X135232906Y-56531649D01*
X135117812Y-56617809D01*
X135117809Y-56617812D01*
X135031649Y-56732906D01*
X135031645Y-56732913D01*
X134981403Y-56867620D01*
X134981401Y-56867627D01*
X134975000Y-56927155D01*
X134975000Y-57575000D01*
X135891988Y-57575000D01*
X135859075Y-57632007D01*
X135825000Y-57759174D01*
X135825000Y-57890826D01*
X135859075Y-58017993D01*
X135891988Y-58075000D01*
X134975000Y-58075000D01*
X134975000Y-58722844D01*
X134981401Y-58782372D01*
X134981403Y-58782379D01*
X135031645Y-58917086D01*
X135031649Y-58917093D01*
X135117809Y-59032187D01*
X135117812Y-59032190D01*
X135232906Y-59118350D01*
X135232913Y-59118354D01*
X135367620Y-59168596D01*
X135367627Y-59168598D01*
X135427155Y-59174999D01*
X135427172Y-59175000D01*
X136075000Y-59175000D01*
X136075000Y-58258012D01*
X136132007Y-58290925D01*
X136259174Y-58325000D01*
X136390826Y-58325000D01*
X136517993Y-58290925D01*
X136575000Y-58258012D01*
X136575000Y-59175000D01*
X137222828Y-59175000D01*
X137222844Y-59174999D01*
X137282372Y-59168598D01*
X137282379Y-59168596D01*
X137417086Y-59118354D01*
X137417093Y-59118350D01*
X137532187Y-59032190D01*
X137532190Y-59032187D01*
X137618350Y-58917093D01*
X137618354Y-58917086D01*
X137667422Y-58785528D01*
X137709293Y-58729594D01*
X137774757Y-58705177D01*
X137843030Y-58720028D01*
X137871285Y-58741180D01*
X137985214Y-58855109D01*
X138157180Y-58980048D01*
X138157182Y-58980049D01*
X138157185Y-58980051D01*
X138346589Y-59076557D01*
X138548758Y-59142246D01*
X138758714Y-59175500D01*
X138758715Y-59175500D01*
X138971287Y-59175500D01*
X138971288Y-59175500D01*
X139181244Y-59142246D01*
X139383413Y-59076557D01*
X139572817Y-58980051D01*
X139594790Y-58964086D01*
X139744787Y-58855109D01*
X139744789Y-58855106D01*
X139744793Y-58855104D01*
X139895105Y-58704792D01*
X139895107Y-58704788D01*
X139895110Y-58704786D01*
X140020049Y-58532820D01*
X140020050Y-58532819D01*
X140020052Y-58532816D01*
X140024513Y-58524058D01*
X140072484Y-58473262D01*
X140140304Y-58456464D01*
X140206441Y-58478998D01*
X140245482Y-58524050D01*
X140249948Y-58532815D01*
X140374890Y-58704785D01*
X140525213Y-58855108D01*
X140697179Y-58980047D01*
X140697181Y-58980048D01*
X140697184Y-58980050D01*
X140886588Y-59076556D01*
X141088757Y-59142245D01*
X141298713Y-59175499D01*
X141298714Y-59175499D01*
X141511286Y-59175499D01*
X141511287Y-59175499D01*
X141721243Y-59142245D01*
X141923412Y-59076556D01*
X142112816Y-58980050D01*
X142167566Y-58940272D01*
X142284786Y-58855108D01*
X142284788Y-58855105D01*
X142284792Y-58855103D01*
X142435104Y-58704791D01*
X142435108Y-58704786D01*
X142435109Y-58704785D01*
X142502515Y-58612006D01*
X142560051Y-58532815D01*
X142564793Y-58523507D01*
X142612763Y-58472710D01*
X142680583Y-58455910D01*
X142746719Y-58478444D01*
X142785763Y-58523499D01*
X142790374Y-58532548D01*
X142829729Y-58586717D01*
X143462038Y-57954409D01*
X143479076Y-58017994D01*
X143544902Y-58132008D01*
X143637994Y-58225100D01*
X143752008Y-58290926D01*
X143815591Y-58307963D01*
X143183283Y-58940270D01*
X143183283Y-58940271D01*
X143237450Y-58979625D01*
X143426783Y-59076096D01*
X143628871Y-59141758D01*
X143838755Y-59175001D01*
X144051247Y-59175001D01*
X144261128Y-59141758D01*
X144261131Y-59141758D01*
X144463218Y-59076096D01*
X144652555Y-58979623D01*
X144706717Y-58940271D01*
X144706718Y-58940271D01*
X144074409Y-58307963D01*
X144137994Y-58290926D01*
X144252008Y-58225100D01*
X144345100Y-58132008D01*
X144410926Y-58017994D01*
X144427963Y-57954410D01*
X145060271Y-58586718D01*
X145060271Y-58586717D01*
X145099625Y-58532553D01*
X145104235Y-58523506D01*
X145152209Y-58472709D01*
X145220030Y-58455914D01*
X145286165Y-58478451D01*
X145325204Y-58523504D01*
X145325483Y-58524050D01*
X145329951Y-58532820D01*
X145454890Y-58704786D01*
X145605213Y-58855109D01*
X145777179Y-58980048D01*
X145777181Y-58980049D01*
X145777184Y-58980051D01*
X145966588Y-59076557D01*
X146168757Y-59142246D01*
X146378713Y-59175500D01*
X146378714Y-59175500D01*
X146591286Y-59175500D01*
X146591287Y-59175500D01*
X146801243Y-59142246D01*
X147003412Y-59076557D01*
X147192816Y-58980051D01*
X147214789Y-58964086D01*
X147364786Y-58855109D01*
X147364788Y-58855106D01*
X147364792Y-58855104D01*
X147515104Y-58704792D01*
X147515106Y-58704788D01*
X147515109Y-58704786D01*
X147600890Y-58586717D01*
X147640051Y-58532816D01*
X147644793Y-58523508D01*
X147692763Y-58472711D01*
X147760583Y-58455911D01*
X147826719Y-58478445D01*
X147865763Y-58523500D01*
X147870373Y-58532547D01*
X147909728Y-58586716D01*
X148542037Y-57954408D01*
X148559075Y-58017993D01*
X148624901Y-58132007D01*
X148717993Y-58225099D01*
X148832007Y-58290925D01*
X148895590Y-58307962D01*
X148263282Y-58940269D01*
X148263282Y-58940270D01*
X148317449Y-58979624D01*
X148506782Y-59076095D01*
X148708870Y-59141757D01*
X148918754Y-59175000D01*
X149131246Y-59175000D01*
X149341127Y-59141757D01*
X149341130Y-59141757D01*
X149543217Y-59076095D01*
X149732554Y-58979622D01*
X149786716Y-58940270D01*
X149786717Y-58940270D01*
X149154408Y-58307962D01*
X149217993Y-58290925D01*
X149332007Y-58225099D01*
X149425099Y-58132007D01*
X149490925Y-58017993D01*
X149507962Y-57954408D01*
X150140270Y-58586717D01*
X150140270Y-58586716D01*
X150179622Y-58532555D01*
X150184232Y-58523507D01*
X150232205Y-58472709D01*
X150300025Y-58455912D01*
X150366161Y-58478447D01*
X150405202Y-58523500D01*
X150409949Y-58532816D01*
X150534890Y-58704785D01*
X150685213Y-58855108D01*
X150857179Y-58980047D01*
X150857181Y-58980048D01*
X150857184Y-58980050D01*
X151046588Y-59076556D01*
X151248757Y-59142245D01*
X151458713Y-59175499D01*
X151458714Y-59175499D01*
X151671286Y-59175499D01*
X151671287Y-59175499D01*
X151881243Y-59142245D01*
X152083412Y-59076556D01*
X152272816Y-58980050D01*
X152327566Y-58940272D01*
X152444786Y-58855108D01*
X152444788Y-58855105D01*
X152444792Y-58855103D01*
X152595104Y-58704791D01*
X152595108Y-58704786D01*
X152595109Y-58704785D01*
X152720048Y-58532819D01*
X152720049Y-58532818D01*
X152720051Y-58532815D01*
X152724795Y-58523503D01*
X152772767Y-58472707D01*
X152840587Y-58455910D01*
X152906723Y-58478445D01*
X152945766Y-58523502D01*
X152950374Y-58532546D01*
X152989729Y-58586715D01*
X153622038Y-57954407D01*
X153639076Y-58017992D01*
X153704902Y-58132006D01*
X153797994Y-58225098D01*
X153912008Y-58290924D01*
X153975591Y-58307961D01*
X153343283Y-58940268D01*
X153343283Y-58940269D01*
X153397450Y-58979623D01*
X153586783Y-59076094D01*
X153788871Y-59141756D01*
X153998755Y-59174999D01*
X154211247Y-59174999D01*
X154421128Y-59141756D01*
X154421131Y-59141756D01*
X154623218Y-59076094D01*
X154812555Y-58979621D01*
X154866717Y-58940269D01*
X154866718Y-58940269D01*
X154234409Y-58307961D01*
X154297994Y-58290924D01*
X154412008Y-58225098D01*
X154505100Y-58132006D01*
X154570926Y-58017992D01*
X154587963Y-57954407D01*
X155220271Y-58586716D01*
X155220271Y-58586715D01*
X155259623Y-58532554D01*
X155264232Y-58523508D01*
X155312205Y-58472710D01*
X155380026Y-58455913D01*
X155446161Y-58478448D01*
X155485202Y-58523501D01*
X155489949Y-58532817D01*
X155614890Y-58704786D01*
X155765213Y-58855109D01*
X155937179Y-58980048D01*
X155937181Y-58980049D01*
X155937184Y-58980051D01*
X156126588Y-59076557D01*
X156328757Y-59142246D01*
X156538713Y-59175500D01*
X156538714Y-59175500D01*
X156751286Y-59175500D01*
X156751287Y-59175500D01*
X156961243Y-59142246D01*
X157163412Y-59076557D01*
X157352816Y-58980051D01*
X157374789Y-58964086D01*
X157524786Y-58855109D01*
X157524788Y-58855106D01*
X157524792Y-58855104D01*
X157675104Y-58704792D01*
X157675106Y-58704788D01*
X157675109Y-58704786D01*
X157760890Y-58586717D01*
X157800051Y-58532816D01*
X157804792Y-58523510D01*
X157852762Y-58472713D01*
X157920582Y-58455913D01*
X157986718Y-58478447D01*
X158025762Y-58523502D01*
X158030372Y-58532549D01*
X158069727Y-58586718D01*
X158702036Y-57954410D01*
X158719074Y-58017995D01*
X158784900Y-58132009D01*
X158877992Y-58225101D01*
X158992006Y-58290927D01*
X159055589Y-58307964D01*
X158423281Y-58940271D01*
X158423281Y-58940272D01*
X158477448Y-58979626D01*
X158666781Y-59076097D01*
X158868869Y-59141759D01*
X159078753Y-59175002D01*
X159291245Y-59175002D01*
X159501126Y-59141759D01*
X159501129Y-59141759D01*
X159703216Y-59076097D01*
X159892553Y-58979624D01*
X159946715Y-58940272D01*
X159946716Y-58940272D01*
X159314407Y-58307964D01*
X159377992Y-58290927D01*
X159492006Y-58225101D01*
X159585098Y-58132009D01*
X159650924Y-58017995D01*
X159667961Y-57954410D01*
X160300269Y-58586719D01*
X160300269Y-58586718D01*
X160339621Y-58532556D01*
X160436094Y-58343219D01*
X160501756Y-58141132D01*
X160501756Y-58141129D01*
X160534999Y-57931248D01*
X160534999Y-57718755D01*
X160501756Y-57508874D01*
X160501756Y-57508871D01*
X160436094Y-57306784D01*
X160339623Y-57117451D01*
X160300269Y-57063284D01*
X160300268Y-57063284D01*
X159667961Y-57695592D01*
X159650924Y-57632009D01*
X159585098Y-57517995D01*
X159492006Y-57424903D01*
X159377992Y-57359077D01*
X159314408Y-57342039D01*
X159946715Y-56709730D01*
X159892549Y-56670377D01*
X159703216Y-56573906D01*
X159501131Y-56508245D01*
X159484092Y-56505546D01*
X159420959Y-56475614D01*
X159384030Y-56416301D01*
X159385030Y-56346438D01*
X159423642Y-56288207D01*
X159487607Y-56260095D01*
X159503459Y-56259073D01*
X171166126Y-56257095D01*
X171233167Y-56276768D01*
X171253826Y-56293414D01*
X172273188Y-57312776D01*
X172306673Y-57374099D01*
X172309507Y-57400457D01*
X172309507Y-57453700D01*
X172344110Y-57627663D01*
X172344113Y-57627672D01*
X172411990Y-57791545D01*
X172411997Y-57791558D01*
X172510542Y-57939039D01*
X172510545Y-57939043D01*
X172635968Y-58064466D01*
X172635972Y-58064469D01*
X172783453Y-58163014D01*
X172783466Y-58163021D01*
X172867608Y-58197873D01*
X172947341Y-58230899D01*
X172947343Y-58230899D01*
X172947348Y-58230901D01*
X173121311Y-58265504D01*
X173121314Y-58265505D01*
X173121316Y-58265505D01*
X173298700Y-58265505D01*
X173298701Y-58265504D01*
X173356689Y-58253969D01*
X173472665Y-58230901D01*
X173472668Y-58230899D01*
X173472673Y-58230899D01*
X173623230Y-58168537D01*
X173636547Y-58163021D01*
X173636547Y-58163020D01*
X173636554Y-58163018D01*
X173784042Y-58064469D01*
X173909471Y-57939040D01*
X174008020Y-57791552D01*
X174075901Y-57627671D01*
X174082463Y-57594685D01*
X174105982Y-57476446D01*
X174106558Y-57473551D01*
X176013704Y-57473551D01*
X176052152Y-57666837D01*
X176052155Y-57666847D01*
X176127569Y-57848915D01*
X176127576Y-57848928D01*
X176237064Y-58012788D01*
X176237065Y-58012789D01*
X176237066Y-58012790D01*
X176301070Y-58076794D01*
X176334554Y-58138115D01*
X176335005Y-58140282D01*
X176340623Y-58168527D01*
X176340626Y-58168537D01*
X176393427Y-58296012D01*
X176470092Y-58410750D01*
X180178454Y-62119112D01*
X180293190Y-62195776D01*
X180391790Y-62236617D01*
X180420671Y-62248580D01*
X180420672Y-62248580D01*
X180420677Y-62248582D01*
X180447545Y-62253925D01*
X180447551Y-62253926D01*
X180447591Y-62253934D01*
X180537937Y-62271905D01*
X180556006Y-62275500D01*
X180556007Y-62275500D01*
X181858481Y-62275500D01*
X181925520Y-62295185D01*
X181946162Y-62311819D01*
X197838181Y-78203838D01*
X197871666Y-78265161D01*
X197874500Y-78291519D01*
X197874500Y-81434216D01*
X197854815Y-81501255D01*
X197838181Y-81521897D01*
X197797863Y-81562214D01*
X197797860Y-81562218D01*
X197688371Y-81726079D01*
X197688364Y-81726092D01*
X197612950Y-81908160D01*
X197612947Y-81908170D01*
X197574500Y-82101456D01*
X197574500Y-82101459D01*
X197574500Y-82298541D01*
X197574500Y-82298543D01*
X197574499Y-82298543D01*
X197612947Y-82491829D01*
X197612950Y-82491839D01*
X197688364Y-82673907D01*
X197688371Y-82673920D01*
X197797860Y-82837781D01*
X197797863Y-82837785D01*
X197937214Y-82977136D01*
X197937218Y-82977139D01*
X198101079Y-83086628D01*
X198101092Y-83086635D01*
X198241343Y-83144728D01*
X198283165Y-83162051D01*
X198283169Y-83162051D01*
X198283170Y-83162052D01*
X198476456Y-83200500D01*
X198476459Y-83200500D01*
X198673543Y-83200500D01*
X198803582Y-83174632D01*
X198866835Y-83162051D01*
X199007655Y-83103721D01*
X199048907Y-83086635D01*
X199048907Y-83086634D01*
X199048914Y-83086632D01*
X199212782Y-82977139D01*
X199352139Y-82837782D01*
X199461632Y-82673914D01*
X199537051Y-82491835D01*
X199564973Y-82351463D01*
X199575500Y-82298543D01*
X199575500Y-82101456D01*
X199537052Y-81908170D01*
X199537051Y-81908169D01*
X199537051Y-81908165D01*
X199528622Y-81887816D01*
X199461635Y-81726092D01*
X199461628Y-81726079D01*
X199352139Y-81562218D01*
X199352136Y-81562214D01*
X199311819Y-81521897D01*
X199278334Y-81460574D01*
X199275500Y-81434216D01*
X199275500Y-77881004D01*
X199248581Y-77745677D01*
X199248580Y-77745676D01*
X199248580Y-77745672D01*
X199217279Y-77670104D01*
X199195778Y-77618195D01*
X199195774Y-77618188D01*
X199155191Y-77557451D01*
X199155191Y-77557450D01*
X199119115Y-77503458D01*
X199119109Y-77503451D01*
X182646545Y-61030887D01*
X182531807Y-60954222D01*
X182404332Y-60901421D01*
X182404322Y-60901418D01*
X182268996Y-60874500D01*
X182268994Y-60874500D01*
X182268993Y-60874500D01*
X180966519Y-60874500D01*
X180899480Y-60854815D01*
X180878838Y-60838181D01*
X177956126Y-57915469D01*
X177922641Y-57854146D01*
X177927625Y-57784454D01*
X177929246Y-57780335D01*
X177976256Y-57666843D01*
X178005864Y-57517995D01*
X178014705Y-57473551D01*
X178014705Y-57276464D01*
X177976257Y-57083178D01*
X177976256Y-57083177D01*
X177976256Y-57083173D01*
X177954385Y-57030371D01*
X177900840Y-56901100D01*
X177900833Y-56901087D01*
X177791344Y-56737226D01*
X177791341Y-56737222D01*
X177651990Y-56597871D01*
X177651986Y-56597868D01*
X177488125Y-56488379D01*
X177488112Y-56488372D01*
X177306044Y-56412958D01*
X177306034Y-56412955D01*
X177112748Y-56374508D01*
X177112746Y-56374508D01*
X176915664Y-56374508D01*
X176915662Y-56374508D01*
X176722375Y-56412955D01*
X176722365Y-56412958D01*
X176540297Y-56488372D01*
X176540284Y-56488379D01*
X176376423Y-56597868D01*
X176376419Y-56597871D01*
X176237068Y-56737222D01*
X176237065Y-56737226D01*
X176127576Y-56901087D01*
X176127569Y-56901100D01*
X176052155Y-57083168D01*
X176052152Y-57083178D01*
X176013705Y-57276464D01*
X176013705Y-57276467D01*
X176013705Y-57473549D01*
X176013705Y-57473551D01*
X176013704Y-57473551D01*
X174106558Y-57473551D01*
X174110507Y-57453696D01*
X174110507Y-57276314D01*
X174110507Y-57276311D01*
X174110506Y-57276309D01*
X174075903Y-57102346D01*
X174075900Y-57102337D01*
X174008023Y-56938464D01*
X174008016Y-56938451D01*
X173909471Y-56790970D01*
X173909468Y-56790966D01*
X173784045Y-56665543D01*
X173784041Y-56665540D01*
X173636560Y-56566995D01*
X173636547Y-56566988D01*
X173472674Y-56499111D01*
X173472665Y-56499108D01*
X173298701Y-56464505D01*
X173298698Y-56464505D01*
X173245460Y-56464505D01*
X173178421Y-56444820D01*
X173157779Y-56428186D01*
X172447136Y-55717543D01*
X172413651Y-55656220D01*
X172418635Y-55586528D01*
X172460507Y-55530595D01*
X172525971Y-55506178D01*
X172534789Y-55505862D01*
X203525479Y-55500606D01*
X203592522Y-55520279D01*
G37*
%TD.AperFunction*%
%TA.AperFunction,Conductor*%
G36*
X159807941Y-107320185D02*
G01*
X159853696Y-107372989D01*
X159863640Y-107442147D01*
X159834615Y-107505703D01*
X159828583Y-107512181D01*
X159039481Y-108301282D01*
X159039479Y-108301285D01*
X158989361Y-108388094D01*
X158989359Y-108388096D01*
X158960425Y-108438209D01*
X158960424Y-108438210D01*
X158960423Y-108438215D01*
X158919499Y-108590943D01*
X158919499Y-108590945D01*
X158919499Y-108759046D01*
X158919500Y-108759059D01*
X158919500Y-110186448D01*
X158919404Y-110191320D01*
X158918859Y-110205163D01*
X158910999Y-110234500D01*
X158910999Y-110392614D01*
X158911000Y-110392617D01*
X158911000Y-110405046D01*
X158911000Y-110724773D01*
X158910999Y-110724791D01*
X158910999Y-110890500D01*
X158915275Y-110906458D01*
X158919500Y-110938551D01*
X158919500Y-132029902D01*
X158910855Y-132059341D01*
X158904332Y-132089329D01*
X158900577Y-132094344D01*
X158899815Y-132096941D01*
X158883181Y-132117584D01*
X158781725Y-132219039D01*
X158720401Y-132252523D01*
X158650710Y-132247539D01*
X158594777Y-132205667D01*
X158570360Y-132140202D01*
X158570044Y-132131619D01*
X158550500Y-121909571D01*
X158550500Y-121844108D01*
X158550500Y-121844107D01*
X158550373Y-121843150D01*
X158533380Y-121780213D01*
X158533318Y-121779984D01*
X158531164Y-121771946D01*
X158516392Y-121716814D01*
X158516391Y-121716812D01*
X158516239Y-121716446D01*
X158516192Y-121716332D01*
X158516023Y-121715925D01*
X158483183Y-121659295D01*
X158483181Y-121659291D01*
X158483109Y-121659168D01*
X158450500Y-121602686D01*
X158450160Y-121602346D01*
X158449918Y-121601928D01*
X158449915Y-121601924D01*
X158403492Y-121555677D01*
X158403488Y-121555674D01*
X158357314Y-121509500D01*
X158356903Y-121509262D01*
X158356559Y-121508920D01*
X158356554Y-121508916D01*
X158299808Y-121476298D01*
X158299666Y-121476217D01*
X158243186Y-121443608D01*
X158242717Y-121443482D01*
X158242294Y-121443239D01*
X158178963Y-121426399D01*
X158178962Y-121426398D01*
X158178603Y-121426302D01*
X158115892Y-121409500D01*
X158115410Y-121409500D01*
X158114940Y-121409375D01*
X158114935Y-121409375D01*
X158060460Y-121409479D01*
X158049565Y-121409500D01*
X128984108Y-121409500D01*
X128856812Y-121443608D01*
X128742686Y-121509500D01*
X128742683Y-121509502D01*
X128649502Y-121602683D01*
X128649500Y-121602686D01*
X128583608Y-121716812D01*
X128568832Y-121771959D01*
X128549500Y-121844108D01*
X128549500Y-132359828D01*
X128549477Y-132425720D01*
X128549500Y-132425805D01*
X128549500Y-132425892D01*
X128550446Y-132429426D01*
X128550447Y-132429428D01*
X128566217Y-132488281D01*
X128566222Y-132488323D01*
X128566228Y-132488322D01*
X128583542Y-132553030D01*
X128583603Y-132553177D01*
X128583607Y-132553185D01*
X128583608Y-132553186D01*
X128616233Y-132609694D01*
X128627470Y-132629172D01*
X128649397Y-132667181D01*
X128649499Y-132667314D01*
X128688795Y-132706609D01*
X128695971Y-132713785D01*
X128742548Y-132760394D01*
X128742554Y-132760397D01*
X128742677Y-132760491D01*
X128742686Y-132760500D01*
X128768666Y-132775499D01*
X128800006Y-132793593D01*
X128800001Y-132793600D01*
X128800046Y-132793616D01*
X128856649Y-132826323D01*
X128856650Y-132826323D01*
X128856653Y-132826325D01*
X128856655Y-132826325D01*
X128856808Y-132826389D01*
X128856814Y-132826392D01*
X128921343Y-132843682D01*
X128983936Y-132860477D01*
X128984022Y-132860477D01*
X128984108Y-132860500D01*
X128984121Y-132860500D01*
X129050678Y-132860500D01*
X150283630Y-132867816D01*
X150350661Y-132887524D01*
X150396398Y-132940343D01*
X150406318Y-133009505D01*
X150377271Y-133073051D01*
X150371267Y-133079497D01*
X149804522Y-133646242D01*
X149743199Y-133679727D01*
X149678523Y-133676492D01*
X149636245Y-133662755D01*
X149496272Y-133640585D01*
X149426287Y-133629501D01*
X149213713Y-133629501D01*
X149165042Y-133637209D01*
X149003760Y-133662754D01*
X148801585Y-133728445D01*
X148612179Y-133824952D01*
X148440213Y-133949891D01*
X148289890Y-134100214D01*
X148164949Y-134272183D01*
X148160484Y-134280947D01*
X148112509Y-134331743D01*
X148044688Y-134348537D01*
X147978553Y-134325999D01*
X147939516Y-134280947D01*
X147935050Y-134272183D01*
X147810109Y-134100214D01*
X147659786Y-133949891D01*
X147487820Y-133824952D01*
X147298414Y-133728445D01*
X147298413Y-133728444D01*
X147298412Y-133728444D01*
X147096243Y-133662755D01*
X147096241Y-133662754D01*
X147096240Y-133662754D01*
X146934957Y-133637209D01*
X146886287Y-133629501D01*
X146673713Y-133629501D01*
X146625042Y-133637209D01*
X146463760Y-133662754D01*
X146261585Y-133728445D01*
X146072179Y-133824952D01*
X145900213Y-133949891D01*
X145749890Y-134100214D01*
X145624948Y-134272184D01*
X145620482Y-134280950D01*
X145572506Y-134331743D01*
X145504684Y-134348536D01*
X145438550Y-134325996D01*
X145399516Y-134280946D01*
X145395051Y-134272184D01*
X145270110Y-134100215D01*
X145119787Y-133949892D01*
X144947821Y-133824953D01*
X144758415Y-133728446D01*
X144758414Y-133728445D01*
X144758413Y-133728445D01*
X144556244Y-133662756D01*
X144556242Y-133662755D01*
X144556241Y-133662755D01*
X144389865Y-133636404D01*
X144346288Y-133629502D01*
X144133714Y-133629502D01*
X144090137Y-133636404D01*
X143923761Y-133662755D01*
X143721586Y-133728446D01*
X143532180Y-133824953D01*
X143360214Y-133949892D01*
X143209891Y-134100215D01*
X143084950Y-134272184D01*
X143080203Y-134281501D01*
X143032228Y-134332295D01*
X142964406Y-134349089D01*
X142898272Y-134326550D01*
X142859235Y-134281497D01*
X142854626Y-134272452D01*
X142815270Y-134218282D01*
X142815269Y-134218282D01*
X142182962Y-134850589D01*
X142165925Y-134787007D01*
X142100099Y-134672993D01*
X142007007Y-134579901D01*
X141892993Y-134514075D01*
X141829409Y-134497037D01*
X142461716Y-133864728D01*
X142407550Y-133825375D01*
X142218217Y-133728904D01*
X142016129Y-133663242D01*
X141806246Y-133630000D01*
X141593754Y-133630000D01*
X141383872Y-133663242D01*
X141383869Y-133663242D01*
X141181782Y-133728904D01*
X140992439Y-133825380D01*
X140938282Y-133864727D01*
X140938282Y-133864728D01*
X141570591Y-134497037D01*
X141507007Y-134514075D01*
X141392993Y-134579901D01*
X141299901Y-134672993D01*
X141234075Y-134787007D01*
X141217037Y-134850591D01*
X140584728Y-134218282D01*
X140584727Y-134218282D01*
X140545380Y-134272440D01*
X140545377Y-134272444D01*
X140540764Y-134281499D01*
X140492789Y-134332293D01*
X140424967Y-134349087D01*
X140358833Y-134326548D01*
X140319796Y-134281496D01*
X140315184Y-134272444D01*
X140315052Y-134272185D01*
X140315050Y-134272182D01*
X140315049Y-134272180D01*
X140190110Y-134100214D01*
X140039787Y-133949891D01*
X139867821Y-133824952D01*
X139678415Y-133728445D01*
X139678414Y-133728444D01*
X139678413Y-133728444D01*
X139476244Y-133662755D01*
X139476242Y-133662754D01*
X139476241Y-133662754D01*
X139314958Y-133637209D01*
X139266288Y-133629501D01*
X139053714Y-133629501D01*
X139005043Y-133637209D01*
X138843761Y-133662754D01*
X138641586Y-133728445D01*
X138452180Y-133824952D01*
X138280216Y-133949890D01*
X138166285Y-134063821D01*
X138104962Y-134097305D01*
X138035270Y-134092321D01*
X137979337Y-134050449D01*
X137962422Y-134019472D01*
X137913354Y-133887914D01*
X137913350Y-133887907D01*
X137827190Y-133772813D01*
X137827187Y-133772810D01*
X137712093Y-133686650D01*
X137712086Y-133686646D01*
X137577379Y-133636404D01*
X137577372Y-133636402D01*
X137517844Y-133630001D01*
X136870000Y-133630001D01*
X136870000Y-134546989D01*
X136812993Y-134514076D01*
X136685826Y-134480001D01*
X136554174Y-134480001D01*
X136427007Y-134514076D01*
X136370000Y-134546989D01*
X136370000Y-133630001D01*
X135722155Y-133630001D01*
X135662627Y-133636402D01*
X135662620Y-133636404D01*
X135527913Y-133686646D01*
X135527906Y-133686650D01*
X135412812Y-133772810D01*
X135412809Y-133772813D01*
X135326649Y-133887907D01*
X135326645Y-133887914D01*
X135276403Y-134022621D01*
X135276401Y-134022628D01*
X135270000Y-134082156D01*
X135270000Y-134730001D01*
X136186988Y-134730001D01*
X136154075Y-134787008D01*
X136120000Y-134914175D01*
X136120000Y-135045827D01*
X136154075Y-135172994D01*
X136186988Y-135230001D01*
X135270000Y-135230001D01*
X135270000Y-135425500D01*
X135250315Y-135492539D01*
X135197511Y-135538294D01*
X135146000Y-135549500D01*
X127975098Y-135549500D01*
X127908059Y-135529815D01*
X127887417Y-135513181D01*
X127011819Y-134637583D01*
X126978334Y-134576260D01*
X126975500Y-134549902D01*
X126975500Y-127931690D01*
X126995185Y-127864651D01*
X126999435Y-127858811D01*
X127001787Y-127855290D01*
X127001789Y-127855289D01*
X127089394Y-127724179D01*
X127149737Y-127578497D01*
X127180500Y-127423842D01*
X127180500Y-127266158D01*
X127180500Y-127266155D01*
X127180499Y-127266153D01*
X127149738Y-127111510D01*
X127149737Y-127111503D01*
X127149735Y-127111498D01*
X127089397Y-126965827D01*
X127089390Y-126965814D01*
X127001789Y-126834711D01*
X127001786Y-126834707D01*
X126890292Y-126723213D01*
X126890288Y-126723210D01*
X126759185Y-126635609D01*
X126759172Y-126635602D01*
X126613501Y-126575264D01*
X126613489Y-126575261D01*
X126458845Y-126544500D01*
X126458842Y-126544500D01*
X126301158Y-126544500D01*
X126301155Y-126544500D01*
X126146510Y-126575261D01*
X126146498Y-126575264D01*
X126000827Y-126635602D01*
X126000814Y-126635609D01*
X125869711Y-126723210D01*
X125869707Y-126723213D01*
X125812181Y-126780740D01*
X125750858Y-126814225D01*
X125681166Y-126809241D01*
X125625233Y-126767369D01*
X125600816Y-126701905D01*
X125600500Y-126693059D01*
X125600500Y-123775097D01*
X125620185Y-123708058D01*
X125636819Y-123687416D01*
X126003544Y-123320691D01*
X126394664Y-122929571D01*
X126455985Y-122896088D01*
X126458152Y-122895637D01*
X126458841Y-122895500D01*
X126458842Y-122895500D01*
X126613497Y-122864737D01*
X126734344Y-122814681D01*
X126759172Y-122804397D01*
X126759172Y-122804396D01*
X126759179Y-122804394D01*
X126890289Y-122716789D01*
X127001789Y-122605289D01*
X127089394Y-122474179D01*
X127149737Y-122328497D01*
X127180500Y-122173842D01*
X127180500Y-122016158D01*
X127180500Y-122016155D01*
X127180499Y-122016153D01*
X127149738Y-121861510D01*
X127149737Y-121861503D01*
X127142532Y-121844108D01*
X127089397Y-121715827D01*
X127089390Y-121715814D01*
X127001789Y-121584711D01*
X127001786Y-121584707D01*
X126890292Y-121473213D01*
X126890288Y-121473210D01*
X126759185Y-121385609D01*
X126759172Y-121385602D01*
X126635945Y-121334561D01*
X126581541Y-121290721D01*
X126559476Y-121224427D01*
X126576755Y-121156727D01*
X126627892Y-121109116D01*
X126635945Y-121105439D01*
X126759172Y-121054397D01*
X126759172Y-121054396D01*
X126759179Y-121054394D01*
X126890289Y-120966789D01*
X127001789Y-120855289D01*
X127089394Y-120724179D01*
X127149737Y-120578497D01*
X127180500Y-120423842D01*
X127180500Y-120266158D01*
X127180500Y-120266155D01*
X127180499Y-120266153D01*
X127175777Y-120242414D01*
X127149737Y-120111503D01*
X127139135Y-120085908D01*
X127089397Y-119965827D01*
X127089390Y-119965814D01*
X127001789Y-119834711D01*
X127001786Y-119834707D01*
X126890292Y-119723213D01*
X126890288Y-119723210D01*
X126759185Y-119635609D01*
X126759172Y-119635602D01*
X126613501Y-119575264D01*
X126613489Y-119575261D01*
X126458845Y-119544500D01*
X126458842Y-119544500D01*
X126301158Y-119544500D01*
X126301155Y-119544500D01*
X126146510Y-119575261D01*
X126146498Y-119575264D01*
X126000827Y-119635602D01*
X126000814Y-119635609D01*
X125869711Y-119723210D01*
X125869707Y-119723213D01*
X125758213Y-119834707D01*
X125758210Y-119834711D01*
X125670609Y-119965814D01*
X125670602Y-119965827D01*
X125610264Y-120111498D01*
X125610261Y-120111508D01*
X125579361Y-120266850D01*
X125546976Y-120328761D01*
X125545425Y-120330339D01*
X124118481Y-121757282D01*
X124118480Y-121757284D01*
X124068905Y-121843151D01*
X124039423Y-121894215D01*
X123998499Y-122046943D01*
X123998499Y-122046945D01*
X123998499Y-122215046D01*
X123998500Y-122215059D01*
X123998500Y-135703500D01*
X123978815Y-135770539D01*
X123926011Y-135816294D01*
X123874500Y-135827500D01*
X105253593Y-135827500D01*
X105186554Y-135807815D01*
X105140799Y-135755011D01*
X105134260Y-135734761D01*
X105134007Y-135734838D01*
X105132236Y-135729001D01*
X105071897Y-135583327D01*
X105071890Y-135583314D01*
X104984289Y-135452211D01*
X104984286Y-135452207D01*
X104872792Y-135340713D01*
X104872788Y-135340710D01*
X104741685Y-135253109D01*
X104741672Y-135253102D01*
X104596001Y-135192764D01*
X104595991Y-135192761D01*
X104459149Y-135165541D01*
X104397238Y-135133156D01*
X104362664Y-135072440D01*
X104359341Y-135044036D01*
X104359330Y-135032246D01*
X104358042Y-133608713D01*
X106429500Y-133608713D01*
X106429500Y-133821287D01*
X106430148Y-133825380D01*
X106462044Y-134026765D01*
X106462754Y-134031243D01*
X106523630Y-134218600D01*
X106528444Y-134233414D01*
X106624951Y-134422820D01*
X106749890Y-134594786D01*
X106900213Y-134745109D01*
X107072179Y-134870048D01*
X107072181Y-134870049D01*
X107072184Y-134870051D01*
X107261588Y-134966557D01*
X107463757Y-135032246D01*
X107673713Y-135065500D01*
X107673714Y-135065500D01*
X107886286Y-135065500D01*
X107886287Y-135065500D01*
X108096243Y-135032246D01*
X108298412Y-134966557D01*
X108487816Y-134870051D01*
X108602116Y-134787008D01*
X108659786Y-134745109D01*
X108659788Y-134745106D01*
X108659792Y-134745104D01*
X108810104Y-134594792D01*
X108810106Y-134594788D01*
X108810109Y-134594786D01*
X108935048Y-134422820D01*
X108935047Y-134422820D01*
X108935051Y-134422816D01*
X109031557Y-134233412D01*
X109097246Y-134031243D01*
X109130500Y-133821287D01*
X109130500Y-133608713D01*
X109097246Y-133398757D01*
X109031557Y-133196588D01*
X108935051Y-133007184D01*
X108935049Y-133007181D01*
X108935048Y-133007179D01*
X108810109Y-132835213D01*
X108659786Y-132684890D01*
X108487820Y-132559951D01*
X108298414Y-132463444D01*
X108298413Y-132463443D01*
X108298412Y-132463443D01*
X108096243Y-132397754D01*
X108096241Y-132397753D01*
X108096240Y-132397753D01*
X107920217Y-132369874D01*
X107886287Y-132364500D01*
X107673713Y-132364500D01*
X107639783Y-132369874D01*
X107463760Y-132397753D01*
X107261585Y-132463444D01*
X107072179Y-132559951D01*
X106900213Y-132684890D01*
X106749890Y-132835213D01*
X106624951Y-133007179D01*
X106528444Y-133196585D01*
X106462753Y-133398760D01*
X106460580Y-133412482D01*
X106429500Y-133608713D01*
X104358042Y-133608713D01*
X104351501Y-126380570D01*
X104351673Y-126219771D01*
X104351679Y-126219710D01*
X104351776Y-126124931D01*
X104351776Y-126124926D01*
X104351776Y-126124818D01*
X104351853Y-126053294D01*
X104351851Y-126053290D01*
X104351852Y-126053202D01*
X104351390Y-126051454D01*
X104351161Y-126050603D01*
X104351161Y-126050598D01*
X104348878Y-126042128D01*
X104331189Y-125975842D01*
X104311094Y-125900523D01*
X104311092Y-125900521D01*
X104311084Y-125900488D01*
X104310747Y-125899664D01*
X104310109Y-125898085D01*
X104310020Y-125897932D01*
X104310020Y-125897930D01*
X104293499Y-125869410D01*
X104276931Y-125801534D01*
X104299689Y-125735475D01*
X104331904Y-125704159D01*
X104358669Y-125686277D01*
X105263127Y-124781819D01*
X105324450Y-124748334D01*
X105350808Y-124745500D01*
X105368693Y-124745500D01*
X105368694Y-124745499D01*
X105426682Y-124733964D01*
X105542658Y-124710896D01*
X105542661Y-124710894D01*
X105542666Y-124710894D01*
X105706547Y-124643013D01*
X105854035Y-124544464D01*
X105979464Y-124419035D01*
X106078013Y-124271547D01*
X106145894Y-124107666D01*
X106147898Y-124097595D01*
X106180499Y-123933695D01*
X106180500Y-123933693D01*
X106180500Y-123756306D01*
X106180499Y-123756304D01*
X106145896Y-123582341D01*
X106145893Y-123582332D01*
X106078016Y-123418459D01*
X106078009Y-123418446D01*
X105979464Y-123270965D01*
X105979461Y-123270961D01*
X105854038Y-123145538D01*
X105854034Y-123145535D01*
X105706553Y-123046990D01*
X105706540Y-123046983D01*
X105542667Y-122979106D01*
X105542658Y-122979103D01*
X105368694Y-122944500D01*
X105368691Y-122944500D01*
X105191309Y-122944500D01*
X105191306Y-122944500D01*
X105017341Y-122979103D01*
X105017332Y-122979106D01*
X104853459Y-123046983D01*
X104853446Y-123046990D01*
X104705965Y-123145535D01*
X104705961Y-123145538D01*
X104580538Y-123270961D01*
X104580535Y-123270965D01*
X104481990Y-123418446D01*
X104481983Y-123418459D01*
X104414106Y-123582332D01*
X104414103Y-123582341D01*
X104379500Y-123756304D01*
X104379500Y-123774192D01*
X104359815Y-123841231D01*
X104343181Y-123861873D01*
X103710873Y-124494181D01*
X103649550Y-124527666D01*
X103623192Y-124530500D01*
X102484501Y-124530500D01*
X102417462Y-124510815D01*
X102371707Y-124458011D01*
X102360501Y-124406500D01*
X102360500Y-123082129D01*
X102360499Y-123082123D01*
X102359735Y-123075017D01*
X102354092Y-123022517D01*
X102352811Y-123019083D01*
X102303798Y-122887671D01*
X102303794Y-122887664D01*
X102217548Y-122772455D01*
X102217545Y-122772452D01*
X102102336Y-122686206D01*
X102102329Y-122686202D01*
X101967483Y-122635908D01*
X101967484Y-122635908D01*
X101907884Y-122629501D01*
X101907882Y-122629500D01*
X101907874Y-122629500D01*
X101907866Y-122629500D01*
X101734501Y-122629500D01*
X101667462Y-122609815D01*
X101621707Y-122557011D01*
X101610501Y-122505500D01*
X101610501Y-120330095D01*
X101630186Y-120263056D01*
X101646816Y-120242418D01*
X102169888Y-119719345D01*
X102231211Y-119685861D01*
X102300903Y-119690845D01*
X102356836Y-119732717D01*
X102372130Y-119759575D01*
X102390602Y-119804172D01*
X102390609Y-119804185D01*
X102478210Y-119935288D01*
X102478213Y-119935292D01*
X102589707Y-120046786D01*
X102589711Y-120046789D01*
X102720814Y-120134390D01*
X102720827Y-120134397D01*
X102866498Y-120194735D01*
X102866503Y-120194737D01*
X103005835Y-120222452D01*
X103021153Y-120225499D01*
X103021156Y-120225500D01*
X103021158Y-120225500D01*
X103178844Y-120225500D01*
X103178845Y-120225499D01*
X103333497Y-120194737D01*
X103446166Y-120148067D01*
X103479172Y-120134397D01*
X103479172Y-120134396D01*
X103479179Y-120134394D01*
X103479185Y-120134390D01*
X103610875Y-120046398D01*
X103628921Y-120040747D01*
X103644831Y-120030523D01*
X103675792Y-120026071D01*
X103677553Y-120025520D01*
X103679766Y-120025500D01*
X103763331Y-120025500D01*
X103763347Y-120025501D01*
X103770943Y-120025501D01*
X103929054Y-120025501D01*
X103929057Y-120025501D01*
X104081785Y-119984577D01*
X104081787Y-119984575D01*
X104081789Y-119984575D01*
X104081790Y-119984574D01*
X104140041Y-119950943D01*
X104140042Y-119950942D01*
X104218716Y-119905520D01*
X104330520Y-119793716D01*
X104330520Y-119793714D01*
X104340726Y-119783509D01*
X104340732Y-119783502D01*
X104387419Y-119736817D01*
X104448742Y-119703333D01*
X104475098Y-119700500D01*
X105874903Y-119700500D01*
X105941942Y-119720185D01*
X105962584Y-119736819D01*
X107863181Y-121637416D01*
X107896666Y-121698739D01*
X107899500Y-121725097D01*
X107899500Y-124095234D01*
X107879815Y-124162273D01*
X107878602Y-124164125D01*
X107790609Y-124295814D01*
X107790602Y-124295827D01*
X107730264Y-124441498D01*
X107730261Y-124441510D01*
X107699500Y-124596153D01*
X107699500Y-124753846D01*
X107730261Y-124908489D01*
X107730264Y-124908501D01*
X107790602Y-125054172D01*
X107790609Y-125054185D01*
X107878210Y-125185288D01*
X107878213Y-125185292D01*
X107989707Y-125296786D01*
X107989711Y-125296789D01*
X108120814Y-125384390D01*
X108120827Y-125384397D01*
X108266498Y-125444735D01*
X108266503Y-125444737D01*
X108421153Y-125475499D01*
X108421156Y-125475500D01*
X108421158Y-125475500D01*
X108578844Y-125475500D01*
X108578845Y-125475499D01*
X108733497Y-125444737D01*
X108879179Y-125384394D01*
X109010289Y-125296789D01*
X109121789Y-125185289D01*
X109209394Y-125054179D01*
X109269737Y-124908497D01*
X109300500Y-124753842D01*
X109300500Y-124596158D01*
X109300500Y-124596155D01*
X109300499Y-124596153D01*
X109277394Y-124479998D01*
X109269737Y-124441503D01*
X109269732Y-124441492D01*
X109267969Y-124435676D01*
X109270720Y-124434841D01*
X109264497Y-124377641D01*
X109295691Y-124315122D01*
X109355734Y-124279392D01*
X109386555Y-124275500D01*
X109403844Y-124275500D01*
X109403845Y-124275499D01*
X109558497Y-124244737D01*
X109704179Y-124184394D01*
X109835289Y-124096789D01*
X109946789Y-123985289D01*
X110034394Y-123854179D01*
X110094737Y-123708497D01*
X110125500Y-123553842D01*
X110125500Y-123396158D01*
X110125500Y-123396155D01*
X110125499Y-123396153D01*
X110114289Y-123339796D01*
X110094737Y-123241503D01*
X110070557Y-123183127D01*
X110034397Y-123095827D01*
X110034390Y-123095814D01*
X109946398Y-122964125D01*
X109925520Y-122897447D01*
X109925500Y-122895234D01*
X109925500Y-121771959D01*
X109925501Y-121771946D01*
X109925501Y-121603845D01*
X109925501Y-121603843D01*
X109884577Y-121451115D01*
X109834710Y-121364743D01*
X109817285Y-121334561D01*
X109805521Y-121314185D01*
X109689385Y-121198049D01*
X109689374Y-121198039D01*
X107813488Y-119322153D01*
X151799500Y-119322153D01*
X151799500Y-119479846D01*
X151830261Y-119634489D01*
X151830264Y-119634501D01*
X151890602Y-119780172D01*
X151890609Y-119780185D01*
X151978210Y-119911288D01*
X151978213Y-119911292D01*
X152089707Y-120022786D01*
X152089711Y-120022789D01*
X152220814Y-120110390D01*
X152220827Y-120110397D01*
X152366498Y-120170735D01*
X152366503Y-120170737D01*
X152521153Y-120201499D01*
X152521156Y-120201500D01*
X152521158Y-120201500D01*
X152678844Y-120201500D01*
X152678845Y-120201499D01*
X152833497Y-120170737D01*
X152979179Y-120110394D01*
X153083413Y-120040747D01*
X153110873Y-120022399D01*
X153177550Y-120001521D01*
X153179764Y-120001501D01*
X153303054Y-120001501D01*
X153303057Y-120001501D01*
X153455785Y-119960577D01*
X153508267Y-119930276D01*
X153592716Y-119881520D01*
X153704520Y-119769716D01*
X153704520Y-119769714D01*
X153714724Y-119759511D01*
X153714727Y-119759506D01*
X155237417Y-118236819D01*
X155264344Y-118222115D01*
X155290163Y-118205523D01*
X155296363Y-118204631D01*
X155298740Y-118203334D01*
X155325098Y-118200500D01*
X155370234Y-118200500D01*
X155437273Y-118220185D01*
X155439125Y-118221398D01*
X155570814Y-118309390D01*
X155570827Y-118309397D01*
X155716498Y-118369735D01*
X155716503Y-118369737D01*
X155871153Y-118400499D01*
X155871156Y-118400500D01*
X155871158Y-118400500D01*
X156028844Y-118400500D01*
X156028845Y-118400499D01*
X156183497Y-118369737D01*
X156329179Y-118309394D01*
X156460289Y-118221789D01*
X156571789Y-118110289D01*
X156659394Y-117979179D01*
X156719737Y-117833497D01*
X156750500Y-117678842D01*
X156750500Y-117521158D01*
X156750500Y-117521155D01*
X156750499Y-117521153D01*
X156719737Y-117366503D01*
X156699943Y-117318716D01*
X156659397Y-117220827D01*
X156659390Y-117220814D01*
X156571789Y-117089711D01*
X156571786Y-117089707D01*
X156460292Y-116978213D01*
X156460288Y-116978210D01*
X156329185Y-116890609D01*
X156329172Y-116890602D01*
X156183501Y-116830264D01*
X156183489Y-116830261D01*
X156028845Y-116799500D01*
X156028842Y-116799500D01*
X155871158Y-116799500D01*
X155871155Y-116799500D01*
X155716510Y-116830261D01*
X155716498Y-116830264D01*
X155570827Y-116890602D01*
X155570814Y-116890609D01*
X155439125Y-116978602D01*
X155372447Y-116999480D01*
X155370234Y-116999500D01*
X155111670Y-116999500D01*
X155111654Y-116999499D01*
X155104058Y-116999499D01*
X154945943Y-116999499D01*
X154869579Y-117019961D01*
X154793214Y-117040423D01*
X154793209Y-117040426D01*
X154656290Y-117119475D01*
X154656282Y-117119481D01*
X153111997Y-118663766D01*
X153050674Y-118697251D01*
X152980982Y-118692267D01*
X152976864Y-118690646D01*
X152833501Y-118631264D01*
X152833489Y-118631261D01*
X152678845Y-118600500D01*
X152678842Y-118600500D01*
X152521158Y-118600500D01*
X152521155Y-118600500D01*
X152366510Y-118631261D01*
X152366498Y-118631264D01*
X152220827Y-118691602D01*
X152220814Y-118691609D01*
X152089711Y-118779210D01*
X152089707Y-118779213D01*
X151978213Y-118890707D01*
X151978210Y-118890711D01*
X151890609Y-119021814D01*
X151890602Y-119021827D01*
X151830264Y-119167498D01*
X151830261Y-119167510D01*
X151799500Y-119322153D01*
X107813488Y-119322153D01*
X107323516Y-118832181D01*
X107290031Y-118770858D01*
X107295015Y-118701166D01*
X107336887Y-118645233D01*
X107402351Y-118620816D01*
X107411197Y-118620500D01*
X116318331Y-118620500D01*
X116318347Y-118620501D01*
X116325943Y-118620501D01*
X116484054Y-118620501D01*
X116484057Y-118620501D01*
X116636785Y-118579577D01*
X116686904Y-118550639D01*
X116773716Y-118500520D01*
X116885520Y-118388716D01*
X116885520Y-118388714D01*
X116895728Y-118378507D01*
X116895729Y-118378504D01*
X117765520Y-117508713D01*
X122529500Y-117508713D01*
X122529500Y-117721287D01*
X122562754Y-117931243D01*
X122621960Y-118113461D01*
X122628444Y-118133414D01*
X122724951Y-118322820D01*
X122849890Y-118494786D01*
X123000213Y-118645109D01*
X123172179Y-118770048D01*
X123172181Y-118770049D01*
X123172184Y-118770051D01*
X123361588Y-118866557D01*
X123563757Y-118932246D01*
X123773713Y-118965500D01*
X123773714Y-118965500D01*
X123986286Y-118965500D01*
X123986287Y-118965500D01*
X124196243Y-118932246D01*
X124398412Y-118866557D01*
X124587816Y-118770051D01*
X124682629Y-118701166D01*
X124759786Y-118645109D01*
X124759788Y-118645106D01*
X124759792Y-118645104D01*
X124910104Y-118494792D01*
X124910106Y-118494788D01*
X124910109Y-118494786D01*
X125035048Y-118322820D01*
X125035047Y-118322820D01*
X125035051Y-118322816D01*
X125131557Y-118133412D01*
X125197246Y-117931243D01*
X125230500Y-117721287D01*
X125230500Y-117508713D01*
X125197246Y-117298757D01*
X125131557Y-117096588D01*
X125035051Y-116907184D01*
X125035049Y-116907181D01*
X125035048Y-116907179D01*
X124910109Y-116735213D01*
X124759786Y-116584890D01*
X124587820Y-116459951D01*
X124398414Y-116363444D01*
X124398413Y-116363443D01*
X124398412Y-116363443D01*
X124196243Y-116297754D01*
X124196241Y-116297753D01*
X124196240Y-116297753D01*
X124034957Y-116272208D01*
X123986287Y-116264500D01*
X123773713Y-116264500D01*
X123725042Y-116272208D01*
X123563760Y-116297753D01*
X123361585Y-116363444D01*
X123172179Y-116459951D01*
X123000213Y-116584890D01*
X122849890Y-116735213D01*
X122724951Y-116907179D01*
X122628444Y-117096585D01*
X122628443Y-117096587D01*
X122628443Y-117096588D01*
X122609587Y-117154622D01*
X122562753Y-117298760D01*
X122540765Y-117437590D01*
X122529500Y-117508713D01*
X117765520Y-117508713D01*
X119324662Y-115949572D01*
X119385983Y-115916089D01*
X119388150Y-115915638D01*
X119446085Y-115904113D01*
X119543497Y-115884737D01*
X119689179Y-115824394D01*
X119820289Y-115736789D01*
X119931789Y-115625289D01*
X120019394Y-115494179D01*
X120079737Y-115348497D01*
X120110500Y-115193842D01*
X120110500Y-115036158D01*
X120110500Y-115036155D01*
X120110499Y-115036153D01*
X120088873Y-114927433D01*
X120079737Y-114881503D01*
X120079735Y-114881498D01*
X120019397Y-114735827D01*
X120019390Y-114735814D01*
X119931789Y-114604711D01*
X119931786Y-114604707D01*
X119820292Y-114493213D01*
X119820288Y-114493210D01*
X119689185Y-114405609D01*
X119689172Y-114405602D01*
X119543501Y-114345264D01*
X119543489Y-114345261D01*
X119388845Y-114314500D01*
X119388842Y-114314500D01*
X119231158Y-114314500D01*
X119231155Y-114314500D01*
X119076510Y-114345261D01*
X119076498Y-114345264D01*
X118930827Y-114405602D01*
X118930814Y-114405609D01*
X118799711Y-114493210D01*
X118799707Y-114493213D01*
X118688213Y-114604707D01*
X118688210Y-114604711D01*
X118600609Y-114735814D01*
X118600602Y-114735827D01*
X118540264Y-114881498D01*
X118540261Y-114881508D01*
X118531127Y-114927430D01*
X118498742Y-114989341D01*
X118438026Y-115023915D01*
X118368257Y-115020175D01*
X118311585Y-114979308D01*
X118287893Y-114927430D01*
X118281659Y-114896092D01*
X118281658Y-114896088D01*
X118281658Y-114896087D01*
X118281656Y-114896082D01*
X118225087Y-114759511D01*
X118225080Y-114759498D01*
X118142951Y-114636584D01*
X118142948Y-114636580D01*
X118038419Y-114532051D01*
X118038415Y-114532048D01*
X117915501Y-114449919D01*
X117915488Y-114449912D01*
X117778917Y-114393343D01*
X117778907Y-114393340D01*
X117633920Y-114364500D01*
X117633918Y-114364500D01*
X117486082Y-114364500D01*
X117486080Y-114364500D01*
X117341092Y-114393340D01*
X117341082Y-114393343D01*
X117204511Y-114449912D01*
X117204498Y-114449919D01*
X117081584Y-114532048D01*
X117081580Y-114532051D01*
X116977051Y-114636580D01*
X116977048Y-114636584D01*
X116894919Y-114759498D01*
X116894912Y-114759511D01*
X116838343Y-114896082D01*
X116838341Y-114896088D01*
X116832106Y-114927433D01*
X116799719Y-114989343D01*
X116739002Y-115023915D01*
X116669232Y-115020173D01*
X116612562Y-114979305D01*
X116588872Y-114927432D01*
X116579737Y-114881503D01*
X116579735Y-114881498D01*
X116519397Y-114735827D01*
X116519390Y-114735814D01*
X116431789Y-114604711D01*
X116431786Y-114604707D01*
X116320292Y-114493213D01*
X116320288Y-114493210D01*
X116189185Y-114405609D01*
X116189172Y-114405602D01*
X116043501Y-114345264D01*
X116043489Y-114345261D01*
X115888845Y-114314500D01*
X115888842Y-114314500D01*
X115731158Y-114314500D01*
X115731155Y-114314500D01*
X115576510Y-114345261D01*
X115576498Y-114345264D01*
X115430827Y-114405602D01*
X115430814Y-114405609D01*
X115299711Y-114493210D01*
X115299707Y-114493213D01*
X115188213Y-114604707D01*
X115188210Y-114604711D01*
X115100609Y-114735814D01*
X115100602Y-114735827D01*
X115049561Y-114859054D01*
X115005720Y-114913458D01*
X114939426Y-114935523D01*
X114871727Y-114918244D01*
X114824116Y-114867107D01*
X114820439Y-114859054D01*
X114769397Y-114735827D01*
X114769390Y-114735814D01*
X114681398Y-114604125D01*
X114660520Y-114537447D01*
X114660500Y-114535234D01*
X114660500Y-111469060D01*
X114660501Y-111469047D01*
X114660501Y-111300944D01*
X114660501Y-111300943D01*
X114619577Y-111148216D01*
X114577005Y-111074478D01*
X114540524Y-111011290D01*
X114540518Y-111011282D01*
X112807096Y-109277860D01*
X111041415Y-107512180D01*
X111007931Y-107450858D01*
X111012915Y-107381166D01*
X111054787Y-107325233D01*
X111120251Y-107300816D01*
X111129097Y-107300500D01*
X159740902Y-107300500D01*
X159807941Y-107320185D01*
G37*
%TD.AperFunction*%
%TA.AperFunction,Conductor*%
G36*
X85295703Y-79431665D02*
G01*
X85302181Y-79437697D01*
X86946201Y-81081717D01*
X86979686Y-81143040D01*
X86976451Y-81207716D01*
X86912753Y-81403759D01*
X86879500Y-81613713D01*
X86879500Y-81826286D01*
X86912753Y-82036239D01*
X86978444Y-82238414D01*
X87074951Y-82427820D01*
X87199890Y-82599786D01*
X87350213Y-82750109D01*
X87522179Y-82875048D01*
X87522181Y-82875049D01*
X87522184Y-82875051D01*
X87531493Y-82879794D01*
X87582290Y-82927766D01*
X87599087Y-82995587D01*
X87576552Y-83061722D01*
X87531505Y-83100760D01*
X87522446Y-83105376D01*
X87522440Y-83105380D01*
X87468282Y-83144727D01*
X87468282Y-83144728D01*
X88100591Y-83777037D01*
X88037007Y-83794075D01*
X87922993Y-83859901D01*
X87829901Y-83952993D01*
X87764075Y-84067007D01*
X87747037Y-84130591D01*
X87114728Y-83498282D01*
X87114727Y-83498282D01*
X87075380Y-83552439D01*
X86978904Y-83741782D01*
X86913242Y-83943869D01*
X86913242Y-83943872D01*
X86880000Y-84153753D01*
X86880000Y-84366246D01*
X86913242Y-84576127D01*
X86913242Y-84576130D01*
X86978904Y-84778217D01*
X87075375Y-84967550D01*
X87114728Y-85021716D01*
X87747037Y-84389408D01*
X87764075Y-84452993D01*
X87829901Y-84567007D01*
X87922993Y-84660099D01*
X88037007Y-84725925D01*
X88100590Y-84742962D01*
X87468282Y-85375269D01*
X87468282Y-85375270D01*
X87522449Y-85414624D01*
X87711782Y-85511095D01*
X87913870Y-85576757D01*
X88123754Y-85610000D01*
X88336246Y-85610000D01*
X88546127Y-85576757D01*
X88546130Y-85576757D01*
X88748217Y-85511095D01*
X88937554Y-85414622D01*
X88991716Y-85375270D01*
X88991717Y-85375270D01*
X88359408Y-84742962D01*
X88422993Y-84725925D01*
X88537007Y-84660099D01*
X88630099Y-84567007D01*
X88695925Y-84452993D01*
X88712962Y-84389409D01*
X89345270Y-85021717D01*
X89345270Y-85021716D01*
X89384622Y-84967555D01*
X89389232Y-84958507D01*
X89437205Y-84907709D01*
X89505025Y-84890912D01*
X89571161Y-84913447D01*
X89610204Y-84958504D01*
X89614949Y-84967817D01*
X89739890Y-85139786D01*
X89890213Y-85290109D01*
X90062179Y-85415048D01*
X90062181Y-85415049D01*
X90062184Y-85415051D01*
X90251588Y-85511557D01*
X90453757Y-85577246D01*
X90663713Y-85610500D01*
X90663714Y-85610500D01*
X90876286Y-85610500D01*
X90876287Y-85610500D01*
X91086243Y-85577246D01*
X91288412Y-85511557D01*
X91314800Y-85498111D01*
X91383467Y-85485215D01*
X91448208Y-85511490D01*
X91488466Y-85568595D01*
X91491460Y-85638401D01*
X91458776Y-85696277D01*
X87694729Y-89460323D01*
X87694728Y-89460324D01*
X87623536Y-89566872D01*
X87574501Y-89685253D01*
X87574499Y-89685259D01*
X87549502Y-89810926D01*
X87549502Y-92175500D01*
X87529817Y-92242539D01*
X87477013Y-92288294D01*
X87425503Y-92299500D01*
X87302132Y-92299500D01*
X87302125Y-92299501D01*
X87242518Y-92305908D01*
X87107673Y-92356202D01*
X87107666Y-92356206D01*
X86992457Y-92442452D01*
X86992454Y-92442455D01*
X86906208Y-92557664D01*
X86906204Y-92557671D01*
X86855910Y-92692517D01*
X86849503Y-92752116D01*
X86849503Y-92752123D01*
X86849502Y-92752135D01*
X86849502Y-94547870D01*
X86849503Y-94547876D01*
X86855910Y-94607483D01*
X86906204Y-94742328D01*
X86906208Y-94742335D01*
X86992454Y-94857544D01*
X86992457Y-94857547D01*
X87107666Y-94943793D01*
X87107673Y-94943797D01*
X87239084Y-94992810D01*
X87295018Y-95034681D01*
X87319435Y-95100145D01*
X87304584Y-95168418D01*
X87283433Y-95196673D01*
X87169891Y-95310215D01*
X87044953Y-95482179D01*
X86948446Y-95671585D01*
X86882755Y-95873760D01*
X86849502Y-96083713D01*
X86849502Y-96296286D01*
X86882755Y-96506239D01*
X86948446Y-96708414D01*
X87044953Y-96897820D01*
X87169892Y-97069786D01*
X87320215Y-97220109D01*
X87492184Y-97345050D01*
X87500948Y-97349516D01*
X87551744Y-97397491D01*
X87568538Y-97465312D01*
X87546000Y-97531447D01*
X87500948Y-97570484D01*
X87492184Y-97574949D01*
X87320215Y-97699890D01*
X87169892Y-97850213D01*
X87044953Y-98022179D01*
X86948446Y-98211585D01*
X86882755Y-98413760D01*
X86849502Y-98623713D01*
X86849502Y-98836286D01*
X86883518Y-99051055D01*
X86881879Y-99051314D01*
X86878740Y-99113883D01*
X86849344Y-99160710D01*
X85744727Y-100265327D01*
X85744721Y-100265334D01*
X85688322Y-100349742D01*
X85688323Y-100349743D01*
X85673534Y-100371876D01*
X85624499Y-100490257D01*
X85624497Y-100490263D01*
X85599500Y-100615930D01*
X85599500Y-100615933D01*
X85599500Y-106494063D01*
X85610871Y-106551226D01*
X85624499Y-106619738D01*
X85673535Y-106738121D01*
X85713466Y-106797883D01*
X85744726Y-106844667D01*
X85744727Y-106844668D01*
X86813183Y-107913123D01*
X86846668Y-107974446D01*
X86849502Y-108000804D01*
X86849502Y-108759187D01*
X86829817Y-108826226D01*
X86813183Y-108846868D01*
X85944727Y-109715323D01*
X85944726Y-109715324D01*
X85931328Y-109735376D01*
X85892985Y-109792763D01*
X85889599Y-109797830D01*
X85889597Y-109797832D01*
X85873539Y-109821863D01*
X85873533Y-109821873D01*
X85824499Y-109940253D01*
X85824497Y-109940259D01*
X85799500Y-110065926D01*
X85799500Y-110065929D01*
X85799500Y-118864069D01*
X85799500Y-118864071D01*
X85799499Y-118864071D01*
X85823819Y-118986328D01*
X85824498Y-118989741D01*
X85824499Y-118989745D01*
X85873533Y-119108125D01*
X85944726Y-119214673D01*
X85944727Y-119214674D01*
X86597873Y-119867819D01*
X86631358Y-119929142D01*
X86626374Y-119998833D01*
X86584503Y-120054767D01*
X86519038Y-120079184D01*
X86510192Y-120079500D01*
X85922129Y-120079500D01*
X85922123Y-120079501D01*
X85862516Y-120085908D01*
X85727671Y-120136202D01*
X85727664Y-120136206D01*
X85612455Y-120222452D01*
X85612452Y-120222455D01*
X85526206Y-120337664D01*
X85526202Y-120337671D01*
X85475908Y-120472517D01*
X85469501Y-120532116D01*
X85469500Y-120532135D01*
X85469500Y-122327870D01*
X85469501Y-122327876D01*
X85475908Y-122387483D01*
X85526202Y-122522328D01*
X85526206Y-122522335D01*
X85612452Y-122637544D01*
X85612455Y-122637547D01*
X85727664Y-122723793D01*
X85727671Y-122723797D01*
X85859082Y-122772810D01*
X85915016Y-122814681D01*
X85939433Y-122880145D01*
X85924582Y-122948418D01*
X85903431Y-122976673D01*
X85789889Y-123090215D01*
X85664951Y-123262179D01*
X85568444Y-123451585D01*
X85502753Y-123653760D01*
X85469500Y-123863713D01*
X85469500Y-124076286D01*
X85496179Y-124244735D01*
X85502754Y-124286243D01*
X85554637Y-124445923D01*
X85568444Y-124488414D01*
X85664951Y-124677820D01*
X85789890Y-124849786D01*
X85940213Y-125000109D01*
X86112179Y-125125048D01*
X86112181Y-125125049D01*
X86112184Y-125125051D01*
X86301588Y-125221557D01*
X86503757Y-125287246D01*
X86713713Y-125320500D01*
X86713714Y-125320500D01*
X86926286Y-125320500D01*
X86926287Y-125320500D01*
X87136243Y-125287246D01*
X87338412Y-125221557D01*
X87527816Y-125125051D01*
X87549789Y-125109086D01*
X87699786Y-125000109D01*
X87699788Y-125000106D01*
X87699792Y-125000104D01*
X87850104Y-124849792D01*
X87850106Y-124849788D01*
X87850109Y-124849786D01*
X87951017Y-124710896D01*
X87975051Y-124677816D01*
X87975349Y-124677230D01*
X87995235Y-124638205D01*
X88043209Y-124587409D01*
X88105719Y-124570500D01*
X88669903Y-124570500D01*
X88736942Y-124590185D01*
X88757584Y-124606819D01*
X89804106Y-125653341D01*
X89837591Y-125714664D01*
X89832607Y-125784356D01*
X89790735Y-125840289D01*
X89725271Y-125864706D01*
X89716291Y-125865022D01*
X85214366Y-125860171D01*
X85147348Y-125840414D01*
X85101650Y-125787561D01*
X85090500Y-125736171D01*
X85090500Y-79525378D01*
X85110185Y-79458339D01*
X85162989Y-79412584D01*
X85232147Y-79402640D01*
X85295703Y-79431665D01*
G37*
%TD.AperFunction*%
%TA.AperFunction,Conductor*%
G36*
X101481942Y-96810185D02*
G01*
X101502584Y-96826819D01*
X103408181Y-98732416D01*
X103441666Y-98793739D01*
X103444500Y-98820097D01*
X103444500Y-107626730D01*
X103444499Y-107626748D01*
X103444499Y-107792454D01*
X103444498Y-107792454D01*
X103485424Y-107945189D01*
X103485425Y-107945190D01*
X103502347Y-107974499D01*
X103502348Y-107974500D01*
X103564477Y-108082112D01*
X103564481Y-108082117D01*
X103683349Y-108200985D01*
X103683355Y-108200990D01*
X105250739Y-109768374D01*
X105250749Y-109768385D01*
X105255079Y-109772715D01*
X105255080Y-109772716D01*
X105366884Y-109884520D01*
X105366886Y-109884521D01*
X105366890Y-109884524D01*
X105503809Y-109963573D01*
X105503816Y-109963577D01*
X105587631Y-109986035D01*
X105656542Y-110004500D01*
X105656543Y-110004500D01*
X106678903Y-110004500D01*
X106708343Y-110013144D01*
X106738330Y-110019668D01*
X106743345Y-110023422D01*
X106745942Y-110024185D01*
X106766584Y-110040819D01*
X106813181Y-110087416D01*
X106846666Y-110148739D01*
X106849500Y-110175097D01*
X106849500Y-114200087D01*
X106829815Y-114267126D01*
X106777011Y-114312881D01*
X106761507Y-114318744D01*
X106756505Y-114320261D01*
X106610827Y-114380602D01*
X106610814Y-114380609D01*
X106479711Y-114468210D01*
X106479707Y-114468213D01*
X106368213Y-114579707D01*
X106368210Y-114579711D01*
X106280609Y-114710814D01*
X106280602Y-114710827D01*
X106220264Y-114856498D01*
X106220261Y-114856510D01*
X106189500Y-115011153D01*
X106189500Y-115168846D01*
X106220261Y-115323489D01*
X106220264Y-115323501D01*
X106280602Y-115469172D01*
X106280609Y-115469185D01*
X106368210Y-115600288D01*
X106368213Y-115600292D01*
X106479707Y-115711786D01*
X106479711Y-115711789D01*
X106610814Y-115799390D01*
X106610827Y-115799397D01*
X106756498Y-115859735D01*
X106756503Y-115859737D01*
X106876475Y-115883601D01*
X106911153Y-115890499D01*
X106911156Y-115890500D01*
X106911158Y-115890500D01*
X107068844Y-115890500D01*
X107068845Y-115890499D01*
X107223497Y-115859737D01*
X107350556Y-115807108D01*
X107369172Y-115799397D01*
X107369172Y-115799396D01*
X107369179Y-115799394D01*
X107500289Y-115711789D01*
X107611789Y-115600289D01*
X107699394Y-115469179D01*
X107759737Y-115323497D01*
X107775896Y-115242258D01*
X107808280Y-115180349D01*
X107868996Y-115145775D01*
X107938765Y-115149514D01*
X107995437Y-115190380D01*
X108019130Y-115242259D01*
X108040261Y-115348491D01*
X108040264Y-115348501D01*
X108100602Y-115494172D01*
X108100609Y-115494185D01*
X108188210Y-115625288D01*
X108188213Y-115625292D01*
X108299707Y-115736786D01*
X108299711Y-115736789D01*
X108430814Y-115824390D01*
X108430827Y-115824397D01*
X108573760Y-115883601D01*
X108576503Y-115884737D01*
X108731153Y-115915499D01*
X108731156Y-115915500D01*
X108731158Y-115915500D01*
X108888844Y-115915500D01*
X108888845Y-115915499D01*
X109043497Y-115884737D01*
X109189179Y-115824394D01*
X109320289Y-115736789D01*
X109431789Y-115625289D01*
X109519394Y-115494179D01*
X109525392Y-115479699D01*
X109570439Y-115370945D01*
X109614279Y-115316541D01*
X109680573Y-115294476D01*
X109748273Y-115311755D01*
X109795884Y-115362892D01*
X109799561Y-115370945D01*
X109850602Y-115494172D01*
X109850609Y-115494185D01*
X109938210Y-115625288D01*
X109938213Y-115625292D01*
X110049707Y-115736786D01*
X110049711Y-115736789D01*
X110180814Y-115824390D01*
X110180827Y-115824397D01*
X110323760Y-115883601D01*
X110326503Y-115884737D01*
X110481153Y-115915499D01*
X110481156Y-115915500D01*
X110481158Y-115915500D01*
X110638844Y-115915500D01*
X110638845Y-115915499D01*
X110793497Y-115884737D01*
X110939179Y-115824394D01*
X111070289Y-115736789D01*
X111181789Y-115625289D01*
X111269394Y-115494179D01*
X111275392Y-115479699D01*
X111320439Y-115370945D01*
X111364279Y-115316541D01*
X111430573Y-115294476D01*
X111498273Y-115311755D01*
X111545884Y-115362892D01*
X111549561Y-115370945D01*
X111600602Y-115494172D01*
X111600609Y-115494185D01*
X111688210Y-115625288D01*
X111688213Y-115625292D01*
X111799707Y-115736786D01*
X111799711Y-115736789D01*
X111930814Y-115824390D01*
X111930827Y-115824397D01*
X112073760Y-115883601D01*
X112076503Y-115884737D01*
X112231153Y-115915499D01*
X112231156Y-115915500D01*
X112231158Y-115915500D01*
X112388844Y-115915500D01*
X112388845Y-115915499D01*
X112543497Y-115884737D01*
X112689179Y-115824394D01*
X112820289Y-115736789D01*
X112931789Y-115625289D01*
X113019394Y-115494179D01*
X113025392Y-115479699D01*
X113070439Y-115370945D01*
X113114279Y-115316541D01*
X113180573Y-115294476D01*
X113248273Y-115311755D01*
X113295884Y-115362892D01*
X113299561Y-115370945D01*
X113350602Y-115494172D01*
X113350609Y-115494185D01*
X113438210Y-115625288D01*
X113438213Y-115625292D01*
X113549707Y-115736786D01*
X113549711Y-115736789D01*
X113680814Y-115824390D01*
X113680827Y-115824397D01*
X113823760Y-115883601D01*
X113826503Y-115884737D01*
X113981153Y-115915499D01*
X113981156Y-115915500D01*
X113981158Y-115915500D01*
X114138844Y-115915500D01*
X114138845Y-115915499D01*
X114293497Y-115884737D01*
X114439179Y-115824394D01*
X114570289Y-115736789D01*
X114681789Y-115625289D01*
X114769394Y-115494179D01*
X114775392Y-115479699D01*
X114820439Y-115370945D01*
X114864279Y-115316541D01*
X114930573Y-115294476D01*
X114998273Y-115311755D01*
X115045884Y-115362892D01*
X115049561Y-115370945D01*
X115100602Y-115494172D01*
X115100609Y-115494185D01*
X115188602Y-115625874D01*
X115209480Y-115692551D01*
X115209500Y-115694765D01*
X115209500Y-115959902D01*
X115189815Y-116026941D01*
X115173181Y-116047583D01*
X114639584Y-116581181D01*
X114578261Y-116614666D01*
X114551903Y-116617500D01*
X102774469Y-116617500D01*
X102774453Y-116617499D01*
X102766857Y-116617499D01*
X102608743Y-116617499D01*
X102501387Y-116646265D01*
X102456010Y-116658424D01*
X102456009Y-116658425D01*
X102405896Y-116687359D01*
X102405895Y-116687360D01*
X102371976Y-116706943D01*
X102319085Y-116737479D01*
X102319082Y-116737481D01*
X102207278Y-116849286D01*
X96411351Y-122645212D01*
X96350028Y-122678697D01*
X96285352Y-122675462D01*
X96246244Y-122662755D01*
X96087086Y-122637547D01*
X96036286Y-122629501D01*
X95823712Y-122629501D01*
X95783260Y-122635908D01*
X95613759Y-122662754D01*
X95613756Y-122662755D01*
X95447467Y-122716786D01*
X95411584Y-122728445D01*
X95222178Y-122824952D01*
X95050212Y-122949891D01*
X94899889Y-123100214D01*
X94774948Y-123272183D01*
X94770201Y-123281500D01*
X94722226Y-123332294D01*
X94654404Y-123349088D01*
X94588270Y-123326549D01*
X94549235Y-123281500D01*
X94544623Y-123272450D01*
X94505267Y-123218280D01*
X94505266Y-123218280D01*
X93872959Y-123850587D01*
X93855922Y-123787005D01*
X93790096Y-123672991D01*
X93697004Y-123579899D01*
X93582990Y-123514073D01*
X93519406Y-123497035D01*
X94151713Y-122864726D01*
X94097547Y-122825373D01*
X93908214Y-122728902D01*
X93706126Y-122663240D01*
X93496243Y-122629998D01*
X93283751Y-122629998D01*
X93073869Y-122663240D01*
X93073866Y-122663240D01*
X92871779Y-122728902D01*
X92682436Y-122825378D01*
X92628279Y-122864725D01*
X92628279Y-122864726D01*
X93260588Y-123497035D01*
X93197004Y-123514073D01*
X93082990Y-123579899D01*
X92989898Y-123672991D01*
X92924072Y-123787005D01*
X92907034Y-123850589D01*
X92274725Y-123218280D01*
X92274724Y-123218280D01*
X92235377Y-123272437D01*
X92138901Y-123461780D01*
X92073239Y-123663867D01*
X92073239Y-123663870D01*
X92039997Y-123873751D01*
X92039997Y-124086244D01*
X92073238Y-124296124D01*
X92096652Y-124368181D01*
X92098647Y-124438022D01*
X92062567Y-124497855D01*
X91999867Y-124528684D01*
X91978721Y-124530500D01*
X91451808Y-124530500D01*
X91384769Y-124510815D01*
X91364127Y-124494181D01*
X89511819Y-122641873D01*
X89478334Y-122580550D01*
X89475500Y-122554192D01*
X89475500Y-121110928D01*
X89450502Y-120985261D01*
X89450501Y-120985260D01*
X89450501Y-120985256D01*
X89401465Y-120866873D01*
X89401464Y-120866872D01*
X89401461Y-120866866D01*
X89330277Y-120760332D01*
X89294117Y-120724172D01*
X89239669Y-120669724D01*
X87136819Y-118566873D01*
X87103334Y-118505550D01*
X87100500Y-118479192D01*
X87100500Y-116797308D01*
X87120185Y-116730269D01*
X87136819Y-116709627D01*
X87717037Y-116129408D01*
X87734075Y-116192993D01*
X87799901Y-116307007D01*
X87892993Y-116400099D01*
X88007007Y-116465925D01*
X88070590Y-116482962D01*
X87438282Y-117115269D01*
X87438282Y-117115270D01*
X87492449Y-117154624D01*
X87681782Y-117251095D01*
X87883870Y-117316757D01*
X88093754Y-117350000D01*
X88306246Y-117350000D01*
X88516127Y-117316757D01*
X88516130Y-117316757D01*
X88718217Y-117251095D01*
X88907554Y-117154622D01*
X88961716Y-117115270D01*
X88961717Y-117115270D01*
X88329408Y-116482962D01*
X88392993Y-116465925D01*
X88507007Y-116400099D01*
X88600099Y-116307007D01*
X88665925Y-116192993D01*
X88682962Y-116129409D01*
X89315270Y-116761717D01*
X89315270Y-116761716D01*
X89354622Y-116707554D01*
X89451095Y-116518217D01*
X89516757Y-116316130D01*
X89516757Y-116316127D01*
X89550000Y-116106246D01*
X89550000Y-115893753D01*
X89516757Y-115683872D01*
X89516757Y-115683869D01*
X89451095Y-115481782D01*
X89354624Y-115292449D01*
X89315270Y-115238282D01*
X89315269Y-115238282D01*
X88682962Y-115870590D01*
X88665925Y-115807007D01*
X88600099Y-115692993D01*
X88507007Y-115599901D01*
X88392993Y-115534075D01*
X88329409Y-115517037D01*
X88961716Y-114884728D01*
X88907547Y-114845373D01*
X88907547Y-114845372D01*
X88898500Y-114840763D01*
X88847706Y-114792788D01*
X88830912Y-114724966D01*
X88853451Y-114658832D01*
X88898505Y-114619794D01*
X88907819Y-114615049D01*
X88956458Y-114579711D01*
X89079789Y-114490107D01*
X89079791Y-114490104D01*
X89079795Y-114490102D01*
X89230107Y-114339790D01*
X89230109Y-114339786D01*
X89230112Y-114339784D01*
X89355051Y-114167818D01*
X89355050Y-114167818D01*
X89355054Y-114167814D01*
X89451560Y-113978410D01*
X89517249Y-113776241D01*
X89550503Y-113566285D01*
X89550503Y-113353711D01*
X89517249Y-113143755D01*
X89451560Y-112941586D01*
X89355054Y-112752182D01*
X89355052Y-112752179D01*
X89355051Y-112752177D01*
X89230112Y-112580211D01*
X89079789Y-112429888D01*
X88907820Y-112304947D01*
X88899055Y-112300481D01*
X88848260Y-112252506D01*
X88831465Y-112184685D01*
X88854003Y-112118550D01*
X88899056Y-112079512D01*
X88907818Y-112075048D01*
X88970162Y-112029753D01*
X89079788Y-111950106D01*
X89079790Y-111950103D01*
X89079794Y-111950101D01*
X89230106Y-111799789D01*
X89230108Y-111799785D01*
X89230111Y-111799783D01*
X89350514Y-111634060D01*
X89355053Y-111627813D01*
X89451559Y-111438409D01*
X89517248Y-111236240D01*
X89550502Y-111026284D01*
X89550502Y-110813710D01*
X89517248Y-110603754D01*
X89451559Y-110401585D01*
X89355053Y-110212181D01*
X89355051Y-110212178D01*
X89355050Y-110212176D01*
X89230111Y-110040210D01*
X89116570Y-109926669D01*
X89083085Y-109865346D01*
X89088069Y-109795654D01*
X89129941Y-109739721D01*
X89160917Y-109722806D01*
X89292333Y-109673792D01*
X89407548Y-109587542D01*
X89493798Y-109472327D01*
X89544093Y-109337479D01*
X89550502Y-109277869D01*
X89550501Y-107482124D01*
X89544093Y-107422513D01*
X89539387Y-107409896D01*
X89493799Y-107287667D01*
X89493795Y-107287660D01*
X89407549Y-107172451D01*
X89407546Y-107172448D01*
X89292337Y-107086202D01*
X89292330Y-107086198D01*
X89157484Y-107035904D01*
X89157485Y-107035904D01*
X89097885Y-107029497D01*
X89097883Y-107029496D01*
X89097875Y-107029496D01*
X89097867Y-107029496D01*
X87820810Y-107029496D01*
X87753771Y-107009811D01*
X87733129Y-106993177D01*
X87134223Y-106394271D01*
X87100738Y-106332948D01*
X87105722Y-106263256D01*
X87147594Y-106207323D01*
X87213058Y-106182906D01*
X87235160Y-106183301D01*
X87242516Y-106184091D01*
X87242517Y-106184092D01*
X87302127Y-106190501D01*
X89097872Y-106190500D01*
X89157483Y-106184092D01*
X89292331Y-106133797D01*
X89407546Y-106047547D01*
X89493796Y-105932332D01*
X89544091Y-105797484D01*
X89550500Y-105737874D01*
X89550499Y-103942129D01*
X89544091Y-103882518D01*
X89493796Y-103747670D01*
X89493795Y-103747669D01*
X89493793Y-103747665D01*
X89407547Y-103632456D01*
X89407544Y-103632453D01*
X89292335Y-103546207D01*
X89292328Y-103546203D01*
X89160916Y-103497190D01*
X89104982Y-103455319D01*
X89080565Y-103389855D01*
X89095417Y-103321582D01*
X89116562Y-103293333D01*
X89230104Y-103179792D01*
X89355051Y-103007816D01*
X89451557Y-102818412D01*
X89517246Y-102616243D01*
X89550500Y-102406287D01*
X89550500Y-102193713D01*
X89517246Y-101983757D01*
X89451557Y-101781588D01*
X89355051Y-101592184D01*
X89355049Y-101592181D01*
X89355048Y-101592179D01*
X89230109Y-101420213D01*
X89079786Y-101269890D01*
X88907820Y-101144951D01*
X88718414Y-101048444D01*
X88718413Y-101048443D01*
X88718412Y-101048443D01*
X88516243Y-100982754D01*
X88516241Y-100982753D01*
X88516240Y-100982753D01*
X88354957Y-100957208D01*
X88306287Y-100949500D01*
X88093713Y-100949500D01*
X88045042Y-100957208D01*
X87883760Y-100982753D01*
X87681585Y-101048444D01*
X87492179Y-101144951D01*
X87320213Y-101269890D01*
X87169894Y-101420209D01*
X87169890Y-101420214D01*
X87124818Y-101482251D01*
X87069488Y-101524917D01*
X86999875Y-101530896D01*
X86938080Y-101498290D01*
X86903722Y-101437451D01*
X86900500Y-101409366D01*
X86900500Y-101000809D01*
X86920185Y-100933770D01*
X86936815Y-100913132D01*
X87769291Y-100080655D01*
X87830612Y-100047172D01*
X87878756Y-100047685D01*
X87878947Y-100046484D01*
X87983890Y-100063105D01*
X88093715Y-100080500D01*
X88093716Y-100080500D01*
X88306288Y-100080500D01*
X88306289Y-100080500D01*
X88516245Y-100047246D01*
X88718414Y-99981557D01*
X88907818Y-99885051D01*
X88929791Y-99869086D01*
X89079788Y-99760109D01*
X89079790Y-99760106D01*
X89079794Y-99760104D01*
X89230106Y-99609792D01*
X89230108Y-99609788D01*
X89230111Y-99609786D01*
X89355050Y-99437820D01*
X89355049Y-99437820D01*
X89355053Y-99437816D01*
X89451559Y-99248412D01*
X89517248Y-99046243D01*
X89550502Y-98836287D01*
X89550502Y-98623713D01*
X89517248Y-98413757D01*
X89451559Y-98211588D01*
X89355053Y-98022184D01*
X89355051Y-98022181D01*
X89355050Y-98022179D01*
X89230111Y-97850213D01*
X89079788Y-97699890D01*
X88907822Y-97574951D01*
X88907117Y-97574591D01*
X88899056Y-97570485D01*
X88848261Y-97522512D01*
X88831465Y-97454692D01*
X88854001Y-97388556D01*
X88899056Y-97349515D01*
X88907818Y-97345051D01*
X88929791Y-97329086D01*
X89079788Y-97220109D01*
X89079790Y-97220106D01*
X89079794Y-97220104D01*
X89230106Y-97069792D01*
X89230108Y-97069788D01*
X89230111Y-97069786D01*
X89288663Y-96989193D01*
X89355053Y-96897816D01*
X89355351Y-96897230D01*
X89375237Y-96858205D01*
X89423211Y-96807409D01*
X89485721Y-96790500D01*
X101414903Y-96790500D01*
X101481942Y-96810185D01*
G37*
%TD.AperFunction*%
%TA.AperFunction,Conductor*%
G36*
X87305703Y-114476040D02*
G01*
X87312181Y-114482072D01*
X87320216Y-114490107D01*
X87492185Y-114615048D01*
X87501499Y-114619794D01*
X87552296Y-114667768D01*
X87569091Y-114735589D01*
X87546554Y-114801724D01*
X87501503Y-114840762D01*
X87492444Y-114845377D01*
X87492440Y-114845380D01*
X87438282Y-114884727D01*
X87438282Y-114884728D01*
X88070591Y-115517037D01*
X88007007Y-115534075D01*
X87892993Y-115599901D01*
X87799901Y-115692993D01*
X87734075Y-115807007D01*
X87717037Y-115870591D01*
X87136819Y-115290373D01*
X87103334Y-115229050D01*
X87100500Y-115202692D01*
X87100500Y-114569753D01*
X87120185Y-114502714D01*
X87172989Y-114456959D01*
X87242147Y-114447015D01*
X87305703Y-114476040D01*
G37*
%TD.AperFunction*%
%TA.AperFunction,Conductor*%
G36*
X192387273Y-107920185D02*
G01*
X192389125Y-107921398D01*
X192468597Y-107974499D01*
X192520821Y-108009394D01*
X192597410Y-108041118D01*
X192598099Y-108041413D01*
X192624513Y-108063222D01*
X192651144Y-108084682D01*
X192651386Y-108085409D01*
X192651978Y-108085898D01*
X192662405Y-108118515D01*
X192673209Y-108150976D01*
X192673019Y-108151719D01*
X192673253Y-108152450D01*
X192664399Y-108185495D01*
X192655930Y-108218675D01*
X192655286Y-108219502D01*
X192655170Y-108219939D01*
X192654414Y-108220625D01*
X192636969Y-108243083D01*
X188826873Y-112053181D01*
X188765550Y-112086666D01*
X188739192Y-112089500D01*
X182720929Y-112089500D01*
X182595261Y-112114497D01*
X182595255Y-112114499D01*
X182476873Y-112163534D01*
X182437269Y-112189997D01*
X182386974Y-112223602D01*
X182320298Y-112244480D01*
X182318085Y-112244500D01*
X182291306Y-112244500D01*
X182117341Y-112279103D01*
X182117332Y-112279106D01*
X181953459Y-112346983D01*
X181953446Y-112346990D01*
X181805965Y-112445535D01*
X181805961Y-112445538D01*
X181680538Y-112570961D01*
X181680535Y-112570965D01*
X181581990Y-112718446D01*
X181581983Y-112718459D01*
X181514106Y-112882332D01*
X181514103Y-112882341D01*
X181479500Y-113056304D01*
X181479500Y-113074192D01*
X181459815Y-113141231D01*
X181443181Y-113161873D01*
X181191873Y-113413181D01*
X181130550Y-113446666D01*
X181104192Y-113449500D01*
X179600477Y-113449500D01*
X179533438Y-113429815D01*
X179487683Y-113377011D01*
X179477739Y-113307853D01*
X179500310Y-113256627D01*
X179498405Y-113255354D01*
X179589390Y-113119185D01*
X179589390Y-113119184D01*
X179589394Y-113119179D01*
X179649737Y-112973497D01*
X179680500Y-112818842D01*
X179680500Y-112661158D01*
X179680500Y-112661155D01*
X179680499Y-112661153D01*
X179665052Y-112583497D01*
X179649737Y-112506503D01*
X179642856Y-112489890D01*
X179589397Y-112360827D01*
X179589390Y-112360814D01*
X179501398Y-112229125D01*
X179480520Y-112162447D01*
X179480500Y-112160234D01*
X179480500Y-111805098D01*
X179489144Y-111775660D01*
X179495668Y-111745670D01*
X179499422Y-111740654D01*
X179500185Y-111738059D01*
X179516820Y-111717416D01*
X179572419Y-111661818D01*
X179633742Y-111628334D01*
X179660099Y-111625500D01*
X187488331Y-111625500D01*
X187488347Y-111625501D01*
X187495943Y-111625501D01*
X187654054Y-111625501D01*
X187654057Y-111625501D01*
X187806785Y-111584577D01*
X187856904Y-111555639D01*
X187943716Y-111505520D01*
X188055520Y-111393716D01*
X188055520Y-111393714D01*
X188065728Y-111383507D01*
X188065729Y-111383504D01*
X191512417Y-107936819D01*
X191573740Y-107903334D01*
X191600098Y-107900500D01*
X192320234Y-107900500D01*
X192387273Y-107920185D01*
G37*
%TD.AperFunction*%
%TA.AperFunction,Conductor*%
G36*
X89571444Y-82373999D02*
G01*
X89610486Y-82419056D01*
X89614951Y-82427820D01*
X89739890Y-82599786D01*
X89890213Y-82750109D01*
X90062182Y-82875050D01*
X90070946Y-82879516D01*
X90121742Y-82927491D01*
X90138536Y-82995312D01*
X90115998Y-83061447D01*
X90070946Y-83100484D01*
X90062182Y-83104949D01*
X89890213Y-83229890D01*
X89739890Y-83380213D01*
X89614949Y-83552182D01*
X89610202Y-83561499D01*
X89562227Y-83612293D01*
X89494405Y-83629087D01*
X89428271Y-83606548D01*
X89389234Y-83561495D01*
X89384626Y-83552452D01*
X89345270Y-83498282D01*
X89345269Y-83498282D01*
X88712962Y-84130590D01*
X88695925Y-84067007D01*
X88630099Y-83952993D01*
X88537007Y-83859901D01*
X88422993Y-83794075D01*
X88359409Y-83777037D01*
X88991716Y-83144728D01*
X88937547Y-83105373D01*
X88937547Y-83105372D01*
X88928500Y-83100763D01*
X88877706Y-83052788D01*
X88860912Y-82984966D01*
X88883451Y-82918832D01*
X88928508Y-82879793D01*
X88937816Y-82875051D01*
X89054186Y-82790504D01*
X89109786Y-82750109D01*
X89109788Y-82750106D01*
X89109792Y-82750104D01*
X89260104Y-82599792D01*
X89260106Y-82599788D01*
X89260109Y-82599786D01*
X89385048Y-82427820D01*
X89385047Y-82427820D01*
X89385051Y-82427816D01*
X89389514Y-82419054D01*
X89437488Y-82368259D01*
X89505308Y-82351463D01*
X89571444Y-82373999D01*
G37*
%TD.AperFunction*%
%TA.AperFunction,Conductor*%
G36*
X121594413Y-56285188D02*
G01*
X121640177Y-56337984D01*
X121650132Y-56407141D01*
X121621118Y-56470702D01*
X121562346Y-56508486D01*
X121546794Y-56511988D01*
X121538869Y-56513243D01*
X121336784Y-56578904D01*
X121147441Y-56675380D01*
X121093284Y-56714727D01*
X121093284Y-56714728D01*
X121725593Y-57347037D01*
X121662009Y-57364075D01*
X121547995Y-57429901D01*
X121454903Y-57522993D01*
X121389077Y-57637007D01*
X121372039Y-57700591D01*
X120701819Y-57030371D01*
X120668334Y-56969048D01*
X120665500Y-56942690D01*
X120665500Y-56932129D01*
X120665499Y-56932123D01*
X120665498Y-56932116D01*
X120659092Y-56872517D01*
X120657268Y-56867627D01*
X120608798Y-56737671D01*
X120608794Y-56737664D01*
X120522548Y-56622455D01*
X120522545Y-56622452D01*
X120407336Y-56536206D01*
X120407331Y-56536203D01*
X120326066Y-56505893D01*
X120270133Y-56464021D01*
X120245716Y-56398557D01*
X120260568Y-56330284D01*
X120309973Y-56280879D01*
X120369375Y-56265711D01*
X121527371Y-56265515D01*
X121594413Y-56285188D01*
G37*
%TD.AperFunction*%
%TA.AperFunction,Conductor*%
G36*
X158932841Y-56278855D02*
G01*
X158978605Y-56331651D01*
X158988560Y-56400808D01*
X158959546Y-56464369D01*
X158900774Y-56502153D01*
X158885218Y-56505655D01*
X158868870Y-56508244D01*
X158868868Y-56508244D01*
X158666781Y-56573906D01*
X158477438Y-56670382D01*
X158423281Y-56709729D01*
X158423281Y-56709730D01*
X159055590Y-57342039D01*
X158992006Y-57359077D01*
X158877992Y-57424903D01*
X158784900Y-57517995D01*
X158719074Y-57632009D01*
X158702036Y-57695593D01*
X158069727Y-57063284D01*
X158069726Y-57063284D01*
X158030379Y-57117442D01*
X158030376Y-57117446D01*
X158025764Y-57126499D01*
X157977788Y-57177294D01*
X157909967Y-57194087D01*
X157843833Y-57171548D01*
X157804798Y-57126499D01*
X157800050Y-57117182D01*
X157675109Y-56945213D01*
X157524786Y-56794890D01*
X157352820Y-56669951D01*
X157163414Y-56573444D01*
X157163413Y-56573443D01*
X157163412Y-56573443D01*
X156961243Y-56507754D01*
X156950016Y-56505975D01*
X156886884Y-56476044D01*
X156849955Y-56416731D01*
X156850955Y-56346868D01*
X156889567Y-56288637D01*
X156953532Y-56260525D01*
X156969387Y-56259503D01*
X158865798Y-56259182D01*
X158932841Y-56278855D01*
G37*
%TD.AperFunction*%
%TA.AperFunction,Conductor*%
G36*
X143676498Y-56281442D02*
G01*
X143722262Y-56334238D01*
X143732217Y-56403395D01*
X143703203Y-56466956D01*
X143644431Y-56504740D01*
X143628899Y-56508238D01*
X143628886Y-56508240D01*
X143628870Y-56508243D01*
X143426783Y-56573905D01*
X143237440Y-56670381D01*
X143183283Y-56709728D01*
X143183283Y-56709729D01*
X143815592Y-57342038D01*
X143752008Y-57359076D01*
X143637994Y-57424902D01*
X143544902Y-57517994D01*
X143479076Y-57632008D01*
X143462038Y-57695592D01*
X142829729Y-57063283D01*
X142829728Y-57063283D01*
X142790381Y-57117441D01*
X142790378Y-57117445D01*
X142785765Y-57126500D01*
X142737790Y-57177294D01*
X142669968Y-57194088D01*
X142603834Y-57171549D01*
X142564799Y-57126500D01*
X142560050Y-57117181D01*
X142435109Y-56945212D01*
X142284786Y-56794889D01*
X142112820Y-56669950D01*
X141923414Y-56573443D01*
X141923413Y-56573442D01*
X141923412Y-56573442D01*
X141721243Y-56507753D01*
X141721240Y-56507752D01*
X141716686Y-56506659D01*
X141656095Y-56471867D01*
X141623933Y-56409841D01*
X141630410Y-56340272D01*
X141673471Y-56285249D01*
X141739443Y-56262241D01*
X141745613Y-56262086D01*
X143609458Y-56261769D01*
X143676498Y-56281442D01*
G37*
%TD.AperFunction*%
%TA.AperFunction,Conductor*%
G36*
X146216013Y-56281012D02*
G01*
X146261777Y-56333808D01*
X146271732Y-56402965D01*
X146242718Y-56466526D01*
X146183946Y-56504310D01*
X146170367Y-56507367D01*
X146168760Y-56507753D01*
X145966585Y-56573444D01*
X145777179Y-56669951D01*
X145605213Y-56794890D01*
X145454890Y-56945213D01*
X145329950Y-57117181D01*
X145325201Y-57126501D01*
X145277223Y-57177294D01*
X145209402Y-57194086D01*
X145143268Y-57171545D01*
X145104234Y-57126495D01*
X145099625Y-57117450D01*
X145060271Y-57063283D01*
X145060270Y-57063283D01*
X144427963Y-57695591D01*
X144410926Y-57632008D01*
X144345100Y-57517994D01*
X144252008Y-57424902D01*
X144137994Y-57359076D01*
X144074410Y-57342038D01*
X144706717Y-56709729D01*
X144652551Y-56670376D01*
X144463218Y-56573905D01*
X144261132Y-56508244D01*
X144260406Y-56508129D01*
X144260152Y-56508008D01*
X144256399Y-56507108D01*
X144256588Y-56506319D01*
X144197272Y-56478198D01*
X144160342Y-56418886D01*
X144161342Y-56349023D01*
X144199953Y-56290791D01*
X144263917Y-56262678D01*
X144279783Y-56261656D01*
X146148970Y-56261339D01*
X146216013Y-56281012D01*
G37*
%TD.AperFunction*%
%TA.AperFunction,Conductor*%
G36*
X148761937Y-56280580D02*
G01*
X148807701Y-56333376D01*
X148817656Y-56402533D01*
X148788642Y-56466094D01*
X148729870Y-56503878D01*
X148714318Y-56507380D01*
X148708867Y-56508243D01*
X148506782Y-56573904D01*
X148317439Y-56670380D01*
X148263282Y-56709727D01*
X148263282Y-56709728D01*
X148895591Y-57342037D01*
X148832007Y-57359075D01*
X148717993Y-57424901D01*
X148624901Y-57517993D01*
X148559075Y-57632007D01*
X148542037Y-57695591D01*
X147909728Y-57063282D01*
X147909727Y-57063282D01*
X147870380Y-57117440D01*
X147870376Y-57117446D01*
X147865760Y-57126505D01*
X147817781Y-57177297D01*
X147749959Y-57194087D01*
X147683826Y-57171543D01*
X147644794Y-57126493D01*
X147640051Y-57117184D01*
X147640049Y-57117181D01*
X147640048Y-57117179D01*
X147515109Y-56945213D01*
X147364786Y-56794890D01*
X147192820Y-56669951D01*
X147003414Y-56573444D01*
X147003413Y-56573443D01*
X147003412Y-56573443D01*
X146801243Y-56507754D01*
X146801241Y-56507753D01*
X146801239Y-56507753D01*
X146801236Y-56507752D01*
X146800886Y-56507697D01*
X146800763Y-56507639D01*
X146796503Y-56506616D01*
X146796717Y-56505720D01*
X146737753Y-56477765D01*
X146700825Y-56418451D01*
X146701826Y-56348589D01*
X146740438Y-56290358D01*
X146804403Y-56262247D01*
X146820264Y-56261225D01*
X148694894Y-56260907D01*
X148761937Y-56280580D01*
G37*
%TD.AperFunction*%
%TA.AperFunction,Conductor*%
G36*
X151301452Y-56280149D02*
G01*
X151347216Y-56332945D01*
X151357171Y-56402102D01*
X151328157Y-56465663D01*
X151269385Y-56503447D01*
X151253836Y-56506948D01*
X151248760Y-56507752D01*
X151046585Y-56573443D01*
X150857179Y-56669950D01*
X150685213Y-56794889D01*
X150534890Y-56945212D01*
X150409949Y-57117181D01*
X150405202Y-57126498D01*
X150357227Y-57177292D01*
X150289405Y-57194086D01*
X150223271Y-57171547D01*
X150184236Y-57126498D01*
X150179627Y-57117453D01*
X150179626Y-57117452D01*
X150140270Y-57063282D01*
X150140269Y-57063282D01*
X149507962Y-57695590D01*
X149490925Y-57632007D01*
X149425099Y-57517993D01*
X149332007Y-57424901D01*
X149217993Y-57359075D01*
X149154409Y-57342037D01*
X149786716Y-56709728D01*
X149732550Y-56670375D01*
X149543217Y-56573904D01*
X149341131Y-56508243D01*
X149334976Y-56507268D01*
X149271842Y-56477336D01*
X149234913Y-56418023D01*
X149235913Y-56348160D01*
X149274525Y-56289929D01*
X149338490Y-56261817D01*
X149354350Y-56260795D01*
X151234410Y-56260476D01*
X151301452Y-56280149D01*
G37*
%TD.AperFunction*%
%TA.AperFunction,Conductor*%
G36*
X153847378Y-56279717D02*
G01*
X153893142Y-56332513D01*
X153903097Y-56401670D01*
X153874083Y-56465231D01*
X153815311Y-56503015D01*
X153799760Y-56506516D01*
X153788876Y-56508240D01*
X153788870Y-56508241D01*
X153586783Y-56573903D01*
X153397440Y-56670379D01*
X153343283Y-56709726D01*
X153343283Y-56709727D01*
X153975592Y-57342036D01*
X153912008Y-57359074D01*
X153797994Y-57424900D01*
X153704902Y-57517992D01*
X153639076Y-57632006D01*
X153622038Y-57695590D01*
X152989729Y-57063281D01*
X152989728Y-57063281D01*
X152950381Y-57117439D01*
X152945763Y-57126502D01*
X152897785Y-57177295D01*
X152829964Y-57194087D01*
X152763830Y-57171546D01*
X152724796Y-57126495D01*
X152720050Y-57117181D01*
X152595109Y-56945212D01*
X152444786Y-56794889D01*
X152272820Y-56669950D01*
X152083414Y-56573443D01*
X152083413Y-56573442D01*
X152083412Y-56573442D01*
X151881243Y-56507753D01*
X151875458Y-56506836D01*
X151812325Y-56476905D01*
X151775396Y-56417592D01*
X151776396Y-56347730D01*
X151815008Y-56289498D01*
X151878973Y-56261386D01*
X151894831Y-56260364D01*
X153780337Y-56260044D01*
X153847378Y-56279717D01*
G37*
%TD.AperFunction*%
%TA.AperFunction,Conductor*%
G36*
X156386905Y-56279286D02*
G01*
X156432669Y-56332082D01*
X156442624Y-56401239D01*
X156413610Y-56464800D01*
X156354838Y-56502584D01*
X156339289Y-56506085D01*
X156328760Y-56507753D01*
X156126585Y-56573444D01*
X155937179Y-56669951D01*
X155765213Y-56794890D01*
X155614890Y-56945213D01*
X155489949Y-57117182D01*
X155485203Y-57126497D01*
X155437228Y-57177292D01*
X155369406Y-57194085D01*
X155303272Y-57171546D01*
X155264237Y-57126497D01*
X155259628Y-57117452D01*
X155259627Y-57117451D01*
X155220271Y-57063281D01*
X155220270Y-57063281D01*
X154587963Y-57695589D01*
X154570926Y-57632006D01*
X154505100Y-57517992D01*
X154412008Y-57424900D01*
X154297994Y-57359074D01*
X154234410Y-57342036D01*
X154866717Y-56709727D01*
X154812551Y-56670374D01*
X154623218Y-56573903D01*
X154421132Y-56508242D01*
X154409548Y-56506407D01*
X154346414Y-56476475D01*
X154309485Y-56417162D01*
X154310485Y-56347300D01*
X154349097Y-56289068D01*
X154413061Y-56260956D01*
X154428918Y-56259934D01*
X156319865Y-56259613D01*
X156386905Y-56279286D01*
G37*
%TD.AperFunction*%
%TD*%
M02*
