%TF.GenerationSoftware,KiCad,Pcbnew,9.0.7*%
%TF.CreationDate,2026-03-05T12:47:03+11:00*%
%TF.ProjectId,tactmount,74616374-6d6f-4756-9e74-2e6b69636164,rev?*%
%TF.SameCoordinates,Original*%
%TF.FileFunction,Legend,Top*%
%TF.FilePolarity,Positive*%
%FSLAX46Y46*%
G04 Gerber Fmt 4.6, Leading zero omitted, Abs format (unit mm)*
G04 Created by KiCad (PCBNEW 9.0.7) date 2026-03-05 12:47:03*
%MOMM*%
%LPD*%
G01*
G04 APERTURE LIST*
%ADD10C,0.150000*%
%ADD11C,0.120000*%
G04 APERTURE END LIST*
D10*
X123169048Y-62954819D02*
X123502381Y-63954819D01*
X123502381Y-63954819D02*
X123835714Y-62954819D01*
X124359524Y-62954819D02*
X124550000Y-62954819D01*
X124550000Y-62954819D02*
X124645238Y-63002438D01*
X124645238Y-63002438D02*
X124740476Y-63097676D01*
X124740476Y-63097676D02*
X124788095Y-63288152D01*
X124788095Y-63288152D02*
X124788095Y-63621485D01*
X124788095Y-63621485D02*
X124740476Y-63811961D01*
X124740476Y-63811961D02*
X124645238Y-63907200D01*
X124645238Y-63907200D02*
X124550000Y-63954819D01*
X124550000Y-63954819D02*
X124359524Y-63954819D01*
X124359524Y-63954819D02*
X124264286Y-63907200D01*
X124264286Y-63907200D02*
X124169048Y-63811961D01*
X124169048Y-63811961D02*
X124121429Y-63621485D01*
X124121429Y-63621485D02*
X124121429Y-63288152D01*
X124121429Y-63288152D02*
X124169048Y-63097676D01*
X124169048Y-63097676D02*
X124264286Y-63002438D01*
X124264286Y-63002438D02*
X124359524Y-62954819D01*
X125692857Y-63954819D02*
X125216667Y-63954819D01*
X125216667Y-63954819D02*
X125216667Y-62954819D01*
X126026191Y-63573866D02*
X126788096Y-63573866D01*
X178692857Y-63954819D02*
X178692857Y-62954819D01*
X178692857Y-62954819D02*
X178930952Y-62954819D01*
X178930952Y-62954819D02*
X179073809Y-63002438D01*
X179073809Y-63002438D02*
X179169047Y-63097676D01*
X179169047Y-63097676D02*
X179216666Y-63192914D01*
X179216666Y-63192914D02*
X179264285Y-63383390D01*
X179264285Y-63383390D02*
X179264285Y-63526247D01*
X179264285Y-63526247D02*
X179216666Y-63716723D01*
X179216666Y-63716723D02*
X179169047Y-63811961D01*
X179169047Y-63811961D02*
X179073809Y-63907200D01*
X179073809Y-63907200D02*
X178930952Y-63954819D01*
X178930952Y-63954819D02*
X178692857Y-63954819D01*
X179597619Y-62954819D02*
X179835714Y-63954819D01*
X179835714Y-63954819D02*
X180026190Y-63240533D01*
X180026190Y-63240533D02*
X180216666Y-63954819D01*
X180216666Y-63954819D02*
X180454762Y-62954819D01*
X180835714Y-63954819D02*
X180835714Y-62954819D01*
X180835714Y-62954819D02*
X181407142Y-63954819D01*
X181407142Y-63954819D02*
X181407142Y-62954819D01*
X156216667Y-63829819D02*
X156216667Y-62829819D01*
X156216667Y-62829819D02*
X156550000Y-63544104D01*
X156550000Y-63544104D02*
X156883333Y-62829819D01*
X156883333Y-62829819D02*
X156883333Y-63829819D01*
X157359524Y-63306009D02*
X157692857Y-63306009D01*
X157835714Y-63829819D02*
X157359524Y-63829819D01*
X157359524Y-63829819D02*
X157359524Y-62829819D01*
X157359524Y-62829819D02*
X157835714Y-62829819D01*
X158264286Y-63829819D02*
X158264286Y-62829819D01*
X158264286Y-62829819D02*
X158835714Y-63829819D01*
X158835714Y-63829819D02*
X158835714Y-62829819D01*
X159311905Y-62829819D02*
X159311905Y-63639342D01*
X159311905Y-63639342D02*
X159359524Y-63734580D01*
X159359524Y-63734580D02*
X159407143Y-63782200D01*
X159407143Y-63782200D02*
X159502381Y-63829819D01*
X159502381Y-63829819D02*
X159692857Y-63829819D01*
X159692857Y-63829819D02*
X159788095Y-63782200D01*
X159788095Y-63782200D02*
X159835714Y-63734580D01*
X159835714Y-63734580D02*
X159883333Y-63639342D01*
X159883333Y-63639342D02*
X159883333Y-62829819D01*
X145261905Y-63882200D02*
X145404762Y-63929819D01*
X145404762Y-63929819D02*
X145642857Y-63929819D01*
X145642857Y-63929819D02*
X145738095Y-63882200D01*
X145738095Y-63882200D02*
X145785714Y-63834580D01*
X145785714Y-63834580D02*
X145833333Y-63739342D01*
X145833333Y-63739342D02*
X145833333Y-63644104D01*
X145833333Y-63644104D02*
X145785714Y-63548866D01*
X145785714Y-63548866D02*
X145738095Y-63501247D01*
X145738095Y-63501247D02*
X145642857Y-63453628D01*
X145642857Y-63453628D02*
X145452381Y-63406009D01*
X145452381Y-63406009D02*
X145357143Y-63358390D01*
X145357143Y-63358390D02*
X145309524Y-63310771D01*
X145309524Y-63310771D02*
X145261905Y-63215533D01*
X145261905Y-63215533D02*
X145261905Y-63120295D01*
X145261905Y-63120295D02*
X145309524Y-63025057D01*
X145309524Y-63025057D02*
X145357143Y-62977438D01*
X145357143Y-62977438D02*
X145452381Y-62929819D01*
X145452381Y-62929819D02*
X145690476Y-62929819D01*
X145690476Y-62929819D02*
X145833333Y-62977438D01*
X146452381Y-63453628D02*
X146452381Y-63929819D01*
X146119048Y-62929819D02*
X146452381Y-63453628D01*
X146452381Y-63453628D02*
X146785714Y-62929819D01*
X147119048Y-63929819D02*
X147119048Y-62929819D01*
X147119048Y-62929819D02*
X147690476Y-63929819D01*
X147690476Y-63929819D02*
X147690476Y-62929819D01*
X148738095Y-63834580D02*
X148690476Y-63882200D01*
X148690476Y-63882200D02*
X148547619Y-63929819D01*
X148547619Y-63929819D02*
X148452381Y-63929819D01*
X148452381Y-63929819D02*
X148309524Y-63882200D01*
X148309524Y-63882200D02*
X148214286Y-63786961D01*
X148214286Y-63786961D02*
X148166667Y-63691723D01*
X148166667Y-63691723D02*
X148119048Y-63501247D01*
X148119048Y-63501247D02*
X148119048Y-63358390D01*
X148119048Y-63358390D02*
X148166667Y-63167914D01*
X148166667Y-63167914D02*
X148214286Y-63072676D01*
X148214286Y-63072676D02*
X148309524Y-62977438D01*
X148309524Y-62977438D02*
X148452381Y-62929819D01*
X148452381Y-62929819D02*
X148547619Y-62929819D01*
X148547619Y-62929819D02*
X148690476Y-62977438D01*
X148690476Y-62977438D02*
X148738095Y-63025057D01*
X112169048Y-62954819D02*
X112502381Y-63954819D01*
X112502381Y-63954819D02*
X112835714Y-62954819D01*
X113359524Y-62954819D02*
X113550000Y-62954819D01*
X113550000Y-62954819D02*
X113645238Y-63002438D01*
X113645238Y-63002438D02*
X113740476Y-63097676D01*
X113740476Y-63097676D02*
X113788095Y-63288152D01*
X113788095Y-63288152D02*
X113788095Y-63621485D01*
X113788095Y-63621485D02*
X113740476Y-63811961D01*
X113740476Y-63811961D02*
X113645238Y-63907200D01*
X113645238Y-63907200D02*
X113550000Y-63954819D01*
X113550000Y-63954819D02*
X113359524Y-63954819D01*
X113359524Y-63954819D02*
X113264286Y-63907200D01*
X113264286Y-63907200D02*
X113169048Y-63811961D01*
X113169048Y-63811961D02*
X113121429Y-63621485D01*
X113121429Y-63621485D02*
X113121429Y-63288152D01*
X113121429Y-63288152D02*
X113169048Y-63097676D01*
X113169048Y-63097676D02*
X113264286Y-63002438D01*
X113264286Y-63002438D02*
X113359524Y-62954819D01*
X114692857Y-63954819D02*
X114216667Y-63954819D01*
X114216667Y-63954819D02*
X114216667Y-62954819D01*
X115026191Y-63573866D02*
X115788096Y-63573866D01*
X115407143Y-63954819D02*
X115407143Y-63192914D01*
X168264286Y-62954819D02*
X168264286Y-63764342D01*
X168264286Y-63764342D02*
X168311905Y-63859580D01*
X168311905Y-63859580D02*
X168359524Y-63907200D01*
X168359524Y-63907200D02*
X168454762Y-63954819D01*
X168454762Y-63954819D02*
X168645238Y-63954819D01*
X168645238Y-63954819D02*
X168740476Y-63907200D01*
X168740476Y-63907200D02*
X168788095Y-63859580D01*
X168788095Y-63859580D02*
X168835714Y-63764342D01*
X168835714Y-63764342D02*
X168835714Y-62954819D01*
X169311905Y-63954819D02*
X169311905Y-62954819D01*
X169311905Y-62954819D02*
X169692857Y-62954819D01*
X169692857Y-62954819D02*
X169788095Y-63002438D01*
X169788095Y-63002438D02*
X169835714Y-63050057D01*
X169835714Y-63050057D02*
X169883333Y-63145295D01*
X169883333Y-63145295D02*
X169883333Y-63288152D01*
X169883333Y-63288152D02*
X169835714Y-63383390D01*
X169835714Y-63383390D02*
X169788095Y-63431009D01*
X169788095Y-63431009D02*
X169692857Y-63478628D01*
X169692857Y-63478628D02*
X169311905Y-63478628D01*
D11*
%TO.C,SW5*%
X121550000Y-62750000D02*
X121550000Y-64250000D01*
X122800000Y-66750000D02*
X127300000Y-66750000D01*
X127300000Y-60250000D02*
X122800000Y-60250000D01*
X128550000Y-64250000D02*
X128550000Y-62750000D01*
%TO.C,SW1*%
X176550000Y-62750000D02*
X176550000Y-64250000D01*
X177800000Y-66750000D02*
X182300000Y-66750000D01*
X182300000Y-60250000D02*
X177800000Y-60250000D01*
X183550000Y-64250000D02*
X183550000Y-62750000D01*
%TO.C,J3*%
X164680000Y-56420002D02*
X164680000Y-59180002D01*
X169870000Y-56419996D02*
X164680000Y-56420002D01*
X169870000Y-56419996D02*
X169870003Y-59179998D01*
X169870003Y-59179998D02*
X164680000Y-59180002D01*
X171140001Y-56420003D02*
X172519998Y-56420002D01*
X172519998Y-56420002D02*
X172519999Y-57800003D01*
%TO.C,SW3*%
X154550000Y-62750000D02*
X154550000Y-64250000D01*
X155800000Y-66750000D02*
X160300000Y-66750000D01*
X160300000Y-60250000D02*
X155800000Y-60250000D01*
X161550000Y-64250000D02*
X161550000Y-62750000D01*
%TO.C,SW4*%
X143550000Y-62750000D02*
X143550000Y-64250000D01*
X144800000Y-66750000D02*
X149300000Y-66750000D01*
X149300000Y-60250000D02*
X144800000Y-60250000D01*
X150550000Y-64250000D02*
X150550000Y-62750000D01*
%TO.C,SW6*%
X110550000Y-62750000D02*
X110550000Y-64250000D01*
X111800000Y-66750000D02*
X116300000Y-66750000D01*
X116300000Y-60250000D02*
X111800000Y-60250000D01*
X117550000Y-64250000D02*
X117550000Y-62750000D01*
%TO.C,J4*%
X153740001Y-59180001D02*
X153740001Y-57800000D01*
X155119999Y-59180000D02*
X153740001Y-59180001D01*
X156389999Y-56420002D02*
X161580000Y-56420001D01*
X156389999Y-59180003D02*
X156389999Y-56420002D01*
X156389999Y-59180003D02*
X161580000Y-59180001D01*
X161580000Y-59180001D02*
X161580000Y-56420001D01*
%TO.C,SW2*%
X165550000Y-62750000D02*
X165550000Y-64250000D01*
X166800000Y-66750000D02*
X171300000Y-66750000D01*
X171300000Y-60250000D02*
X166800000Y-60250000D01*
X172550000Y-64250000D02*
X172550000Y-62750000D01*
%TD*%
M02*
