%TF.GenerationSoftware,KiCad,Pcbnew,9.0.7*%
%TF.CreationDate,2026-03-05T12:47:03+11:00*%
%TF.ProjectId,tactmount,74616374-6d6f-4756-9e74-2e6b69636164,rev?*%
%TF.SameCoordinates,Original*%
%TF.FileFunction,Copper,L1,Top*%
%TF.FilePolarity,Positive*%
%FSLAX46Y46*%
G04 Gerber Fmt 4.6, Leading zero omitted, Abs format (unit mm)*
G04 Created by KiCad (PCBNEW 9.0.7) date 2026-03-05 12:47:03*
%MOMM*%
%LPD*%
G01*
G04 APERTURE LIST*
G04 Aperture macros list*
%AMRoundRect*
0 Rectangle with rounded corners*
0 $1 Rounding radius*
0 $2 $3 $4 $5 $6 $7 $8 $9 X,Y pos of 4 corners*
0 Add a 4 corners polygon primitive as box body*
4,1,4,$2,$3,$4,$5,$6,$7,$8,$9,$2,$3,0*
0 Add four circle primitives for the rounded corners*
1,1,$1+$1,$2,$3*
1,1,$1+$1,$4,$5*
1,1,$1+$1,$6,$7*
1,1,$1+$1,$8,$9*
0 Add four rect primitives between the rounded corners*
20,1,$1+$1,$2,$3,$4,$5,0*
20,1,$1+$1,$4,$5,$6,$7,0*
20,1,$1+$1,$6,$7,$8,$9,0*
20,1,$1+$1,$8,$9,$2,$3,0*%
G04 Aperture macros list end*
%TA.AperFunction,ComponentPad*%
%ADD10C,2.000000*%
%TD*%
%TA.AperFunction,ComponentPad*%
%ADD11RoundRect,0.250000X-0.550000X-0.550000X0.550000X-0.550000X0.550000X0.550000X-0.550000X0.550000X0*%
%TD*%
%TA.AperFunction,ComponentPad*%
%ADD12C,1.600000*%
%TD*%
%TA.AperFunction,ComponentPad*%
%ADD13R,1.700000X1.700000*%
%TD*%
%TA.AperFunction,ComponentPad*%
%ADD14C,1.700000*%
%TD*%
%TA.AperFunction,ViaPad*%
%ADD15C,0.600000*%
%TD*%
%TA.AperFunction,ViaPad*%
%ADD16C,1.000000*%
%TD*%
%TA.AperFunction,Conductor*%
%ADD17C,0.300000*%
%TD*%
%TA.AperFunction,Conductor*%
%ADD18C,0.200000*%
%TD*%
%TA.AperFunction,Conductor*%
%ADD19C,0.500000*%
%TD*%
%TA.AperFunction,Conductor*%
%ADD20C,1.000000*%
%TD*%
G04 APERTURE END LIST*
D10*
%TO.P,SW5,1,A*%
%TO.N,VOL-*%
X128300000Y-65750000D03*
X121800000Y-65750000D03*
%TO.P,SW5,2,B*%
%TO.N,SGND*%
X128300000Y-61250000D03*
X121800000Y-61250000D03*
%TD*%
D11*
%TO.P,J1,1,Pin_1*%
%TO.N,BT*%
X130650000Y-58025000D03*
D12*
%TO.P,J1,2,Pin_2*%
%TO.N,+3.3V*%
X134250000Y-58025000D03*
%TO.P,J1,3,Pin_3*%
%TO.N,Net-(J1-Pin_3)*%
X137850000Y-58025000D03*
%TO.P,J1,4,Pin_4*%
%TO.N,GND*%
X141450000Y-58025000D03*
%TD*%
D10*
%TO.P,SW1,1,A*%
%TO.N,GND*%
X183300000Y-65750000D03*
X176800000Y-65750000D03*
%TO.P,SW1,2,B*%
%TO.N,Net-(SW1-B)*%
X183300000Y-61250000D03*
X176800000Y-61250000D03*
%TD*%
D11*
%TO.P,J2,1,Pin_1*%
%TO.N,VOL+*%
X116050000Y-58000000D03*
D12*
%TO.P,J2,2,Pin_2*%
%TO.N,SGND*%
X119650000Y-58000000D03*
%TO.P,J2,3,Pin_3*%
%TO.N,VOL-*%
X123250000Y-58000000D03*
%TD*%
D13*
%TO.P,J3,1,Pin_1*%
%TO.N,GND*%
X171140000Y-57800002D03*
D14*
%TO.P,J3,2,Pin_2*%
%TO.N,Net-(J3-Pin_2)*%
X168599999Y-57800002D03*
%TO.P,J3,3,Pin_3*%
%TO.N,BT*%
X166059998Y-57800003D03*
%TD*%
D10*
%TO.P,SW3,1,A*%
%TO.N,GND*%
X161300000Y-65750000D03*
X154800000Y-65750000D03*
%TO.P,SW3,2,B*%
%TO.N,Net-(SW3-B)*%
X161300000Y-61250000D03*
X154800000Y-61250000D03*
%TD*%
%TO.P,SW4,1,A*%
%TO.N,Net-(J3-Pin_2)*%
X150300000Y-65750000D03*
X143800000Y-65750000D03*
%TO.P,SW4,2,B*%
%TO.N,Net-(J4-Pin_2)*%
X150300000Y-61250000D03*
X143800000Y-61250000D03*
%TD*%
%TO.P,SW6,1,A*%
%TO.N,VOL+*%
X117300000Y-65750000D03*
X110800000Y-65750000D03*
%TO.P,SW6,2,B*%
%TO.N,SGND*%
X117300000Y-61250000D03*
X110800000Y-61250000D03*
%TD*%
D13*
%TO.P,J4,1,Pin_1*%
%TO.N,+3.3V*%
X155120000Y-57800001D03*
D14*
%TO.P,J4,2,Pin_2*%
%TO.N,Net-(J4-Pin_2)*%
X157660001Y-57800001D03*
%TO.P,J4,3,Pin_3*%
%TO.N,Net-(J4-Pin_3)*%
X160200000Y-57800000D03*
%TD*%
D10*
%TO.P,SW2,1,A*%
%TO.N,GND*%
X172300000Y-65750000D03*
X165800000Y-65750000D03*
%TO.P,SW2,2,B*%
%TO.N,Net-(SW2-B)*%
X172300000Y-61250000D03*
X165800000Y-61250000D03*
%TD*%
D15*
%TO.N,GND*%
X150100000Y-63400000D03*
X147100000Y-61000000D03*
X163700000Y-63300000D03*
X152500000Y-61500000D03*
D16*
%TO.N,Net-(J1-Pin_3)*%
X142225000Y-62825000D03*
X143800000Y-63900000D03*
D15*
%TO.N,BT*%
X136100000Y-59700000D03*
X151800000Y-59000000D03*
X140800000Y-59700000D03*
X162800000Y-59400000D03*
D16*
%TO.N,Net-(J4-Pin_3)*%
X147074896Y-62452037D03*
%TD*%
D17*
%TO.N,+3.3V*%
X134500000Y-58275000D02*
X134250000Y-58025000D01*
D18*
%TO.N,GND*%
X146223896Y-62733823D02*
X146223896Y-61876104D01*
X146890073Y-63400000D02*
X146223896Y-62733823D01*
X146223896Y-61876104D02*
X147100000Y-61000000D01*
X150100000Y-63400000D02*
X146890073Y-63400000D01*
%TO.N,Net-(J1-Pin_3)*%
X137850000Y-58450000D02*
X137850000Y-58025000D01*
X142225000Y-63057290D02*
X143067710Y-63900000D01*
X142225000Y-62825000D02*
X137850000Y-58450000D01*
X142225000Y-62825000D02*
X142225000Y-63057290D01*
X137550000Y-58025000D02*
X137850000Y-58025000D01*
X143067710Y-63900000D02*
X143800000Y-63900000D01*
D17*
X137850000Y-58550000D02*
X137850000Y-58025000D01*
D18*
%TO.N,BT*%
X136100000Y-59700000D02*
X132325000Y-59700000D01*
X151100000Y-59700000D02*
X140800000Y-59700000D01*
X166059998Y-57800003D02*
X164460001Y-59400000D01*
X132325000Y-59700000D02*
X130650000Y-58025000D01*
X164460001Y-59400000D02*
X162800000Y-59400000D01*
X151800000Y-59000000D02*
X151100000Y-59700000D01*
D19*
%TO.N,VOL-*%
X130001000Y-61954578D02*
X130001000Y-60545422D01*
X130001000Y-60545422D02*
X127455578Y-58000000D01*
X128300000Y-63655578D02*
X130001000Y-61954578D01*
D20*
X121800000Y-65750000D02*
X128300000Y-65750000D01*
D19*
X127455578Y-58000000D02*
X123250000Y-58000000D01*
X128300000Y-65750000D02*
X128300000Y-63655578D01*
%TO.N,VOL+*%
X111644422Y-58000000D02*
X116050000Y-58000000D01*
X110800000Y-63655578D02*
X109099000Y-61954578D01*
X109099000Y-60545422D02*
X111644422Y-58000000D01*
X109099000Y-61954578D02*
X109099000Y-60545422D01*
D20*
X110800000Y-65750000D02*
X117300000Y-65750000D01*
D19*
X110800000Y-65750000D02*
X110800000Y-63655578D01*
D20*
%TO.N,SGND*%
X128300000Y-61250000D02*
X121800000Y-61250000D01*
D19*
X117300000Y-60350000D02*
X119650000Y-58000000D01*
X121800000Y-60150000D02*
X119650000Y-58000000D01*
X117300000Y-61250000D02*
X117300000Y-60350000D01*
D20*
X110800000Y-61250000D02*
X117300000Y-61250000D01*
D19*
X121800000Y-61250000D02*
X121800000Y-60150000D01*
D18*
%TO.N,Net-(SW1-B)*%
X176800000Y-61250000D02*
X183300000Y-61250000D01*
%TO.N,Net-(SW2-B)*%
X165800000Y-61250000D02*
X172300000Y-61250000D01*
%TO.N,Net-(SW3-B)*%
X154800000Y-61250000D02*
X161300000Y-61250000D01*
%TO.N,Net-(J3-Pin_2)*%
X153098000Y-62952000D02*
X150300000Y-65750000D01*
D17*
X143650000Y-65900000D02*
X143800000Y-65750000D01*
D18*
X168660001Y-57800001D02*
X168600000Y-57800001D01*
X150300000Y-65750000D02*
X143800000Y-65750000D01*
X165007992Y-59949000D02*
X162004992Y-62952000D01*
X168600000Y-57800001D02*
X166451001Y-59949000D01*
X166451001Y-59949000D02*
X165007992Y-59949000D01*
X162004992Y-62952000D02*
X153098000Y-62952000D01*
%TO.N,Net-(J4-Pin_2)*%
X157660001Y-57800001D02*
X155511002Y-59949000D01*
D17*
X143800000Y-61250000D02*
X144750000Y-60300000D01*
D18*
X155511002Y-59949000D02*
X151601000Y-59949000D01*
D17*
X144750000Y-60300000D02*
X149350000Y-60300000D01*
X149350000Y-60300000D02*
X150300000Y-61250000D01*
D18*
X151601000Y-59949000D02*
X150300000Y-61250000D01*
%TO.N,Net-(J4-Pin_3)*%
X161838892Y-62551000D02*
X147173859Y-62551000D01*
X162601000Y-60201000D02*
X162601000Y-61788892D01*
X147173859Y-62551000D02*
X147074896Y-62452037D01*
X160200000Y-57800000D02*
X162601000Y-60201000D01*
X162601000Y-61788892D02*
X161838892Y-62551000D01*
%TD*%
%TA.AperFunction,Conductor*%
%TO.N,GND*%
G36*
X164292108Y-61616631D02*
G01*
X164348041Y-61658503D01*
X164366705Y-61694494D01*
X164409433Y-61825996D01*
X164491704Y-61987460D01*
X164516657Y-62036433D01*
X164655483Y-62227510D01*
X164822490Y-62394517D01*
X165013567Y-62533343D01*
X165047393Y-62550578D01*
X165224003Y-62640566D01*
X165224005Y-62640566D01*
X165224008Y-62640568D01*
X165320156Y-62671808D01*
X165351703Y-64318467D01*
X165224197Y-64359897D01*
X165013830Y-64467084D01*
X164930894Y-64527340D01*
X165364002Y-64960448D01*
X165372418Y-65399763D01*
X165359890Y-65412292D01*
X165287482Y-65537708D01*
X165276212Y-65579766D01*
X164577340Y-64880894D01*
X164517084Y-64963830D01*
X164409897Y-65174197D01*
X164336934Y-65398752D01*
X164300000Y-65631947D01*
X164300000Y-65868052D01*
X164336934Y-66101247D01*
X164409897Y-66325802D01*
X164517087Y-66536174D01*
X164577338Y-66619104D01*
X164577340Y-66619105D01*
X165276212Y-65920232D01*
X165287482Y-65962292D01*
X165359890Y-66087708D01*
X165386100Y-66113918D01*
X165393686Y-66509865D01*
X164940371Y-66963181D01*
X164879048Y-66996666D01*
X164852690Y-66999500D01*
X162247308Y-66999500D01*
X162180269Y-66979815D01*
X162159627Y-66963181D01*
X161470233Y-66273787D01*
X161512292Y-66262518D01*
X161637708Y-66190110D01*
X161740110Y-66087708D01*
X161812518Y-65962292D01*
X161823787Y-65920234D01*
X162522658Y-66619105D01*
X162522658Y-66619104D01*
X162582914Y-66536169D01*
X162582918Y-66536163D01*
X162690102Y-66325802D01*
X162763065Y-66101247D01*
X162800000Y-65868052D01*
X162800000Y-65631947D01*
X162763065Y-65398752D01*
X162690102Y-65174197D01*
X162582914Y-64963828D01*
X162522658Y-64880894D01*
X162522658Y-64880893D01*
X161823787Y-65579765D01*
X161812518Y-65537708D01*
X161740110Y-65412292D01*
X161637708Y-65309890D01*
X161512292Y-65237482D01*
X161470234Y-65226212D01*
X162169105Y-64527340D01*
X162169104Y-64527338D01*
X162086174Y-64467087D01*
X161875802Y-64359897D01*
X161651247Y-64286934D01*
X161651248Y-64286934D01*
X161418052Y-64250000D01*
X161181948Y-64250000D01*
X160948752Y-64286934D01*
X160724197Y-64359897D01*
X160513830Y-64467084D01*
X160430894Y-64527340D01*
X161129766Y-65226212D01*
X161087708Y-65237482D01*
X160962292Y-65309890D01*
X160859890Y-65412292D01*
X160787482Y-65537708D01*
X160776212Y-65579766D01*
X160077340Y-64880894D01*
X160017084Y-64963830D01*
X159909897Y-65174197D01*
X159836934Y-65398752D01*
X159800000Y-65631947D01*
X159800000Y-65868052D01*
X159836934Y-66101247D01*
X159909897Y-66325802D01*
X160017087Y-66536174D01*
X160077338Y-66619104D01*
X160077340Y-66619105D01*
X160776212Y-65920233D01*
X160787482Y-65962292D01*
X160859890Y-66087708D01*
X160962292Y-66190110D01*
X161087708Y-66262518D01*
X161129766Y-66273787D01*
X160440371Y-66963181D01*
X160379048Y-66996666D01*
X160352690Y-66999500D01*
X155747308Y-66999500D01*
X155680269Y-66979815D01*
X155659627Y-66963181D01*
X154970233Y-66273787D01*
X155012292Y-66262518D01*
X155137708Y-66190110D01*
X155240110Y-66087708D01*
X155312518Y-65962292D01*
X155323787Y-65920234D01*
X156022658Y-66619105D01*
X156022658Y-66619104D01*
X156082914Y-66536169D01*
X156082918Y-66536163D01*
X156190102Y-66325802D01*
X156263065Y-66101247D01*
X156300000Y-65868052D01*
X156300000Y-65631947D01*
X156263065Y-65398752D01*
X156190102Y-65174197D01*
X156082914Y-64963828D01*
X156022658Y-64880894D01*
X156022658Y-64880893D01*
X155323787Y-65579765D01*
X155312518Y-65537708D01*
X155240110Y-65412292D01*
X155137708Y-65309890D01*
X155012292Y-65237482D01*
X154970234Y-65226212D01*
X155669105Y-64527340D01*
X155669104Y-64527339D01*
X155586174Y-64467087D01*
X155375802Y-64359897D01*
X155151247Y-64286934D01*
X155151248Y-64286934D01*
X154918052Y-64250000D01*
X154681948Y-64250000D01*
X154448752Y-64286934D01*
X154224197Y-64359897D01*
X154013830Y-64467084D01*
X153930894Y-64527340D01*
X154629766Y-65226212D01*
X154587708Y-65237482D01*
X154462292Y-65309890D01*
X154359890Y-65412292D01*
X154287482Y-65537708D01*
X154276212Y-65579766D01*
X153577340Y-64880894D01*
X153517084Y-64963830D01*
X153409897Y-65174197D01*
X153336934Y-65398752D01*
X153300000Y-65631947D01*
X153300000Y-65868052D01*
X153336934Y-66101247D01*
X153409897Y-66325802D01*
X153517087Y-66536174D01*
X153577338Y-66619104D01*
X153577340Y-66619105D01*
X154276212Y-65920233D01*
X154287482Y-65962292D01*
X154359890Y-66087708D01*
X154462292Y-66190110D01*
X154587708Y-66262518D01*
X154629766Y-66273787D01*
X153940371Y-66963181D01*
X153879048Y-66996666D01*
X153852690Y-66999500D01*
X151471889Y-66999500D01*
X151404850Y-66979815D01*
X151359095Y-66927011D01*
X151349151Y-66857853D01*
X151378176Y-66794297D01*
X151384208Y-66787819D01*
X151444517Y-66727510D01*
X151583343Y-66536433D01*
X151690568Y-66325992D01*
X151763553Y-66101368D01*
X151772982Y-66041835D01*
X151800500Y-65868097D01*
X151800500Y-65631902D01*
X151772982Y-65458165D01*
X151763553Y-65398632D01*
X151722547Y-65272433D01*
X151720553Y-65202593D01*
X151752796Y-65146437D01*
X153310417Y-63588819D01*
X153371740Y-63555334D01*
X153398098Y-63552500D01*
X161918323Y-63552500D01*
X161918339Y-63552501D01*
X161925935Y-63552501D01*
X162084046Y-63552501D01*
X162084049Y-63552501D01*
X162236777Y-63511577D01*
X162321292Y-63462782D01*
X162373708Y-63432520D01*
X162485512Y-63320716D01*
X162485512Y-63320714D01*
X162495716Y-63310511D01*
X162495720Y-63310506D01*
X164161095Y-61645130D01*
X164222416Y-61611647D01*
X164292108Y-61616631D01*
G37*
%TD.AperFunction*%
%TA.AperFunction,Conductor*%
G36*
X148750085Y-60970185D02*
G01*
X148795840Y-61022989D01*
X148805784Y-61092147D01*
X148805520Y-61093897D01*
X148799500Y-61131907D01*
X148799500Y-61368097D01*
X148836446Y-61601368D01*
X148874391Y-61718147D01*
X148897147Y-61788182D01*
X148899142Y-61858022D01*
X148863062Y-61917855D01*
X148800361Y-61948684D01*
X148779216Y-61950500D01*
X148009350Y-61950500D01*
X147942311Y-61930815D01*
X147906248Y-61895391D01*
X147852035Y-61814255D01*
X147852033Y-61814252D01*
X147712681Y-61674900D01*
X147712677Y-61674897D01*
X147548816Y-61565408D01*
X147548803Y-61565401D01*
X147366735Y-61489987D01*
X147366725Y-61489984D01*
X147173439Y-61451537D01*
X147173437Y-61451537D01*
X146976355Y-61451537D01*
X146976353Y-61451537D01*
X146783066Y-61489984D01*
X146783056Y-61489987D01*
X146600988Y-61565401D01*
X146600975Y-61565408D01*
X146437114Y-61674897D01*
X146437110Y-61674900D01*
X146297759Y-61814251D01*
X146297756Y-61814255D01*
X146188267Y-61978116D01*
X146188260Y-61978129D01*
X146112846Y-62160197D01*
X146112843Y-62160207D01*
X146074396Y-62353493D01*
X146074396Y-62353496D01*
X146074396Y-62550578D01*
X146074396Y-62550580D01*
X146074395Y-62550580D01*
X146112843Y-62743866D01*
X146112846Y-62743876D01*
X146188260Y-62925944D01*
X146188267Y-62925957D01*
X146297756Y-63089818D01*
X146297759Y-63089822D01*
X146437110Y-63229173D01*
X146437114Y-63229176D01*
X146600975Y-63338665D01*
X146600988Y-63338672D01*
X146783056Y-63414086D01*
X146783061Y-63414088D01*
X146783065Y-63414088D01*
X146783066Y-63414089D01*
X146976352Y-63452537D01*
X146976355Y-63452537D01*
X147173439Y-63452537D01*
X147306449Y-63426079D01*
X147366731Y-63414088D01*
X147548810Y-63338669D01*
X147712678Y-63229176D01*
X147754034Y-63187820D01*
X147815357Y-63154334D01*
X147841716Y-63151500D01*
X151749902Y-63151500D01*
X151816941Y-63171185D01*
X151862696Y-63223989D01*
X151872640Y-63293147D01*
X151843615Y-63356703D01*
X151837583Y-63363181D01*
X150903563Y-64297200D01*
X150842240Y-64330685D01*
X150777564Y-64327450D01*
X150651370Y-64286447D01*
X150418097Y-64249500D01*
X150418092Y-64249500D01*
X150181908Y-64249500D01*
X150181903Y-64249500D01*
X149948631Y-64286446D01*
X149724003Y-64359433D01*
X149513566Y-64466657D01*
X149430044Y-64527340D01*
X149322490Y-64605483D01*
X149322488Y-64605485D01*
X149322487Y-64605485D01*
X149155485Y-64772487D01*
X149155485Y-64772488D01*
X149155483Y-64772490D01*
X149095862Y-64854550D01*
X149016657Y-64963566D01*
X148956417Y-65081795D01*
X148908442Y-65132591D01*
X148845932Y-65149500D01*
X145254068Y-65149500D01*
X145187029Y-65129815D01*
X145143583Y-65081795D01*
X145102161Y-65000500D01*
X145083343Y-64963567D01*
X144944517Y-64772490D01*
X144777510Y-64605483D01*
X144708621Y-64555432D01*
X144665957Y-64500102D01*
X144659978Y-64430489D01*
X144678410Y-64386219D01*
X144686627Y-64373922D01*
X144686628Y-64373919D01*
X144686632Y-64373914D01*
X144762051Y-64191835D01*
X144785094Y-64075992D01*
X144800500Y-63998543D01*
X144800500Y-63801456D01*
X144762052Y-63608170D01*
X144762051Y-63608169D01*
X144762051Y-63608165D01*
X144740168Y-63555334D01*
X144686635Y-63426092D01*
X144686628Y-63426079D01*
X144577139Y-63262218D01*
X144577136Y-63262214D01*
X144437785Y-63122863D01*
X144437781Y-63122860D01*
X144273920Y-63013371D01*
X144273911Y-63013366D01*
X144122613Y-62950697D01*
X144068210Y-62906856D01*
X144046145Y-62840562D01*
X144063424Y-62772863D01*
X144114561Y-62725252D01*
X144146700Y-62714939D01*
X144146640Y-62714688D01*
X144149985Y-62713885D01*
X144150681Y-62713661D01*
X144151368Y-62713553D01*
X144375992Y-62640568D01*
X144586433Y-62533343D01*
X144777510Y-62394517D01*
X144944517Y-62227510D01*
X145083343Y-62036433D01*
X145190568Y-61825992D01*
X145263553Y-61601368D01*
X145300500Y-61368097D01*
X145300500Y-61131907D01*
X145294480Y-61093897D01*
X145303436Y-61024604D01*
X145348433Y-60971152D01*
X145415184Y-60950513D01*
X145416954Y-60950500D01*
X148683046Y-60950500D01*
X148750085Y-60970185D01*
G37*
%TD.AperFunction*%
%TA.AperFunction,Conductor*%
G36*
X153306206Y-60557425D02*
G01*
X153333928Y-60562223D01*
X153339283Y-60567137D01*
X153346255Y-60569185D01*
X153364672Y-60590439D01*
X153385404Y-60609467D01*
X153387251Y-60616497D01*
X153392010Y-60621989D01*
X153396013Y-60649833D01*
X153403165Y-60677042D01*
X153401395Y-60687265D01*
X153401954Y-60691147D01*
X153397148Y-60711812D01*
X153391869Y-60728061D01*
X153336446Y-60898631D01*
X153299500Y-61131902D01*
X153299500Y-61368097D01*
X153336446Y-61601368D01*
X153374391Y-61718147D01*
X153397147Y-61788182D01*
X153399142Y-61858022D01*
X153363062Y-61917855D01*
X153300361Y-61948684D01*
X153279216Y-61950500D01*
X151820784Y-61950500D01*
X151753745Y-61930815D01*
X151707990Y-61878011D01*
X151698046Y-61808853D01*
X151702851Y-61788187D01*
X151763553Y-61601368D01*
X151800500Y-61368097D01*
X151800500Y-61131902D01*
X151771768Y-60950500D01*
X151763553Y-60898632D01*
X151722547Y-60772432D01*
X151720553Y-60702595D01*
X151752797Y-60646437D01*
X151813418Y-60585817D01*
X151874742Y-60552333D01*
X151901098Y-60549500D01*
X153279216Y-60549500D01*
X153306206Y-60557425D01*
G37*
%TD.AperFunction*%
%TA.AperFunction,Conductor*%
G36*
X140668387Y-56820185D02*
G01*
X140714142Y-56872989D01*
X140724966Y-56934229D01*
X140724077Y-56945524D01*
X141450000Y-57671446D01*
X142175921Y-56945524D01*
X142175033Y-56934229D01*
X142189397Y-56865852D01*
X142238449Y-56816095D01*
X142298651Y-56800500D01*
X153645500Y-56800500D01*
X153712539Y-56820185D01*
X153758294Y-56872989D01*
X153769500Y-56924500D01*
X153769500Y-58697871D01*
X153769501Y-58697877D01*
X153775908Y-58757484D01*
X153826202Y-58892329D01*
X153826206Y-58892336D01*
X153912452Y-59007545D01*
X153912455Y-59007548D01*
X154027664Y-59093794D01*
X154027671Y-59093798D01*
X154066601Y-59108318D01*
X154122535Y-59150189D01*
X154146952Y-59215653D01*
X154132101Y-59283926D01*
X154082696Y-59333332D01*
X154023268Y-59348500D01*
X152697956Y-59348500D01*
X152630917Y-59328815D01*
X152585162Y-59276011D01*
X152575218Y-59206853D01*
X152576339Y-59200308D01*
X152600500Y-59078844D01*
X152600500Y-58921155D01*
X152600499Y-58921153D01*
X152594766Y-58892332D01*
X152569737Y-58766503D01*
X152553705Y-58727797D01*
X152509397Y-58620827D01*
X152509390Y-58620814D01*
X152421789Y-58489711D01*
X152421786Y-58489707D01*
X152310292Y-58378213D01*
X152310288Y-58378210D01*
X152179185Y-58290609D01*
X152179172Y-58290602D01*
X152033501Y-58230264D01*
X152033489Y-58230261D01*
X151878845Y-58199500D01*
X151878842Y-58199500D01*
X151721158Y-58199500D01*
X151721155Y-58199500D01*
X151566510Y-58230261D01*
X151566498Y-58230264D01*
X151420827Y-58290602D01*
X151420814Y-58290609D01*
X151289711Y-58378210D01*
X151289707Y-58378213D01*
X151178213Y-58489707D01*
X151178210Y-58489711D01*
X151090609Y-58620814D01*
X151090602Y-58620827D01*
X151030264Y-58766498D01*
X151030261Y-58766508D01*
X150999361Y-58921850D01*
X150990596Y-58938605D01*
X150986577Y-58957084D01*
X150967831Y-58982125D01*
X150966976Y-58983761D01*
X150965426Y-58985339D01*
X150887582Y-59063182D01*
X150826262Y-59096666D01*
X150799903Y-59099500D01*
X142222309Y-59099500D01*
X142155270Y-59079815D01*
X142134628Y-59063181D01*
X141391300Y-58319854D01*
X141410504Y-58325000D01*
X141489496Y-58325000D01*
X141565796Y-58304556D01*
X141634205Y-58265060D01*
X141690060Y-58209205D01*
X141729556Y-58140796D01*
X141750000Y-58064496D01*
X141750000Y-58024999D01*
X141803553Y-58024999D01*
X141803553Y-58025001D01*
X142529474Y-58750922D01*
X142529474Y-58750921D01*
X142561859Y-58706349D01*
X142654755Y-58524031D01*
X142717990Y-58329417D01*
X142750000Y-58127317D01*
X142750000Y-57922682D01*
X142717990Y-57720582D01*
X142654755Y-57525968D01*
X142561859Y-57343650D01*
X142529474Y-57299077D01*
X142529474Y-57299076D01*
X141803553Y-58024999D01*
X141750000Y-58024999D01*
X141750000Y-57985504D01*
X141729556Y-57909204D01*
X141690060Y-57840795D01*
X141634205Y-57784940D01*
X141565796Y-57745444D01*
X141489496Y-57725000D01*
X141410504Y-57725000D01*
X141334204Y-57745444D01*
X141265795Y-57784940D01*
X141209940Y-57840795D01*
X141170444Y-57909204D01*
X141150000Y-57985504D01*
X141150000Y-58064496D01*
X141155145Y-58083699D01*
X141132765Y-58061319D01*
X140370524Y-57299077D01*
X140370523Y-57299077D01*
X140338143Y-57343644D01*
X140245244Y-57525968D01*
X140182009Y-57720582D01*
X140150000Y-57922682D01*
X140150000Y-58127317D01*
X140182009Y-58329417D01*
X140245244Y-58524031D01*
X140338140Y-58706349D01*
X140428386Y-58830561D01*
X140451866Y-58896368D01*
X140436041Y-58964422D01*
X140396959Y-59006549D01*
X140289711Y-59078210D01*
X140289707Y-59078213D01*
X140178213Y-59189707D01*
X140178210Y-59189711D01*
X140090609Y-59320814D01*
X140090602Y-59320827D01*
X140030264Y-59466498D01*
X140030262Y-59466504D01*
X140023337Y-59501318D01*
X139990950Y-59563228D01*
X139930233Y-59597800D01*
X139860464Y-59594059D01*
X139814039Y-59564804D01*
X139023816Y-58774581D01*
X138990331Y-58713258D01*
X138995315Y-58643566D01*
X139001006Y-58630619D01*
X139055220Y-58524219D01*
X139118477Y-58329534D01*
X139150500Y-58127352D01*
X139150500Y-57922648D01*
X139119195Y-57725000D01*
X139118477Y-57720465D01*
X139089127Y-57630137D01*
X139055220Y-57525781D01*
X139055218Y-57525778D01*
X139055218Y-57525776D01*
X139003865Y-57424991D01*
X138962287Y-57343390D01*
X138930092Y-57299077D01*
X138841971Y-57177786D01*
X138697217Y-57033032D01*
X138697212Y-57033028D01*
X138685912Y-57024818D01*
X138643246Y-56969488D01*
X138637267Y-56899875D01*
X138669872Y-56838080D01*
X138730711Y-56803723D01*
X138758797Y-56800500D01*
X140601348Y-56800500D01*
X140668387Y-56820185D01*
G37*
%TD.AperFunction*%
%TD*%
%TA.AperFunction,Conductor*%
%TO.N,GND*%
G36*
X188967539Y-56820185D02*
G01*
X189013294Y-56872989D01*
X189024500Y-56924500D01*
X189024500Y-66875500D01*
X189004815Y-66942539D01*
X188952011Y-66988294D01*
X188900500Y-66999500D01*
X184247308Y-66999500D01*
X184180269Y-66979815D01*
X184159627Y-66963181D01*
X183470233Y-66273787D01*
X183512292Y-66262518D01*
X183637708Y-66190110D01*
X183740110Y-66087708D01*
X183812518Y-65962292D01*
X183823787Y-65920234D01*
X184522658Y-66619105D01*
X184522658Y-66619104D01*
X184582914Y-66536169D01*
X184582918Y-66536163D01*
X184690102Y-66325802D01*
X184763065Y-66101247D01*
X184800000Y-65868052D01*
X184800000Y-65631947D01*
X184763065Y-65398752D01*
X184690102Y-65174197D01*
X184582914Y-64963828D01*
X184522658Y-64880894D01*
X184522658Y-64880893D01*
X183823787Y-65579765D01*
X183812518Y-65537708D01*
X183740110Y-65412292D01*
X183637708Y-65309890D01*
X183512292Y-65237482D01*
X183470234Y-65226212D01*
X184169105Y-64527340D01*
X184169104Y-64527338D01*
X184086174Y-64467087D01*
X183875802Y-64359897D01*
X183651247Y-64286934D01*
X183651248Y-64286934D01*
X183418052Y-64250000D01*
X183181948Y-64250000D01*
X182948752Y-64286934D01*
X182724197Y-64359897D01*
X182513830Y-64467084D01*
X182430894Y-64527340D01*
X183129766Y-65226212D01*
X183087708Y-65237482D01*
X182962292Y-65309890D01*
X182859890Y-65412292D01*
X182787482Y-65537708D01*
X182776212Y-65579766D01*
X182077340Y-64880894D01*
X182017084Y-64963830D01*
X181909897Y-65174197D01*
X181836934Y-65398752D01*
X181800000Y-65631947D01*
X181800000Y-65868052D01*
X181836934Y-66101247D01*
X181909897Y-66325802D01*
X182017087Y-66536174D01*
X182077338Y-66619104D01*
X182077340Y-66619105D01*
X182776212Y-65920233D01*
X182787482Y-65962292D01*
X182859890Y-66087708D01*
X182962292Y-66190110D01*
X183087708Y-66262518D01*
X183129766Y-66273787D01*
X182440371Y-66963181D01*
X182379048Y-66996666D01*
X182352690Y-66999500D01*
X177747308Y-66999500D01*
X177680269Y-66979815D01*
X177659627Y-66963181D01*
X176970233Y-66273787D01*
X177012292Y-66262518D01*
X177137708Y-66190110D01*
X177240110Y-66087708D01*
X177312518Y-65962292D01*
X177323787Y-65920233D01*
X178022658Y-66619105D01*
X178022658Y-66619104D01*
X178082914Y-66536169D01*
X178082918Y-66536163D01*
X178190102Y-66325802D01*
X178263065Y-66101247D01*
X178300000Y-65868052D01*
X178300000Y-65631947D01*
X178263065Y-65398752D01*
X178190102Y-65174197D01*
X178082914Y-64963828D01*
X178022658Y-64880894D01*
X178022658Y-64880893D01*
X177323787Y-65579765D01*
X177312518Y-65537708D01*
X177240110Y-65412292D01*
X177137708Y-65309890D01*
X177012292Y-65237482D01*
X176970234Y-65226212D01*
X177669105Y-64527340D01*
X177669104Y-64527339D01*
X177586174Y-64467087D01*
X177375802Y-64359897D01*
X177151247Y-64286934D01*
X177151248Y-64286934D01*
X176918052Y-64250000D01*
X176681948Y-64250000D01*
X176448752Y-64286934D01*
X176224197Y-64359897D01*
X176013830Y-64467084D01*
X175930894Y-64527340D01*
X176629766Y-65226212D01*
X176587708Y-65237482D01*
X176462292Y-65309890D01*
X176359890Y-65412292D01*
X176287482Y-65537708D01*
X176276212Y-65579765D01*
X175577340Y-64880894D01*
X175517084Y-64963830D01*
X175409897Y-65174197D01*
X175336934Y-65398752D01*
X175300000Y-65631947D01*
X175300000Y-65868052D01*
X175336934Y-66101247D01*
X175409897Y-66325802D01*
X175517087Y-66536174D01*
X175577338Y-66619104D01*
X175577340Y-66619105D01*
X176276212Y-65920233D01*
X176287482Y-65962292D01*
X176359890Y-66087708D01*
X176462292Y-66190110D01*
X176587708Y-66262518D01*
X176629766Y-66273787D01*
X175940371Y-66963181D01*
X175879048Y-66996666D01*
X175852690Y-66999500D01*
X173247308Y-66999500D01*
X173180269Y-66979815D01*
X173159627Y-66963181D01*
X172470233Y-66273787D01*
X172512292Y-66262518D01*
X172637708Y-66190110D01*
X172740110Y-66087708D01*
X172812518Y-65962292D01*
X172823787Y-65920233D01*
X173522658Y-66619105D01*
X173522658Y-66619104D01*
X173582914Y-66536169D01*
X173582918Y-66536163D01*
X173690102Y-66325802D01*
X173763065Y-66101247D01*
X173800000Y-65868052D01*
X173800000Y-65631947D01*
X173763065Y-65398752D01*
X173690102Y-65174197D01*
X173582914Y-64963828D01*
X173522658Y-64880894D01*
X173522658Y-64880893D01*
X172823787Y-65579765D01*
X172812518Y-65537708D01*
X172740110Y-65412292D01*
X172637708Y-65309890D01*
X172512292Y-65237482D01*
X172470234Y-65226212D01*
X173169105Y-64527340D01*
X173169104Y-64527339D01*
X173086174Y-64467087D01*
X172875802Y-64359897D01*
X172651247Y-64286934D01*
X172651248Y-64286934D01*
X172418052Y-64250000D01*
X172181948Y-64250000D01*
X171948752Y-64286934D01*
X171724197Y-64359897D01*
X171513830Y-64467084D01*
X171430894Y-64527340D01*
X172129766Y-65226212D01*
X172087708Y-65237482D01*
X171962292Y-65309890D01*
X171859890Y-65412292D01*
X171787482Y-65537708D01*
X171776212Y-65579766D01*
X171077340Y-64880894D01*
X171017084Y-64963830D01*
X170909897Y-65174197D01*
X170836934Y-65398752D01*
X170800000Y-65631947D01*
X170800000Y-65868052D01*
X170836934Y-66101247D01*
X170909897Y-66325802D01*
X171017087Y-66536174D01*
X171077338Y-66619104D01*
X171077340Y-66619105D01*
X171776212Y-65920233D01*
X171787482Y-65962292D01*
X171859890Y-66087708D01*
X171962292Y-66190110D01*
X172087708Y-66262518D01*
X172129766Y-66273787D01*
X171440371Y-66963181D01*
X171379048Y-66996666D01*
X171352690Y-66999500D01*
X166747308Y-66999500D01*
X166680269Y-66979815D01*
X166659627Y-66963181D01*
X165970233Y-66273787D01*
X166012292Y-66262518D01*
X166137708Y-66190110D01*
X166240110Y-66087708D01*
X166312518Y-65962292D01*
X166323787Y-65920233D01*
X167022658Y-66619105D01*
X167022658Y-66619104D01*
X167082914Y-66536169D01*
X167082918Y-66536163D01*
X167190102Y-66325802D01*
X167263065Y-66101247D01*
X167300000Y-65868052D01*
X167300000Y-65631947D01*
X167263065Y-65398752D01*
X167190102Y-65174197D01*
X167082914Y-64963828D01*
X167022658Y-64880894D01*
X167022658Y-64880893D01*
X166323787Y-65579765D01*
X166312518Y-65537708D01*
X166240110Y-65412292D01*
X166137708Y-65309890D01*
X166012292Y-65237482D01*
X165970234Y-65226212D01*
X166669105Y-64527340D01*
X166669104Y-64527339D01*
X166586174Y-64467087D01*
X166375802Y-64359897D01*
X166151247Y-64286934D01*
X166151248Y-64286934D01*
X165918052Y-64250000D01*
X165681948Y-64250000D01*
X165448752Y-64286934D01*
X165351702Y-64318467D01*
X165333760Y-63381902D01*
X185545100Y-63381902D01*
X185545100Y-63618097D01*
X185582046Y-63851368D01*
X185655033Y-64075996D01*
X185743693Y-64250000D01*
X185762257Y-64286433D01*
X185901083Y-64477510D01*
X186068090Y-64644517D01*
X186259167Y-64783343D01*
X186358591Y-64834002D01*
X186469603Y-64890566D01*
X186469605Y-64890566D01*
X186469608Y-64890568D01*
X186590012Y-64929689D01*
X186694231Y-64963553D01*
X186927503Y-65000500D01*
X186927508Y-65000500D01*
X187163697Y-65000500D01*
X187396968Y-64963553D01*
X187621592Y-64890568D01*
X187832033Y-64783343D01*
X188023110Y-64644517D01*
X188190117Y-64477510D01*
X188328943Y-64286433D01*
X188436168Y-64075992D01*
X188509153Y-63851368D01*
X188546100Y-63618097D01*
X188546100Y-63381902D01*
X188509153Y-63148631D01*
X188436166Y-62924003D01*
X188328942Y-62713566D01*
X188328933Y-62713553D01*
X188190117Y-62522490D01*
X188023110Y-62355483D01*
X187832033Y-62216657D01*
X187621596Y-62109433D01*
X187396968Y-62036446D01*
X187163697Y-61999500D01*
X187163692Y-61999500D01*
X186927508Y-61999500D01*
X186927503Y-61999500D01*
X186694231Y-62036446D01*
X186469603Y-62109433D01*
X186259166Y-62216657D01*
X186244226Y-62227512D01*
X186068090Y-62355483D01*
X186068088Y-62355485D01*
X186068087Y-62355485D01*
X185901085Y-62522487D01*
X185901085Y-62522488D01*
X185901083Y-62522490D01*
X185893199Y-62533342D01*
X185762257Y-62713566D01*
X185655033Y-62924003D01*
X185582046Y-63148631D01*
X185545100Y-63381902D01*
X165333760Y-63381902D01*
X165320156Y-62671807D01*
X165344412Y-62679689D01*
X165448631Y-62713553D01*
X165681903Y-62750500D01*
X165681908Y-62750500D01*
X165918097Y-62750500D01*
X166151368Y-62713553D01*
X166375992Y-62640568D01*
X166586433Y-62533343D01*
X166777510Y-62394517D01*
X166944517Y-62227510D01*
X167083343Y-62036433D01*
X167143583Y-61918204D01*
X167191558Y-61867409D01*
X167254068Y-61850500D01*
X170845932Y-61850500D01*
X170912971Y-61870185D01*
X170956416Y-61918203D01*
X171016657Y-62036433D01*
X171155483Y-62227510D01*
X171322490Y-62394517D01*
X171513567Y-62533343D01*
X171612991Y-62584002D01*
X171724003Y-62640566D01*
X171724005Y-62640566D01*
X171724008Y-62640568D01*
X171844412Y-62679689D01*
X171948631Y-62713553D01*
X172181903Y-62750500D01*
X172181908Y-62750500D01*
X172418097Y-62750500D01*
X172651368Y-62713553D01*
X172875992Y-62640568D01*
X173086433Y-62533343D01*
X173277510Y-62394517D01*
X173444517Y-62227510D01*
X173583343Y-62036433D01*
X173690568Y-61825992D01*
X173763553Y-61601368D01*
X173781545Y-61487771D01*
X173800500Y-61368097D01*
X173800500Y-61131902D01*
X175299500Y-61131902D01*
X175299500Y-61368097D01*
X175336446Y-61601368D01*
X175409433Y-61825996D01*
X175472872Y-61950500D01*
X175516657Y-62036433D01*
X175655483Y-62227510D01*
X175822490Y-62394517D01*
X176013567Y-62533343D01*
X176112991Y-62584002D01*
X176224003Y-62640566D01*
X176224005Y-62640566D01*
X176224008Y-62640568D01*
X176344412Y-62679689D01*
X176448631Y-62713553D01*
X176681903Y-62750500D01*
X176681908Y-62750500D01*
X176918097Y-62750500D01*
X177151368Y-62713553D01*
X177375992Y-62640568D01*
X177586433Y-62533343D01*
X177777510Y-62394517D01*
X177944517Y-62227510D01*
X178083343Y-62036433D01*
X178143583Y-61918204D01*
X178191558Y-61867409D01*
X178254068Y-61850500D01*
X181845932Y-61850500D01*
X181912971Y-61870185D01*
X181956416Y-61918203D01*
X182016657Y-62036433D01*
X182155483Y-62227510D01*
X182322490Y-62394517D01*
X182513567Y-62533343D01*
X182612991Y-62584002D01*
X182724003Y-62640566D01*
X182724005Y-62640566D01*
X182724008Y-62640568D01*
X182844412Y-62679689D01*
X182948631Y-62713553D01*
X183181903Y-62750500D01*
X183181908Y-62750500D01*
X183418097Y-62750500D01*
X183651368Y-62713553D01*
X183875992Y-62640568D01*
X184086433Y-62533343D01*
X184277510Y-62394517D01*
X184444517Y-62227510D01*
X184583343Y-62036433D01*
X184690568Y-61825992D01*
X184763553Y-61601368D01*
X184781545Y-61487771D01*
X184800500Y-61368097D01*
X184800500Y-61131902D01*
X184763553Y-60898631D01*
X184708131Y-60728061D01*
X184690568Y-60674008D01*
X184690566Y-60674005D01*
X184690566Y-60674003D01*
X184627128Y-60549500D01*
X184583343Y-60463567D01*
X184444517Y-60272490D01*
X184277510Y-60105483D01*
X184086433Y-59966657D01*
X183875996Y-59859433D01*
X183651368Y-59786446D01*
X183418097Y-59749500D01*
X183418092Y-59749500D01*
X183181908Y-59749500D01*
X183181903Y-59749500D01*
X182948631Y-59786446D01*
X182724003Y-59859433D01*
X182513566Y-59966657D01*
X182429057Y-60028057D01*
X182322490Y-60105483D01*
X182322488Y-60105485D01*
X182322487Y-60105485D01*
X182155485Y-60272487D01*
X182155485Y-60272488D01*
X182155483Y-60272490D01*
X182116672Y-60325909D01*
X182016657Y-60463566D01*
X181956417Y-60581795D01*
X181908442Y-60632591D01*
X181845932Y-60649500D01*
X178254068Y-60649500D01*
X178187029Y-60629815D01*
X178143583Y-60581795D01*
X178127128Y-60549500D01*
X178083343Y-60463567D01*
X177944517Y-60272490D01*
X177777510Y-60105483D01*
X177586433Y-59966657D01*
X177375996Y-59859433D01*
X177151368Y-59786446D01*
X176918097Y-59749500D01*
X176918092Y-59749500D01*
X176681908Y-59749500D01*
X176681903Y-59749500D01*
X176448631Y-59786446D01*
X176224003Y-59859433D01*
X176013566Y-59966657D01*
X175929057Y-60028057D01*
X175822490Y-60105483D01*
X175822488Y-60105485D01*
X175822487Y-60105485D01*
X175655485Y-60272487D01*
X175655485Y-60272488D01*
X175655483Y-60272490D01*
X175616672Y-60325909D01*
X175516657Y-60463566D01*
X175409433Y-60674003D01*
X175336446Y-60898631D01*
X175299500Y-61131902D01*
X173800500Y-61131902D01*
X173763553Y-60898631D01*
X173708131Y-60728061D01*
X173690568Y-60674008D01*
X173690566Y-60674005D01*
X173690566Y-60674003D01*
X173627128Y-60549500D01*
X173583343Y-60463567D01*
X173444517Y-60272490D01*
X173277510Y-60105483D01*
X173086433Y-59966657D01*
X172875996Y-59859433D01*
X172651368Y-59786446D01*
X172418097Y-59749500D01*
X172418092Y-59749500D01*
X172181908Y-59749500D01*
X172181903Y-59749500D01*
X171948631Y-59786446D01*
X171724003Y-59859433D01*
X171513566Y-59966657D01*
X171429057Y-60028057D01*
X171322490Y-60105483D01*
X171322488Y-60105485D01*
X171322487Y-60105485D01*
X171155485Y-60272487D01*
X171155485Y-60272488D01*
X171155483Y-60272490D01*
X171116672Y-60325909D01*
X171016657Y-60463566D01*
X170956417Y-60581795D01*
X170908442Y-60632591D01*
X170845932Y-60649500D01*
X167254068Y-60649500D01*
X167187029Y-60629815D01*
X167143583Y-60581795D01*
X167127128Y-60549500D01*
X167083343Y-60463567D01*
X167083341Y-60463564D01*
X167083340Y-60463562D01*
X167020329Y-60376836D01*
X166996848Y-60311030D01*
X167012673Y-60242976D01*
X167032961Y-60216273D01*
X168115477Y-59133757D01*
X168176798Y-59100274D01*
X168241472Y-59103508D01*
X168283756Y-59117248D01*
X168493712Y-59150502D01*
X168493713Y-59150502D01*
X168706285Y-59150502D01*
X168706286Y-59150502D01*
X168916242Y-59117248D01*
X169118411Y-59051559D01*
X169307815Y-58955053D01*
X169394470Y-58892095D01*
X169479783Y-58830112D01*
X169479785Y-58830110D01*
X169479791Y-58830106D01*
X169593717Y-58716179D01*
X169655036Y-58682697D01*
X169724728Y-58687681D01*
X169780662Y-58729552D01*
X169797577Y-58760530D01*
X169846645Y-58892088D01*
X169846649Y-58892095D01*
X169932809Y-59007189D01*
X169932812Y-59007192D01*
X170047906Y-59093352D01*
X170047913Y-59093356D01*
X170182620Y-59143598D01*
X170182627Y-59143600D01*
X170242155Y-59150001D01*
X170242172Y-59150002D01*
X170890000Y-59150002D01*
X170890000Y-58233014D01*
X170947007Y-58265927D01*
X171074174Y-58300002D01*
X171205826Y-58300002D01*
X171332993Y-58265927D01*
X171390000Y-58233014D01*
X171390000Y-59150002D01*
X172037828Y-59150002D01*
X172037844Y-59150001D01*
X172097372Y-59143600D01*
X172097379Y-59143598D01*
X172232086Y-59093356D01*
X172232093Y-59093352D01*
X172347187Y-59007192D01*
X172347190Y-59007189D01*
X172433350Y-58892095D01*
X172433354Y-58892088D01*
X172483596Y-58757381D01*
X172483598Y-58757374D01*
X172489999Y-58697846D01*
X172490000Y-58697829D01*
X172490000Y-58050002D01*
X171573012Y-58050002D01*
X171605925Y-57992995D01*
X171640000Y-57865828D01*
X171640000Y-57734176D01*
X171605925Y-57607009D01*
X171573012Y-57550002D01*
X172490000Y-57550002D01*
X172490000Y-56924500D01*
X172509685Y-56857461D01*
X172562489Y-56811706D01*
X172614000Y-56800500D01*
X188900500Y-56800500D01*
X188967539Y-56820185D01*
G37*
%TD.AperFunction*%
%TA.AperFunction,Conductor*%
G36*
X165462292Y-66190110D02*
G01*
X165587708Y-66262518D01*
X165629766Y-66273787D01*
X165393686Y-66509866D01*
X165386100Y-66113918D01*
X165462292Y-66190110D01*
G37*
%TD.AperFunction*%
%TA.AperFunction,Conductor*%
G36*
X165629766Y-65226212D02*
G01*
X165587708Y-65237482D01*
X165462292Y-65309890D01*
X165372418Y-65399763D01*
X165364002Y-64960448D01*
X165629766Y-65226212D01*
G37*
%TD.AperFunction*%
%TD*%
M02*
