M48
; DRILL file {KiCad 9.0.7} date 2026-03-05T12:47:01+1100
; FORMAT={-:-/ absolute / metric / decimal}
; #@! TF.CreationDate,2026-03-05T12:47:01+11:00
; #@! TF.GenerationSoftware,Kicad,Pcbnew,9.0.7
; #@! TF.FileFunction,Plated,1,2,PTH
FMAT,2
METRIC
; #@! TA.AperFunction,Plated,PTH,ViaDrill
T1C0.300
; #@! TA.AperFunction,Plated,PTH,ViaDrill
T2C0.600
; #@! TA.AperFunction,Plated,PTH,ComponentDrill
T3C0.600
; #@! TA.AperFunction,Plated,PTH,ComponentDrill
T4C1.000
; #@! TA.AperFunction,Plated,PTH,ComponentDrill
T5C1.100
%
G90
G05
T1
X136.1Y-59.7
X140.8Y-59.7
X147.1Y-61.0
X150.1Y-63.4
X151.8Y-59.0
X152.5Y-61.5
X162.8Y-59.4
X163.7Y-63.3
T2
X142.225Y-62.825
X143.8Y-63.9
X147.075Y-62.452
T3
X116.05Y-58.0
X119.65Y-58.0
X123.25Y-58.0
X130.65Y-58.025
X134.25Y-58.025
X137.85Y-58.025
X141.45Y-58.025
T4
X155.12Y-57.8
X157.66Y-57.8
X160.2Y-57.8
X166.06Y-57.8
X168.6Y-57.8
X171.14Y-57.8
T5
X110.8Y-61.25
X110.8Y-65.75
X117.3Y-61.25
X117.3Y-65.75
X121.8Y-61.25
X121.8Y-65.75
X128.3Y-61.25
X128.3Y-65.75
X143.8Y-61.25
X143.8Y-65.75
X150.3Y-61.25
X150.3Y-65.75
X154.8Y-61.25
X154.8Y-65.75
X161.3Y-61.25
X161.3Y-65.75
X165.8Y-61.25
X165.8Y-65.75
X172.3Y-61.25
X172.3Y-65.75
X176.8Y-61.25
X176.8Y-65.75
X183.3Y-61.25
X183.3Y-65.75
M30
