%TF.GenerationSoftware,KiCad,Pcbnew,9.0.7*%
%TF.CreationDate,2026-03-05T12:47:03+11:00*%
%TF.ProjectId,tactmount,74616374-6d6f-4756-9e74-2e6b69636164,rev?*%
%TF.SameCoordinates,Original*%
%TF.FileFunction,Copper,L2,Bot*%
%TF.FilePolarity,Positive*%
%FSLAX46Y46*%
G04 Gerber Fmt 4.6, Leading zero omitted, Abs format (unit mm)*
G04 Created by KiCad (PCBNEW 9.0.7) date 2026-03-05 12:47:03*
%MOMM*%
%LPD*%
G01*
G04 APERTURE LIST*
G04 Aperture macros list*
%AMRoundRect*
0 Rectangle with rounded corners*
0 $1 Rounding radius*
0 $2 $3 $4 $5 $6 $7 $8 $9 X,Y pos of 4 corners*
0 Add a 4 corners polygon primitive as box body*
4,1,4,$2,$3,$4,$5,$6,$7,$8,$9,$2,$3,0*
0 Add four circle primitives for the rounded corners*
1,1,$1+$1,$2,$3*
1,1,$1+$1,$4,$5*
1,1,$1+$1,$6,$7*
1,1,$1+$1,$8,$9*
0 Add four rect primitives between the rounded corners*
20,1,$1+$1,$2,$3,$4,$5,0*
20,1,$1+$1,$4,$5,$6,$7,0*
20,1,$1+$1,$6,$7,$8,$9,0*
20,1,$1+$1,$8,$9,$2,$3,0*%
G04 Aperture macros list end*
%TA.AperFunction,ComponentPad*%
%ADD10C,2.000000*%
%TD*%
%TA.AperFunction,ComponentPad*%
%ADD11RoundRect,0.250000X-0.550000X-0.550000X0.550000X-0.550000X0.550000X0.550000X-0.550000X0.550000X0*%
%TD*%
%TA.AperFunction,ComponentPad*%
%ADD12C,1.600000*%
%TD*%
%TA.AperFunction,ComponentPad*%
%ADD13R,1.700000X1.700000*%
%TD*%
%TA.AperFunction,ComponentPad*%
%ADD14C,1.700000*%
%TD*%
%TA.AperFunction,SMDPad,CuDef*%
%ADD15RoundRect,0.237500X0.237500X-0.300000X0.237500X0.300000X-0.237500X0.300000X-0.237500X-0.300000X0*%
%TD*%
%TA.AperFunction,SMDPad,CuDef*%
%ADD16RoundRect,0.237500X-0.237500X0.250000X-0.237500X-0.250000X0.237500X-0.250000X0.237500X0.250000X0*%
%TD*%
%TA.AperFunction,SMDPad,CuDef*%
%ADD17RoundRect,0.237500X0.237500X-0.250000X0.237500X0.250000X-0.237500X0.250000X-0.237500X-0.250000X0*%
%TD*%
%TA.AperFunction,ViaPad*%
%ADD18C,0.600000*%
%TD*%
%TA.AperFunction,ViaPad*%
%ADD19C,1.000000*%
%TD*%
%TA.AperFunction,Conductor*%
%ADD20C,0.200000*%
%TD*%
%TA.AperFunction,Conductor*%
%ADD21C,0.300000*%
%TD*%
%TA.AperFunction,Conductor*%
%ADD22C,0.500000*%
%TD*%
%TA.AperFunction,Conductor*%
%ADD23C,1.000000*%
%TD*%
G04 APERTURE END LIST*
D10*
%TO.P,SW5,1,A*%
%TO.N,VOL-*%
X128300000Y-65750000D03*
X121800000Y-65750000D03*
%TO.P,SW5,2,B*%
%TO.N,SGND*%
X128300000Y-61250000D03*
X121800000Y-61250000D03*
%TD*%
D11*
%TO.P,J1,1,Pin_1*%
%TO.N,BT*%
X130650000Y-58025000D03*
D12*
%TO.P,J1,2,Pin_2*%
%TO.N,+3.3V*%
X134250000Y-58025000D03*
%TO.P,J1,3,Pin_3*%
%TO.N,Net-(J1-Pin_3)*%
X137850000Y-58025000D03*
%TO.P,J1,4,Pin_4*%
%TO.N,GND*%
X141450000Y-58025000D03*
%TD*%
D10*
%TO.P,SW1,1,A*%
%TO.N,GND*%
X183300000Y-65750000D03*
X176800000Y-65750000D03*
%TO.P,SW1,2,B*%
%TO.N,Net-(SW1-B)*%
X183300000Y-61250000D03*
X176800000Y-61250000D03*
%TD*%
D11*
%TO.P,J2,1,Pin_1*%
%TO.N,VOL+*%
X116050000Y-58000000D03*
D12*
%TO.P,J2,2,Pin_2*%
%TO.N,SGND*%
X119650000Y-58000000D03*
%TO.P,J2,3,Pin_3*%
%TO.N,VOL-*%
X123250000Y-58000000D03*
%TD*%
D13*
%TO.P,J3,1,Pin_1*%
%TO.N,GND*%
X171140000Y-57800002D03*
D14*
%TO.P,J3,2,Pin_2*%
%TO.N,Net-(J3-Pin_2)*%
X168599999Y-57800002D03*
%TO.P,J3,3,Pin_3*%
%TO.N,BT*%
X166059998Y-57800003D03*
%TD*%
D10*
%TO.P,SW3,1,A*%
%TO.N,GND*%
X161300000Y-65750000D03*
X154800000Y-65750000D03*
%TO.P,SW3,2,B*%
%TO.N,Net-(SW3-B)*%
X161300000Y-61250000D03*
X154800000Y-61250000D03*
%TD*%
%TO.P,SW4,1,A*%
%TO.N,Net-(J3-Pin_2)*%
X150300000Y-65750000D03*
X143800000Y-65750000D03*
%TO.P,SW4,2,B*%
%TO.N,Net-(J4-Pin_2)*%
X150300000Y-61250000D03*
X143800000Y-61250000D03*
%TD*%
%TO.P,SW6,1,A*%
%TO.N,VOL+*%
X117300000Y-65750000D03*
X110800000Y-65750000D03*
%TO.P,SW6,2,B*%
%TO.N,SGND*%
X117300000Y-61250000D03*
X110800000Y-61250000D03*
%TD*%
D13*
%TO.P,J4,1,Pin_1*%
%TO.N,+3.3V*%
X155120000Y-57800001D03*
D14*
%TO.P,J4,2,Pin_2*%
%TO.N,Net-(J4-Pin_2)*%
X157660001Y-57800001D03*
%TO.P,J4,3,Pin_3*%
%TO.N,Net-(J4-Pin_3)*%
X160200000Y-57800000D03*
%TD*%
D10*
%TO.P,SW2,1,A*%
%TO.N,GND*%
X172300000Y-65750000D03*
X165800000Y-65750000D03*
%TO.P,SW2,2,B*%
%TO.N,Net-(SW2-B)*%
X172300000Y-61250000D03*
X165800000Y-61250000D03*
%TD*%
D15*
%TO.P,C1,1*%
%TO.N,Net-(J1-Pin_3)*%
X145900000Y-64512500D03*
%TO.P,C1,2*%
%TO.N,GND*%
X145900000Y-62787500D03*
%TD*%
D16*
%TO.P,R3,1*%
%TO.N,Net-(SW3-B)*%
X158020000Y-62737500D03*
%TO.P,R3,2*%
%TO.N,Net-(J1-Pin_3)*%
X158020000Y-64562500D03*
%TD*%
D17*
%TO.P,R4,1*%
%TO.N,Net-(J1-Pin_3)*%
X148140000Y-64562500D03*
%TO.P,R4,2*%
%TO.N,Net-(J4-Pin_3)*%
X148140000Y-62737500D03*
%TD*%
D16*
%TO.P,R1,1*%
%TO.N,Net-(SW1-B)*%
X180090000Y-62737500D03*
%TO.P,R1,2*%
%TO.N,Net-(J1-Pin_3)*%
X180090000Y-64562500D03*
%TD*%
%TO.P,R2,1*%
%TO.N,Net-(SW2-B)*%
X169120000Y-62737500D03*
%TO.P,R2,2*%
%TO.N,Net-(J1-Pin_3)*%
X169120000Y-64562500D03*
%TD*%
D18*
%TO.N,GND*%
X150100000Y-63400000D03*
X147100000Y-61000000D03*
X163700000Y-63300000D03*
X152500000Y-61500000D03*
D19*
%TO.N,Net-(J1-Pin_3)*%
X142225000Y-62825000D03*
X143800000Y-63900000D03*
D18*
%TO.N,BT*%
X136100000Y-59700000D03*
X151800000Y-59000000D03*
X140800000Y-59700000D03*
X162800000Y-59400000D03*
D19*
%TO.N,Net-(J4-Pin_3)*%
X147074896Y-62452037D03*
%TD*%
D20*
%TO.N,+3.3V*%
X151799999Y-57800001D02*
X148916000Y-60684000D01*
X148507134Y-63626000D02*
X145413892Y-63626000D01*
X155120000Y-57800001D02*
X151799999Y-57800001D01*
X145413892Y-63626000D02*
X144787892Y-63000000D01*
X134250000Y-60650000D02*
X134250000Y-58025000D01*
X143182786Y-63000000D02*
X141081786Y-65101000D01*
X148916000Y-63217134D02*
X148507134Y-63626000D01*
X144787892Y-63000000D02*
X143182786Y-63000000D01*
X141081786Y-65101000D02*
X138701000Y-65101000D01*
X138701000Y-65101000D02*
X134250000Y-60650000D01*
X148916000Y-60684000D02*
X148916000Y-63217134D01*
%TO.N,GND*%
X163400000Y-63600000D02*
X163700000Y-63300000D01*
D21*
X145900000Y-62787500D02*
X145900000Y-61343630D01*
X145900000Y-62787500D02*
X145900000Y-62200000D01*
X145900000Y-62200000D02*
X147100000Y-61000000D01*
D20*
X150100000Y-63400000D02*
X152000000Y-61500000D01*
D21*
X142581370Y-58025000D02*
X141450000Y-58025000D01*
D20*
X154200000Y-63600000D02*
X163400000Y-63600000D01*
D21*
X145900000Y-61343630D02*
X142581370Y-58025000D01*
D20*
X150300000Y-63600000D02*
X150100000Y-63400000D01*
X154200000Y-63600000D02*
X150300000Y-63600000D01*
X152000000Y-61500000D02*
X152500000Y-61500000D01*
D21*
%TO.N,Net-(J1-Pin_3)*%
X137850000Y-58025000D02*
X137850000Y-58550000D01*
D22*
X169120000Y-64562500D02*
X168856500Y-64299000D01*
D20*
X144412500Y-64512500D02*
X143800000Y-63900000D01*
D22*
X157756500Y-64299000D02*
X148403500Y-64299000D01*
X158020000Y-64562500D02*
X157756500Y-64299000D01*
D20*
X142225000Y-62825000D02*
X142184028Y-62825000D01*
X145900000Y-64512500D02*
X144412500Y-64512500D01*
D21*
X148090000Y-64512500D02*
X148140000Y-64562500D01*
D22*
X168856500Y-64299000D02*
X158283500Y-64299000D01*
X180090000Y-64562500D02*
X179826500Y-64299000D01*
X179826500Y-64299000D02*
X169383500Y-64299000D01*
X148403500Y-64299000D02*
X148140000Y-64562500D01*
X145900000Y-64512500D02*
X148090000Y-64512500D01*
X158283500Y-64299000D02*
X158020000Y-64562500D01*
X169383500Y-64299000D02*
X169120000Y-64562500D01*
D21*
X145900000Y-64512500D02*
X145687500Y-64300000D01*
D20*
%TO.N,BT*%
X140800000Y-59700000D02*
X136100000Y-59700000D01*
D21*
X130500000Y-58175000D02*
X130650000Y-58025000D01*
D20*
X162800000Y-59400000D02*
X152200000Y-59400000D01*
D22*
X130650000Y-58550000D02*
X130650000Y-58025000D01*
D20*
X152200000Y-59400000D02*
X151800000Y-59000000D01*
D22*
%TO.N,Net-(SW1-B)*%
X181577500Y-61250000D02*
X180090000Y-62737500D01*
D23*
X176800000Y-61250000D02*
X176800000Y-61272500D01*
X183300000Y-61250000D02*
X183300000Y-61352500D01*
D22*
X183300000Y-61250000D02*
X181577500Y-61250000D01*
D23*
%TO.N,Net-(SW2-B)*%
X165800000Y-61250000D02*
X165807500Y-61250000D01*
D22*
X170607500Y-61250000D02*
X169120000Y-62737500D01*
X172300000Y-61250000D02*
X172300000Y-61382500D01*
X172300000Y-61250000D02*
X170607500Y-61250000D01*
%TO.N,Net-(SW3-B)*%
X159507500Y-61250000D02*
X158020000Y-62737500D01*
X161300000Y-61250000D02*
X159507500Y-61250000D01*
X161300000Y-61250000D02*
X161300000Y-61282500D01*
D21*
%TO.N,Net-(J4-Pin_2)*%
X143850000Y-61250000D02*
X143800000Y-61250000D01*
%TO.N,Net-(J4-Pin_3)*%
X147854537Y-62452037D02*
X148140000Y-62737500D01*
X147074896Y-62452037D02*
X147854537Y-62452037D01*
X148200000Y-62677500D02*
X148140000Y-62737500D01*
%TD*%
M02*
